G04 (created by PCBNEW (2013-07-07 BZR 4022)-stable) date 27.08.2014 22:53:06*
%MOIN*%
G04 Gerber Fmt 3.4, Leading zero omitted, Abs format*
%FSLAX34Y34*%
G01*
G70*
G90*
G04 APERTURE LIST*
%ADD10C,0.00590551*%
%ADD11C,0.011811*%
G04 APERTURE END LIST*
G54D10*
G54D11*
X23500Y-28739D02*
X23500Y-28148D01*
X22331Y-28751D02*
X22668Y-28751D01*
X22500Y-28160D02*
X22500Y-28751D01*
X21556Y-28148D02*
X21443Y-28148D01*
X21387Y-28176D01*
X21331Y-28232D01*
X21303Y-28345D01*
X21303Y-28542D01*
X21331Y-28654D01*
X21387Y-28710D01*
X21443Y-28739D01*
X21556Y-28739D01*
X21612Y-28710D01*
X21668Y-28654D01*
X21696Y-28542D01*
X21696Y-28345D01*
X21668Y-28232D01*
X21612Y-28176D01*
X21556Y-28148D01*
G54D10*
X21887Y-22594D02*
X21872Y-22624D01*
X21872Y-22684D01*
X21887Y-22714D01*
X21917Y-22729D01*
X22037Y-22729D01*
X22067Y-22714D01*
X22082Y-22684D01*
X22082Y-22624D01*
X22067Y-22594D01*
X22037Y-22579D01*
X22007Y-22579D01*
X21977Y-22729D01*
X22082Y-22444D02*
X21872Y-22444D01*
X22052Y-22444D02*
X22067Y-22429D01*
X22082Y-22399D01*
X22082Y-22354D01*
X22067Y-22324D01*
X22037Y-22309D01*
X21872Y-22309D01*
X22082Y-22204D02*
X22082Y-22084D01*
X22187Y-22159D02*
X21917Y-22159D01*
X21887Y-22144D01*
X21872Y-22114D01*
X21872Y-22084D01*
X21872Y-21979D02*
X22082Y-21979D01*
X22022Y-21979D02*
X22052Y-21964D01*
X22067Y-21949D01*
X22082Y-21919D01*
X22082Y-21889D01*
X21872Y-21739D02*
X21887Y-21769D01*
X21902Y-21784D01*
X21932Y-21799D01*
X22022Y-21799D01*
X22052Y-21784D01*
X22067Y-21769D01*
X22082Y-21739D01*
X22082Y-21694D01*
X22067Y-21664D01*
X22052Y-21649D01*
X22022Y-21634D01*
X21932Y-21634D01*
X21902Y-21649D01*
X21887Y-21664D01*
X21872Y-21694D01*
X21872Y-21739D01*
X21887Y-21514D02*
X21872Y-21484D01*
X21872Y-21424D01*
X21887Y-21394D01*
X21917Y-21379D01*
X21932Y-21379D01*
X21962Y-21394D01*
X21977Y-21424D01*
X21977Y-21469D01*
X21992Y-21499D01*
X22022Y-21514D01*
X22037Y-21514D01*
X22067Y-21499D01*
X22082Y-21469D01*
X22082Y-21424D01*
X22067Y-21394D01*
X21887Y-21125D02*
X21872Y-21155D01*
X21872Y-21215D01*
X21887Y-21245D01*
X21917Y-21260D01*
X22037Y-21260D01*
X22067Y-21245D01*
X22082Y-21215D01*
X22082Y-21155D01*
X22067Y-21125D01*
X22037Y-21110D01*
X22007Y-21110D01*
X21977Y-21260D01*
X21872Y-20975D02*
X22082Y-20975D01*
X22022Y-20975D02*
X22052Y-20960D01*
X22067Y-20945D01*
X22082Y-20915D01*
X22082Y-20885D01*
X22082Y-20810D02*
X21872Y-20735D01*
X22082Y-20660D01*
X21902Y-20540D02*
X21887Y-20525D01*
X21872Y-20540D01*
X21887Y-20555D01*
X21902Y-20540D01*
X21872Y-20540D01*
X21872Y-20255D02*
X22187Y-20255D01*
X21887Y-20255D02*
X21872Y-20285D01*
X21872Y-20345D01*
X21887Y-20375D01*
X21902Y-20390D01*
X21932Y-20405D01*
X22022Y-20405D01*
X22052Y-20390D01*
X22067Y-20375D01*
X22082Y-20345D01*
X22082Y-20285D01*
X22067Y-20255D01*
X21887Y-19985D02*
X21872Y-20015D01*
X21872Y-20075D01*
X21887Y-20105D01*
X21917Y-20120D01*
X22037Y-20120D01*
X22067Y-20105D01*
X22082Y-20075D01*
X22082Y-20015D01*
X22067Y-19985D01*
X22037Y-19970D01*
X22007Y-19970D01*
X21977Y-20120D01*
X23622Y-23427D02*
X23772Y-23427D01*
X23772Y-23112D01*
X23562Y-23112D02*
X23382Y-23112D01*
X23472Y-23427D02*
X23472Y-23112D01*
X23307Y-23112D02*
X23112Y-23112D01*
X23217Y-23232D01*
X23172Y-23232D01*
X23142Y-23247D01*
X23127Y-23262D01*
X23112Y-23292D01*
X23112Y-23367D01*
X23127Y-23397D01*
X23142Y-23412D01*
X23172Y-23427D01*
X23262Y-23427D01*
X23292Y-23412D01*
X23307Y-23397D01*
X22917Y-23112D02*
X22887Y-23112D01*
X22857Y-23127D01*
X22842Y-23142D01*
X22827Y-23172D01*
X22812Y-23232D01*
X22812Y-23307D01*
X22827Y-23367D01*
X22842Y-23397D01*
X22857Y-23412D01*
X22887Y-23427D01*
X22917Y-23427D01*
X22947Y-23412D01*
X22962Y-23397D01*
X22977Y-23367D01*
X22992Y-23307D01*
X22992Y-23232D01*
X22977Y-23172D01*
X22962Y-23142D01*
X22947Y-23127D01*
X22917Y-23112D01*
X22542Y-23112D02*
X22602Y-23112D01*
X22632Y-23127D01*
X22647Y-23142D01*
X22677Y-23187D01*
X22692Y-23247D01*
X22692Y-23367D01*
X22677Y-23397D01*
X22662Y-23412D01*
X22632Y-23427D01*
X22572Y-23427D01*
X22542Y-23412D01*
X22527Y-23397D01*
X22512Y-23367D01*
X22512Y-23292D01*
X22527Y-23262D01*
X22542Y-23247D01*
X22572Y-23232D01*
X22632Y-23232D01*
X22662Y-23247D01*
X22677Y-23262D01*
X22692Y-23292D01*
X22317Y-23112D02*
X22287Y-23112D01*
X22257Y-23127D01*
X22242Y-23142D01*
X22227Y-23172D01*
X22212Y-23232D01*
X22212Y-23307D01*
X22227Y-23367D01*
X22242Y-23397D01*
X22257Y-23412D01*
X22287Y-23427D01*
X22317Y-23427D01*
X22347Y-23412D01*
X22362Y-23397D01*
X22377Y-23367D01*
X22392Y-23307D01*
X22392Y-23232D01*
X22377Y-23172D01*
X22362Y-23142D01*
X22347Y-23127D01*
X22317Y-23112D01*
G54D11*
X21258Y-22612D02*
X21258Y-22882D01*
X21258Y-22747D02*
X21731Y-22747D01*
X21663Y-22792D01*
X21618Y-22837D01*
X21596Y-22882D01*
X21731Y-22319D02*
X21731Y-22274D01*
X21708Y-22229D01*
X21686Y-22207D01*
X21641Y-22184D01*
X21551Y-22162D01*
X21438Y-22162D01*
X21348Y-22184D01*
X21303Y-22207D01*
X21281Y-22229D01*
X21258Y-22274D01*
X21258Y-22319D01*
X21281Y-22364D01*
X21303Y-22387D01*
X21348Y-22409D01*
X21438Y-22432D01*
X21551Y-22432D01*
X21641Y-22409D01*
X21686Y-22387D01*
X21708Y-22364D01*
X21731Y-22319D01*
X21731Y-21869D02*
X21731Y-21824D01*
X21708Y-21779D01*
X21686Y-21757D01*
X21641Y-21734D01*
X21551Y-21712D01*
X21438Y-21712D01*
X21348Y-21734D01*
X21303Y-21757D01*
X21281Y-21779D01*
X21258Y-21824D01*
X21258Y-21869D01*
X21281Y-21914D01*
X21303Y-21937D01*
X21348Y-21959D01*
X21438Y-21982D01*
X21551Y-21982D01*
X21641Y-21959D01*
X21686Y-21937D01*
X21708Y-21914D01*
X21731Y-21869D01*
X21258Y-21150D02*
X21573Y-21150D01*
X21528Y-21150D02*
X21551Y-21127D01*
X21573Y-21082D01*
X21573Y-21015D01*
X21551Y-20970D01*
X21506Y-20947D01*
X21258Y-20947D01*
X21506Y-20947D02*
X21551Y-20925D01*
X21573Y-20880D01*
X21573Y-20812D01*
X21551Y-20767D01*
X21506Y-20745D01*
X21258Y-20745D01*
X21393Y-20542D02*
X21393Y-20317D01*
X21258Y-20587D02*
X21731Y-20430D01*
X21258Y-20272D01*
X23382Y-22416D02*
X23382Y-21758D01*
X22977Y-22112D01*
X22977Y-21960D01*
X22927Y-21859D01*
X22876Y-21808D01*
X22775Y-21758D01*
X22522Y-21758D01*
X22420Y-21808D01*
X22370Y-21859D01*
X22319Y-21960D01*
X22319Y-22264D01*
X22370Y-22365D01*
X22420Y-22416D01*
X23382Y-21454D02*
X22319Y-21100D01*
X23382Y-20745D01*
X23382Y-20492D02*
X23382Y-19834D01*
X22977Y-20188D01*
X22977Y-20037D01*
X22927Y-19935D01*
X22876Y-19885D01*
X22775Y-19834D01*
X22522Y-19834D01*
X22420Y-19885D01*
X22370Y-19935D01*
X22319Y-20037D01*
X22319Y-20340D01*
X22370Y-20441D01*
X22420Y-20492D01*
M02*
