G04 (created by PCBNEW (2013-07-07 BZR 4022)-stable) date 27.08.2014 22:53:06*
%MOIN*%
G04 Gerber Fmt 3.4, Leading zero omitted, Abs format*
%FSLAX34Y34*%
G01*
G70*
G90*
G04 APERTURE LIST*
%ADD10C,0.00590551*%
%ADD11R,0.05X0.1*%
%ADD12R,0.055X0.035*%
%ADD13R,0.025X0.045*%
%ADD14R,0.045X0.025*%
%ADD15R,0.06X0.06*%
%ADD16C,0.06*%
%ADD17R,0.052X0.0158*%
%ADD18R,0.0709X0.0866*%
%ADD19R,0.0866X0.0709*%
%ADD20C,0.035*%
%ADD21C,0.015748*%
%ADD22C,0.00606299*%
G04 APERTURE END LIST*
G54D10*
G54D11*
X21400Y-22300D03*
X22600Y-22300D03*
G54D12*
X23450Y-21525D03*
X23450Y-22275D03*
G54D13*
X22050Y-21400D03*
X22650Y-21400D03*
G54D14*
X21550Y-20150D03*
X21550Y-20750D03*
G54D15*
X21500Y-27500D03*
G54D16*
X22500Y-27500D03*
X23500Y-27500D03*
G54D17*
X23500Y-20750D03*
X23500Y-20494D03*
X23500Y-20238D03*
X23500Y-19982D03*
X22437Y-19982D03*
X22437Y-20238D03*
X22437Y-20494D03*
X22437Y-20750D03*
G54D18*
X23190Y-23700D03*
X21610Y-23700D03*
G54D19*
X23300Y-24910D03*
X23300Y-26490D03*
X21700Y-24910D03*
X21700Y-26490D03*
G54D20*
X23300Y-25700D03*
X23400Y-22850D03*
X21950Y-19750D03*
X23450Y-21100D03*
X21950Y-22950D03*
X21700Y-25650D03*
X21400Y-19700D03*
X21400Y-21450D03*
G54D21*
X23300Y-26490D02*
X23300Y-25700D01*
X23190Y-23700D02*
X23190Y-23060D01*
X23190Y-23060D02*
X23400Y-22850D01*
X23500Y-27500D02*
X23500Y-27200D01*
X23300Y-27000D02*
X23300Y-26490D01*
X23500Y-27200D02*
X23300Y-27000D01*
X22437Y-19982D02*
X22182Y-19982D01*
X22182Y-19982D02*
X21950Y-19750D01*
X23450Y-21100D02*
X23450Y-20800D01*
X23450Y-21525D02*
X23450Y-21100D01*
X23450Y-20800D02*
X23500Y-20750D01*
X21700Y-26490D02*
X21700Y-25650D01*
X21610Y-23290D02*
X21610Y-23700D01*
X21950Y-22950D02*
X21610Y-23290D01*
X21400Y-22300D02*
X21400Y-23490D01*
X21400Y-23490D02*
X21610Y-23700D01*
X21500Y-27500D02*
X21500Y-27150D01*
X21700Y-26950D02*
X21700Y-26490D01*
X21500Y-27150D02*
X21700Y-26950D01*
X21400Y-22300D02*
X21400Y-21450D01*
X21550Y-19850D02*
X21550Y-20150D01*
X21400Y-19700D02*
X21550Y-19850D01*
X22437Y-20238D02*
X22038Y-20238D01*
X21950Y-20150D02*
X21550Y-20150D01*
X22038Y-20238D02*
X21950Y-20150D01*
X22050Y-21400D02*
X22050Y-20900D01*
X22200Y-20750D02*
X22437Y-20750D01*
X22050Y-20900D02*
X22200Y-20750D01*
X22437Y-20494D02*
X22056Y-20494D01*
X21800Y-20750D02*
X21550Y-20750D01*
X22056Y-20494D02*
X21800Y-20750D01*
G54D10*
G36*
X23889Y-28889D02*
X21110Y-28889D01*
X21110Y-27821D01*
X21122Y-27851D01*
X21148Y-27877D01*
X21181Y-27890D01*
X21218Y-27890D01*
X21818Y-27890D01*
X21851Y-27877D01*
X21877Y-27851D01*
X21890Y-27818D01*
X21890Y-27781D01*
X21890Y-27181D01*
X21877Y-27148D01*
X21851Y-27122D01*
X21818Y-27109D01*
X21781Y-27109D01*
X21780Y-27109D01*
X21819Y-27069D01*
X21856Y-27014D01*
X21869Y-26950D01*
X21869Y-26935D01*
X22151Y-26935D01*
X22184Y-26921D01*
X22210Y-26896D01*
X22223Y-26862D01*
X22223Y-26826D01*
X22223Y-26117D01*
X22210Y-26084D01*
X22184Y-26058D01*
X22151Y-26044D01*
X22114Y-26044D01*
X21869Y-26044D01*
X21869Y-25856D01*
X21925Y-25800D01*
X21965Y-25703D01*
X21965Y-25597D01*
X21925Y-25499D01*
X21850Y-25424D01*
X21753Y-25384D01*
X21647Y-25384D01*
X21549Y-25424D01*
X21474Y-25499D01*
X21434Y-25596D01*
X21434Y-25702D01*
X21474Y-25800D01*
X21530Y-25856D01*
X21530Y-26044D01*
X21248Y-26044D01*
X21215Y-26058D01*
X21189Y-26083D01*
X21176Y-26117D01*
X21176Y-26153D01*
X21176Y-26862D01*
X21189Y-26895D01*
X21215Y-26921D01*
X21248Y-26935D01*
X21285Y-26935D01*
X21474Y-26935D01*
X21380Y-27030D01*
X21343Y-27085D01*
X21338Y-27109D01*
X21181Y-27109D01*
X21148Y-27122D01*
X21122Y-27148D01*
X21110Y-27178D01*
X21110Y-22882D01*
X21131Y-22890D01*
X21168Y-22890D01*
X21230Y-22890D01*
X21230Y-23179D01*
X21204Y-23189D01*
X21178Y-23215D01*
X21164Y-23248D01*
X21164Y-23285D01*
X21164Y-24151D01*
X21178Y-24184D01*
X21203Y-24210D01*
X21237Y-24223D01*
X21273Y-24223D01*
X21982Y-24223D01*
X22015Y-24210D01*
X22041Y-24184D01*
X22055Y-24151D01*
X22055Y-24114D01*
X22055Y-23248D01*
X22041Y-23215D01*
X22030Y-23204D01*
X22100Y-23175D01*
X22175Y-23100D01*
X22215Y-23003D01*
X22215Y-22897D01*
X22175Y-22799D01*
X22100Y-22724D01*
X22003Y-22684D01*
X21897Y-22684D01*
X21799Y-22724D01*
X21740Y-22782D01*
X21740Y-22781D01*
X21740Y-21781D01*
X21727Y-21748D01*
X21701Y-21722D01*
X21668Y-21709D01*
X21631Y-21709D01*
X21569Y-21709D01*
X21569Y-21656D01*
X21625Y-21600D01*
X21665Y-21503D01*
X21665Y-21397D01*
X21625Y-21299D01*
X21550Y-21224D01*
X21453Y-21184D01*
X21347Y-21184D01*
X21249Y-21224D01*
X21174Y-21299D01*
X21134Y-21396D01*
X21134Y-21502D01*
X21174Y-21600D01*
X21230Y-21656D01*
X21230Y-21709D01*
X21131Y-21709D01*
X21110Y-21717D01*
X21110Y-19510D01*
X21213Y-19510D01*
X21174Y-19549D01*
X21134Y-19646D01*
X21134Y-19752D01*
X21174Y-19850D01*
X21249Y-19925D01*
X21288Y-19941D01*
X21273Y-19947D01*
X21247Y-19973D01*
X21234Y-20006D01*
X21234Y-20043D01*
X21234Y-20293D01*
X21247Y-20326D01*
X21273Y-20352D01*
X21306Y-20365D01*
X21343Y-20365D01*
X21793Y-20365D01*
X21826Y-20352D01*
X21852Y-20326D01*
X21854Y-20319D01*
X21879Y-20319D01*
X21918Y-20357D01*
X21939Y-20372D01*
X21936Y-20374D01*
X21775Y-20534D01*
X21756Y-20534D01*
X21306Y-20534D01*
X21273Y-20547D01*
X21247Y-20573D01*
X21234Y-20606D01*
X21234Y-20643D01*
X21234Y-20893D01*
X21247Y-20926D01*
X21273Y-20952D01*
X21306Y-20965D01*
X21343Y-20965D01*
X21793Y-20965D01*
X21826Y-20952D01*
X21852Y-20926D01*
X21859Y-20907D01*
X21859Y-20907D01*
X21864Y-20906D01*
X21864Y-20906D01*
X21881Y-20895D01*
X21880Y-20900D01*
X21880Y-21095D01*
X21873Y-21097D01*
X21847Y-21123D01*
X21834Y-21156D01*
X21834Y-21193D01*
X21834Y-21643D01*
X21847Y-21676D01*
X21873Y-21702D01*
X21906Y-21715D01*
X21943Y-21715D01*
X22193Y-21715D01*
X22226Y-21702D01*
X22252Y-21676D01*
X22265Y-21643D01*
X22265Y-21606D01*
X22265Y-21156D01*
X22252Y-21123D01*
X22226Y-21097D01*
X22219Y-21095D01*
X22219Y-20970D01*
X22270Y-20919D01*
X22715Y-20919D01*
X22748Y-20906D01*
X22774Y-20880D01*
X22787Y-20847D01*
X22787Y-20810D01*
X22787Y-20652D01*
X22775Y-20621D01*
X22787Y-20591D01*
X22787Y-20554D01*
X22787Y-20396D01*
X22775Y-20365D01*
X22787Y-20335D01*
X22787Y-20298D01*
X22787Y-20140D01*
X22775Y-20109D01*
X22787Y-20079D01*
X22787Y-20042D01*
X22787Y-19884D01*
X22774Y-19851D01*
X22748Y-19825D01*
X22715Y-19812D01*
X22678Y-19812D01*
X22252Y-19812D01*
X22215Y-19775D01*
X22215Y-19697D01*
X22175Y-19599D01*
X22100Y-19524D01*
X22067Y-19510D01*
X23889Y-19510D01*
X23889Y-27418D01*
X23850Y-27325D01*
X23850Y-20810D01*
X23850Y-20652D01*
X23837Y-20619D01*
X23811Y-20593D01*
X23778Y-20580D01*
X23741Y-20580D01*
X23221Y-20580D01*
X23188Y-20593D01*
X23162Y-20619D01*
X23149Y-20652D01*
X23149Y-20689D01*
X23149Y-20847D01*
X23162Y-20880D01*
X23188Y-20906D01*
X23221Y-20919D01*
X23253Y-20919D01*
X23224Y-20949D01*
X23184Y-21046D01*
X23184Y-21152D01*
X23224Y-21250D01*
X23232Y-21259D01*
X23156Y-21259D01*
X23123Y-21272D01*
X23097Y-21298D01*
X23084Y-21331D01*
X23084Y-21368D01*
X23084Y-21718D01*
X23097Y-21751D01*
X23123Y-21777D01*
X23156Y-21790D01*
X23193Y-21790D01*
X23743Y-21790D01*
X23776Y-21777D01*
X23802Y-21751D01*
X23815Y-21718D01*
X23815Y-21681D01*
X23815Y-21331D01*
X23802Y-21298D01*
X23776Y-21272D01*
X23743Y-21259D01*
X23706Y-21259D01*
X23667Y-21259D01*
X23675Y-21250D01*
X23715Y-21153D01*
X23715Y-21047D01*
X23675Y-20949D01*
X23646Y-20919D01*
X23778Y-20919D01*
X23811Y-20906D01*
X23837Y-20880D01*
X23850Y-20847D01*
X23850Y-20810D01*
X23850Y-27325D01*
X23831Y-27278D01*
X23721Y-27168D01*
X23658Y-27142D01*
X23656Y-27135D01*
X23619Y-27080D01*
X23475Y-26935D01*
X23751Y-26935D01*
X23784Y-26921D01*
X23810Y-26896D01*
X23823Y-26862D01*
X23823Y-26826D01*
X23823Y-26117D01*
X23810Y-26084D01*
X23784Y-26058D01*
X23751Y-26044D01*
X23714Y-26044D01*
X23665Y-26044D01*
X23665Y-22797D01*
X23625Y-22699D01*
X23550Y-22624D01*
X23453Y-22584D01*
X23347Y-22584D01*
X23249Y-22624D01*
X23174Y-22699D01*
X23134Y-22796D01*
X23134Y-22875D01*
X23070Y-22940D01*
X23033Y-22995D01*
X23020Y-23060D01*
X23020Y-23176D01*
X22817Y-23176D01*
X22784Y-23189D01*
X22758Y-23215D01*
X22744Y-23248D01*
X22744Y-23285D01*
X22744Y-24151D01*
X22758Y-24184D01*
X22783Y-24210D01*
X22817Y-24223D01*
X22853Y-24223D01*
X23562Y-24223D01*
X23595Y-24210D01*
X23621Y-24184D01*
X23635Y-24151D01*
X23635Y-24114D01*
X23635Y-23248D01*
X23621Y-23215D01*
X23596Y-23189D01*
X23562Y-23176D01*
X23526Y-23176D01*
X23359Y-23176D01*
X23359Y-23130D01*
X23374Y-23115D01*
X23452Y-23115D01*
X23550Y-23075D01*
X23625Y-23000D01*
X23665Y-22903D01*
X23665Y-22797D01*
X23665Y-26044D01*
X23469Y-26044D01*
X23469Y-25906D01*
X23525Y-25850D01*
X23565Y-25753D01*
X23565Y-25647D01*
X23525Y-25549D01*
X23450Y-25474D01*
X23353Y-25434D01*
X23247Y-25434D01*
X23149Y-25474D01*
X23074Y-25549D01*
X23034Y-25646D01*
X23034Y-25752D01*
X23074Y-25850D01*
X23130Y-25906D01*
X23130Y-26044D01*
X22848Y-26044D01*
X22815Y-26058D01*
X22789Y-26083D01*
X22776Y-26117D01*
X22776Y-26153D01*
X22776Y-26862D01*
X22789Y-26895D01*
X22815Y-26921D01*
X22848Y-26935D01*
X22885Y-26935D01*
X23130Y-26935D01*
X23130Y-27000D01*
X23143Y-27064D01*
X23180Y-27119D01*
X23253Y-27193D01*
X23168Y-27278D01*
X23109Y-27421D01*
X23108Y-27577D01*
X23168Y-27721D01*
X23278Y-27831D01*
X23421Y-27890D01*
X23577Y-27891D01*
X23721Y-27831D01*
X23831Y-27721D01*
X23889Y-27581D01*
X23889Y-28889D01*
X23889Y-28889D01*
G37*
G54D22*
X23889Y-28889D02*
X21110Y-28889D01*
X21110Y-27821D01*
X21122Y-27851D01*
X21148Y-27877D01*
X21181Y-27890D01*
X21218Y-27890D01*
X21818Y-27890D01*
X21851Y-27877D01*
X21877Y-27851D01*
X21890Y-27818D01*
X21890Y-27781D01*
X21890Y-27181D01*
X21877Y-27148D01*
X21851Y-27122D01*
X21818Y-27109D01*
X21781Y-27109D01*
X21780Y-27109D01*
X21819Y-27069D01*
X21856Y-27014D01*
X21869Y-26950D01*
X21869Y-26935D01*
X22151Y-26935D01*
X22184Y-26921D01*
X22210Y-26896D01*
X22223Y-26862D01*
X22223Y-26826D01*
X22223Y-26117D01*
X22210Y-26084D01*
X22184Y-26058D01*
X22151Y-26044D01*
X22114Y-26044D01*
X21869Y-26044D01*
X21869Y-25856D01*
X21925Y-25800D01*
X21965Y-25703D01*
X21965Y-25597D01*
X21925Y-25499D01*
X21850Y-25424D01*
X21753Y-25384D01*
X21647Y-25384D01*
X21549Y-25424D01*
X21474Y-25499D01*
X21434Y-25596D01*
X21434Y-25702D01*
X21474Y-25800D01*
X21530Y-25856D01*
X21530Y-26044D01*
X21248Y-26044D01*
X21215Y-26058D01*
X21189Y-26083D01*
X21176Y-26117D01*
X21176Y-26153D01*
X21176Y-26862D01*
X21189Y-26895D01*
X21215Y-26921D01*
X21248Y-26935D01*
X21285Y-26935D01*
X21474Y-26935D01*
X21380Y-27030D01*
X21343Y-27085D01*
X21338Y-27109D01*
X21181Y-27109D01*
X21148Y-27122D01*
X21122Y-27148D01*
X21110Y-27178D01*
X21110Y-22882D01*
X21131Y-22890D01*
X21168Y-22890D01*
X21230Y-22890D01*
X21230Y-23179D01*
X21204Y-23189D01*
X21178Y-23215D01*
X21164Y-23248D01*
X21164Y-23285D01*
X21164Y-24151D01*
X21178Y-24184D01*
X21203Y-24210D01*
X21237Y-24223D01*
X21273Y-24223D01*
X21982Y-24223D01*
X22015Y-24210D01*
X22041Y-24184D01*
X22055Y-24151D01*
X22055Y-24114D01*
X22055Y-23248D01*
X22041Y-23215D01*
X22030Y-23204D01*
X22100Y-23175D01*
X22175Y-23100D01*
X22215Y-23003D01*
X22215Y-22897D01*
X22175Y-22799D01*
X22100Y-22724D01*
X22003Y-22684D01*
X21897Y-22684D01*
X21799Y-22724D01*
X21740Y-22782D01*
X21740Y-22781D01*
X21740Y-21781D01*
X21727Y-21748D01*
X21701Y-21722D01*
X21668Y-21709D01*
X21631Y-21709D01*
X21569Y-21709D01*
X21569Y-21656D01*
X21625Y-21600D01*
X21665Y-21503D01*
X21665Y-21397D01*
X21625Y-21299D01*
X21550Y-21224D01*
X21453Y-21184D01*
X21347Y-21184D01*
X21249Y-21224D01*
X21174Y-21299D01*
X21134Y-21396D01*
X21134Y-21502D01*
X21174Y-21600D01*
X21230Y-21656D01*
X21230Y-21709D01*
X21131Y-21709D01*
X21110Y-21717D01*
X21110Y-19510D01*
X21213Y-19510D01*
X21174Y-19549D01*
X21134Y-19646D01*
X21134Y-19752D01*
X21174Y-19850D01*
X21249Y-19925D01*
X21288Y-19941D01*
X21273Y-19947D01*
X21247Y-19973D01*
X21234Y-20006D01*
X21234Y-20043D01*
X21234Y-20293D01*
X21247Y-20326D01*
X21273Y-20352D01*
X21306Y-20365D01*
X21343Y-20365D01*
X21793Y-20365D01*
X21826Y-20352D01*
X21852Y-20326D01*
X21854Y-20319D01*
X21879Y-20319D01*
X21918Y-20357D01*
X21939Y-20372D01*
X21936Y-20374D01*
X21775Y-20534D01*
X21756Y-20534D01*
X21306Y-20534D01*
X21273Y-20547D01*
X21247Y-20573D01*
X21234Y-20606D01*
X21234Y-20643D01*
X21234Y-20893D01*
X21247Y-20926D01*
X21273Y-20952D01*
X21306Y-20965D01*
X21343Y-20965D01*
X21793Y-20965D01*
X21826Y-20952D01*
X21852Y-20926D01*
X21859Y-20907D01*
X21859Y-20907D01*
X21864Y-20906D01*
X21864Y-20906D01*
X21881Y-20895D01*
X21880Y-20900D01*
X21880Y-21095D01*
X21873Y-21097D01*
X21847Y-21123D01*
X21834Y-21156D01*
X21834Y-21193D01*
X21834Y-21643D01*
X21847Y-21676D01*
X21873Y-21702D01*
X21906Y-21715D01*
X21943Y-21715D01*
X22193Y-21715D01*
X22226Y-21702D01*
X22252Y-21676D01*
X22265Y-21643D01*
X22265Y-21606D01*
X22265Y-21156D01*
X22252Y-21123D01*
X22226Y-21097D01*
X22219Y-21095D01*
X22219Y-20970D01*
X22270Y-20919D01*
X22715Y-20919D01*
X22748Y-20906D01*
X22774Y-20880D01*
X22787Y-20847D01*
X22787Y-20810D01*
X22787Y-20652D01*
X22775Y-20621D01*
X22787Y-20591D01*
X22787Y-20554D01*
X22787Y-20396D01*
X22775Y-20365D01*
X22787Y-20335D01*
X22787Y-20298D01*
X22787Y-20140D01*
X22775Y-20109D01*
X22787Y-20079D01*
X22787Y-20042D01*
X22787Y-19884D01*
X22774Y-19851D01*
X22748Y-19825D01*
X22715Y-19812D01*
X22678Y-19812D01*
X22252Y-19812D01*
X22215Y-19775D01*
X22215Y-19697D01*
X22175Y-19599D01*
X22100Y-19524D01*
X22067Y-19510D01*
X23889Y-19510D01*
X23889Y-27418D01*
X23850Y-27325D01*
X23850Y-20810D01*
X23850Y-20652D01*
X23837Y-20619D01*
X23811Y-20593D01*
X23778Y-20580D01*
X23741Y-20580D01*
X23221Y-20580D01*
X23188Y-20593D01*
X23162Y-20619D01*
X23149Y-20652D01*
X23149Y-20689D01*
X23149Y-20847D01*
X23162Y-20880D01*
X23188Y-20906D01*
X23221Y-20919D01*
X23253Y-20919D01*
X23224Y-20949D01*
X23184Y-21046D01*
X23184Y-21152D01*
X23224Y-21250D01*
X23232Y-21259D01*
X23156Y-21259D01*
X23123Y-21272D01*
X23097Y-21298D01*
X23084Y-21331D01*
X23084Y-21368D01*
X23084Y-21718D01*
X23097Y-21751D01*
X23123Y-21777D01*
X23156Y-21790D01*
X23193Y-21790D01*
X23743Y-21790D01*
X23776Y-21777D01*
X23802Y-21751D01*
X23815Y-21718D01*
X23815Y-21681D01*
X23815Y-21331D01*
X23802Y-21298D01*
X23776Y-21272D01*
X23743Y-21259D01*
X23706Y-21259D01*
X23667Y-21259D01*
X23675Y-21250D01*
X23715Y-21153D01*
X23715Y-21047D01*
X23675Y-20949D01*
X23646Y-20919D01*
X23778Y-20919D01*
X23811Y-20906D01*
X23837Y-20880D01*
X23850Y-20847D01*
X23850Y-20810D01*
X23850Y-27325D01*
X23831Y-27278D01*
X23721Y-27168D01*
X23658Y-27142D01*
X23656Y-27135D01*
X23619Y-27080D01*
X23475Y-26935D01*
X23751Y-26935D01*
X23784Y-26921D01*
X23810Y-26896D01*
X23823Y-26862D01*
X23823Y-26826D01*
X23823Y-26117D01*
X23810Y-26084D01*
X23784Y-26058D01*
X23751Y-26044D01*
X23714Y-26044D01*
X23665Y-26044D01*
X23665Y-22797D01*
X23625Y-22699D01*
X23550Y-22624D01*
X23453Y-22584D01*
X23347Y-22584D01*
X23249Y-22624D01*
X23174Y-22699D01*
X23134Y-22796D01*
X23134Y-22875D01*
X23070Y-22940D01*
X23033Y-22995D01*
X23020Y-23060D01*
X23020Y-23176D01*
X22817Y-23176D01*
X22784Y-23189D01*
X22758Y-23215D01*
X22744Y-23248D01*
X22744Y-23285D01*
X22744Y-24151D01*
X22758Y-24184D01*
X22783Y-24210D01*
X22817Y-24223D01*
X22853Y-24223D01*
X23562Y-24223D01*
X23595Y-24210D01*
X23621Y-24184D01*
X23635Y-24151D01*
X23635Y-24114D01*
X23635Y-23248D01*
X23621Y-23215D01*
X23596Y-23189D01*
X23562Y-23176D01*
X23526Y-23176D01*
X23359Y-23176D01*
X23359Y-23130D01*
X23374Y-23115D01*
X23452Y-23115D01*
X23550Y-23075D01*
X23625Y-23000D01*
X23665Y-22903D01*
X23665Y-22797D01*
X23665Y-26044D01*
X23469Y-26044D01*
X23469Y-25906D01*
X23525Y-25850D01*
X23565Y-25753D01*
X23565Y-25647D01*
X23525Y-25549D01*
X23450Y-25474D01*
X23353Y-25434D01*
X23247Y-25434D01*
X23149Y-25474D01*
X23074Y-25549D01*
X23034Y-25646D01*
X23034Y-25752D01*
X23074Y-25850D01*
X23130Y-25906D01*
X23130Y-26044D01*
X22848Y-26044D01*
X22815Y-26058D01*
X22789Y-26083D01*
X22776Y-26117D01*
X22776Y-26153D01*
X22776Y-26862D01*
X22789Y-26895D01*
X22815Y-26921D01*
X22848Y-26935D01*
X22885Y-26935D01*
X23130Y-26935D01*
X23130Y-27000D01*
X23143Y-27064D01*
X23180Y-27119D01*
X23253Y-27193D01*
X23168Y-27278D01*
X23109Y-27421D01*
X23108Y-27577D01*
X23168Y-27721D01*
X23278Y-27831D01*
X23421Y-27890D01*
X23577Y-27891D01*
X23721Y-27831D01*
X23831Y-27721D01*
X23889Y-27581D01*
X23889Y-28889D01*
M02*
