G04 (created by PCBNEW (2013-07-07 BZR 4022)-stable) date 27.08.2014 22:53:06*
%MOIN*%
G04 Gerber Fmt 3.4, Leading zero omitted, Abs format*
%FSLAX34Y34*%
G01*
G70*
G90*
G04 APERTURE LIST*
%ADD10C,0.00590551*%
%ADD11R,0.06X0.06*%
%ADD12C,0.06*%
%ADD13C,0.035*%
%ADD14C,0.015748*%
%ADD15C,0.00606299*%
G04 APERTURE END LIST*
G54D10*
G54D11*
X21500Y-27500D03*
G54D12*
X22500Y-27500D03*
X23500Y-27500D03*
G54D13*
X23300Y-25700D03*
X23400Y-22850D03*
X21950Y-19750D03*
X23450Y-21100D03*
X21950Y-22950D03*
X21700Y-25650D03*
X21400Y-19700D03*
X21400Y-21450D03*
G54D14*
X21950Y-23100D02*
X21950Y-22950D01*
X21700Y-23350D02*
X21950Y-23100D01*
X21700Y-25650D02*
X21700Y-23350D01*
X21400Y-21450D02*
X21400Y-19700D01*
G54D10*
G36*
X23889Y-28889D02*
X22891Y-28889D01*
X22891Y-27422D01*
X22831Y-27278D01*
X22721Y-27168D01*
X22578Y-27109D01*
X22422Y-27108D01*
X22278Y-27168D01*
X22215Y-27231D01*
X22215Y-22897D01*
X22175Y-22799D01*
X22100Y-22724D01*
X22003Y-22684D01*
X21897Y-22684D01*
X21799Y-22724D01*
X21724Y-22799D01*
X21684Y-22896D01*
X21684Y-23002D01*
X21720Y-23089D01*
X21580Y-23230D01*
X21543Y-23285D01*
X21530Y-23350D01*
X21530Y-25443D01*
X21474Y-25499D01*
X21434Y-25596D01*
X21434Y-25702D01*
X21474Y-25800D01*
X21549Y-25875D01*
X21646Y-25915D01*
X21752Y-25915D01*
X21850Y-25875D01*
X21925Y-25800D01*
X21965Y-25703D01*
X21965Y-25597D01*
X21925Y-25499D01*
X21869Y-25443D01*
X21869Y-23420D01*
X22069Y-23219D01*
X22099Y-23176D01*
X22100Y-23175D01*
X22175Y-23100D01*
X22215Y-23003D01*
X22215Y-22897D01*
X22215Y-27231D01*
X22168Y-27278D01*
X22109Y-27421D01*
X22108Y-27577D01*
X22168Y-27721D01*
X22278Y-27831D01*
X22421Y-27890D01*
X22577Y-27891D01*
X22721Y-27831D01*
X22831Y-27721D01*
X22890Y-27578D01*
X22891Y-27422D01*
X22891Y-28889D01*
X21110Y-28889D01*
X21110Y-27821D01*
X21122Y-27851D01*
X21148Y-27877D01*
X21181Y-27890D01*
X21218Y-27890D01*
X21818Y-27890D01*
X21851Y-27877D01*
X21877Y-27851D01*
X21890Y-27818D01*
X21890Y-27781D01*
X21890Y-27181D01*
X21877Y-27148D01*
X21851Y-27122D01*
X21818Y-27109D01*
X21781Y-27109D01*
X21181Y-27109D01*
X21148Y-27122D01*
X21122Y-27148D01*
X21110Y-27178D01*
X21110Y-19510D01*
X21213Y-19510D01*
X21174Y-19549D01*
X21134Y-19646D01*
X21134Y-19752D01*
X21174Y-19850D01*
X21230Y-19906D01*
X21230Y-21243D01*
X21174Y-21299D01*
X21134Y-21396D01*
X21134Y-21502D01*
X21174Y-21600D01*
X21249Y-21675D01*
X21346Y-21715D01*
X21452Y-21715D01*
X21550Y-21675D01*
X21625Y-21600D01*
X21665Y-21503D01*
X21665Y-21397D01*
X21625Y-21299D01*
X21569Y-21243D01*
X21569Y-19906D01*
X21625Y-19850D01*
X21665Y-19753D01*
X21665Y-19647D01*
X21625Y-19549D01*
X21586Y-19510D01*
X23889Y-19510D01*
X23889Y-28889D01*
X23889Y-28889D01*
G37*
G54D15*
X23889Y-28889D02*
X22891Y-28889D01*
X22891Y-27422D01*
X22831Y-27278D01*
X22721Y-27168D01*
X22578Y-27109D01*
X22422Y-27108D01*
X22278Y-27168D01*
X22215Y-27231D01*
X22215Y-22897D01*
X22175Y-22799D01*
X22100Y-22724D01*
X22003Y-22684D01*
X21897Y-22684D01*
X21799Y-22724D01*
X21724Y-22799D01*
X21684Y-22896D01*
X21684Y-23002D01*
X21720Y-23089D01*
X21580Y-23230D01*
X21543Y-23285D01*
X21530Y-23350D01*
X21530Y-25443D01*
X21474Y-25499D01*
X21434Y-25596D01*
X21434Y-25702D01*
X21474Y-25800D01*
X21549Y-25875D01*
X21646Y-25915D01*
X21752Y-25915D01*
X21850Y-25875D01*
X21925Y-25800D01*
X21965Y-25703D01*
X21965Y-25597D01*
X21925Y-25499D01*
X21869Y-25443D01*
X21869Y-23420D01*
X22069Y-23219D01*
X22099Y-23176D01*
X22100Y-23175D01*
X22175Y-23100D01*
X22215Y-23003D01*
X22215Y-22897D01*
X22215Y-27231D01*
X22168Y-27278D01*
X22109Y-27421D01*
X22108Y-27577D01*
X22168Y-27721D01*
X22278Y-27831D01*
X22421Y-27890D01*
X22577Y-27891D01*
X22721Y-27831D01*
X22831Y-27721D01*
X22890Y-27578D01*
X22891Y-27422D01*
X22891Y-28889D01*
X21110Y-28889D01*
X21110Y-27821D01*
X21122Y-27851D01*
X21148Y-27877D01*
X21181Y-27890D01*
X21218Y-27890D01*
X21818Y-27890D01*
X21851Y-27877D01*
X21877Y-27851D01*
X21890Y-27818D01*
X21890Y-27781D01*
X21890Y-27181D01*
X21877Y-27148D01*
X21851Y-27122D01*
X21818Y-27109D01*
X21781Y-27109D01*
X21181Y-27109D01*
X21148Y-27122D01*
X21122Y-27148D01*
X21110Y-27178D01*
X21110Y-19510D01*
X21213Y-19510D01*
X21174Y-19549D01*
X21134Y-19646D01*
X21134Y-19752D01*
X21174Y-19850D01*
X21230Y-19906D01*
X21230Y-21243D01*
X21174Y-21299D01*
X21134Y-21396D01*
X21134Y-21502D01*
X21174Y-21600D01*
X21249Y-21675D01*
X21346Y-21715D01*
X21452Y-21715D01*
X21550Y-21675D01*
X21625Y-21600D01*
X21665Y-21503D01*
X21665Y-21397D01*
X21625Y-21299D01*
X21569Y-21243D01*
X21569Y-19906D01*
X21625Y-19850D01*
X21665Y-19753D01*
X21665Y-19647D01*
X21625Y-19549D01*
X21586Y-19510D01*
X23889Y-19510D01*
X23889Y-28889D01*
M02*
