G04 (created by PCBNEW (2013-07-07 BZR 4022)-stable) date 03.08.2014 22:19:48*
%MOIN*%
G04 Gerber Fmt 3.4, Leading zero omitted, Abs format*
%FSLAX34Y34*%
G01*
G70*
G90*
G04 APERTURE LIST*
%ADD10C,0.00590551*%
%ADD11C,0.011811*%
G04 APERTURE END LIST*
G54D10*
X21887Y-22694D02*
X21872Y-22724D01*
X21872Y-22784D01*
X21887Y-22814D01*
X21917Y-22829D01*
X22037Y-22829D01*
X22067Y-22814D01*
X22082Y-22784D01*
X22082Y-22724D01*
X22067Y-22694D01*
X22037Y-22679D01*
X22007Y-22679D01*
X21977Y-22829D01*
X22082Y-22544D02*
X21872Y-22544D01*
X22052Y-22544D02*
X22067Y-22529D01*
X22082Y-22499D01*
X22082Y-22454D01*
X22067Y-22424D01*
X22037Y-22409D01*
X21872Y-22409D01*
X22082Y-22304D02*
X22082Y-22184D01*
X22187Y-22259D02*
X21917Y-22259D01*
X21887Y-22244D01*
X21872Y-22214D01*
X21872Y-22184D01*
X21872Y-22079D02*
X22082Y-22079D01*
X22022Y-22079D02*
X22052Y-22064D01*
X22067Y-22049D01*
X22082Y-22019D01*
X22082Y-21989D01*
X21872Y-21839D02*
X21887Y-21869D01*
X21902Y-21884D01*
X21932Y-21899D01*
X22022Y-21899D01*
X22052Y-21884D01*
X22067Y-21869D01*
X22082Y-21839D01*
X22082Y-21794D01*
X22067Y-21764D01*
X22052Y-21749D01*
X22022Y-21734D01*
X21932Y-21734D01*
X21902Y-21749D01*
X21887Y-21764D01*
X21872Y-21794D01*
X21872Y-21839D01*
X21887Y-21614D02*
X21872Y-21584D01*
X21872Y-21524D01*
X21887Y-21494D01*
X21917Y-21479D01*
X21932Y-21479D01*
X21962Y-21494D01*
X21977Y-21524D01*
X21977Y-21569D01*
X21992Y-21599D01*
X22022Y-21614D01*
X22037Y-21614D01*
X22067Y-21599D01*
X22082Y-21569D01*
X22082Y-21524D01*
X22067Y-21494D01*
X21887Y-21225D02*
X21872Y-21255D01*
X21872Y-21315D01*
X21887Y-21345D01*
X21917Y-21360D01*
X22037Y-21360D01*
X22067Y-21345D01*
X22082Y-21315D01*
X22082Y-21255D01*
X22067Y-21225D01*
X22037Y-21210D01*
X22007Y-21210D01*
X21977Y-21360D01*
X21872Y-21075D02*
X22082Y-21075D01*
X22022Y-21075D02*
X22052Y-21060D01*
X22067Y-21045D01*
X22082Y-21015D01*
X22082Y-20985D01*
X22082Y-20910D02*
X21872Y-20835D01*
X22082Y-20760D01*
X21902Y-20640D02*
X21887Y-20625D01*
X21872Y-20640D01*
X21887Y-20655D01*
X21902Y-20640D01*
X21872Y-20640D01*
X21872Y-20355D02*
X22187Y-20355D01*
X21887Y-20355D02*
X21872Y-20385D01*
X21872Y-20445D01*
X21887Y-20475D01*
X21902Y-20490D01*
X21932Y-20505D01*
X22022Y-20505D01*
X22052Y-20490D01*
X22067Y-20475D01*
X22082Y-20445D01*
X22082Y-20385D01*
X22067Y-20355D01*
X21887Y-20085D02*
X21872Y-20115D01*
X21872Y-20175D01*
X21887Y-20205D01*
X21917Y-20220D01*
X22037Y-20220D01*
X22067Y-20205D01*
X22082Y-20175D01*
X22082Y-20115D01*
X22067Y-20085D01*
X22037Y-20070D01*
X22007Y-20070D01*
X21977Y-20220D01*
G54D11*
X23433Y-24691D02*
X23658Y-24691D01*
X23658Y-24218D01*
X23343Y-24218D02*
X23073Y-24218D01*
X23208Y-24691D02*
X23208Y-24218D01*
X22961Y-24218D02*
X22668Y-24218D01*
X22826Y-24398D01*
X22758Y-24398D01*
X22713Y-24421D01*
X22691Y-24443D01*
X22668Y-24488D01*
X22668Y-24601D01*
X22691Y-24646D01*
X22713Y-24668D01*
X22758Y-24691D01*
X22893Y-24691D01*
X22938Y-24668D01*
X22961Y-24646D01*
X22376Y-24218D02*
X22331Y-24218D01*
X22286Y-24241D01*
X22263Y-24263D01*
X22241Y-24308D01*
X22218Y-24398D01*
X22218Y-24511D01*
X22241Y-24601D01*
X22263Y-24646D01*
X22286Y-24668D01*
X22331Y-24691D01*
X22376Y-24691D01*
X22421Y-24668D01*
X22443Y-24646D01*
X22466Y-24601D01*
X22488Y-24511D01*
X22488Y-24398D01*
X22466Y-24308D01*
X22443Y-24263D01*
X22421Y-24241D01*
X22376Y-24218D01*
X21813Y-24218D02*
X21903Y-24218D01*
X21948Y-24241D01*
X21971Y-24263D01*
X22016Y-24331D01*
X22038Y-24421D01*
X22038Y-24601D01*
X22016Y-24646D01*
X21993Y-24668D01*
X21948Y-24691D01*
X21858Y-24691D01*
X21813Y-24668D01*
X21791Y-24646D01*
X21768Y-24601D01*
X21768Y-24488D01*
X21791Y-24443D01*
X21813Y-24421D01*
X21858Y-24398D01*
X21948Y-24398D01*
X21993Y-24421D01*
X22016Y-24443D01*
X22038Y-24488D01*
X21476Y-24218D02*
X21431Y-24218D01*
X21386Y-24241D01*
X21363Y-24263D01*
X21341Y-24308D01*
X21318Y-24398D01*
X21318Y-24511D01*
X21341Y-24601D01*
X21363Y-24646D01*
X21386Y-24668D01*
X21431Y-24691D01*
X21476Y-24691D01*
X21521Y-24668D01*
X21543Y-24646D01*
X21566Y-24601D01*
X21588Y-24511D01*
X21588Y-24398D01*
X21566Y-24308D01*
X21543Y-24263D01*
X21521Y-24241D01*
X21476Y-24218D01*
X21258Y-22612D02*
X21258Y-22882D01*
X21258Y-22747D02*
X21731Y-22747D01*
X21663Y-22792D01*
X21618Y-22837D01*
X21596Y-22882D01*
X21731Y-22319D02*
X21731Y-22274D01*
X21708Y-22229D01*
X21686Y-22207D01*
X21641Y-22184D01*
X21551Y-22162D01*
X21438Y-22162D01*
X21348Y-22184D01*
X21303Y-22207D01*
X21281Y-22229D01*
X21258Y-22274D01*
X21258Y-22319D01*
X21281Y-22364D01*
X21303Y-22387D01*
X21348Y-22409D01*
X21438Y-22432D01*
X21551Y-22432D01*
X21641Y-22409D01*
X21686Y-22387D01*
X21708Y-22364D01*
X21731Y-22319D01*
X21731Y-21869D02*
X21731Y-21824D01*
X21708Y-21779D01*
X21686Y-21757D01*
X21641Y-21734D01*
X21551Y-21712D01*
X21438Y-21712D01*
X21348Y-21734D01*
X21303Y-21757D01*
X21281Y-21779D01*
X21258Y-21824D01*
X21258Y-21869D01*
X21281Y-21914D01*
X21303Y-21937D01*
X21348Y-21959D01*
X21438Y-21982D01*
X21551Y-21982D01*
X21641Y-21959D01*
X21686Y-21937D01*
X21708Y-21914D01*
X21731Y-21869D01*
X21258Y-21150D02*
X21573Y-21150D01*
X21528Y-21150D02*
X21551Y-21127D01*
X21573Y-21082D01*
X21573Y-21015D01*
X21551Y-20970D01*
X21506Y-20947D01*
X21258Y-20947D01*
X21506Y-20947D02*
X21551Y-20925D01*
X21573Y-20880D01*
X21573Y-20812D01*
X21551Y-20767D01*
X21506Y-20745D01*
X21258Y-20745D01*
X21393Y-20542D02*
X21393Y-20317D01*
X21258Y-20587D02*
X21731Y-20430D01*
X21258Y-20272D01*
X23553Y-22562D02*
X23553Y-21831D01*
X23103Y-22224D01*
X23103Y-22056D01*
X23046Y-21943D01*
X22990Y-21887D01*
X22878Y-21831D01*
X22596Y-21831D01*
X22484Y-21887D01*
X22428Y-21943D01*
X22371Y-22056D01*
X22371Y-22393D01*
X22428Y-22506D01*
X22484Y-22562D01*
X23553Y-21493D02*
X22371Y-21100D01*
X23553Y-20706D01*
X23553Y-20425D02*
X23553Y-19693D01*
X23103Y-20087D01*
X23103Y-19918D01*
X23046Y-19806D01*
X22990Y-19750D01*
X22878Y-19693D01*
X22596Y-19693D01*
X22484Y-19750D01*
X22428Y-19806D01*
X22371Y-19918D01*
X22371Y-20256D01*
X22428Y-20368D01*
X22484Y-20425D01*
M02*
