G04 (created by PCBNEW (2013-07-07 BZR 4022)-stable) date 11.07.2015 20:54:41*
%MOIN*%
G04 Gerber Fmt 3.4, Leading zero omitted, Abs format*
%FSLAX34Y34*%
G01*
G70*
G90*
G04 APERTURE LIST*
%ADD10C,0.00590551*%
%ADD11R,0.05X0.1*%
%ADD12R,0.055X0.035*%
%ADD13R,0.025X0.045*%
%ADD14R,0.045X0.025*%
%ADD15R,0.06X0.06*%
%ADD16C,0.06*%
%ADD17R,0.052X0.0158*%
%ADD18R,0.0315X0.0394*%
%ADD19C,0.035*%
%ADD20C,0.015748*%
%ADD21C,0.00606299*%
G04 APERTURE END LIST*
G54D10*
G54D11*
X21400Y-22300D03*
X22600Y-22300D03*
G54D12*
X23450Y-21525D03*
X23450Y-22275D03*
G54D13*
X22050Y-21400D03*
X22650Y-21400D03*
G54D14*
X21550Y-20150D03*
X21550Y-20750D03*
G54D15*
X21500Y-25000D03*
G54D16*
X22500Y-25000D03*
X23500Y-25000D03*
G54D17*
X23500Y-20750D03*
X23500Y-20494D03*
X23500Y-20238D03*
X23500Y-19982D03*
X22437Y-19982D03*
X22437Y-20238D03*
X22437Y-20494D03*
X22437Y-20750D03*
G54D18*
X23150Y-24133D03*
X22775Y-23267D03*
X23525Y-23267D03*
X21800Y-24133D03*
X21425Y-23267D03*
X22175Y-23267D03*
G54D19*
X22500Y-23750D03*
X21950Y-19750D03*
X23450Y-21100D03*
X21400Y-21450D03*
X21400Y-19700D03*
G54D20*
X22175Y-23267D02*
X22175Y-23425D01*
X22175Y-23425D02*
X22500Y-23750D01*
X22437Y-19982D02*
X22182Y-19982D01*
X22182Y-19982D02*
X21950Y-19750D01*
X23450Y-21100D02*
X23450Y-20800D01*
X23450Y-21525D02*
X23450Y-21100D01*
X23450Y-20800D02*
X23500Y-20750D01*
X21425Y-23267D02*
X21425Y-24925D01*
X21425Y-24925D02*
X21500Y-25000D01*
X21400Y-22300D02*
X21400Y-23242D01*
X21400Y-23242D02*
X21425Y-23267D01*
X21400Y-22300D02*
X21400Y-21450D01*
X21400Y-19700D02*
X21550Y-19850D01*
X21550Y-19850D02*
X21550Y-20150D01*
X22437Y-20238D02*
X22038Y-20238D01*
X21950Y-20150D02*
X21550Y-20150D01*
X22038Y-20238D02*
X21950Y-20150D01*
X22050Y-21400D02*
X22050Y-20900D01*
X22200Y-20750D02*
X22437Y-20750D01*
X22050Y-20900D02*
X22200Y-20750D01*
X22437Y-20494D02*
X22056Y-20494D01*
X21800Y-20750D02*
X21550Y-20750D01*
X22056Y-20494D02*
X21800Y-20750D01*
X23150Y-24133D02*
X21800Y-24133D01*
G54D10*
G36*
X23889Y-26389D02*
X21110Y-26389D01*
X21110Y-25321D01*
X21122Y-25351D01*
X21148Y-25377D01*
X21181Y-25390D01*
X21218Y-25390D01*
X21818Y-25390D01*
X21851Y-25377D01*
X21877Y-25351D01*
X21890Y-25318D01*
X21890Y-25281D01*
X21890Y-24681D01*
X21877Y-24648D01*
X21851Y-24622D01*
X21818Y-24609D01*
X21781Y-24609D01*
X21594Y-24609D01*
X21594Y-24408D01*
X21624Y-24420D01*
X21660Y-24420D01*
X21975Y-24420D01*
X22008Y-24407D01*
X22034Y-24381D01*
X22048Y-24348D01*
X22048Y-24311D01*
X22048Y-24302D01*
X22901Y-24302D01*
X22901Y-24348D01*
X22915Y-24381D01*
X22940Y-24407D01*
X22974Y-24420D01*
X23010Y-24420D01*
X23325Y-24420D01*
X23358Y-24407D01*
X23384Y-24381D01*
X23398Y-24348D01*
X23398Y-24311D01*
X23398Y-23917D01*
X23384Y-23884D01*
X23359Y-23858D01*
X23325Y-23845D01*
X23289Y-23845D01*
X22974Y-23845D01*
X22941Y-23858D01*
X22915Y-23884D01*
X22901Y-23917D01*
X22901Y-23954D01*
X22901Y-23963D01*
X22662Y-23963D01*
X22725Y-23900D01*
X22765Y-23803D01*
X22765Y-23697D01*
X22725Y-23599D01*
X22650Y-23524D01*
X22553Y-23484D01*
X22474Y-23484D01*
X22423Y-23433D01*
X22423Y-23051D01*
X22409Y-23018D01*
X22384Y-22992D01*
X22350Y-22979D01*
X22314Y-22979D01*
X21999Y-22979D01*
X21966Y-22992D01*
X21940Y-23018D01*
X21926Y-23051D01*
X21926Y-23088D01*
X21926Y-23482D01*
X21940Y-23515D01*
X21965Y-23541D01*
X21999Y-23554D01*
X22035Y-23554D01*
X22064Y-23554D01*
X22234Y-23724D01*
X22234Y-23802D01*
X22274Y-23900D01*
X22337Y-23963D01*
X22048Y-23963D01*
X22048Y-23917D01*
X22034Y-23884D01*
X22009Y-23858D01*
X21975Y-23845D01*
X21939Y-23845D01*
X21624Y-23845D01*
X21594Y-23857D01*
X21594Y-23554D01*
X21600Y-23554D01*
X21633Y-23541D01*
X21659Y-23515D01*
X21673Y-23482D01*
X21673Y-23445D01*
X21673Y-23051D01*
X21659Y-23018D01*
X21634Y-22992D01*
X21600Y-22979D01*
X21569Y-22979D01*
X21569Y-22890D01*
X21668Y-22890D01*
X21701Y-22877D01*
X21727Y-22851D01*
X21740Y-22818D01*
X21740Y-22781D01*
X21740Y-21781D01*
X21727Y-21748D01*
X21701Y-21722D01*
X21668Y-21709D01*
X21631Y-21709D01*
X21569Y-21709D01*
X21569Y-21656D01*
X21625Y-21600D01*
X21665Y-21503D01*
X21665Y-21397D01*
X21625Y-21299D01*
X21550Y-21224D01*
X21453Y-21184D01*
X21347Y-21184D01*
X21249Y-21224D01*
X21174Y-21299D01*
X21134Y-21396D01*
X21134Y-21502D01*
X21174Y-21600D01*
X21230Y-21656D01*
X21230Y-21709D01*
X21131Y-21709D01*
X21110Y-21717D01*
X21110Y-19510D01*
X21213Y-19510D01*
X21174Y-19549D01*
X21134Y-19646D01*
X21134Y-19752D01*
X21174Y-19850D01*
X21249Y-19925D01*
X21288Y-19941D01*
X21273Y-19947D01*
X21247Y-19973D01*
X21234Y-20006D01*
X21234Y-20043D01*
X21234Y-20293D01*
X21247Y-20326D01*
X21273Y-20352D01*
X21306Y-20365D01*
X21343Y-20365D01*
X21793Y-20365D01*
X21826Y-20352D01*
X21852Y-20326D01*
X21854Y-20319D01*
X21879Y-20319D01*
X21918Y-20357D01*
X21939Y-20372D01*
X21936Y-20374D01*
X21775Y-20534D01*
X21756Y-20534D01*
X21306Y-20534D01*
X21273Y-20547D01*
X21247Y-20573D01*
X21234Y-20606D01*
X21234Y-20643D01*
X21234Y-20893D01*
X21247Y-20926D01*
X21273Y-20952D01*
X21306Y-20965D01*
X21343Y-20965D01*
X21793Y-20965D01*
X21826Y-20952D01*
X21852Y-20926D01*
X21859Y-20907D01*
X21859Y-20907D01*
X21864Y-20906D01*
X21864Y-20906D01*
X21881Y-20895D01*
X21880Y-20900D01*
X21880Y-21095D01*
X21873Y-21097D01*
X21847Y-21123D01*
X21834Y-21156D01*
X21834Y-21193D01*
X21834Y-21643D01*
X21847Y-21676D01*
X21873Y-21702D01*
X21906Y-21715D01*
X21943Y-21715D01*
X22193Y-21715D01*
X22226Y-21702D01*
X22252Y-21676D01*
X22265Y-21643D01*
X22265Y-21606D01*
X22265Y-21156D01*
X22252Y-21123D01*
X22226Y-21097D01*
X22219Y-21095D01*
X22219Y-20970D01*
X22270Y-20919D01*
X22715Y-20919D01*
X22748Y-20906D01*
X22774Y-20880D01*
X22787Y-20847D01*
X22787Y-20810D01*
X22787Y-20652D01*
X22775Y-20621D01*
X22787Y-20591D01*
X22787Y-20554D01*
X22787Y-20396D01*
X22775Y-20365D01*
X22787Y-20335D01*
X22787Y-20298D01*
X22787Y-20140D01*
X22775Y-20109D01*
X22787Y-20079D01*
X22787Y-20042D01*
X22787Y-19884D01*
X22774Y-19851D01*
X22748Y-19825D01*
X22715Y-19812D01*
X22678Y-19812D01*
X22252Y-19812D01*
X22215Y-19775D01*
X22215Y-19697D01*
X22175Y-19599D01*
X22100Y-19524D01*
X22067Y-19510D01*
X23889Y-19510D01*
X23889Y-24918D01*
X23850Y-24825D01*
X23850Y-20810D01*
X23850Y-20652D01*
X23837Y-20619D01*
X23811Y-20593D01*
X23778Y-20580D01*
X23741Y-20580D01*
X23221Y-20580D01*
X23188Y-20593D01*
X23162Y-20619D01*
X23149Y-20652D01*
X23149Y-20689D01*
X23149Y-20847D01*
X23162Y-20880D01*
X23188Y-20906D01*
X23221Y-20919D01*
X23253Y-20919D01*
X23224Y-20949D01*
X23184Y-21046D01*
X23184Y-21152D01*
X23224Y-21250D01*
X23232Y-21259D01*
X23156Y-21259D01*
X23123Y-21272D01*
X23097Y-21298D01*
X23084Y-21331D01*
X23084Y-21368D01*
X23084Y-21718D01*
X23097Y-21751D01*
X23123Y-21777D01*
X23156Y-21790D01*
X23193Y-21790D01*
X23743Y-21790D01*
X23776Y-21777D01*
X23802Y-21751D01*
X23815Y-21718D01*
X23815Y-21681D01*
X23815Y-21331D01*
X23802Y-21298D01*
X23776Y-21272D01*
X23743Y-21259D01*
X23706Y-21259D01*
X23667Y-21259D01*
X23675Y-21250D01*
X23715Y-21153D01*
X23715Y-21047D01*
X23675Y-20949D01*
X23646Y-20919D01*
X23778Y-20919D01*
X23811Y-20906D01*
X23837Y-20880D01*
X23850Y-20847D01*
X23850Y-20810D01*
X23850Y-24825D01*
X23831Y-24778D01*
X23721Y-24668D01*
X23578Y-24609D01*
X23422Y-24608D01*
X23278Y-24668D01*
X23168Y-24778D01*
X23109Y-24921D01*
X23108Y-25077D01*
X23168Y-25221D01*
X23278Y-25331D01*
X23421Y-25390D01*
X23577Y-25391D01*
X23721Y-25331D01*
X23831Y-25221D01*
X23889Y-25081D01*
X23889Y-26389D01*
X23889Y-26389D01*
G37*
G54D21*
X23889Y-26389D02*
X21110Y-26389D01*
X21110Y-25321D01*
X21122Y-25351D01*
X21148Y-25377D01*
X21181Y-25390D01*
X21218Y-25390D01*
X21818Y-25390D01*
X21851Y-25377D01*
X21877Y-25351D01*
X21890Y-25318D01*
X21890Y-25281D01*
X21890Y-24681D01*
X21877Y-24648D01*
X21851Y-24622D01*
X21818Y-24609D01*
X21781Y-24609D01*
X21594Y-24609D01*
X21594Y-24408D01*
X21624Y-24420D01*
X21660Y-24420D01*
X21975Y-24420D01*
X22008Y-24407D01*
X22034Y-24381D01*
X22048Y-24348D01*
X22048Y-24311D01*
X22048Y-24302D01*
X22901Y-24302D01*
X22901Y-24348D01*
X22915Y-24381D01*
X22940Y-24407D01*
X22974Y-24420D01*
X23010Y-24420D01*
X23325Y-24420D01*
X23358Y-24407D01*
X23384Y-24381D01*
X23398Y-24348D01*
X23398Y-24311D01*
X23398Y-23917D01*
X23384Y-23884D01*
X23359Y-23858D01*
X23325Y-23845D01*
X23289Y-23845D01*
X22974Y-23845D01*
X22941Y-23858D01*
X22915Y-23884D01*
X22901Y-23917D01*
X22901Y-23954D01*
X22901Y-23963D01*
X22662Y-23963D01*
X22725Y-23900D01*
X22765Y-23803D01*
X22765Y-23697D01*
X22725Y-23599D01*
X22650Y-23524D01*
X22553Y-23484D01*
X22474Y-23484D01*
X22423Y-23433D01*
X22423Y-23051D01*
X22409Y-23018D01*
X22384Y-22992D01*
X22350Y-22979D01*
X22314Y-22979D01*
X21999Y-22979D01*
X21966Y-22992D01*
X21940Y-23018D01*
X21926Y-23051D01*
X21926Y-23088D01*
X21926Y-23482D01*
X21940Y-23515D01*
X21965Y-23541D01*
X21999Y-23554D01*
X22035Y-23554D01*
X22064Y-23554D01*
X22234Y-23724D01*
X22234Y-23802D01*
X22274Y-23900D01*
X22337Y-23963D01*
X22048Y-23963D01*
X22048Y-23917D01*
X22034Y-23884D01*
X22009Y-23858D01*
X21975Y-23845D01*
X21939Y-23845D01*
X21624Y-23845D01*
X21594Y-23857D01*
X21594Y-23554D01*
X21600Y-23554D01*
X21633Y-23541D01*
X21659Y-23515D01*
X21673Y-23482D01*
X21673Y-23445D01*
X21673Y-23051D01*
X21659Y-23018D01*
X21634Y-22992D01*
X21600Y-22979D01*
X21569Y-22979D01*
X21569Y-22890D01*
X21668Y-22890D01*
X21701Y-22877D01*
X21727Y-22851D01*
X21740Y-22818D01*
X21740Y-22781D01*
X21740Y-21781D01*
X21727Y-21748D01*
X21701Y-21722D01*
X21668Y-21709D01*
X21631Y-21709D01*
X21569Y-21709D01*
X21569Y-21656D01*
X21625Y-21600D01*
X21665Y-21503D01*
X21665Y-21397D01*
X21625Y-21299D01*
X21550Y-21224D01*
X21453Y-21184D01*
X21347Y-21184D01*
X21249Y-21224D01*
X21174Y-21299D01*
X21134Y-21396D01*
X21134Y-21502D01*
X21174Y-21600D01*
X21230Y-21656D01*
X21230Y-21709D01*
X21131Y-21709D01*
X21110Y-21717D01*
X21110Y-19510D01*
X21213Y-19510D01*
X21174Y-19549D01*
X21134Y-19646D01*
X21134Y-19752D01*
X21174Y-19850D01*
X21249Y-19925D01*
X21288Y-19941D01*
X21273Y-19947D01*
X21247Y-19973D01*
X21234Y-20006D01*
X21234Y-20043D01*
X21234Y-20293D01*
X21247Y-20326D01*
X21273Y-20352D01*
X21306Y-20365D01*
X21343Y-20365D01*
X21793Y-20365D01*
X21826Y-20352D01*
X21852Y-20326D01*
X21854Y-20319D01*
X21879Y-20319D01*
X21918Y-20357D01*
X21939Y-20372D01*
X21936Y-20374D01*
X21775Y-20534D01*
X21756Y-20534D01*
X21306Y-20534D01*
X21273Y-20547D01*
X21247Y-20573D01*
X21234Y-20606D01*
X21234Y-20643D01*
X21234Y-20893D01*
X21247Y-20926D01*
X21273Y-20952D01*
X21306Y-20965D01*
X21343Y-20965D01*
X21793Y-20965D01*
X21826Y-20952D01*
X21852Y-20926D01*
X21859Y-20907D01*
X21859Y-20907D01*
X21864Y-20906D01*
X21864Y-20906D01*
X21881Y-20895D01*
X21880Y-20900D01*
X21880Y-21095D01*
X21873Y-21097D01*
X21847Y-21123D01*
X21834Y-21156D01*
X21834Y-21193D01*
X21834Y-21643D01*
X21847Y-21676D01*
X21873Y-21702D01*
X21906Y-21715D01*
X21943Y-21715D01*
X22193Y-21715D01*
X22226Y-21702D01*
X22252Y-21676D01*
X22265Y-21643D01*
X22265Y-21606D01*
X22265Y-21156D01*
X22252Y-21123D01*
X22226Y-21097D01*
X22219Y-21095D01*
X22219Y-20970D01*
X22270Y-20919D01*
X22715Y-20919D01*
X22748Y-20906D01*
X22774Y-20880D01*
X22787Y-20847D01*
X22787Y-20810D01*
X22787Y-20652D01*
X22775Y-20621D01*
X22787Y-20591D01*
X22787Y-20554D01*
X22787Y-20396D01*
X22775Y-20365D01*
X22787Y-20335D01*
X22787Y-20298D01*
X22787Y-20140D01*
X22775Y-20109D01*
X22787Y-20079D01*
X22787Y-20042D01*
X22787Y-19884D01*
X22774Y-19851D01*
X22748Y-19825D01*
X22715Y-19812D01*
X22678Y-19812D01*
X22252Y-19812D01*
X22215Y-19775D01*
X22215Y-19697D01*
X22175Y-19599D01*
X22100Y-19524D01*
X22067Y-19510D01*
X23889Y-19510D01*
X23889Y-24918D01*
X23850Y-24825D01*
X23850Y-20810D01*
X23850Y-20652D01*
X23837Y-20619D01*
X23811Y-20593D01*
X23778Y-20580D01*
X23741Y-20580D01*
X23221Y-20580D01*
X23188Y-20593D01*
X23162Y-20619D01*
X23149Y-20652D01*
X23149Y-20689D01*
X23149Y-20847D01*
X23162Y-20880D01*
X23188Y-20906D01*
X23221Y-20919D01*
X23253Y-20919D01*
X23224Y-20949D01*
X23184Y-21046D01*
X23184Y-21152D01*
X23224Y-21250D01*
X23232Y-21259D01*
X23156Y-21259D01*
X23123Y-21272D01*
X23097Y-21298D01*
X23084Y-21331D01*
X23084Y-21368D01*
X23084Y-21718D01*
X23097Y-21751D01*
X23123Y-21777D01*
X23156Y-21790D01*
X23193Y-21790D01*
X23743Y-21790D01*
X23776Y-21777D01*
X23802Y-21751D01*
X23815Y-21718D01*
X23815Y-21681D01*
X23815Y-21331D01*
X23802Y-21298D01*
X23776Y-21272D01*
X23743Y-21259D01*
X23706Y-21259D01*
X23667Y-21259D01*
X23675Y-21250D01*
X23715Y-21153D01*
X23715Y-21047D01*
X23675Y-20949D01*
X23646Y-20919D01*
X23778Y-20919D01*
X23811Y-20906D01*
X23837Y-20880D01*
X23850Y-20847D01*
X23850Y-20810D01*
X23850Y-24825D01*
X23831Y-24778D01*
X23721Y-24668D01*
X23578Y-24609D01*
X23422Y-24608D01*
X23278Y-24668D01*
X23168Y-24778D01*
X23109Y-24921D01*
X23108Y-25077D01*
X23168Y-25221D01*
X23278Y-25331D01*
X23421Y-25390D01*
X23577Y-25391D01*
X23721Y-25331D01*
X23831Y-25221D01*
X23889Y-25081D01*
X23889Y-26389D01*
M02*
