G04 (created by PCBNEW (2013-07-07 BZR 4022)-stable) date 11.07.2015 20:57:14*
%MOIN*%
G04 Gerber Fmt 3.4, Leading zero omitted, Abs format*
%FSLAX34Y34*%
G01*
G70*
G90*
G04 APERTURE LIST*
%ADD10C,0.00590551*%
%ADD11R,0.06X0.06*%
%ADD12C,0.06*%
%ADD13C,0.035*%
%ADD14C,0.015748*%
%ADD15C,0.00606299*%
G04 APERTURE END LIST*
G54D10*
G54D11*
X21500Y-25000D03*
G54D12*
X22500Y-25000D03*
X23500Y-25000D03*
G54D13*
X22500Y-23750D03*
X21950Y-19750D03*
X23450Y-21100D03*
X21400Y-21450D03*
X21400Y-19700D03*
G54D14*
X22500Y-23750D02*
X22550Y-23750D01*
X21400Y-21450D02*
X21400Y-19700D01*
G54D10*
G36*
X23889Y-26389D02*
X22891Y-26389D01*
X22891Y-24922D01*
X22831Y-24778D01*
X22721Y-24668D01*
X22578Y-24609D01*
X22422Y-24608D01*
X22278Y-24668D01*
X22168Y-24778D01*
X22109Y-24921D01*
X22108Y-25077D01*
X22168Y-25221D01*
X22278Y-25331D01*
X22421Y-25390D01*
X22577Y-25391D01*
X22721Y-25331D01*
X22831Y-25221D01*
X22890Y-25078D01*
X22891Y-24922D01*
X22891Y-26389D01*
X21110Y-26389D01*
X21110Y-25321D01*
X21122Y-25351D01*
X21148Y-25377D01*
X21181Y-25390D01*
X21218Y-25390D01*
X21818Y-25390D01*
X21851Y-25377D01*
X21877Y-25351D01*
X21890Y-25318D01*
X21890Y-25281D01*
X21890Y-24681D01*
X21877Y-24648D01*
X21851Y-24622D01*
X21818Y-24609D01*
X21781Y-24609D01*
X21181Y-24609D01*
X21148Y-24622D01*
X21122Y-24648D01*
X21110Y-24678D01*
X21110Y-19510D01*
X21213Y-19510D01*
X21174Y-19549D01*
X21134Y-19646D01*
X21134Y-19752D01*
X21174Y-19850D01*
X21230Y-19906D01*
X21230Y-21243D01*
X21174Y-21299D01*
X21134Y-21396D01*
X21134Y-21502D01*
X21174Y-21600D01*
X21249Y-21675D01*
X21346Y-21715D01*
X21452Y-21715D01*
X21550Y-21675D01*
X21625Y-21600D01*
X21665Y-21503D01*
X21665Y-21397D01*
X21625Y-21299D01*
X21569Y-21243D01*
X21569Y-19906D01*
X21625Y-19850D01*
X21665Y-19753D01*
X21665Y-19647D01*
X21625Y-19549D01*
X21586Y-19510D01*
X23889Y-19510D01*
X23889Y-26389D01*
X23889Y-26389D01*
G37*
G54D15*
X23889Y-26389D02*
X22891Y-26389D01*
X22891Y-24922D01*
X22831Y-24778D01*
X22721Y-24668D01*
X22578Y-24609D01*
X22422Y-24608D01*
X22278Y-24668D01*
X22168Y-24778D01*
X22109Y-24921D01*
X22108Y-25077D01*
X22168Y-25221D01*
X22278Y-25331D01*
X22421Y-25390D01*
X22577Y-25391D01*
X22721Y-25331D01*
X22831Y-25221D01*
X22890Y-25078D01*
X22891Y-24922D01*
X22891Y-26389D01*
X21110Y-26389D01*
X21110Y-25321D01*
X21122Y-25351D01*
X21148Y-25377D01*
X21181Y-25390D01*
X21218Y-25390D01*
X21818Y-25390D01*
X21851Y-25377D01*
X21877Y-25351D01*
X21890Y-25318D01*
X21890Y-25281D01*
X21890Y-24681D01*
X21877Y-24648D01*
X21851Y-24622D01*
X21818Y-24609D01*
X21781Y-24609D01*
X21181Y-24609D01*
X21148Y-24622D01*
X21122Y-24648D01*
X21110Y-24678D01*
X21110Y-19510D01*
X21213Y-19510D01*
X21174Y-19549D01*
X21134Y-19646D01*
X21134Y-19752D01*
X21174Y-19850D01*
X21230Y-19906D01*
X21230Y-21243D01*
X21174Y-21299D01*
X21134Y-21396D01*
X21134Y-21502D01*
X21174Y-21600D01*
X21249Y-21675D01*
X21346Y-21715D01*
X21452Y-21715D01*
X21550Y-21675D01*
X21625Y-21600D01*
X21665Y-21503D01*
X21665Y-21397D01*
X21625Y-21299D01*
X21569Y-21243D01*
X21569Y-19906D01*
X21625Y-19850D01*
X21665Y-19753D01*
X21665Y-19647D01*
X21625Y-19549D01*
X21586Y-19510D01*
X23889Y-19510D01*
X23889Y-26389D01*
M02*
