G04 (created by PCBNEW (2013-07-07 BZR 4022)-stable) date 17.09.2014 22:00:27*
%MOIN*%
G04 Gerber Fmt 3.4, Leading zero omitted, Abs format*
%FSLAX34Y34*%
G01*
G70*
G90*
G04 APERTURE LIST*
%ADD10C,0.00590551*%
%ADD11C,0.011811*%
G04 APERTURE END LIST*
G54D10*
G54D11*
X44556Y-37148D02*
X44443Y-37148D01*
X44387Y-37176D01*
X44331Y-37232D01*
X44303Y-37345D01*
X44303Y-37542D01*
X44331Y-37654D01*
X44387Y-37710D01*
X44443Y-37739D01*
X44556Y-37739D01*
X44612Y-37710D01*
X44668Y-37654D01*
X44696Y-37542D01*
X44696Y-37345D01*
X44668Y-37232D01*
X44612Y-37176D01*
X44556Y-37148D01*
X43331Y-37851D02*
X43668Y-37851D01*
X43500Y-37260D02*
X43500Y-37851D01*
X42500Y-37739D02*
X42500Y-37148D01*
G54D10*
X50154Y-24007D02*
X49914Y-24007D01*
X50034Y-24127D02*
X50034Y-23887D01*
X49615Y-23812D02*
X49764Y-23812D01*
X49779Y-23962D01*
X49764Y-23947D01*
X49735Y-23932D01*
X49660Y-23932D01*
X49630Y-23947D01*
X49615Y-23962D01*
X49600Y-23992D01*
X49600Y-24067D01*
X49615Y-24097D01*
X49630Y-24112D01*
X49660Y-24127D01*
X49735Y-24127D01*
X49764Y-24112D01*
X49779Y-24097D01*
X49510Y-23812D02*
X49405Y-24127D01*
X49300Y-23812D01*
X48244Y-24877D02*
X48244Y-24562D01*
X48139Y-24787D01*
X48034Y-24562D01*
X48034Y-24877D01*
X47824Y-24562D02*
X47764Y-24562D01*
X47735Y-24577D01*
X47705Y-24607D01*
X47690Y-24667D01*
X47690Y-24772D01*
X47705Y-24832D01*
X47735Y-24862D01*
X47764Y-24877D01*
X47824Y-24877D01*
X47854Y-24862D01*
X47884Y-24832D01*
X47899Y-24772D01*
X47899Y-24667D01*
X47884Y-24607D01*
X47854Y-24577D01*
X47824Y-24562D01*
X47570Y-24862D02*
X47525Y-24877D01*
X47450Y-24877D01*
X47420Y-24862D01*
X47405Y-24847D01*
X47390Y-24817D01*
X47390Y-24787D01*
X47405Y-24757D01*
X47420Y-24742D01*
X47450Y-24727D01*
X47510Y-24712D01*
X47540Y-24697D01*
X47555Y-24682D01*
X47570Y-24652D01*
X47570Y-24622D01*
X47555Y-24592D01*
X47540Y-24577D01*
X47510Y-24562D01*
X47435Y-24562D01*
X47390Y-24577D01*
X47255Y-24877D02*
X47255Y-24562D01*
X46577Y-25010D02*
X46562Y-24980D01*
X46562Y-24935D01*
X46577Y-24890D01*
X46607Y-24860D01*
X46637Y-24845D01*
X46697Y-24830D01*
X46742Y-24830D01*
X46802Y-24845D01*
X46832Y-24860D01*
X46862Y-24890D01*
X46877Y-24935D01*
X46877Y-24965D01*
X46862Y-25010D01*
X46847Y-25025D01*
X46742Y-25025D01*
X46742Y-24965D01*
X46877Y-25160D02*
X46562Y-25160D01*
X46877Y-25339D01*
X46562Y-25339D01*
X46877Y-25489D02*
X46562Y-25489D01*
X46562Y-25564D01*
X46577Y-25609D01*
X46607Y-25639D01*
X46637Y-25654D01*
X46697Y-25669D01*
X46742Y-25669D01*
X46802Y-25654D01*
X46832Y-25639D01*
X46862Y-25609D01*
X46877Y-25564D01*
X46877Y-25489D01*
G54D11*
X46076Y-24489D02*
X46076Y-23898D01*
X45823Y-24460D02*
X45739Y-24489D01*
X45598Y-24489D01*
X45542Y-24460D01*
X45514Y-24432D01*
X45485Y-24376D01*
X45485Y-24320D01*
X45514Y-24264D01*
X45542Y-24235D01*
X45598Y-24207D01*
X45710Y-24179D01*
X45767Y-24151D01*
X45795Y-24123D01*
X45823Y-24067D01*
X45823Y-24010D01*
X45795Y-23954D01*
X45767Y-23926D01*
X45710Y-23898D01*
X45570Y-23898D01*
X45485Y-23926D01*
X45232Y-24489D02*
X45232Y-23898D01*
X45007Y-23898D01*
X44951Y-23926D01*
X44923Y-23954D01*
X44895Y-24010D01*
X44895Y-24095D01*
X44923Y-24151D01*
X44951Y-24179D01*
X45007Y-24207D01*
X45232Y-24207D01*
G54D10*
X46877Y-22097D02*
X46727Y-21992D01*
X46877Y-21917D02*
X46562Y-21917D01*
X46562Y-22037D01*
X46577Y-22067D01*
X46592Y-22082D01*
X46622Y-22097D01*
X46667Y-22097D01*
X46697Y-22082D01*
X46712Y-22067D01*
X46727Y-22037D01*
X46727Y-21917D01*
X47862Y-21595D02*
X47877Y-21640D01*
X47877Y-21715D01*
X47862Y-21745D01*
X47847Y-21760D01*
X47817Y-21775D01*
X47787Y-21775D01*
X47757Y-21760D01*
X47742Y-21745D01*
X47727Y-21715D01*
X47712Y-21655D01*
X47697Y-21625D01*
X47682Y-21610D01*
X47652Y-21595D01*
X47622Y-21595D01*
X47592Y-21610D01*
X47577Y-21625D01*
X47562Y-21655D01*
X47562Y-21730D01*
X47577Y-21775D01*
X47847Y-22089D02*
X47862Y-22074D01*
X47877Y-22029D01*
X47877Y-22000D01*
X47862Y-21955D01*
X47832Y-21925D01*
X47802Y-21910D01*
X47742Y-21895D01*
X47697Y-21895D01*
X47637Y-21910D01*
X47607Y-21925D01*
X47577Y-21955D01*
X47562Y-22000D01*
X47562Y-22029D01*
X47577Y-22074D01*
X47592Y-22089D01*
X47877Y-22224D02*
X47562Y-22224D01*
X47877Y-22404D02*
X47697Y-22269D01*
X47562Y-22404D02*
X47742Y-22224D01*
X48877Y-21255D02*
X48562Y-21255D01*
X48787Y-21360D01*
X48562Y-21465D01*
X48877Y-21465D01*
X48877Y-21615D02*
X48562Y-21615D01*
X48862Y-21750D02*
X48877Y-21794D01*
X48877Y-21869D01*
X48862Y-21899D01*
X48847Y-21914D01*
X48817Y-21929D01*
X48787Y-21929D01*
X48757Y-21914D01*
X48742Y-21899D01*
X48727Y-21869D01*
X48712Y-21809D01*
X48697Y-21779D01*
X48682Y-21764D01*
X48652Y-21750D01*
X48622Y-21750D01*
X48592Y-21764D01*
X48577Y-21779D01*
X48562Y-21809D01*
X48562Y-21884D01*
X48577Y-21929D01*
X48562Y-22124D02*
X48562Y-22184D01*
X48577Y-22214D01*
X48607Y-22244D01*
X48667Y-22259D01*
X48772Y-22259D01*
X48832Y-22244D01*
X48862Y-22214D01*
X48877Y-22184D01*
X48877Y-22124D01*
X48862Y-22094D01*
X48832Y-22064D01*
X48772Y-22049D01*
X48667Y-22049D01*
X48607Y-22064D01*
X48577Y-22094D01*
X48562Y-22124D01*
G54D11*
X28014Y-19990D02*
X28014Y-20440D01*
X28239Y-20215D02*
X27789Y-20215D01*
X27648Y-21003D02*
X27648Y-20721D01*
X27929Y-20693D01*
X27901Y-20721D01*
X27873Y-20778D01*
X27873Y-20918D01*
X27901Y-20974D01*
X27929Y-21003D01*
X27985Y-21031D01*
X28126Y-21031D01*
X28182Y-21003D01*
X28210Y-20974D01*
X28239Y-20918D01*
X28239Y-20778D01*
X28210Y-20721D01*
X28182Y-20693D01*
X27648Y-21199D02*
X28239Y-21396D01*
X27648Y-21593D01*
X26648Y-20550D02*
X26648Y-20887D01*
X27239Y-20718D02*
X26648Y-20718D01*
X26648Y-21028D02*
X27239Y-21421D01*
X26648Y-21421D02*
X27239Y-21028D01*
X25676Y-20300D02*
X25648Y-20243D01*
X25648Y-20159D01*
X25676Y-20075D01*
X25732Y-20018D01*
X25789Y-19990D01*
X25901Y-19962D01*
X25985Y-19962D01*
X26098Y-19990D01*
X26154Y-20018D01*
X26210Y-20075D01*
X26239Y-20159D01*
X26239Y-20215D01*
X26210Y-20300D01*
X26182Y-20328D01*
X25985Y-20328D01*
X25985Y-20215D01*
X26239Y-20581D02*
X25648Y-20581D01*
X26239Y-20918D01*
X25648Y-20918D01*
X26239Y-21199D02*
X25648Y-21199D01*
X25648Y-21340D01*
X25676Y-21424D01*
X25732Y-21481D01*
X25789Y-21509D01*
X25901Y-21537D01*
X25985Y-21537D01*
X26098Y-21509D01*
X26154Y-21481D01*
X26210Y-21424D01*
X26239Y-21340D01*
X26239Y-21199D01*
G54D10*
X52917Y-37127D02*
X52917Y-36812D01*
X52842Y-36812D01*
X52797Y-36827D01*
X52767Y-36857D01*
X52752Y-36887D01*
X52737Y-36947D01*
X52737Y-36992D01*
X52752Y-37052D01*
X52767Y-37082D01*
X52797Y-37112D01*
X52842Y-37127D01*
X52917Y-37127D01*
X52467Y-37127D02*
X52467Y-36962D01*
X52482Y-36932D01*
X52512Y-36917D01*
X52572Y-36917D01*
X52602Y-36932D01*
X52467Y-37112D02*
X52497Y-37127D01*
X52572Y-37127D01*
X52602Y-37112D01*
X52617Y-37082D01*
X52617Y-37052D01*
X52602Y-37022D01*
X52572Y-37007D01*
X52497Y-37007D01*
X52467Y-36992D01*
X52362Y-36917D02*
X52242Y-36917D01*
X52317Y-36812D02*
X52317Y-37082D01*
X52302Y-37112D01*
X52272Y-37127D01*
X52242Y-37127D01*
X52017Y-37112D02*
X52047Y-37127D01*
X52107Y-37127D01*
X52137Y-37112D01*
X52152Y-37082D01*
X52152Y-36962D01*
X52137Y-36932D01*
X52107Y-36917D01*
X52047Y-36917D01*
X52017Y-36932D01*
X52002Y-36962D01*
X52002Y-36992D01*
X52152Y-37022D01*
X51867Y-37097D02*
X51852Y-37112D01*
X51867Y-37127D01*
X51882Y-37112D01*
X51867Y-37097D01*
X51867Y-37127D01*
X51867Y-36932D02*
X51852Y-36947D01*
X51867Y-36962D01*
X51882Y-36947D01*
X51867Y-36932D01*
X51867Y-36962D01*
X51417Y-36812D02*
X51387Y-36812D01*
X51357Y-36827D01*
X51342Y-36842D01*
X51327Y-36872D01*
X51312Y-36932D01*
X51312Y-37007D01*
X51327Y-37067D01*
X51342Y-37097D01*
X51357Y-37112D01*
X51387Y-37127D01*
X51417Y-37127D01*
X51447Y-37112D01*
X51462Y-37097D01*
X51477Y-37067D01*
X51492Y-37007D01*
X51492Y-36932D01*
X51477Y-36872D01*
X51462Y-36842D01*
X51447Y-36827D01*
X51417Y-36812D01*
X51162Y-37127D02*
X51102Y-37127D01*
X51072Y-37112D01*
X51057Y-37097D01*
X51027Y-37052D01*
X51012Y-36992D01*
X51012Y-36872D01*
X51027Y-36842D01*
X51042Y-36827D01*
X51072Y-36812D01*
X51132Y-36812D01*
X51162Y-36827D01*
X51177Y-36842D01*
X51192Y-36872D01*
X51192Y-36947D01*
X51177Y-36977D01*
X51162Y-36992D01*
X51132Y-37007D01*
X51072Y-37007D01*
X51042Y-36992D01*
X51027Y-36977D01*
X51012Y-36947D01*
X50652Y-36797D02*
X50922Y-37202D01*
X50562Y-36842D02*
X50547Y-36827D01*
X50517Y-36812D01*
X50442Y-36812D01*
X50412Y-36827D01*
X50397Y-36842D01*
X50382Y-36872D01*
X50382Y-36902D01*
X50397Y-36947D01*
X50577Y-37127D01*
X50382Y-37127D01*
X50187Y-36812D02*
X50157Y-36812D01*
X50127Y-36827D01*
X50112Y-36842D01*
X50097Y-36872D01*
X50082Y-36932D01*
X50082Y-37007D01*
X50097Y-37067D01*
X50112Y-37097D01*
X50127Y-37112D01*
X50157Y-37127D01*
X50187Y-37127D01*
X50217Y-37112D01*
X50232Y-37097D01*
X50247Y-37067D01*
X50262Y-37007D01*
X50262Y-36932D01*
X50247Y-36872D01*
X50232Y-36842D01*
X50217Y-36827D01*
X50187Y-36812D01*
X49782Y-37127D02*
X49962Y-37127D01*
X49872Y-37127D02*
X49872Y-36812D01*
X49902Y-36857D01*
X49932Y-36887D01*
X49962Y-36902D01*
X49512Y-36917D02*
X49512Y-37127D01*
X49587Y-36797D02*
X49662Y-37022D01*
X49467Y-37022D01*
X49332Y-37112D02*
X49332Y-37127D01*
X49347Y-37157D01*
X49362Y-37172D01*
X49002Y-36812D02*
X48897Y-37127D01*
X48792Y-36812D01*
X48567Y-37112D02*
X48597Y-37127D01*
X48657Y-37127D01*
X48687Y-37112D01*
X48702Y-37082D01*
X48702Y-36962D01*
X48687Y-36932D01*
X48657Y-36917D01*
X48597Y-36917D01*
X48567Y-36932D01*
X48552Y-36962D01*
X48552Y-36992D01*
X48702Y-37022D01*
X48417Y-37127D02*
X48417Y-36917D01*
X48417Y-36977D02*
X48402Y-36947D01*
X48387Y-36932D01*
X48357Y-36917D01*
X48327Y-36917D01*
X48222Y-37097D02*
X48207Y-37112D01*
X48222Y-37127D01*
X48237Y-37112D01*
X48222Y-37097D01*
X48222Y-37127D01*
X48072Y-37097D02*
X48057Y-37112D01*
X48072Y-37127D01*
X48087Y-37112D01*
X48072Y-37097D01*
X48072Y-37127D01*
X48072Y-36932D02*
X48057Y-36947D01*
X48072Y-36962D01*
X48087Y-36947D01*
X48072Y-36932D01*
X48072Y-36962D01*
X47517Y-37127D02*
X47697Y-37127D01*
X47607Y-37127D02*
X47607Y-36812D01*
X47637Y-36857D01*
X47667Y-36887D01*
X47697Y-36902D01*
X47382Y-37097D02*
X47367Y-37112D01*
X47382Y-37127D01*
X47397Y-37112D01*
X47382Y-37097D01*
X47382Y-37127D01*
X47172Y-36812D02*
X47142Y-36812D01*
X47112Y-36827D01*
X47097Y-36842D01*
X47082Y-36872D01*
X47067Y-36932D01*
X47067Y-37007D01*
X47082Y-37067D01*
X47097Y-37097D01*
X47112Y-37112D01*
X47142Y-37127D01*
X47172Y-37127D01*
X47202Y-37112D01*
X47217Y-37097D01*
X47232Y-37067D01*
X47247Y-37007D01*
X47247Y-36932D01*
X47232Y-36872D01*
X47217Y-36842D01*
X47202Y-36827D01*
X47172Y-36812D01*
G54D11*
X29951Y-36714D02*
X29979Y-36685D01*
X30035Y-36601D01*
X30063Y-36545D01*
X30091Y-36460D01*
X30119Y-36320D01*
X30119Y-36207D01*
X30091Y-36067D01*
X30063Y-35982D01*
X30035Y-35926D01*
X29979Y-35842D01*
X29951Y-35814D01*
X29388Y-36432D02*
X29416Y-36460D01*
X29501Y-36489D01*
X29557Y-36489D01*
X29641Y-36460D01*
X29697Y-36404D01*
X29726Y-36348D01*
X29754Y-36235D01*
X29754Y-36151D01*
X29726Y-36039D01*
X29697Y-35982D01*
X29641Y-35926D01*
X29557Y-35898D01*
X29501Y-35898D01*
X29416Y-35926D01*
X29388Y-35954D01*
X29191Y-36714D02*
X29163Y-36685D01*
X29107Y-36601D01*
X29079Y-36545D01*
X29051Y-36460D01*
X29023Y-36320D01*
X29023Y-36207D01*
X29051Y-36067D01*
X29079Y-35982D01*
X29107Y-35926D01*
X29163Y-35842D01*
X29191Y-35814D01*
X28320Y-36460D02*
X28235Y-36489D01*
X28095Y-36489D01*
X28038Y-36460D01*
X28010Y-36432D01*
X27982Y-36376D01*
X27982Y-36320D01*
X28010Y-36264D01*
X28038Y-36235D01*
X28095Y-36207D01*
X28207Y-36179D01*
X28263Y-36151D01*
X28291Y-36123D01*
X28320Y-36067D01*
X28320Y-36010D01*
X28291Y-35954D01*
X28263Y-35926D01*
X28207Y-35898D01*
X28066Y-35898D01*
X27982Y-35926D01*
X27813Y-36095D02*
X27588Y-36095D01*
X27729Y-35898D02*
X27729Y-36404D01*
X27701Y-36460D01*
X27645Y-36489D01*
X27588Y-36489D01*
X27167Y-36460D02*
X27223Y-36489D01*
X27335Y-36489D01*
X27392Y-36460D01*
X27420Y-36404D01*
X27420Y-36179D01*
X27392Y-36123D01*
X27335Y-36095D01*
X27223Y-36095D01*
X27167Y-36123D01*
X27138Y-36179D01*
X27138Y-36235D01*
X27420Y-36292D01*
X26970Y-36095D02*
X26745Y-36095D01*
X26885Y-36489D02*
X26885Y-35982D01*
X26857Y-35926D01*
X26801Y-35898D01*
X26745Y-35898D01*
X26295Y-36489D02*
X26295Y-36179D01*
X26323Y-36123D01*
X26379Y-36095D01*
X26492Y-36095D01*
X26548Y-36123D01*
X26295Y-36460D02*
X26351Y-36489D01*
X26492Y-36489D01*
X26548Y-36460D01*
X26576Y-36404D01*
X26576Y-36348D01*
X26548Y-36292D01*
X26492Y-36264D01*
X26351Y-36264D01*
X26295Y-36235D01*
X26014Y-36095D02*
X26014Y-36489D01*
X26014Y-36151D02*
X25985Y-36123D01*
X25929Y-36095D01*
X25845Y-36095D01*
X25789Y-36123D01*
X25760Y-36179D01*
X25760Y-36489D01*
X25029Y-36489D02*
X25029Y-35898D01*
X25029Y-36179D02*
X24692Y-36179D01*
X24692Y-36489D02*
X24692Y-35898D01*
X24186Y-36460D02*
X24242Y-36489D01*
X24354Y-36489D01*
X24411Y-36460D01*
X24439Y-36404D01*
X24439Y-36179D01*
X24411Y-36123D01*
X24354Y-36095D01*
X24242Y-36095D01*
X24186Y-36123D01*
X24158Y-36179D01*
X24158Y-36235D01*
X24439Y-36292D01*
X23820Y-36489D02*
X23876Y-36460D01*
X23904Y-36404D01*
X23904Y-35898D01*
X23595Y-36489D02*
X23595Y-36095D01*
X23595Y-36151D02*
X23567Y-36123D01*
X23511Y-36095D01*
X23426Y-36095D01*
X23370Y-36123D01*
X23342Y-36179D01*
X23342Y-36489D01*
X23342Y-36179D02*
X23314Y-36123D01*
X23258Y-36095D01*
X23173Y-36095D01*
X23117Y-36123D01*
X23089Y-36179D01*
X23089Y-36489D01*
X22583Y-36460D02*
X22639Y-36489D01*
X22751Y-36489D01*
X22808Y-36460D01*
X22836Y-36404D01*
X22836Y-36179D01*
X22808Y-36123D01*
X22751Y-36095D01*
X22639Y-36095D01*
X22583Y-36123D01*
X22555Y-36179D01*
X22555Y-36235D01*
X22836Y-36292D01*
X22302Y-36489D02*
X22302Y-36095D01*
X22302Y-36207D02*
X22273Y-36151D01*
X22245Y-36123D01*
X22189Y-36095D01*
X22133Y-36095D01*
X22020Y-36095D02*
X21795Y-36095D01*
X21936Y-35898D02*
X21936Y-36404D01*
X21908Y-36460D01*
X21852Y-36489D01*
X21795Y-36489D01*
X27884Y-37405D02*
X27940Y-37433D01*
X28052Y-37433D01*
X28109Y-37405D01*
X28137Y-37349D01*
X28137Y-37124D01*
X28109Y-37068D01*
X28052Y-37040D01*
X27940Y-37040D01*
X27884Y-37068D01*
X27856Y-37124D01*
X27856Y-37180D01*
X28137Y-37237D01*
X27602Y-37040D02*
X27602Y-37433D01*
X27602Y-37096D02*
X27574Y-37068D01*
X27518Y-37040D01*
X27434Y-37040D01*
X27377Y-37068D01*
X27349Y-37124D01*
X27349Y-37433D01*
X27152Y-37040D02*
X26928Y-37040D01*
X27068Y-36843D02*
X27068Y-37349D01*
X27040Y-37405D01*
X26984Y-37433D01*
X26928Y-37433D01*
X26731Y-37433D02*
X26731Y-37040D01*
X26731Y-37152D02*
X26703Y-37096D01*
X26674Y-37068D01*
X26618Y-37040D01*
X26562Y-37040D01*
X26281Y-37433D02*
X26337Y-37405D01*
X26365Y-37377D01*
X26393Y-37321D01*
X26393Y-37152D01*
X26365Y-37096D01*
X26337Y-37068D01*
X26281Y-37040D01*
X26196Y-37040D01*
X26140Y-37068D01*
X26112Y-37096D01*
X26084Y-37152D01*
X26084Y-37321D01*
X26112Y-37377D01*
X26140Y-37405D01*
X26196Y-37433D01*
X26281Y-37433D01*
X25859Y-37405D02*
X25803Y-37433D01*
X25690Y-37433D01*
X25634Y-37405D01*
X25606Y-37349D01*
X25606Y-37321D01*
X25634Y-37265D01*
X25690Y-37237D01*
X25775Y-37237D01*
X25831Y-37208D01*
X25859Y-37152D01*
X25859Y-37124D01*
X25831Y-37068D01*
X25775Y-37040D01*
X25690Y-37040D01*
X25634Y-37068D01*
X25128Y-37405D02*
X25184Y-37433D01*
X25296Y-37433D01*
X25353Y-37405D01*
X25381Y-37349D01*
X25381Y-37124D01*
X25353Y-37068D01*
X25296Y-37040D01*
X25184Y-37040D01*
X25128Y-37068D01*
X25100Y-37124D01*
X25100Y-37180D01*
X25381Y-37237D01*
X24847Y-37433D02*
X24847Y-37040D01*
X24847Y-37152D02*
X24818Y-37096D01*
X24790Y-37068D01*
X24734Y-37040D01*
X24678Y-37040D01*
X24537Y-37040D02*
X24397Y-37433D01*
X24256Y-37040D01*
X24031Y-37377D02*
X24003Y-37405D01*
X24031Y-37433D01*
X24059Y-37405D01*
X24031Y-37377D01*
X24031Y-37433D01*
X23497Y-37433D02*
X23497Y-36843D01*
X23497Y-37405D02*
X23553Y-37433D01*
X23665Y-37433D01*
X23722Y-37405D01*
X23750Y-37377D01*
X23778Y-37321D01*
X23778Y-37152D01*
X23750Y-37096D01*
X23722Y-37068D01*
X23665Y-37040D01*
X23553Y-37040D01*
X23497Y-37068D01*
X22991Y-37405D02*
X23047Y-37433D01*
X23159Y-37433D01*
X23215Y-37405D01*
X23244Y-37349D01*
X23244Y-37124D01*
X23215Y-37068D01*
X23159Y-37040D01*
X23047Y-37040D01*
X22991Y-37068D01*
X22962Y-37124D01*
X22962Y-37180D01*
X23244Y-37237D01*
X53239Y-19898D02*
X52902Y-19898D01*
X53071Y-20489D02*
X53071Y-19898D01*
X52480Y-20460D02*
X52536Y-20489D01*
X52649Y-20489D01*
X52705Y-20460D01*
X52733Y-20404D01*
X52733Y-20179D01*
X52705Y-20123D01*
X52649Y-20095D01*
X52536Y-20095D01*
X52480Y-20123D01*
X52452Y-20179D01*
X52452Y-20235D01*
X52733Y-20292D01*
X52227Y-20460D02*
X52171Y-20489D01*
X52058Y-20489D01*
X52002Y-20460D01*
X51974Y-20404D01*
X51974Y-20376D01*
X52002Y-20320D01*
X52058Y-20292D01*
X52143Y-20292D01*
X52199Y-20264D01*
X52227Y-20207D01*
X52227Y-20179D01*
X52199Y-20123D01*
X52143Y-20095D01*
X52058Y-20095D01*
X52002Y-20123D01*
X51805Y-20095D02*
X51580Y-20095D01*
X51721Y-19898D02*
X51721Y-20404D01*
X51693Y-20460D01*
X51636Y-20489D01*
X51580Y-20489D01*
X51383Y-20489D02*
X51383Y-19898D01*
X51383Y-20123D02*
X51327Y-20095D01*
X51215Y-20095D01*
X51158Y-20123D01*
X51130Y-20151D01*
X51102Y-20207D01*
X51102Y-20376D01*
X51130Y-20432D01*
X51158Y-20460D01*
X51215Y-20489D01*
X51327Y-20489D01*
X51383Y-20460D01*
X50765Y-20489D02*
X50821Y-20460D01*
X50849Y-20432D01*
X50877Y-20376D01*
X50877Y-20207D01*
X50849Y-20151D01*
X50821Y-20123D01*
X50765Y-20095D01*
X50680Y-20095D01*
X50624Y-20123D01*
X50596Y-20151D01*
X50568Y-20207D01*
X50568Y-20376D01*
X50596Y-20432D01*
X50624Y-20460D01*
X50680Y-20489D01*
X50765Y-20489D01*
X50062Y-20489D02*
X50062Y-20179D01*
X50090Y-20123D01*
X50146Y-20095D01*
X50258Y-20095D01*
X50315Y-20123D01*
X50062Y-20460D02*
X50118Y-20489D01*
X50258Y-20489D01*
X50315Y-20460D01*
X50343Y-20404D01*
X50343Y-20348D01*
X50315Y-20292D01*
X50258Y-20264D01*
X50118Y-20264D01*
X50062Y-20235D01*
X49780Y-20489D02*
X49780Y-20095D01*
X49780Y-20207D02*
X49752Y-20151D01*
X49724Y-20123D01*
X49668Y-20095D01*
X49612Y-20095D01*
X49162Y-20489D02*
X49162Y-19898D01*
X49162Y-20460D02*
X49218Y-20489D01*
X49330Y-20489D01*
X49387Y-20460D01*
X49415Y-20432D01*
X49443Y-20376D01*
X49443Y-20207D01*
X49415Y-20151D01*
X49387Y-20123D01*
X49330Y-20095D01*
X49218Y-20095D01*
X49162Y-20123D01*
X48515Y-20095D02*
X48290Y-20095D01*
X48431Y-20489D02*
X48431Y-19982D01*
X48402Y-19926D01*
X48346Y-19898D01*
X48290Y-19898D01*
X48009Y-20489D02*
X48065Y-20460D01*
X48093Y-20432D01*
X48121Y-20376D01*
X48121Y-20207D01*
X48093Y-20151D01*
X48065Y-20123D01*
X48009Y-20095D01*
X47924Y-20095D01*
X47868Y-20123D01*
X47840Y-20151D01*
X47812Y-20207D01*
X47812Y-20376D01*
X47840Y-20432D01*
X47868Y-20460D01*
X47924Y-20489D01*
X48009Y-20489D01*
X47559Y-20489D02*
X47559Y-20095D01*
X47559Y-20207D02*
X47531Y-20151D01*
X47503Y-20123D01*
X47446Y-20095D01*
X47390Y-20095D01*
X46462Y-20489D02*
X46743Y-20489D01*
X46743Y-19898D01*
X46350Y-19898D02*
X46012Y-19898D01*
X46181Y-20489D02*
X46181Y-19898D01*
X45872Y-19898D02*
X45506Y-19898D01*
X45703Y-20123D01*
X45618Y-20123D01*
X45562Y-20151D01*
X45534Y-20179D01*
X45506Y-20235D01*
X45506Y-20376D01*
X45534Y-20432D01*
X45562Y-20460D01*
X45618Y-20489D01*
X45787Y-20489D01*
X45843Y-20460D01*
X45872Y-20432D01*
X45140Y-19898D02*
X45084Y-19898D01*
X45028Y-19926D01*
X45000Y-19954D01*
X44972Y-20010D01*
X44944Y-20123D01*
X44944Y-20264D01*
X44972Y-20376D01*
X45000Y-20432D01*
X45028Y-20460D01*
X45084Y-20489D01*
X45140Y-20489D01*
X45197Y-20460D01*
X45225Y-20432D01*
X45253Y-20376D01*
X45281Y-20264D01*
X45281Y-20123D01*
X45253Y-20010D01*
X45225Y-19954D01*
X45197Y-19926D01*
X45140Y-19898D01*
X44437Y-19898D02*
X44550Y-19898D01*
X44606Y-19926D01*
X44634Y-19954D01*
X44690Y-20039D01*
X44719Y-20151D01*
X44719Y-20376D01*
X44690Y-20432D01*
X44662Y-20460D01*
X44606Y-20489D01*
X44494Y-20489D01*
X44437Y-20460D01*
X44409Y-20432D01*
X44381Y-20376D01*
X44381Y-20235D01*
X44409Y-20179D01*
X44437Y-20151D01*
X44494Y-20123D01*
X44606Y-20123D01*
X44662Y-20151D01*
X44690Y-20179D01*
X44719Y-20235D01*
X44016Y-19898D02*
X43959Y-19898D01*
X43903Y-19926D01*
X43875Y-19954D01*
X43847Y-20010D01*
X43819Y-20123D01*
X43819Y-20264D01*
X43847Y-20376D01*
X43875Y-20432D01*
X43903Y-20460D01*
X43959Y-20489D01*
X44016Y-20489D01*
X44072Y-20460D01*
X44100Y-20432D01*
X44128Y-20376D01*
X44156Y-20264D01*
X44156Y-20123D01*
X44128Y-20010D01*
X44100Y-19954D01*
X44072Y-19926D01*
X44016Y-19898D01*
X43566Y-20489D02*
X43566Y-19898D01*
X43566Y-20123D02*
X43509Y-20095D01*
X43397Y-20095D01*
X43341Y-20123D01*
X43312Y-20151D01*
X43284Y-20207D01*
X43284Y-20376D01*
X43312Y-20432D01*
X43341Y-20460D01*
X43397Y-20489D01*
X43509Y-20489D01*
X43566Y-20460D01*
X42947Y-20489D02*
X43003Y-20460D01*
X43031Y-20432D01*
X43059Y-20376D01*
X43059Y-20207D01*
X43031Y-20151D01*
X43003Y-20123D01*
X42947Y-20095D01*
X42863Y-20095D01*
X42806Y-20123D01*
X42778Y-20151D01*
X42750Y-20207D01*
X42750Y-20376D01*
X42778Y-20432D01*
X42806Y-20460D01*
X42863Y-20489D01*
X42947Y-20489D01*
X42244Y-20489D02*
X42244Y-20179D01*
X42272Y-20123D01*
X42328Y-20095D01*
X42441Y-20095D01*
X42497Y-20123D01*
X42244Y-20460D02*
X42300Y-20489D01*
X42441Y-20489D01*
X42497Y-20460D01*
X42525Y-20404D01*
X42525Y-20348D01*
X42497Y-20292D01*
X42441Y-20264D01*
X42300Y-20264D01*
X42244Y-20235D01*
X41963Y-20489D02*
X41963Y-20095D01*
X41963Y-20207D02*
X41935Y-20151D01*
X41906Y-20123D01*
X41850Y-20095D01*
X41794Y-20095D01*
X41344Y-20489D02*
X41344Y-19898D01*
X41344Y-20460D02*
X41400Y-20489D01*
X41513Y-20489D01*
X41569Y-20460D01*
X41597Y-20432D01*
X41625Y-20376D01*
X41625Y-20207D01*
X41597Y-20151D01*
X41569Y-20123D01*
X41513Y-20095D01*
X41400Y-20095D01*
X41344Y-20123D01*
X54543Y-25710D02*
X54599Y-25739D01*
X54712Y-25739D01*
X54768Y-25710D01*
X54796Y-25682D01*
X54824Y-25626D01*
X54824Y-25457D01*
X54796Y-25401D01*
X54768Y-25373D01*
X54712Y-25345D01*
X54599Y-25345D01*
X54543Y-25373D01*
X54290Y-25739D02*
X54290Y-25148D01*
X54037Y-25739D02*
X54037Y-25429D01*
X54065Y-25373D01*
X54121Y-25345D01*
X54205Y-25345D01*
X54262Y-25373D01*
X54290Y-25401D01*
X53502Y-25739D02*
X53502Y-25429D01*
X53530Y-25373D01*
X53587Y-25345D01*
X53699Y-25345D01*
X53755Y-25373D01*
X53502Y-25710D02*
X53559Y-25739D01*
X53699Y-25739D01*
X53755Y-25710D01*
X53784Y-25654D01*
X53784Y-25598D01*
X53755Y-25542D01*
X53699Y-25514D01*
X53559Y-25514D01*
X53502Y-25485D01*
X53137Y-25739D02*
X53193Y-25710D01*
X53221Y-25682D01*
X53249Y-25626D01*
X53249Y-25457D01*
X53221Y-25401D01*
X53193Y-25373D01*
X53137Y-25345D01*
X53052Y-25345D01*
X52996Y-25373D01*
X52968Y-25401D01*
X52940Y-25457D01*
X52940Y-25626D01*
X52968Y-25682D01*
X52996Y-25710D01*
X53052Y-25739D01*
X53137Y-25739D01*
X52715Y-25710D02*
X52659Y-25739D01*
X52546Y-25739D01*
X52490Y-25710D01*
X52462Y-25654D01*
X52462Y-25626D01*
X52490Y-25570D01*
X52546Y-25542D01*
X52631Y-25542D01*
X52687Y-25514D01*
X52715Y-25457D01*
X52715Y-25429D01*
X52687Y-25373D01*
X52631Y-25345D01*
X52546Y-25345D01*
X52490Y-25373D01*
X51956Y-25710D02*
X52012Y-25739D01*
X52124Y-25739D01*
X52181Y-25710D01*
X52209Y-25682D01*
X52237Y-25626D01*
X52237Y-25457D01*
X52209Y-25401D01*
X52181Y-25373D01*
X52124Y-25345D01*
X52012Y-25345D01*
X51956Y-25373D01*
X51703Y-25739D02*
X51703Y-25148D01*
X51449Y-25739D02*
X51449Y-25429D01*
X51478Y-25373D01*
X51534Y-25345D01*
X51618Y-25345D01*
X51674Y-25373D01*
X51703Y-25401D01*
X50943Y-25710D02*
X51000Y-25739D01*
X51112Y-25739D01*
X51168Y-25710D01*
X51196Y-25654D01*
X51196Y-25429D01*
X51168Y-25373D01*
X51112Y-25345D01*
X51000Y-25345D01*
X50943Y-25373D01*
X50915Y-25429D01*
X50915Y-25485D01*
X51196Y-25542D01*
X50662Y-25739D02*
X50662Y-25345D01*
X50662Y-25401D02*
X50634Y-25373D01*
X50578Y-25345D01*
X50493Y-25345D01*
X50437Y-25373D01*
X50409Y-25429D01*
X50409Y-25739D01*
X50409Y-25429D02*
X50381Y-25373D01*
X50325Y-25345D01*
X50240Y-25345D01*
X50184Y-25373D01*
X50156Y-25429D01*
X50156Y-25739D01*
X49875Y-25345D02*
X49875Y-25739D01*
X49875Y-25401D02*
X49847Y-25373D01*
X49790Y-25345D01*
X49706Y-25345D01*
X49650Y-25373D01*
X49622Y-25429D01*
X49622Y-25739D01*
X49340Y-25739D02*
X49340Y-25345D01*
X49340Y-25148D02*
X49368Y-25176D01*
X49340Y-25204D01*
X49312Y-25176D01*
X49340Y-25148D01*
X49340Y-25204D01*
X49143Y-25345D02*
X48919Y-25345D01*
X49059Y-25148D02*
X49059Y-25654D01*
X49031Y-25710D01*
X48975Y-25739D01*
X48919Y-25739D01*
X48778Y-25345D02*
X48469Y-25345D01*
X48778Y-25739D01*
X48469Y-25739D01*
X48244Y-25682D02*
X48215Y-25710D01*
X48244Y-25739D01*
X48272Y-25710D01*
X48244Y-25682D01*
X48244Y-25739D01*
X47709Y-25739D02*
X47709Y-25148D01*
X47709Y-25710D02*
X47766Y-25739D01*
X47878Y-25739D01*
X47934Y-25710D01*
X47962Y-25682D01*
X47991Y-25626D01*
X47991Y-25457D01*
X47962Y-25401D01*
X47934Y-25373D01*
X47878Y-25345D01*
X47766Y-25345D01*
X47709Y-25373D01*
X47203Y-25710D02*
X47259Y-25739D01*
X47372Y-25739D01*
X47428Y-25710D01*
X47456Y-25654D01*
X47456Y-25429D01*
X47428Y-25373D01*
X47372Y-25345D01*
X47259Y-25345D01*
X47203Y-25373D01*
X47175Y-25429D01*
X47175Y-25485D01*
X47456Y-25542D01*
X54584Y-24710D02*
X54640Y-24739D01*
X54752Y-24739D01*
X54809Y-24710D01*
X54837Y-24654D01*
X54837Y-24429D01*
X54809Y-24373D01*
X54752Y-24345D01*
X54640Y-24345D01*
X54584Y-24373D01*
X54555Y-24429D01*
X54555Y-24485D01*
X54837Y-24542D01*
X54302Y-24345D02*
X54302Y-24739D01*
X54302Y-24401D02*
X54274Y-24373D01*
X54218Y-24345D01*
X54134Y-24345D01*
X54077Y-24373D01*
X54049Y-24429D01*
X54049Y-24739D01*
X53852Y-24345D02*
X53627Y-24345D01*
X53768Y-24148D02*
X53768Y-24654D01*
X53740Y-24710D01*
X53684Y-24739D01*
X53627Y-24739D01*
X53431Y-24739D02*
X53431Y-24345D01*
X53431Y-24457D02*
X53402Y-24401D01*
X53374Y-24373D01*
X53318Y-24345D01*
X53262Y-24345D01*
X52981Y-24739D02*
X53037Y-24710D01*
X53065Y-24682D01*
X53093Y-24626D01*
X53093Y-24457D01*
X53065Y-24401D01*
X53037Y-24373D01*
X52981Y-24345D01*
X52896Y-24345D01*
X52840Y-24373D01*
X52812Y-24401D01*
X52784Y-24457D01*
X52784Y-24626D01*
X52812Y-24682D01*
X52840Y-24710D01*
X52896Y-24739D01*
X52981Y-24739D01*
X52559Y-24710D02*
X52503Y-24739D01*
X52390Y-24739D01*
X52334Y-24710D01*
X52306Y-24654D01*
X52306Y-24626D01*
X52334Y-24570D01*
X52390Y-24542D01*
X52474Y-24542D01*
X52531Y-24514D01*
X52559Y-24457D01*
X52559Y-24429D01*
X52531Y-24373D01*
X52474Y-24345D01*
X52390Y-24345D01*
X52334Y-24373D01*
X51828Y-24710D02*
X51884Y-24739D01*
X51996Y-24739D01*
X52053Y-24710D01*
X52081Y-24654D01*
X52081Y-24429D01*
X52053Y-24373D01*
X51996Y-24345D01*
X51884Y-24345D01*
X51828Y-24373D01*
X51800Y-24429D01*
X51800Y-24485D01*
X52081Y-24542D01*
X51546Y-24739D02*
X51546Y-24345D01*
X51546Y-24457D02*
X51518Y-24401D01*
X51490Y-24373D01*
X51434Y-24345D01*
X51378Y-24345D01*
X51237Y-24345D02*
X51097Y-24739D01*
X50956Y-24345D01*
X50731Y-24682D02*
X50703Y-24710D01*
X50731Y-24739D01*
X50759Y-24710D01*
X50731Y-24682D01*
X50731Y-24739D01*
X50197Y-24739D02*
X50197Y-24148D01*
X50197Y-24710D02*
X50253Y-24739D01*
X50365Y-24739D01*
X50422Y-24710D01*
X50450Y-24682D01*
X50478Y-24626D01*
X50478Y-24457D01*
X50450Y-24401D01*
X50422Y-24373D01*
X50365Y-24345D01*
X50253Y-24345D01*
X50197Y-24373D01*
X49690Y-24710D02*
X49747Y-24739D01*
X49859Y-24739D01*
X49915Y-24710D01*
X49944Y-24654D01*
X49944Y-24429D01*
X49915Y-24373D01*
X49859Y-24345D01*
X49747Y-24345D01*
X49690Y-24373D01*
X49662Y-24429D01*
X49662Y-24485D01*
X49944Y-24542D01*
M02*
