G04 (created by PCBNEW (2013-07-07 BZR 4022)-stable) date 17.09.2014 22:00:27*
%MOIN*%
G04 Gerber Fmt 3.4, Leading zero omitted, Abs format*
%FSLAX34Y34*%
G01*
G70*
G90*
G04 APERTURE LIST*
%ADD10C,0.00590551*%
%ADD11R,0.055X0.055*%
%ADD12C,0.055*%
%ADD13R,0.0394X0.0315*%
%ADD14R,0.0315X0.0394*%
%ADD15R,0.2854X0.1181*%
%ADD16R,0.055X0.035*%
%ADD17R,0.035X0.055*%
%ADD18R,0.06X0.06*%
%ADD19C,0.06*%
%ADD20R,0.0708X0.0551*%
%ADD21R,0.0314X0.0314*%
%ADD22C,0.189*%
%ADD23R,0.189X0.189*%
%ADD24R,0.063X0.0866*%
%ADD25R,0.07X0.07*%
%ADD26C,0.07*%
%ADD27C,0.2205*%
%ADD28C,0.035*%
%ADD29C,0.0393701*%
%ADD30C,0.0149606*%
%ADD31C,0.001*%
G04 APERTURE END LIST*
G54D10*
G54D11*
X30000Y-31500D03*
G54D12*
X31000Y-31500D03*
X32000Y-31500D03*
X33000Y-31500D03*
X34000Y-31500D03*
X35000Y-31500D03*
X36000Y-31500D03*
X37000Y-31500D03*
X37000Y-28500D03*
X36000Y-28500D03*
X35000Y-28500D03*
X34000Y-28500D03*
X33000Y-28500D03*
X32000Y-28500D03*
X31000Y-28500D03*
X30000Y-28500D03*
G54D13*
X42683Y-27750D03*
X41817Y-28125D03*
X41817Y-27375D03*
X41567Y-31500D03*
X42433Y-31125D03*
X42433Y-31875D03*
G54D14*
X27250Y-34933D03*
X26875Y-34067D03*
X27625Y-34067D03*
X29250Y-35933D03*
X28875Y-35067D03*
X29625Y-35067D03*
X32250Y-35933D03*
X31875Y-35067D03*
X32625Y-35067D03*
X35250Y-35933D03*
X34875Y-35067D03*
X35625Y-35067D03*
X38250Y-35933D03*
X37875Y-35067D03*
X38625Y-35067D03*
G54D15*
X40000Y-28000D03*
X40000Y-30000D03*
G54D16*
X29250Y-34375D03*
X29250Y-33625D03*
G54D17*
X41625Y-26750D03*
X42375Y-26750D03*
X31125Y-24000D03*
X31875Y-24000D03*
X28875Y-28000D03*
X28125Y-28000D03*
G54D16*
X27000Y-26625D03*
X27000Y-27375D03*
G54D17*
X25875Y-25500D03*
X25125Y-25500D03*
X35875Y-24000D03*
X35125Y-24000D03*
X36375Y-30250D03*
X37125Y-30250D03*
X42625Y-28500D03*
X43375Y-28500D03*
G54D16*
X32750Y-37875D03*
X32750Y-37125D03*
G54D17*
X32625Y-36500D03*
X31875Y-36500D03*
G54D16*
X40750Y-35625D03*
X40750Y-36375D03*
X32250Y-34375D03*
X32250Y-33625D03*
X35250Y-34375D03*
X35250Y-33625D03*
X38250Y-34375D03*
X38250Y-33625D03*
G54D17*
X24875Y-27500D03*
X24125Y-27500D03*
X26625Y-33400D03*
X27375Y-33400D03*
G54D16*
X46500Y-28275D03*
X46500Y-29025D03*
X38000Y-21625D03*
X38000Y-22375D03*
X38000Y-24875D03*
X38000Y-24125D03*
X37000Y-21625D03*
X37000Y-22375D03*
G54D17*
X45125Y-28500D03*
X45875Y-28500D03*
X52875Y-33650D03*
X52125Y-33650D03*
X50375Y-33650D03*
X49625Y-33650D03*
X48375Y-33650D03*
X47625Y-33650D03*
G54D16*
X43250Y-31125D03*
X43250Y-31875D03*
X39250Y-34375D03*
X39250Y-33625D03*
X36250Y-34375D03*
X36250Y-33625D03*
X33250Y-34375D03*
X33250Y-33625D03*
X36250Y-35875D03*
X36250Y-36625D03*
X33250Y-35875D03*
X33250Y-36625D03*
X30250Y-35875D03*
X30250Y-36625D03*
G54D17*
X37125Y-32500D03*
X37875Y-32500D03*
G54D16*
X30250Y-34375D03*
X30250Y-33625D03*
X42000Y-28625D03*
X42000Y-29375D03*
X43000Y-29125D03*
X43000Y-29875D03*
X27250Y-36375D03*
X27250Y-35625D03*
G54D17*
X35625Y-36500D03*
X34875Y-36500D03*
X38625Y-36500D03*
X37875Y-36500D03*
G54D16*
X40000Y-35625D03*
X40000Y-36375D03*
G54D18*
X48750Y-23000D03*
G54D19*
X48750Y-24000D03*
X47750Y-23000D03*
X47750Y-24000D03*
X46750Y-23000D03*
X46750Y-24000D03*
G54D18*
X42500Y-36500D03*
G54D19*
X43500Y-36500D03*
X44500Y-36500D03*
G54D20*
X31150Y-35331D03*
X31150Y-36669D03*
X31150Y-33331D03*
X31150Y-34669D03*
X34150Y-35331D03*
X34150Y-36669D03*
X34150Y-33331D03*
X34150Y-34669D03*
X37150Y-35331D03*
X37150Y-36669D03*
X37150Y-33331D03*
X37150Y-34669D03*
X28250Y-35331D03*
X28250Y-36669D03*
X28250Y-33331D03*
X28250Y-34669D03*
G54D12*
X26000Y-27500D03*
G54D11*
X26000Y-26500D03*
G54D12*
X25000Y-26500D03*
G54D21*
X22705Y-27000D03*
X23295Y-27000D03*
X49705Y-32150D03*
X50295Y-32150D03*
X51795Y-32150D03*
X51205Y-32150D03*
X52705Y-32150D03*
X53295Y-32150D03*
X53000Y-26945D03*
X53000Y-26355D03*
X52000Y-26945D03*
X52000Y-26355D03*
X51000Y-26945D03*
X51000Y-26355D03*
X50000Y-26945D03*
X50000Y-26355D03*
X49000Y-26945D03*
X49000Y-26355D03*
X48000Y-26945D03*
X48000Y-26355D03*
X51000Y-29355D03*
X51000Y-29945D03*
X52000Y-29355D03*
X52000Y-29945D03*
X53000Y-29355D03*
X53000Y-29945D03*
X50000Y-29355D03*
X50000Y-29945D03*
X49000Y-29355D03*
X49000Y-29945D03*
X48000Y-29355D03*
X48000Y-29945D03*
X48205Y-32150D03*
X48795Y-32150D03*
G54D22*
X21000Y-29500D03*
G54D23*
X23400Y-29500D03*
G54D22*
X21900Y-31500D03*
G54D24*
X24752Y-29500D03*
X26248Y-29500D03*
G54D25*
X24500Y-32500D03*
G54D26*
X24500Y-34500D03*
G54D18*
X40250Y-32000D03*
G54D19*
X39250Y-32000D03*
G54D18*
X23500Y-25500D03*
G54D19*
X23500Y-24500D03*
G54D18*
X40000Y-21500D03*
G54D19*
X40000Y-20500D03*
G54D18*
X35000Y-21500D03*
G54D19*
X35000Y-20500D03*
G54D12*
X31000Y-26000D03*
X32000Y-26000D03*
X33000Y-26000D03*
X34000Y-26000D03*
X35000Y-26000D03*
X36000Y-26000D03*
X37000Y-26000D03*
X38000Y-26000D03*
X39000Y-26000D03*
X40000Y-26000D03*
X41000Y-26000D03*
X42000Y-26000D03*
X43000Y-26000D03*
G54D11*
X30000Y-26000D03*
G54D12*
X43000Y-23000D03*
X42000Y-23000D03*
X41000Y-23000D03*
X40000Y-23000D03*
X39000Y-23000D03*
X38000Y-23000D03*
X37000Y-23000D03*
X36000Y-23000D03*
X35000Y-23000D03*
X34000Y-23000D03*
X33000Y-23000D03*
X32000Y-23000D03*
X31000Y-23000D03*
X30000Y-23000D03*
G54D17*
X36875Y-25000D03*
X36125Y-25000D03*
X28625Y-27000D03*
X29375Y-27000D03*
G54D18*
X26000Y-24500D03*
G54D19*
X27000Y-24500D03*
X28000Y-24500D03*
G54D27*
X20000Y-36500D03*
X20000Y-21500D03*
X55000Y-36500D03*
X55000Y-21500D03*
G54D28*
X41000Y-29000D03*
X38750Y-24500D03*
X28500Y-26000D03*
X42000Y-30000D03*
X35750Y-30000D03*
X39250Y-36500D03*
X36250Y-37250D03*
X32000Y-37250D03*
X50700Y-31500D03*
X46250Y-26750D03*
X47000Y-29750D03*
X44500Y-29250D03*
X47250Y-21000D03*
X32250Y-21000D03*
X29750Y-24500D03*
X51000Y-27650D03*
X49000Y-27650D03*
X51500Y-27150D03*
X48000Y-27650D03*
X36250Y-33000D03*
X51750Y-30450D03*
X49500Y-29000D03*
X51500Y-29350D03*
X30250Y-35250D03*
X33250Y-35250D03*
X36250Y-35250D03*
X40250Y-33750D03*
X52500Y-29250D03*
X47000Y-28650D03*
X53000Y-30650D03*
X48500Y-28650D03*
X35000Y-32250D03*
X38750Y-35750D03*
X33750Y-37250D03*
X33000Y-32250D03*
X30500Y-37250D03*
X31000Y-32250D03*
X36000Y-29500D03*
X36500Y-27000D03*
X30000Y-27000D03*
G54D29*
X40000Y-28000D02*
X41000Y-29000D01*
X24500Y-32500D02*
X25000Y-32500D01*
X26248Y-31252D02*
X26248Y-29500D01*
X25000Y-32500D02*
X26248Y-31252D01*
X26000Y-27500D02*
X26000Y-29252D01*
X26000Y-29252D02*
X26248Y-29500D01*
X27000Y-27375D02*
X26125Y-27375D01*
X26125Y-27375D02*
X26000Y-27500D01*
X28125Y-28000D02*
X27625Y-28000D01*
X27625Y-28000D02*
X27000Y-27375D01*
G54D30*
X38000Y-24875D02*
X38375Y-24875D01*
X38375Y-24875D02*
X38750Y-24500D01*
X22705Y-27000D02*
X22705Y-25795D01*
X23000Y-25500D02*
X23500Y-25500D01*
X22705Y-25795D02*
X23000Y-25500D01*
X25125Y-25500D02*
X25125Y-26375D01*
X25125Y-26375D02*
X25000Y-26500D01*
X28625Y-27000D02*
X28625Y-26125D01*
X28625Y-26125D02*
X28500Y-26000D01*
X42000Y-29375D02*
X42000Y-30000D01*
X36125Y-25000D02*
X36125Y-25875D01*
X36125Y-25875D02*
X36000Y-26000D01*
X36375Y-30250D02*
X36000Y-30250D01*
X36000Y-30250D02*
X35750Y-30000D01*
X35125Y-24000D02*
X35125Y-23125D01*
X35125Y-23125D02*
X35000Y-23000D01*
X40000Y-36375D02*
X39375Y-36375D01*
X39375Y-36375D02*
X39250Y-36500D01*
X38625Y-36500D02*
X39250Y-36500D01*
X36250Y-37250D02*
X36000Y-37250D01*
X35625Y-36875D02*
X35625Y-36500D01*
X36000Y-37250D02*
X35625Y-36875D01*
X40750Y-36375D02*
X40750Y-36500D01*
X40000Y-37250D02*
X36250Y-37250D01*
X40750Y-36500D02*
X40000Y-37250D01*
X32750Y-37125D02*
X32125Y-37125D01*
X32125Y-37125D02*
X32000Y-37250D01*
X32625Y-36500D02*
X32625Y-37000D01*
X32625Y-37000D02*
X32750Y-37125D01*
X47400Y-34275D02*
X47375Y-34275D01*
X44450Y-29750D02*
X44000Y-29300D01*
X45150Y-29750D02*
X44450Y-29750D01*
X47050Y-31650D02*
X45150Y-29750D01*
X47050Y-33950D02*
X47050Y-31650D01*
X47375Y-34275D02*
X47050Y-33950D01*
X49150Y-34275D02*
X48725Y-34275D01*
X48725Y-34275D02*
X48375Y-33925D01*
X48375Y-33925D02*
X48375Y-33650D01*
X48375Y-33650D02*
X48375Y-33925D01*
X48375Y-33925D02*
X48025Y-34275D01*
X47400Y-34275D02*
X48025Y-34275D01*
X44000Y-27000D02*
X44000Y-29300D01*
X43000Y-26000D02*
X44000Y-27000D01*
X51000Y-30150D02*
X51000Y-30700D01*
X50300Y-31650D02*
X50295Y-31650D01*
X50295Y-31645D02*
X50300Y-31650D01*
X50295Y-31405D02*
X50295Y-31645D01*
X51000Y-30700D02*
X50295Y-31405D01*
X49150Y-34275D02*
X49875Y-34275D01*
X50295Y-32855D02*
X50295Y-32150D01*
X50000Y-33150D02*
X50295Y-32855D01*
X50000Y-34150D02*
X50000Y-33150D01*
X49875Y-34275D02*
X50000Y-34150D01*
X50295Y-32150D02*
X50295Y-31650D01*
X51000Y-30150D02*
X51000Y-29945D01*
X52000Y-29945D02*
X53000Y-29945D01*
X51000Y-29945D02*
X52000Y-29945D01*
X51150Y-31650D02*
X51000Y-31500D01*
X51000Y-31500D02*
X50700Y-31500D01*
X50000Y-23750D02*
X50000Y-22250D01*
X43000Y-22250D02*
X43000Y-23000D01*
X43250Y-22000D02*
X43000Y-22250D01*
X49750Y-22000D02*
X43250Y-22000D01*
X50000Y-22250D02*
X49750Y-22000D01*
X51205Y-32150D02*
X51205Y-31705D01*
X46645Y-26355D02*
X48000Y-26355D01*
X46250Y-26750D02*
X46645Y-26355D01*
X51205Y-31705D02*
X51150Y-31650D01*
X50000Y-23750D02*
X50000Y-26355D01*
X50375Y-33650D02*
X50375Y-33275D01*
X51205Y-32445D02*
X51205Y-32150D01*
X50375Y-33275D02*
X51205Y-32445D01*
X49000Y-26355D02*
X50000Y-26355D01*
X48000Y-26355D02*
X49000Y-26355D01*
X42000Y-23000D02*
X42000Y-22250D01*
X51000Y-21750D02*
X51000Y-23500D01*
X50750Y-21500D02*
X51000Y-21750D01*
X42750Y-21500D02*
X50750Y-21500D01*
X42000Y-22250D02*
X42750Y-21500D01*
X51000Y-23500D02*
X51000Y-26355D01*
X52875Y-33650D02*
X52875Y-33275D01*
X53295Y-32855D02*
X53295Y-32150D01*
X52875Y-33275D02*
X53295Y-32855D01*
X53000Y-26355D02*
X53205Y-26355D01*
X53500Y-31945D02*
X53295Y-32150D01*
X53500Y-26650D02*
X53500Y-31945D01*
X53205Y-26355D02*
X53500Y-26650D01*
X52000Y-26355D02*
X53000Y-26355D01*
X51000Y-26355D02*
X52000Y-26355D01*
X38000Y-26000D02*
X38500Y-25500D01*
X45125Y-25875D02*
X45125Y-28500D01*
X44250Y-25000D02*
X45125Y-25875D01*
X39750Y-25000D02*
X44250Y-25000D01*
X39250Y-25500D02*
X39750Y-25000D01*
X38500Y-25500D02*
X39250Y-25500D01*
X39000Y-26000D02*
X39250Y-26000D01*
X44500Y-26000D02*
X44500Y-29250D01*
X44000Y-25500D02*
X44500Y-26000D01*
X39750Y-25500D02*
X44000Y-25500D01*
X39250Y-26000D02*
X39750Y-25500D01*
X48000Y-29945D02*
X47195Y-29945D01*
X46500Y-29250D02*
X46500Y-29025D01*
X47195Y-29945D02*
X47000Y-29750D01*
X47000Y-29750D02*
X46500Y-29250D01*
X49000Y-29945D02*
X49000Y-31150D01*
X48795Y-31355D02*
X48795Y-32150D01*
X49000Y-31150D02*
X48795Y-31355D01*
X49000Y-29945D02*
X48000Y-29945D01*
X50000Y-29945D02*
X49000Y-29945D01*
X48750Y-23000D02*
X48250Y-22500D01*
X40500Y-23500D02*
X40000Y-23000D01*
X43500Y-23500D02*
X40500Y-23500D01*
X44500Y-22500D02*
X43500Y-23500D01*
X48250Y-22500D02*
X44500Y-22500D01*
X41000Y-22500D02*
X41000Y-23000D01*
X42500Y-21000D02*
X41000Y-22500D01*
X47250Y-21000D02*
X42500Y-21000D01*
X30000Y-21000D02*
X32250Y-21000D01*
X29000Y-22000D02*
X30000Y-21000D01*
X29000Y-23750D02*
X29000Y-22000D01*
X29750Y-24500D02*
X29000Y-23750D01*
X29375Y-27000D02*
X29375Y-26625D01*
X29375Y-26625D02*
X30000Y-26000D01*
X43750Y-23750D02*
X44750Y-22750D01*
X45750Y-22750D02*
X46500Y-23500D01*
X44750Y-22750D02*
X45750Y-22750D01*
X47750Y-23000D02*
X47250Y-23500D01*
X47250Y-23500D02*
X46500Y-23500D01*
X39750Y-23750D02*
X39000Y-23000D01*
X43750Y-23750D02*
X39750Y-23750D01*
X46500Y-28275D02*
X48375Y-28275D01*
X48375Y-28275D02*
X49000Y-27650D01*
X53000Y-29355D02*
X53000Y-28650D01*
X53000Y-28650D02*
X52500Y-28150D01*
X49000Y-26945D02*
X49000Y-27650D01*
X53000Y-27650D02*
X53000Y-26945D01*
X52500Y-28150D02*
X53000Y-27650D01*
X51500Y-28150D02*
X52500Y-28150D01*
X51000Y-27650D02*
X51500Y-28150D01*
X48205Y-32150D02*
X48150Y-32150D01*
X45500Y-29500D02*
X45500Y-28950D01*
X48150Y-32150D02*
X45500Y-29500D01*
X52000Y-26945D02*
X51705Y-26945D01*
X51705Y-26945D02*
X51500Y-27150D01*
X45500Y-28950D02*
X45500Y-28150D01*
X45500Y-28150D02*
X46000Y-27650D01*
X46000Y-27650D02*
X48000Y-27650D01*
X47625Y-33650D02*
X47625Y-32730D01*
X47625Y-32730D02*
X48205Y-32150D01*
X48000Y-27650D02*
X48000Y-26945D01*
X27000Y-24500D02*
X27500Y-25000D01*
X31000Y-25000D02*
X32000Y-26000D01*
X27500Y-25000D02*
X31000Y-25000D01*
X35000Y-21500D02*
X35500Y-21500D01*
X36375Y-22375D02*
X37000Y-22375D01*
X35500Y-21500D02*
X36375Y-22375D01*
X37000Y-22375D02*
X37000Y-23000D01*
X31000Y-31500D02*
X31000Y-31000D01*
X30000Y-24000D02*
X30000Y-23000D01*
X30500Y-24500D02*
X30000Y-24000D01*
X31500Y-24500D02*
X30500Y-24500D01*
X32500Y-25500D02*
X31500Y-24500D01*
X32500Y-26500D02*
X32500Y-25500D01*
X31500Y-27500D02*
X32500Y-26500D01*
X31500Y-30500D02*
X31500Y-27500D01*
X31000Y-31000D02*
X31500Y-30500D01*
X38000Y-22375D02*
X39125Y-22375D01*
X39125Y-22375D02*
X40000Y-21500D01*
X38000Y-23000D02*
X38000Y-22375D01*
X38000Y-24125D02*
X38000Y-23000D01*
G54D29*
X24752Y-29500D02*
X23400Y-29500D01*
G54D30*
X50000Y-29355D02*
X50000Y-28150D01*
X49705Y-31350D02*
X49705Y-30995D01*
X49705Y-32150D02*
X49705Y-31350D01*
X50155Y-29355D02*
X50000Y-29355D01*
X50350Y-29550D02*
X50155Y-29355D01*
X50350Y-30250D02*
X50350Y-29550D01*
X50350Y-30250D02*
X50350Y-30350D01*
X49705Y-30995D02*
X50350Y-30350D01*
X49705Y-32150D02*
X49705Y-32945D01*
X49625Y-33025D02*
X49625Y-33650D01*
X49705Y-32945D02*
X49625Y-33025D01*
X51000Y-27150D02*
X51000Y-26945D01*
X50000Y-28150D02*
X51000Y-27150D01*
X23295Y-27000D02*
X24000Y-27000D01*
X24125Y-27125D02*
X24125Y-27500D01*
X24000Y-27000D02*
X24125Y-27125D01*
X30000Y-31500D02*
X30000Y-31000D01*
X31000Y-26500D02*
X31000Y-26000D01*
X30500Y-27000D02*
X31000Y-26500D01*
X30500Y-30500D02*
X30500Y-27000D01*
X30000Y-31000D02*
X30500Y-30500D01*
X27500Y-32750D02*
X36000Y-32750D01*
X36000Y-32750D02*
X36250Y-33000D01*
X27375Y-32875D02*
X27375Y-33500D01*
X27500Y-32750D02*
X27375Y-32875D01*
X43000Y-29875D02*
X43000Y-30875D01*
X43000Y-30875D02*
X43250Y-31125D01*
X43250Y-31125D02*
X42433Y-31125D01*
X42683Y-27750D02*
X42750Y-27750D01*
X43000Y-28000D02*
X43000Y-29125D01*
X42750Y-27750D02*
X43000Y-28000D01*
X51750Y-31050D02*
X51795Y-31050D01*
X51795Y-31005D02*
X51750Y-31050D01*
X51795Y-30495D02*
X51795Y-31005D01*
X51750Y-30450D02*
X51795Y-30495D01*
X49000Y-29355D02*
X49145Y-29355D01*
X49145Y-29355D02*
X49500Y-29000D01*
X51000Y-29355D02*
X51495Y-29355D01*
X51795Y-31050D02*
X51795Y-32150D01*
X51495Y-29355D02*
X51500Y-29350D01*
X52125Y-33650D02*
X52125Y-33275D01*
X51795Y-32945D02*
X51795Y-32150D01*
X52125Y-33275D02*
X51795Y-32945D01*
X28250Y-36669D02*
X27919Y-36669D01*
X27625Y-36375D02*
X27250Y-36375D01*
X27919Y-36669D02*
X27625Y-36375D01*
X28875Y-35067D02*
X28875Y-35875D01*
X28250Y-36250D02*
X28250Y-36669D01*
X28500Y-36000D02*
X28250Y-36250D01*
X28750Y-36000D02*
X28500Y-36000D01*
X28875Y-35875D02*
X28750Y-36000D01*
X28875Y-35067D02*
X28875Y-34750D01*
X28875Y-34750D02*
X29250Y-34375D01*
X33000Y-26000D02*
X33000Y-26500D01*
X32000Y-31000D02*
X32000Y-31500D01*
X32500Y-30500D02*
X32000Y-31000D01*
X32500Y-27000D02*
X32500Y-30500D01*
X33000Y-26500D02*
X32500Y-27000D01*
X33000Y-31500D02*
X33000Y-31000D01*
X34000Y-26500D02*
X34000Y-26000D01*
X33500Y-27000D02*
X34000Y-26500D01*
X33500Y-30500D02*
X33500Y-27000D01*
X33000Y-31000D02*
X33500Y-30500D01*
X35000Y-26000D02*
X35000Y-26500D01*
X34000Y-31000D02*
X34000Y-31500D01*
X34500Y-30500D02*
X34000Y-31000D01*
X34500Y-27000D02*
X34500Y-30500D01*
X35000Y-26500D02*
X34500Y-27000D01*
X35000Y-31000D02*
X35000Y-29500D01*
X35000Y-29500D02*
X35500Y-29000D01*
X35000Y-31500D02*
X35000Y-31000D01*
X39500Y-26500D02*
X40000Y-26000D01*
X36000Y-26500D02*
X39500Y-26500D01*
X35500Y-27000D02*
X36000Y-26500D01*
X35500Y-29000D02*
X35500Y-27000D01*
X42625Y-28500D02*
X42125Y-28500D01*
X42125Y-28500D02*
X42000Y-28625D01*
X42000Y-28625D02*
X42000Y-28308D01*
X42000Y-28308D02*
X41817Y-28125D01*
X34150Y-34669D02*
X34150Y-35331D01*
X37250Y-34669D02*
X37250Y-35331D01*
X29625Y-35067D02*
X29625Y-35000D01*
X29625Y-35000D02*
X30250Y-34375D01*
X28250Y-34669D02*
X28250Y-35331D01*
X26875Y-34067D02*
X26875Y-33750D01*
X26875Y-33750D02*
X26625Y-33500D01*
X27250Y-35625D02*
X27250Y-34933D01*
X37875Y-35067D02*
X37875Y-35875D01*
X37250Y-36250D02*
X37250Y-36669D01*
X37500Y-36000D02*
X37250Y-36250D01*
X37750Y-36000D02*
X37500Y-36000D01*
X37875Y-35875D02*
X37750Y-36000D01*
X37875Y-35067D02*
X37875Y-34875D01*
X38250Y-34500D02*
X38250Y-34375D01*
X37875Y-34875D02*
X38250Y-34500D01*
X37250Y-36669D02*
X36294Y-36669D01*
X36294Y-36669D02*
X36250Y-36625D01*
X30250Y-35875D02*
X30250Y-35250D01*
X34150Y-36669D02*
X34150Y-36150D01*
X34875Y-35775D02*
X34875Y-35067D01*
X34700Y-35950D02*
X34875Y-35775D01*
X34350Y-35950D02*
X34700Y-35950D01*
X34150Y-36150D02*
X34350Y-35950D01*
X33250Y-36625D02*
X34106Y-36625D01*
X34106Y-36625D02*
X34150Y-36669D01*
X34875Y-35067D02*
X34875Y-34750D01*
X34875Y-34750D02*
X35250Y-34375D01*
X33250Y-35875D02*
X33250Y-35250D01*
X36250Y-35875D02*
X36250Y-35250D01*
X32625Y-35067D02*
X32625Y-35000D01*
X32625Y-35000D02*
X33250Y-34375D01*
X35625Y-35067D02*
X35625Y-35000D01*
X35625Y-35000D02*
X36250Y-34375D01*
G54D29*
X39625Y-33625D02*
X40125Y-33625D01*
X40125Y-33625D02*
X40250Y-33750D01*
X40250Y-32000D02*
X42308Y-32000D01*
X42308Y-32000D02*
X42433Y-31875D01*
X37125Y-30250D02*
X37500Y-30250D01*
X37500Y-30250D02*
X38250Y-31000D01*
X38250Y-31000D02*
X39250Y-31000D01*
X39250Y-31000D02*
X40250Y-32000D01*
X42433Y-31875D02*
X43250Y-31875D01*
X39250Y-33625D02*
X39625Y-33625D01*
X33250Y-33625D02*
X33375Y-33625D01*
X33669Y-33331D02*
X34150Y-33331D01*
X33375Y-33625D02*
X33669Y-33331D01*
X34150Y-33331D02*
X34531Y-33331D01*
X34531Y-33331D02*
X34825Y-33625D01*
X34825Y-33625D02*
X35250Y-33625D01*
X37875Y-32500D02*
X37875Y-32706D01*
X37875Y-32706D02*
X37250Y-33331D01*
X30250Y-33625D02*
X30375Y-33625D01*
X30669Y-33331D02*
X31250Y-33331D01*
X30375Y-33625D02*
X30669Y-33331D01*
X29250Y-33625D02*
X30250Y-33625D01*
X28250Y-33331D02*
X28831Y-33331D01*
X29125Y-33625D02*
X29250Y-33625D01*
X28831Y-33331D02*
X29125Y-33625D01*
X37125Y-30250D02*
X37125Y-28625D01*
X37125Y-28625D02*
X37000Y-28500D01*
X32250Y-33625D02*
X33250Y-33625D01*
X31250Y-33331D02*
X31581Y-33331D01*
X31581Y-33331D02*
X31875Y-33625D01*
X31875Y-33625D02*
X32250Y-33625D01*
X36250Y-33625D02*
X36625Y-33625D01*
X36625Y-33625D02*
X36919Y-33331D01*
X36919Y-33331D02*
X37250Y-33331D01*
X35250Y-33625D02*
X36250Y-33625D01*
X39250Y-33625D02*
X38250Y-33625D01*
X38250Y-33625D02*
X37875Y-33625D01*
X37875Y-33625D02*
X37581Y-33331D01*
X37581Y-33331D02*
X37250Y-33331D01*
G54D30*
X52000Y-29355D02*
X52395Y-29355D01*
X52395Y-29355D02*
X52500Y-29250D01*
X45875Y-28650D02*
X47000Y-28650D01*
X52705Y-32150D02*
X52705Y-30945D01*
X52705Y-30945D02*
X53000Y-30650D01*
X48000Y-29355D02*
X48000Y-29150D01*
X50000Y-27150D02*
X50000Y-26945D01*
X48000Y-29150D02*
X48500Y-28650D01*
X48500Y-28650D02*
X50000Y-27150D01*
X38625Y-35067D02*
X38625Y-35000D01*
X38625Y-35000D02*
X39250Y-34375D01*
X31250Y-34669D02*
X31250Y-35331D01*
X40750Y-36000D02*
X41500Y-36000D01*
X41500Y-36000D02*
X42000Y-35500D01*
X38250Y-35933D02*
X38567Y-35933D01*
X38567Y-35933D02*
X38750Y-35750D01*
X42000Y-35500D02*
X44000Y-35500D01*
X44000Y-35500D02*
X44500Y-36000D01*
X44500Y-36000D02*
X44500Y-36500D01*
X40750Y-36000D02*
X39000Y-36000D01*
X39000Y-36000D02*
X38750Y-35750D01*
X35000Y-32250D02*
X34500Y-31750D01*
X35000Y-28500D02*
X35000Y-28999D01*
X35000Y-28999D02*
X34750Y-29249D01*
X34750Y-29249D02*
X34750Y-30749D01*
X34750Y-30749D02*
X34500Y-31000D01*
X34500Y-31000D02*
X34500Y-31750D01*
X37875Y-36500D02*
X37875Y-36308D01*
X37875Y-36308D02*
X38250Y-35933D01*
X36999Y-37500D02*
X36750Y-37500D01*
X36500Y-37750D02*
X36500Y-37750D01*
X36750Y-37500D02*
X36500Y-37750D01*
X40750Y-37000D02*
X41000Y-37000D01*
X40250Y-37500D02*
X40750Y-37000D01*
X36999Y-37500D02*
X40250Y-37500D01*
X35250Y-37250D02*
X35500Y-37250D01*
X36000Y-37750D02*
X36500Y-37750D01*
X35500Y-37250D02*
X36000Y-37750D01*
X33750Y-37250D02*
X35250Y-37250D01*
X43000Y-35750D02*
X42750Y-35750D01*
X43500Y-36250D02*
X43000Y-35750D01*
X43500Y-36500D02*
X43500Y-36250D01*
X41000Y-37000D02*
X42250Y-35750D01*
X42250Y-35750D02*
X42750Y-35750D01*
X34875Y-36500D02*
X35000Y-36500D01*
X35250Y-36750D02*
X35250Y-37250D01*
X35000Y-36500D02*
X35250Y-36750D01*
X33000Y-28500D02*
X33000Y-30500D01*
X32500Y-31750D02*
X33000Y-32250D01*
X32500Y-31000D02*
X32500Y-31750D01*
X33000Y-30500D02*
X32500Y-31000D01*
X34875Y-36500D02*
X34875Y-36308D01*
X34875Y-36308D02*
X35250Y-35933D01*
X36750Y-38000D02*
X37000Y-37750D01*
X42000Y-36500D02*
X42500Y-36500D01*
X40750Y-37750D02*
X42000Y-36500D01*
X37000Y-37750D02*
X40750Y-37750D01*
X33750Y-37750D02*
X34250Y-37750D01*
X35250Y-37500D02*
X35750Y-38000D01*
X34500Y-37500D02*
X35250Y-37500D01*
X34250Y-37750D02*
X34500Y-37500D01*
X33750Y-37750D02*
X33500Y-37500D01*
X31750Y-37750D02*
X31250Y-37250D01*
X32000Y-37750D02*
X31750Y-37750D01*
X32250Y-37500D02*
X32000Y-37750D01*
X33500Y-37500D02*
X32250Y-37500D01*
X31875Y-36500D02*
X31875Y-36875D01*
X31875Y-36875D02*
X31500Y-37250D01*
X31500Y-37250D02*
X31250Y-37250D01*
X31250Y-37250D02*
X30500Y-37250D01*
X31000Y-30500D02*
X30500Y-31000D01*
X30500Y-31000D02*
X30500Y-31750D01*
X31000Y-28500D02*
X31000Y-30500D01*
X31000Y-32250D02*
X30500Y-31750D01*
X35750Y-38000D02*
X36750Y-38000D01*
X29250Y-35933D02*
X29250Y-36500D01*
X29250Y-36500D02*
X30000Y-37250D01*
X30000Y-37250D02*
X30500Y-37250D01*
X31875Y-36500D02*
X31875Y-36308D01*
X31875Y-36308D02*
X32250Y-35933D01*
G54D29*
X41567Y-31500D02*
X41500Y-31500D01*
X41500Y-31500D02*
X40000Y-30000D01*
X36000Y-28500D02*
X36000Y-28000D01*
X38500Y-30000D02*
X40000Y-30000D01*
X38000Y-29500D02*
X38500Y-30000D01*
X38000Y-28000D02*
X38000Y-29500D01*
X37500Y-27500D02*
X38000Y-28000D01*
X36500Y-27500D02*
X37500Y-27500D01*
X36000Y-28000D02*
X36500Y-27500D01*
G54D30*
X41817Y-27375D02*
X41817Y-27317D01*
X41625Y-27125D02*
X41625Y-26750D01*
X41817Y-27317D02*
X41625Y-27125D01*
X41625Y-26750D02*
X41250Y-26750D01*
X41250Y-26750D02*
X41000Y-26500D01*
X35500Y-30750D02*
X35250Y-30500D01*
X36000Y-31250D02*
X35500Y-30750D01*
X41000Y-26000D02*
X41000Y-26500D01*
X36500Y-27000D02*
X40500Y-27000D01*
X40500Y-27000D02*
X41000Y-26500D01*
X36000Y-31250D02*
X36000Y-31500D01*
X35500Y-29500D02*
X36000Y-29500D01*
X35250Y-29750D02*
X35500Y-29500D01*
X35250Y-30500D02*
X35250Y-29750D01*
X31250Y-36669D02*
X30294Y-36669D01*
X30294Y-36669D02*
X30250Y-36625D01*
X31875Y-35067D02*
X31875Y-35875D01*
X31250Y-36250D02*
X31250Y-36669D01*
X31500Y-36000D02*
X31250Y-36250D01*
X31750Y-36000D02*
X31500Y-36000D01*
X31875Y-35875D02*
X31750Y-36000D01*
X31875Y-35067D02*
X31875Y-34750D01*
X31875Y-34750D02*
X32250Y-34375D01*
X28875Y-28000D02*
X29500Y-28000D01*
X30000Y-27500D02*
X30000Y-27000D01*
X29500Y-28000D02*
X30000Y-27500D01*
X31125Y-24000D02*
X31125Y-23125D01*
X31125Y-23125D02*
X31000Y-23000D01*
G54D10*
G36*
X56971Y-38471D02*
X56207Y-38471D01*
X56207Y-36260D01*
X56207Y-21260D01*
X56024Y-20816D01*
X55684Y-20476D01*
X55241Y-20292D01*
X54760Y-20292D01*
X54316Y-20475D01*
X53976Y-20815D01*
X53792Y-21258D01*
X53792Y-21739D01*
X53975Y-22183D01*
X54315Y-22523D01*
X54758Y-22707D01*
X55239Y-22707D01*
X55683Y-22524D01*
X56023Y-22184D01*
X56207Y-21741D01*
X56207Y-21260D01*
X56207Y-36260D01*
X56024Y-35816D01*
X55684Y-35476D01*
X55241Y-35292D01*
X54760Y-35292D01*
X54316Y-35475D01*
X53976Y-35815D01*
X53792Y-36258D01*
X53792Y-36739D01*
X53975Y-37183D01*
X54315Y-37523D01*
X54758Y-37707D01*
X55239Y-37707D01*
X55683Y-37524D01*
X56023Y-37184D01*
X56207Y-36741D01*
X56207Y-36260D01*
X56207Y-38471D01*
X53679Y-38471D01*
X53679Y-31945D01*
X53679Y-26650D01*
X53666Y-26581D01*
X53666Y-26581D01*
X53627Y-26522D01*
X53332Y-26227D01*
X53273Y-26188D01*
X53262Y-26186D01*
X53262Y-26177D01*
X53246Y-26138D01*
X53216Y-26109D01*
X53177Y-26093D01*
X53136Y-26092D01*
X52822Y-26092D01*
X52783Y-26108D01*
X52754Y-26138D01*
X52738Y-26175D01*
X52261Y-26175D01*
X52246Y-26138D01*
X52216Y-26109D01*
X52177Y-26093D01*
X52136Y-26092D01*
X51822Y-26092D01*
X51783Y-26108D01*
X51754Y-26138D01*
X51738Y-26175D01*
X51261Y-26175D01*
X51246Y-26138D01*
X51216Y-26109D01*
X51179Y-26093D01*
X51179Y-23500D01*
X51179Y-21750D01*
X51166Y-21681D01*
X51127Y-21622D01*
X51127Y-21622D01*
X50877Y-21372D01*
X50818Y-21333D01*
X50750Y-21320D01*
X42750Y-21320D01*
X42749Y-21320D01*
X42681Y-21333D01*
X42622Y-21372D01*
X42622Y-21372D01*
X41872Y-22122D01*
X41833Y-22181D01*
X41820Y-22250D01*
X41820Y-22663D01*
X41785Y-22677D01*
X41678Y-22784D01*
X41620Y-22924D01*
X41619Y-23075D01*
X41677Y-23214D01*
X41782Y-23320D01*
X41217Y-23320D01*
X41321Y-23215D01*
X41379Y-23075D01*
X41380Y-22924D01*
X41322Y-22785D01*
X41215Y-22678D01*
X41179Y-22663D01*
X41179Y-22574D01*
X42574Y-21179D01*
X47033Y-21179D01*
X47091Y-21237D01*
X47194Y-21279D01*
X47305Y-21280D01*
X47408Y-21237D01*
X47487Y-21158D01*
X47529Y-21055D01*
X47530Y-20944D01*
X47487Y-20841D01*
X47408Y-20762D01*
X47305Y-20720D01*
X47194Y-20719D01*
X47091Y-20762D01*
X47033Y-20820D01*
X42500Y-20820D01*
X42431Y-20833D01*
X42372Y-20872D01*
X42372Y-20872D01*
X40872Y-22372D01*
X40833Y-22431D01*
X40820Y-22500D01*
X40820Y-22663D01*
X40785Y-22677D01*
X40678Y-22784D01*
X40620Y-22924D01*
X40619Y-23075D01*
X40677Y-23214D01*
X40782Y-23320D01*
X40574Y-23320D01*
X40405Y-23150D01*
X40405Y-21779D01*
X40405Y-21179D01*
X40389Y-21140D01*
X40359Y-21111D01*
X40320Y-21095D01*
X40279Y-21094D01*
X39679Y-21094D01*
X39640Y-21110D01*
X39611Y-21140D01*
X39595Y-21179D01*
X39594Y-21220D01*
X39594Y-21650D01*
X39050Y-22195D01*
X38380Y-22195D01*
X38380Y-22179D01*
X38364Y-22140D01*
X38334Y-22111D01*
X38295Y-22095D01*
X38254Y-22094D01*
X37704Y-22094D01*
X37665Y-22110D01*
X37636Y-22140D01*
X37620Y-22179D01*
X37619Y-22220D01*
X37619Y-22570D01*
X37635Y-22609D01*
X37665Y-22638D01*
X37704Y-22654D01*
X37745Y-22655D01*
X37820Y-22655D01*
X37820Y-22663D01*
X37785Y-22677D01*
X37678Y-22784D01*
X37620Y-22924D01*
X37619Y-23075D01*
X37677Y-23214D01*
X37784Y-23321D01*
X37820Y-23336D01*
X37820Y-23844D01*
X37704Y-23844D01*
X37665Y-23860D01*
X37636Y-23890D01*
X37620Y-23929D01*
X37619Y-23970D01*
X37619Y-24320D01*
X37635Y-24359D01*
X37665Y-24388D01*
X37704Y-24404D01*
X37745Y-24405D01*
X38295Y-24405D01*
X38334Y-24389D01*
X38363Y-24359D01*
X38379Y-24320D01*
X38380Y-24279D01*
X38380Y-23929D01*
X38364Y-23890D01*
X38334Y-23861D01*
X38295Y-23845D01*
X38254Y-23844D01*
X38179Y-23844D01*
X38179Y-23336D01*
X38214Y-23322D01*
X38321Y-23215D01*
X38379Y-23075D01*
X38380Y-22924D01*
X38322Y-22785D01*
X38215Y-22678D01*
X38179Y-22663D01*
X38179Y-22655D01*
X38295Y-22655D01*
X38334Y-22639D01*
X38363Y-22609D01*
X38379Y-22570D01*
X38379Y-22554D01*
X39125Y-22554D01*
X39193Y-22541D01*
X39193Y-22541D01*
X39252Y-22502D01*
X39849Y-21905D01*
X40320Y-21905D01*
X40359Y-21889D01*
X40388Y-21859D01*
X40404Y-21820D01*
X40405Y-21779D01*
X40405Y-23150D01*
X40365Y-23111D01*
X40379Y-23075D01*
X40380Y-22924D01*
X40322Y-22785D01*
X40215Y-22678D01*
X40075Y-22620D01*
X39924Y-22619D01*
X39785Y-22677D01*
X39678Y-22784D01*
X39620Y-22924D01*
X39619Y-23075D01*
X39677Y-23214D01*
X39784Y-23321D01*
X39924Y-23379D01*
X40075Y-23380D01*
X40111Y-23365D01*
X40315Y-23570D01*
X39824Y-23570D01*
X39365Y-23111D01*
X39379Y-23075D01*
X39380Y-22924D01*
X39322Y-22785D01*
X39215Y-22678D01*
X39075Y-22620D01*
X38924Y-22619D01*
X38785Y-22677D01*
X38678Y-22784D01*
X38620Y-22924D01*
X38619Y-23075D01*
X38677Y-23214D01*
X38784Y-23321D01*
X38924Y-23379D01*
X39075Y-23380D01*
X39111Y-23365D01*
X39622Y-23877D01*
X39622Y-23877D01*
X39681Y-23916D01*
X39749Y-23929D01*
X39749Y-23929D01*
X39750Y-23929D01*
X43750Y-23929D01*
X43818Y-23916D01*
X43818Y-23916D01*
X43877Y-23877D01*
X44824Y-22929D01*
X45675Y-22929D01*
X46372Y-23627D01*
X46372Y-23627D01*
X46431Y-23666D01*
X46499Y-23679D01*
X46499Y-23679D01*
X46500Y-23679D01*
X47250Y-23679D01*
X47318Y-23666D01*
X47318Y-23666D01*
X47377Y-23627D01*
X47619Y-23384D01*
X47669Y-23404D01*
X47830Y-23405D01*
X47979Y-23343D01*
X48093Y-23229D01*
X48154Y-23080D01*
X48155Y-22919D01*
X48093Y-22770D01*
X48002Y-22679D01*
X48175Y-22679D01*
X48344Y-22849D01*
X48344Y-23320D01*
X48360Y-23359D01*
X48390Y-23388D01*
X48429Y-23404D01*
X48470Y-23405D01*
X49070Y-23405D01*
X49109Y-23389D01*
X49138Y-23359D01*
X49154Y-23320D01*
X49155Y-23279D01*
X49155Y-22679D01*
X49139Y-22640D01*
X49109Y-22611D01*
X49070Y-22595D01*
X49029Y-22594D01*
X48599Y-22594D01*
X48377Y-22372D01*
X48318Y-22333D01*
X48250Y-22320D01*
X44500Y-22320D01*
X44431Y-22333D01*
X44372Y-22372D01*
X44372Y-22372D01*
X43425Y-23320D01*
X43217Y-23320D01*
X43321Y-23215D01*
X43379Y-23075D01*
X43380Y-22924D01*
X43322Y-22785D01*
X43215Y-22678D01*
X43179Y-22663D01*
X43179Y-22324D01*
X43324Y-22179D01*
X49675Y-22179D01*
X49820Y-22324D01*
X49820Y-23750D01*
X49820Y-26093D01*
X49783Y-26108D01*
X49754Y-26138D01*
X49738Y-26175D01*
X49261Y-26175D01*
X49246Y-26138D01*
X49216Y-26109D01*
X49177Y-26093D01*
X49155Y-26092D01*
X49155Y-23919D01*
X49093Y-23770D01*
X48979Y-23656D01*
X48830Y-23595D01*
X48669Y-23594D01*
X48520Y-23656D01*
X48406Y-23770D01*
X48345Y-23919D01*
X48344Y-24080D01*
X48406Y-24229D01*
X48520Y-24343D01*
X48669Y-24404D01*
X48830Y-24405D01*
X48979Y-24343D01*
X49093Y-24229D01*
X49154Y-24080D01*
X49155Y-23919D01*
X49155Y-26092D01*
X49136Y-26092D01*
X48822Y-26092D01*
X48783Y-26108D01*
X48754Y-26138D01*
X48738Y-26175D01*
X48261Y-26175D01*
X48246Y-26138D01*
X48216Y-26109D01*
X48177Y-26093D01*
X48155Y-26092D01*
X48155Y-23919D01*
X48093Y-23770D01*
X47979Y-23656D01*
X47830Y-23595D01*
X47669Y-23594D01*
X47520Y-23656D01*
X47406Y-23770D01*
X47345Y-23919D01*
X47344Y-24080D01*
X47406Y-24229D01*
X47520Y-24343D01*
X47669Y-24404D01*
X47830Y-24405D01*
X47979Y-24343D01*
X48093Y-24229D01*
X48154Y-24080D01*
X48155Y-23919D01*
X48155Y-26092D01*
X48136Y-26092D01*
X47822Y-26092D01*
X47783Y-26108D01*
X47754Y-26138D01*
X47738Y-26175D01*
X46645Y-26175D01*
X46576Y-26188D01*
X46517Y-26227D01*
X46517Y-26227D01*
X46275Y-26470D01*
X46194Y-26469D01*
X46091Y-26512D01*
X46012Y-26591D01*
X45970Y-26694D01*
X45969Y-26805D01*
X46012Y-26908D01*
X46091Y-26987D01*
X46194Y-27029D01*
X46305Y-27030D01*
X46408Y-26987D01*
X46487Y-26908D01*
X46529Y-26805D01*
X46530Y-26724D01*
X46719Y-26534D01*
X47738Y-26534D01*
X47753Y-26571D01*
X47783Y-26600D01*
X47822Y-26616D01*
X47863Y-26617D01*
X48177Y-26617D01*
X48216Y-26601D01*
X48245Y-26571D01*
X48261Y-26534D01*
X48738Y-26534D01*
X48753Y-26571D01*
X48783Y-26600D01*
X48822Y-26616D01*
X48863Y-26617D01*
X49177Y-26617D01*
X49216Y-26601D01*
X49245Y-26571D01*
X49261Y-26534D01*
X49738Y-26534D01*
X49753Y-26571D01*
X49783Y-26600D01*
X49822Y-26616D01*
X49863Y-26617D01*
X50177Y-26617D01*
X50216Y-26601D01*
X50245Y-26571D01*
X50261Y-26532D01*
X50262Y-26491D01*
X50262Y-26177D01*
X50246Y-26138D01*
X50216Y-26109D01*
X50179Y-26093D01*
X50179Y-23750D01*
X50179Y-22250D01*
X50166Y-22181D01*
X50127Y-22122D01*
X50127Y-22122D01*
X49877Y-21872D01*
X49818Y-21833D01*
X49750Y-21820D01*
X43250Y-21820D01*
X43181Y-21833D01*
X43122Y-21872D01*
X43122Y-21872D01*
X42872Y-22122D01*
X42833Y-22181D01*
X42820Y-22250D01*
X42820Y-22663D01*
X42785Y-22677D01*
X42678Y-22784D01*
X42620Y-22924D01*
X42619Y-23075D01*
X42677Y-23214D01*
X42782Y-23320D01*
X42217Y-23320D01*
X42321Y-23215D01*
X42379Y-23075D01*
X42380Y-22924D01*
X42322Y-22785D01*
X42215Y-22678D01*
X42179Y-22663D01*
X42179Y-22324D01*
X42824Y-21679D01*
X50675Y-21679D01*
X50820Y-21824D01*
X50820Y-23500D01*
X50820Y-26093D01*
X50783Y-26108D01*
X50754Y-26138D01*
X50738Y-26177D01*
X50737Y-26218D01*
X50737Y-26532D01*
X50753Y-26571D01*
X50783Y-26600D01*
X50822Y-26616D01*
X50863Y-26617D01*
X51177Y-26617D01*
X51216Y-26601D01*
X51245Y-26571D01*
X51261Y-26534D01*
X51738Y-26534D01*
X51753Y-26571D01*
X51783Y-26600D01*
X51822Y-26616D01*
X51863Y-26617D01*
X52177Y-26617D01*
X52216Y-26601D01*
X52245Y-26571D01*
X52261Y-26534D01*
X52738Y-26534D01*
X52753Y-26571D01*
X52783Y-26600D01*
X52822Y-26616D01*
X52863Y-26617D01*
X53177Y-26617D01*
X53202Y-26606D01*
X53320Y-26724D01*
X53320Y-31870D01*
X53302Y-31887D01*
X53280Y-31887D01*
X53280Y-30594D01*
X53262Y-30550D01*
X53262Y-30081D01*
X53262Y-29767D01*
X53246Y-29728D01*
X53216Y-29699D01*
X53177Y-29683D01*
X53136Y-29682D01*
X52822Y-29682D01*
X52783Y-29698D01*
X52754Y-29728D01*
X52738Y-29765D01*
X52261Y-29765D01*
X52246Y-29728D01*
X52216Y-29699D01*
X52177Y-29683D01*
X52136Y-29682D01*
X51822Y-29682D01*
X51783Y-29698D01*
X51754Y-29728D01*
X51738Y-29765D01*
X51261Y-29765D01*
X51246Y-29728D01*
X51216Y-29699D01*
X51177Y-29683D01*
X51136Y-29682D01*
X50822Y-29682D01*
X50783Y-29698D01*
X50754Y-29728D01*
X50738Y-29767D01*
X50737Y-29808D01*
X50737Y-30122D01*
X50753Y-30161D01*
X50783Y-30190D01*
X50820Y-30206D01*
X50820Y-30625D01*
X50167Y-31277D01*
X50128Y-31336D01*
X50115Y-31405D01*
X50115Y-31645D01*
X50115Y-31647D01*
X50115Y-31647D01*
X50115Y-31650D01*
X50115Y-31888D01*
X50078Y-31903D01*
X50049Y-31933D01*
X50033Y-31972D01*
X50032Y-32013D01*
X50032Y-32327D01*
X50048Y-32366D01*
X50078Y-32395D01*
X50115Y-32411D01*
X50115Y-32780D01*
X49872Y-33022D01*
X49833Y-33081D01*
X49820Y-33150D01*
X49820Y-33270D01*
X49804Y-33270D01*
X49804Y-33099D01*
X49832Y-33072D01*
X49871Y-33013D01*
X49871Y-33013D01*
X49884Y-32945D01*
X49884Y-32411D01*
X49921Y-32396D01*
X49950Y-32366D01*
X49966Y-32327D01*
X49967Y-32286D01*
X49967Y-31972D01*
X49951Y-31933D01*
X49921Y-31904D01*
X49884Y-31888D01*
X49884Y-31350D01*
X49884Y-31069D01*
X50477Y-30477D01*
X50516Y-30418D01*
X50516Y-30418D01*
X50529Y-30350D01*
X50529Y-30250D01*
X50529Y-29550D01*
X50529Y-29549D01*
X50529Y-29549D01*
X50516Y-29481D01*
X50477Y-29422D01*
X50477Y-29422D01*
X50282Y-29227D01*
X50262Y-29214D01*
X50262Y-29177D01*
X50246Y-29138D01*
X50216Y-29109D01*
X50179Y-29093D01*
X50179Y-28224D01*
X50719Y-27684D01*
X50719Y-27705D01*
X50762Y-27808D01*
X50841Y-27887D01*
X50944Y-27929D01*
X51025Y-27930D01*
X51372Y-28277D01*
X51431Y-28316D01*
X51431Y-28316D01*
X51500Y-28329D01*
X52425Y-28329D01*
X52820Y-28724D01*
X52820Y-29093D01*
X52783Y-29108D01*
X52756Y-29136D01*
X52737Y-29091D01*
X52658Y-29012D01*
X52555Y-28970D01*
X52444Y-28969D01*
X52341Y-29012D01*
X52262Y-29091D01*
X52243Y-29136D01*
X52216Y-29109D01*
X52177Y-29093D01*
X52136Y-29092D01*
X51822Y-29092D01*
X51783Y-29108D01*
X51754Y-29138D01*
X51738Y-29177D01*
X51738Y-29192D01*
X51737Y-29191D01*
X51658Y-29112D01*
X51555Y-29070D01*
X51444Y-29069D01*
X51341Y-29112D01*
X51278Y-29175D01*
X51261Y-29175D01*
X51246Y-29138D01*
X51216Y-29109D01*
X51177Y-29093D01*
X51136Y-29092D01*
X50822Y-29092D01*
X50783Y-29108D01*
X50754Y-29138D01*
X50738Y-29177D01*
X50737Y-29218D01*
X50737Y-29532D01*
X50753Y-29571D01*
X50783Y-29600D01*
X50822Y-29616D01*
X50863Y-29617D01*
X51177Y-29617D01*
X51216Y-29601D01*
X51245Y-29571D01*
X51261Y-29534D01*
X51288Y-29534D01*
X51341Y-29587D01*
X51444Y-29629D01*
X51555Y-29630D01*
X51658Y-29587D01*
X51737Y-29508D01*
X51737Y-29507D01*
X51737Y-29532D01*
X51753Y-29571D01*
X51783Y-29600D01*
X51822Y-29616D01*
X51863Y-29617D01*
X52177Y-29617D01*
X52216Y-29601D01*
X52245Y-29571D01*
X52261Y-29534D01*
X52395Y-29534D01*
X52436Y-29526D01*
X52436Y-29526D01*
X52444Y-29529D01*
X52555Y-29530D01*
X52658Y-29487D01*
X52737Y-29408D01*
X52737Y-29407D01*
X52737Y-29532D01*
X52753Y-29571D01*
X52783Y-29600D01*
X52822Y-29616D01*
X52863Y-29617D01*
X53177Y-29617D01*
X53216Y-29601D01*
X53245Y-29571D01*
X53261Y-29532D01*
X53262Y-29491D01*
X53262Y-29177D01*
X53246Y-29138D01*
X53216Y-29109D01*
X53179Y-29093D01*
X53179Y-28650D01*
X53166Y-28581D01*
X53166Y-28581D01*
X53127Y-28522D01*
X52754Y-28150D01*
X53127Y-27777D01*
X53166Y-27718D01*
X53166Y-27718D01*
X53179Y-27650D01*
X53179Y-27206D01*
X53216Y-27191D01*
X53245Y-27161D01*
X53261Y-27122D01*
X53262Y-27081D01*
X53262Y-26767D01*
X53246Y-26728D01*
X53216Y-26699D01*
X53177Y-26683D01*
X53136Y-26682D01*
X52822Y-26682D01*
X52783Y-26698D01*
X52754Y-26728D01*
X52738Y-26767D01*
X52737Y-26808D01*
X52737Y-27122D01*
X52753Y-27161D01*
X52783Y-27190D01*
X52820Y-27206D01*
X52820Y-27575D01*
X52425Y-27970D01*
X51574Y-27970D01*
X51279Y-27675D01*
X51280Y-27594D01*
X51237Y-27491D01*
X51158Y-27412D01*
X51055Y-27370D01*
X51034Y-27370D01*
X51127Y-27277D01*
X51127Y-27277D01*
X51127Y-27277D01*
X51166Y-27218D01*
X51168Y-27207D01*
X51177Y-27207D01*
X51216Y-27191D01*
X51219Y-27187D01*
X51219Y-27205D01*
X51262Y-27308D01*
X51341Y-27387D01*
X51444Y-27429D01*
X51555Y-27430D01*
X51658Y-27387D01*
X51737Y-27308D01*
X51779Y-27205D01*
X51779Y-27187D01*
X51783Y-27190D01*
X51822Y-27206D01*
X51863Y-27207D01*
X52177Y-27207D01*
X52216Y-27191D01*
X52245Y-27161D01*
X52261Y-27122D01*
X52262Y-27081D01*
X52262Y-26767D01*
X52246Y-26728D01*
X52216Y-26699D01*
X52177Y-26683D01*
X52136Y-26682D01*
X51822Y-26682D01*
X51783Y-26698D01*
X51754Y-26728D01*
X51738Y-26765D01*
X51705Y-26765D01*
X51636Y-26778D01*
X51577Y-26817D01*
X51525Y-26870D01*
X51444Y-26869D01*
X51341Y-26912D01*
X51262Y-26991D01*
X51262Y-26992D01*
X51262Y-26767D01*
X51246Y-26728D01*
X51216Y-26699D01*
X51177Y-26683D01*
X51136Y-26682D01*
X50822Y-26682D01*
X50783Y-26698D01*
X50754Y-26728D01*
X50738Y-26767D01*
X50737Y-26808D01*
X50737Y-27122D01*
X50748Y-27147D01*
X49872Y-28022D01*
X49833Y-28081D01*
X49820Y-28150D01*
X49820Y-29093D01*
X49783Y-29108D01*
X49780Y-29112D01*
X49780Y-28944D01*
X49737Y-28841D01*
X49658Y-28762D01*
X49555Y-28720D01*
X49444Y-28719D01*
X49341Y-28762D01*
X49262Y-28841D01*
X49220Y-28944D01*
X49219Y-29025D01*
X49152Y-29092D01*
X49136Y-29092D01*
X48822Y-29092D01*
X48783Y-29108D01*
X48754Y-29138D01*
X48738Y-29177D01*
X48737Y-29218D01*
X48737Y-29532D01*
X48753Y-29571D01*
X48783Y-29600D01*
X48822Y-29616D01*
X48863Y-29617D01*
X49177Y-29617D01*
X49216Y-29601D01*
X49245Y-29571D01*
X49261Y-29532D01*
X49262Y-29491D01*
X49262Y-29488D01*
X49272Y-29482D01*
X49474Y-29279D01*
X49555Y-29280D01*
X49658Y-29237D01*
X49737Y-29158D01*
X49779Y-29055D01*
X49780Y-28944D01*
X49780Y-29112D01*
X49754Y-29138D01*
X49738Y-29177D01*
X49737Y-29218D01*
X49737Y-29532D01*
X49753Y-29571D01*
X49783Y-29600D01*
X49822Y-29616D01*
X49863Y-29617D01*
X50162Y-29617D01*
X50170Y-29624D01*
X50170Y-29683D01*
X50136Y-29682D01*
X49822Y-29682D01*
X49783Y-29698D01*
X49754Y-29728D01*
X49738Y-29765D01*
X49261Y-29765D01*
X49246Y-29728D01*
X49216Y-29699D01*
X49177Y-29683D01*
X49136Y-29682D01*
X48822Y-29682D01*
X48783Y-29698D01*
X48754Y-29728D01*
X48738Y-29765D01*
X48261Y-29765D01*
X48246Y-29728D01*
X48216Y-29699D01*
X48177Y-29683D01*
X48136Y-29682D01*
X47822Y-29682D01*
X47783Y-29698D01*
X47754Y-29728D01*
X47738Y-29765D01*
X47279Y-29765D01*
X47280Y-29694D01*
X47237Y-29591D01*
X47158Y-29512D01*
X47055Y-29470D01*
X46974Y-29469D01*
X46805Y-29301D01*
X46834Y-29289D01*
X46863Y-29259D01*
X46879Y-29220D01*
X46880Y-29179D01*
X46880Y-28903D01*
X46944Y-28929D01*
X47055Y-28930D01*
X47158Y-28887D01*
X47237Y-28808D01*
X47279Y-28705D01*
X47280Y-28594D01*
X47237Y-28491D01*
X47200Y-28454D01*
X48299Y-28454D01*
X48262Y-28491D01*
X48220Y-28594D01*
X48219Y-28675D01*
X47872Y-29022D01*
X47833Y-29081D01*
X47831Y-29092D01*
X47822Y-29092D01*
X47783Y-29108D01*
X47754Y-29138D01*
X47738Y-29177D01*
X47737Y-29218D01*
X47737Y-29532D01*
X47753Y-29571D01*
X47783Y-29600D01*
X47822Y-29616D01*
X47863Y-29617D01*
X48177Y-29617D01*
X48216Y-29601D01*
X48245Y-29571D01*
X48261Y-29532D01*
X48262Y-29491D01*
X48262Y-29177D01*
X48251Y-29152D01*
X48474Y-28929D01*
X48555Y-28930D01*
X48658Y-28887D01*
X48737Y-28808D01*
X48779Y-28705D01*
X48780Y-28624D01*
X50127Y-27277D01*
X50127Y-27277D01*
X50127Y-27277D01*
X50166Y-27218D01*
X50168Y-27207D01*
X50177Y-27207D01*
X50216Y-27191D01*
X50245Y-27161D01*
X50261Y-27122D01*
X50262Y-27081D01*
X50262Y-26767D01*
X50246Y-26728D01*
X50216Y-26699D01*
X50177Y-26683D01*
X50136Y-26682D01*
X49822Y-26682D01*
X49783Y-26698D01*
X49754Y-26728D01*
X49738Y-26767D01*
X49737Y-26808D01*
X49737Y-27122D01*
X49748Y-27147D01*
X49280Y-27615D01*
X49280Y-27594D01*
X49237Y-27491D01*
X49179Y-27433D01*
X49179Y-27206D01*
X49216Y-27191D01*
X49245Y-27161D01*
X49261Y-27122D01*
X49262Y-27081D01*
X49262Y-26767D01*
X49246Y-26728D01*
X49216Y-26699D01*
X49177Y-26683D01*
X49136Y-26682D01*
X48822Y-26682D01*
X48783Y-26698D01*
X48754Y-26728D01*
X48738Y-26767D01*
X48737Y-26808D01*
X48737Y-27122D01*
X48753Y-27161D01*
X48783Y-27190D01*
X48820Y-27206D01*
X48820Y-27433D01*
X48762Y-27491D01*
X48720Y-27594D01*
X48719Y-27675D01*
X48300Y-28095D01*
X46880Y-28095D01*
X46880Y-28079D01*
X46864Y-28040D01*
X46834Y-28011D01*
X46795Y-27995D01*
X46754Y-27994D01*
X46204Y-27994D01*
X46165Y-28010D01*
X46136Y-28040D01*
X46120Y-28079D01*
X46119Y-28120D01*
X46119Y-28146D01*
X46109Y-28136D01*
X46070Y-28120D01*
X46029Y-28119D01*
X45784Y-28119D01*
X46074Y-27829D01*
X47783Y-27829D01*
X47841Y-27887D01*
X47944Y-27929D01*
X48055Y-27930D01*
X48158Y-27887D01*
X48237Y-27808D01*
X48279Y-27705D01*
X48280Y-27594D01*
X48237Y-27491D01*
X48179Y-27433D01*
X48179Y-27206D01*
X48216Y-27191D01*
X48245Y-27161D01*
X48261Y-27122D01*
X48262Y-27081D01*
X48262Y-26767D01*
X48246Y-26728D01*
X48216Y-26699D01*
X48177Y-26683D01*
X48136Y-26682D01*
X47822Y-26682D01*
X47783Y-26698D01*
X47754Y-26728D01*
X47738Y-26767D01*
X47737Y-26808D01*
X47737Y-27122D01*
X47753Y-27161D01*
X47783Y-27190D01*
X47820Y-27206D01*
X47820Y-27433D01*
X47783Y-27470D01*
X46000Y-27470D01*
X45931Y-27483D01*
X45872Y-27522D01*
X45372Y-28022D01*
X45333Y-28081D01*
X45325Y-28122D01*
X45320Y-28120D01*
X45304Y-28120D01*
X45304Y-25875D01*
X45291Y-25806D01*
X45252Y-25747D01*
X45252Y-25747D01*
X44377Y-24872D01*
X44318Y-24833D01*
X44250Y-24820D01*
X39750Y-24820D01*
X39681Y-24833D01*
X39622Y-24872D01*
X39175Y-25320D01*
X39030Y-25320D01*
X39030Y-24444D01*
X38987Y-24341D01*
X38908Y-24262D01*
X38805Y-24220D01*
X38694Y-24219D01*
X38591Y-24262D01*
X38512Y-24341D01*
X38470Y-24444D01*
X38469Y-24525D01*
X38359Y-24636D01*
X38334Y-24611D01*
X38295Y-24595D01*
X38254Y-24594D01*
X37704Y-24594D01*
X37665Y-24610D01*
X37636Y-24640D01*
X37620Y-24679D01*
X37619Y-24720D01*
X37619Y-25070D01*
X37635Y-25109D01*
X37665Y-25138D01*
X37704Y-25154D01*
X37745Y-25155D01*
X38295Y-25155D01*
X38334Y-25139D01*
X38363Y-25109D01*
X38379Y-25070D01*
X38379Y-25053D01*
X38443Y-25041D01*
X38443Y-25041D01*
X38502Y-25002D01*
X38724Y-24779D01*
X38805Y-24780D01*
X38908Y-24737D01*
X38987Y-24658D01*
X39029Y-24555D01*
X39030Y-24444D01*
X39030Y-25320D01*
X38500Y-25320D01*
X38431Y-25333D01*
X38372Y-25372D01*
X38111Y-25634D01*
X38075Y-25620D01*
X37924Y-25619D01*
X37785Y-25677D01*
X37678Y-25784D01*
X37620Y-25924D01*
X37619Y-26075D01*
X37677Y-26214D01*
X37782Y-26320D01*
X37380Y-26320D01*
X37380Y-22924D01*
X37322Y-22785D01*
X37215Y-22678D01*
X37179Y-22663D01*
X37179Y-22655D01*
X37295Y-22655D01*
X37334Y-22639D01*
X37363Y-22609D01*
X37379Y-22570D01*
X37380Y-22529D01*
X37380Y-22179D01*
X37364Y-22140D01*
X37334Y-22111D01*
X37295Y-22095D01*
X37254Y-22094D01*
X36704Y-22094D01*
X36665Y-22110D01*
X36636Y-22140D01*
X36620Y-22179D01*
X36620Y-22195D01*
X36449Y-22195D01*
X35627Y-21372D01*
X35568Y-21333D01*
X35500Y-21320D01*
X35405Y-21320D01*
X35405Y-21179D01*
X35389Y-21140D01*
X35359Y-21111D01*
X35320Y-21095D01*
X35279Y-21094D01*
X34679Y-21094D01*
X34640Y-21110D01*
X34611Y-21140D01*
X34595Y-21179D01*
X34594Y-21220D01*
X34594Y-21820D01*
X34610Y-21859D01*
X34640Y-21888D01*
X34679Y-21904D01*
X34720Y-21905D01*
X35320Y-21905D01*
X35359Y-21889D01*
X35388Y-21859D01*
X35404Y-21820D01*
X35405Y-21779D01*
X35405Y-21679D01*
X35425Y-21679D01*
X36247Y-22502D01*
X36247Y-22502D01*
X36306Y-22541D01*
X36375Y-22554D01*
X36619Y-22554D01*
X36619Y-22570D01*
X36635Y-22609D01*
X36665Y-22638D01*
X36704Y-22654D01*
X36745Y-22655D01*
X36820Y-22655D01*
X36820Y-22663D01*
X36785Y-22677D01*
X36678Y-22784D01*
X36620Y-22924D01*
X36619Y-23075D01*
X36677Y-23214D01*
X36784Y-23321D01*
X36924Y-23379D01*
X37075Y-23380D01*
X37214Y-23322D01*
X37321Y-23215D01*
X37379Y-23075D01*
X37380Y-22924D01*
X37380Y-26320D01*
X36217Y-26320D01*
X36321Y-26215D01*
X36379Y-26075D01*
X36380Y-25924D01*
X36322Y-25785D01*
X36304Y-25767D01*
X36304Y-25380D01*
X36320Y-25380D01*
X36359Y-25364D01*
X36388Y-25334D01*
X36404Y-25295D01*
X36405Y-25254D01*
X36405Y-24704D01*
X36389Y-24665D01*
X36359Y-24636D01*
X36320Y-24620D01*
X36279Y-24619D01*
X35929Y-24619D01*
X35890Y-24635D01*
X35861Y-24665D01*
X35845Y-24704D01*
X35844Y-24745D01*
X35844Y-25295D01*
X35860Y-25334D01*
X35890Y-25363D01*
X35929Y-25379D01*
X35945Y-25379D01*
X35945Y-25619D01*
X35924Y-25619D01*
X35785Y-25677D01*
X35678Y-25784D01*
X35620Y-25924D01*
X35619Y-26075D01*
X35677Y-26214D01*
X35784Y-26321D01*
X35885Y-26364D01*
X35872Y-26372D01*
X35405Y-26840D01*
X35405Y-24254D01*
X35405Y-23704D01*
X35389Y-23665D01*
X35359Y-23636D01*
X35320Y-23620D01*
X35304Y-23620D01*
X35304Y-23232D01*
X35321Y-23215D01*
X35379Y-23075D01*
X35380Y-22924D01*
X35322Y-22785D01*
X35215Y-22678D01*
X35075Y-22620D01*
X34924Y-22619D01*
X34785Y-22677D01*
X34678Y-22784D01*
X34620Y-22924D01*
X34619Y-23075D01*
X34677Y-23214D01*
X34784Y-23321D01*
X34924Y-23379D01*
X34945Y-23379D01*
X34945Y-23619D01*
X34929Y-23619D01*
X34890Y-23635D01*
X34861Y-23665D01*
X34845Y-23704D01*
X34844Y-23745D01*
X34844Y-24295D01*
X34860Y-24334D01*
X34890Y-24363D01*
X34929Y-24379D01*
X34970Y-24380D01*
X35320Y-24380D01*
X35359Y-24364D01*
X35388Y-24334D01*
X35404Y-24295D01*
X35405Y-24254D01*
X35405Y-26840D01*
X35372Y-26872D01*
X35333Y-26931D01*
X35320Y-27000D01*
X35320Y-28282D01*
X35215Y-28178D01*
X35075Y-28120D01*
X34924Y-28119D01*
X34785Y-28177D01*
X34679Y-28282D01*
X34679Y-27074D01*
X35127Y-26627D01*
X35166Y-26568D01*
X35166Y-26568D01*
X35179Y-26500D01*
X35179Y-26336D01*
X35214Y-26322D01*
X35321Y-26215D01*
X35379Y-26075D01*
X35380Y-25924D01*
X35322Y-25785D01*
X35215Y-25678D01*
X35075Y-25620D01*
X34924Y-25619D01*
X34785Y-25677D01*
X34678Y-25784D01*
X34620Y-25924D01*
X34619Y-26075D01*
X34677Y-26214D01*
X34784Y-26321D01*
X34820Y-26336D01*
X34820Y-26425D01*
X34372Y-26872D01*
X34333Y-26931D01*
X34320Y-27000D01*
X34320Y-28282D01*
X34215Y-28178D01*
X34075Y-28120D01*
X33924Y-28119D01*
X33785Y-28177D01*
X33679Y-28282D01*
X33679Y-27074D01*
X34127Y-26627D01*
X34166Y-26568D01*
X34166Y-26568D01*
X34179Y-26500D01*
X34179Y-26336D01*
X34214Y-26322D01*
X34321Y-26215D01*
X34379Y-26075D01*
X34380Y-25924D01*
X34380Y-22924D01*
X34322Y-22785D01*
X34215Y-22678D01*
X34075Y-22620D01*
X33924Y-22619D01*
X33785Y-22677D01*
X33678Y-22784D01*
X33620Y-22924D01*
X33619Y-23075D01*
X33677Y-23214D01*
X33784Y-23321D01*
X33924Y-23379D01*
X34075Y-23380D01*
X34214Y-23322D01*
X34321Y-23215D01*
X34379Y-23075D01*
X34380Y-22924D01*
X34380Y-25924D01*
X34322Y-25785D01*
X34215Y-25678D01*
X34075Y-25620D01*
X33924Y-25619D01*
X33785Y-25677D01*
X33678Y-25784D01*
X33620Y-25924D01*
X33619Y-26075D01*
X33677Y-26214D01*
X33784Y-26321D01*
X33820Y-26336D01*
X33820Y-26425D01*
X33372Y-26872D01*
X33333Y-26931D01*
X33320Y-27000D01*
X33320Y-28282D01*
X33215Y-28178D01*
X33075Y-28120D01*
X32924Y-28119D01*
X32785Y-28177D01*
X32679Y-28282D01*
X32679Y-27074D01*
X33127Y-26627D01*
X33166Y-26568D01*
X33166Y-26568D01*
X33179Y-26500D01*
X33179Y-26336D01*
X33214Y-26322D01*
X33321Y-26215D01*
X33379Y-26075D01*
X33380Y-25924D01*
X33380Y-22924D01*
X33322Y-22785D01*
X33215Y-22678D01*
X33075Y-22620D01*
X32924Y-22619D01*
X32785Y-22677D01*
X32678Y-22784D01*
X32620Y-22924D01*
X32619Y-23075D01*
X32677Y-23214D01*
X32784Y-23321D01*
X32924Y-23379D01*
X33075Y-23380D01*
X33214Y-23322D01*
X33321Y-23215D01*
X33379Y-23075D01*
X33380Y-22924D01*
X33380Y-25924D01*
X33322Y-25785D01*
X33215Y-25678D01*
X33075Y-25620D01*
X32924Y-25619D01*
X32785Y-25677D01*
X32679Y-25782D01*
X32679Y-25500D01*
X32666Y-25431D01*
X32627Y-25372D01*
X32627Y-25372D01*
X32530Y-25275D01*
X32530Y-20944D01*
X32487Y-20841D01*
X32408Y-20762D01*
X32305Y-20720D01*
X32194Y-20719D01*
X32091Y-20762D01*
X32033Y-20820D01*
X30000Y-20820D01*
X29931Y-20833D01*
X29872Y-20872D01*
X29872Y-20872D01*
X28872Y-21872D01*
X28833Y-21931D01*
X28820Y-22000D01*
X28820Y-23750D01*
X28833Y-23818D01*
X28872Y-23877D01*
X29470Y-24474D01*
X29469Y-24555D01*
X29512Y-24658D01*
X29591Y-24737D01*
X29694Y-24779D01*
X29805Y-24780D01*
X29908Y-24737D01*
X29987Y-24658D01*
X30029Y-24555D01*
X30030Y-24444D01*
X29987Y-24341D01*
X29908Y-24262D01*
X29805Y-24220D01*
X29724Y-24219D01*
X29179Y-23675D01*
X29179Y-22074D01*
X30074Y-21179D01*
X32033Y-21179D01*
X32091Y-21237D01*
X32194Y-21279D01*
X32305Y-21280D01*
X32408Y-21237D01*
X32487Y-21158D01*
X32529Y-21055D01*
X32530Y-20944D01*
X32530Y-25275D01*
X32380Y-25125D01*
X32380Y-22924D01*
X32322Y-22785D01*
X32215Y-22678D01*
X32075Y-22620D01*
X31924Y-22619D01*
X31785Y-22677D01*
X31678Y-22784D01*
X31620Y-22924D01*
X31619Y-23075D01*
X31677Y-23214D01*
X31784Y-23321D01*
X31924Y-23379D01*
X32075Y-23380D01*
X32214Y-23322D01*
X32321Y-23215D01*
X32379Y-23075D01*
X32380Y-22924D01*
X32380Y-25125D01*
X31627Y-24372D01*
X31568Y-24333D01*
X31500Y-24320D01*
X31394Y-24320D01*
X31404Y-24295D01*
X31405Y-24254D01*
X31405Y-23704D01*
X31389Y-23665D01*
X31359Y-23636D01*
X31320Y-23620D01*
X31304Y-23620D01*
X31304Y-23232D01*
X31321Y-23215D01*
X31379Y-23075D01*
X31380Y-22924D01*
X31322Y-22785D01*
X31215Y-22678D01*
X31075Y-22620D01*
X30924Y-22619D01*
X30785Y-22677D01*
X30678Y-22784D01*
X30620Y-22924D01*
X30619Y-23075D01*
X30677Y-23214D01*
X30784Y-23321D01*
X30924Y-23379D01*
X30945Y-23379D01*
X30945Y-23619D01*
X30929Y-23619D01*
X30890Y-23635D01*
X30861Y-23665D01*
X30845Y-23704D01*
X30844Y-23745D01*
X30844Y-24295D01*
X30855Y-24320D01*
X30574Y-24320D01*
X30179Y-23925D01*
X30179Y-23336D01*
X30214Y-23322D01*
X30321Y-23215D01*
X30379Y-23075D01*
X30380Y-22924D01*
X30322Y-22785D01*
X30215Y-22678D01*
X30075Y-22620D01*
X29924Y-22619D01*
X29785Y-22677D01*
X29678Y-22784D01*
X29620Y-22924D01*
X29619Y-23075D01*
X29677Y-23214D01*
X29784Y-23321D01*
X29820Y-23336D01*
X29820Y-24000D01*
X29833Y-24068D01*
X29872Y-24127D01*
X30372Y-24627D01*
X30431Y-24666D01*
X30431Y-24666D01*
X30500Y-24679D01*
X31425Y-24679D01*
X32320Y-25574D01*
X32320Y-25782D01*
X32215Y-25678D01*
X32075Y-25620D01*
X31924Y-25619D01*
X31888Y-25634D01*
X31127Y-24872D01*
X31068Y-24833D01*
X31000Y-24820D01*
X28252Y-24820D01*
X28343Y-24729D01*
X28404Y-24580D01*
X28405Y-24419D01*
X28343Y-24270D01*
X28229Y-24156D01*
X28080Y-24095D01*
X27919Y-24094D01*
X27770Y-24156D01*
X27656Y-24270D01*
X27595Y-24419D01*
X27594Y-24580D01*
X27656Y-24729D01*
X27747Y-24820D01*
X27574Y-24820D01*
X27384Y-24630D01*
X27404Y-24580D01*
X27405Y-24419D01*
X27343Y-24270D01*
X27229Y-24156D01*
X27080Y-24095D01*
X26919Y-24094D01*
X26770Y-24156D01*
X26656Y-24270D01*
X26595Y-24419D01*
X26594Y-24580D01*
X26656Y-24729D01*
X26770Y-24843D01*
X26919Y-24904D01*
X27080Y-24905D01*
X27130Y-24884D01*
X27372Y-25127D01*
X27431Y-25166D01*
X27431Y-25166D01*
X27500Y-25179D01*
X30925Y-25179D01*
X31634Y-25888D01*
X31620Y-25924D01*
X31619Y-26075D01*
X31677Y-26214D01*
X31784Y-26321D01*
X31924Y-26379D01*
X32075Y-26380D01*
X32214Y-26322D01*
X32320Y-26217D01*
X32320Y-26425D01*
X31372Y-27372D01*
X31333Y-27431D01*
X31320Y-27500D01*
X31320Y-28282D01*
X31215Y-28178D01*
X31075Y-28120D01*
X30924Y-28119D01*
X30785Y-28177D01*
X30679Y-28282D01*
X30679Y-27074D01*
X31127Y-26627D01*
X31166Y-26568D01*
X31166Y-26568D01*
X31179Y-26500D01*
X31179Y-26336D01*
X31214Y-26322D01*
X31321Y-26215D01*
X31379Y-26075D01*
X31380Y-25924D01*
X31322Y-25785D01*
X31215Y-25678D01*
X31075Y-25620D01*
X30924Y-25619D01*
X30785Y-25677D01*
X30678Y-25784D01*
X30620Y-25924D01*
X30619Y-26075D01*
X30677Y-26214D01*
X30784Y-26321D01*
X30820Y-26336D01*
X30820Y-26425D01*
X30380Y-26865D01*
X30380Y-26254D01*
X30380Y-25704D01*
X30364Y-25665D01*
X30334Y-25636D01*
X30295Y-25620D01*
X30254Y-25619D01*
X29704Y-25619D01*
X29665Y-25635D01*
X29636Y-25665D01*
X29620Y-25704D01*
X29619Y-25745D01*
X29619Y-26125D01*
X29247Y-26497D01*
X29208Y-26556D01*
X29196Y-26619D01*
X29179Y-26619D01*
X29140Y-26635D01*
X29111Y-26665D01*
X29095Y-26704D01*
X29094Y-26745D01*
X29094Y-27295D01*
X29110Y-27334D01*
X29140Y-27363D01*
X29179Y-27379D01*
X29220Y-27380D01*
X29570Y-27380D01*
X29609Y-27364D01*
X29638Y-27334D01*
X29654Y-27295D01*
X29655Y-27254D01*
X29655Y-26704D01*
X29639Y-26665D01*
X29613Y-26640D01*
X29874Y-26380D01*
X30295Y-26380D01*
X30334Y-26364D01*
X30363Y-26334D01*
X30379Y-26295D01*
X30380Y-26254D01*
X30380Y-26865D01*
X30372Y-26872D01*
X30333Y-26931D01*
X30320Y-27000D01*
X30320Y-28282D01*
X30280Y-28242D01*
X30280Y-26944D01*
X30237Y-26841D01*
X30158Y-26762D01*
X30055Y-26720D01*
X29944Y-26719D01*
X29841Y-26762D01*
X29762Y-26841D01*
X29720Y-26944D01*
X29719Y-27055D01*
X29762Y-27158D01*
X29820Y-27216D01*
X29820Y-27425D01*
X29425Y-27820D01*
X29155Y-27820D01*
X29155Y-27704D01*
X29139Y-27665D01*
X29109Y-27636D01*
X29070Y-27620D01*
X29029Y-27619D01*
X28905Y-27619D01*
X28905Y-27254D01*
X28905Y-26704D01*
X28889Y-26665D01*
X28859Y-26636D01*
X28820Y-26620D01*
X28804Y-26620D01*
X28804Y-26125D01*
X28804Y-26124D01*
X28804Y-26124D01*
X28791Y-26056D01*
X28779Y-26039D01*
X28779Y-26039D01*
X28780Y-25944D01*
X28737Y-25841D01*
X28658Y-25762D01*
X28555Y-25720D01*
X28444Y-25719D01*
X28341Y-25762D01*
X28262Y-25841D01*
X28220Y-25944D01*
X28219Y-26055D01*
X28262Y-26158D01*
X28341Y-26237D01*
X28444Y-26279D01*
X28445Y-26279D01*
X28445Y-26619D01*
X28429Y-26619D01*
X28390Y-26635D01*
X28361Y-26665D01*
X28345Y-26704D01*
X28344Y-26745D01*
X28344Y-27295D01*
X28360Y-27334D01*
X28390Y-27363D01*
X28429Y-27379D01*
X28470Y-27380D01*
X28820Y-27380D01*
X28859Y-27364D01*
X28888Y-27334D01*
X28904Y-27295D01*
X28905Y-27254D01*
X28905Y-27619D01*
X28679Y-27619D01*
X28640Y-27635D01*
X28611Y-27665D01*
X28595Y-27704D01*
X28594Y-27745D01*
X28594Y-28295D01*
X28610Y-28334D01*
X28640Y-28363D01*
X28679Y-28379D01*
X28720Y-28380D01*
X29070Y-28380D01*
X29109Y-28364D01*
X29138Y-28334D01*
X29154Y-28295D01*
X29155Y-28254D01*
X29155Y-28179D01*
X29500Y-28179D01*
X29568Y-28166D01*
X29568Y-28166D01*
X29627Y-28127D01*
X30127Y-27627D01*
X30166Y-27568D01*
X30166Y-27568D01*
X30179Y-27500D01*
X30179Y-27216D01*
X30237Y-27158D01*
X30279Y-27055D01*
X30280Y-26944D01*
X30280Y-28242D01*
X30215Y-28178D01*
X30075Y-28120D01*
X29924Y-28119D01*
X29785Y-28177D01*
X29678Y-28284D01*
X29620Y-28424D01*
X29619Y-28575D01*
X29677Y-28714D01*
X29784Y-28821D01*
X29924Y-28879D01*
X30075Y-28880D01*
X30214Y-28822D01*
X30320Y-28717D01*
X30320Y-30425D01*
X29872Y-30872D01*
X29833Y-30931D01*
X29820Y-31000D01*
X29820Y-31119D01*
X29704Y-31119D01*
X29665Y-31135D01*
X29636Y-31165D01*
X29620Y-31204D01*
X29619Y-31245D01*
X29619Y-31795D01*
X29635Y-31834D01*
X29665Y-31863D01*
X29704Y-31879D01*
X29745Y-31880D01*
X30295Y-31880D01*
X30334Y-31864D01*
X30352Y-31846D01*
X30372Y-31877D01*
X30720Y-32224D01*
X30719Y-32305D01*
X30762Y-32408D01*
X30841Y-32487D01*
X30944Y-32529D01*
X31055Y-32530D01*
X31158Y-32487D01*
X31237Y-32408D01*
X31279Y-32305D01*
X31280Y-32194D01*
X31237Y-32091D01*
X31158Y-32012D01*
X31055Y-31970D01*
X30974Y-31969D01*
X30855Y-31851D01*
X30924Y-31879D01*
X31075Y-31880D01*
X31214Y-31822D01*
X31321Y-31715D01*
X31379Y-31575D01*
X31380Y-31424D01*
X31322Y-31285D01*
X31215Y-31178D01*
X31179Y-31163D01*
X31179Y-31074D01*
X31627Y-30627D01*
X31666Y-30568D01*
X31666Y-30568D01*
X31679Y-30500D01*
X31679Y-28717D01*
X31784Y-28821D01*
X31924Y-28879D01*
X32075Y-28880D01*
X32214Y-28822D01*
X32320Y-28717D01*
X32320Y-30425D01*
X31872Y-30872D01*
X31833Y-30931D01*
X31820Y-31000D01*
X31820Y-31163D01*
X31785Y-31177D01*
X31678Y-31284D01*
X31620Y-31424D01*
X31619Y-31575D01*
X31677Y-31714D01*
X31784Y-31821D01*
X31924Y-31879D01*
X32075Y-31880D01*
X32214Y-31822D01*
X32320Y-31717D01*
X32320Y-31750D01*
X32333Y-31818D01*
X32372Y-31877D01*
X32720Y-32224D01*
X32719Y-32305D01*
X32762Y-32408D01*
X32841Y-32487D01*
X32944Y-32529D01*
X33055Y-32530D01*
X33158Y-32487D01*
X33237Y-32408D01*
X33279Y-32305D01*
X33280Y-32194D01*
X33237Y-32091D01*
X33158Y-32012D01*
X33055Y-31970D01*
X32974Y-31969D01*
X32855Y-31851D01*
X32924Y-31879D01*
X33075Y-31880D01*
X33214Y-31822D01*
X33321Y-31715D01*
X33379Y-31575D01*
X33380Y-31424D01*
X33322Y-31285D01*
X33215Y-31178D01*
X33179Y-31163D01*
X33179Y-31074D01*
X33627Y-30627D01*
X33666Y-30568D01*
X33666Y-30568D01*
X33679Y-30500D01*
X33679Y-28717D01*
X33784Y-28821D01*
X33924Y-28879D01*
X34075Y-28880D01*
X34214Y-28822D01*
X34320Y-28717D01*
X34320Y-30425D01*
X33872Y-30872D01*
X33833Y-30931D01*
X33820Y-31000D01*
X33820Y-31163D01*
X33785Y-31177D01*
X33678Y-31284D01*
X33620Y-31424D01*
X33619Y-31575D01*
X33677Y-31714D01*
X33784Y-31821D01*
X33924Y-31879D01*
X34075Y-31880D01*
X34214Y-31822D01*
X34320Y-31717D01*
X34320Y-31750D01*
X34333Y-31818D01*
X34372Y-31877D01*
X34720Y-32224D01*
X34719Y-32305D01*
X34762Y-32408D01*
X34841Y-32487D01*
X34944Y-32529D01*
X35055Y-32530D01*
X35158Y-32487D01*
X35237Y-32408D01*
X35279Y-32305D01*
X35280Y-32194D01*
X35237Y-32091D01*
X35158Y-32012D01*
X35055Y-31970D01*
X34974Y-31969D01*
X34855Y-31851D01*
X34924Y-31879D01*
X35075Y-31880D01*
X35214Y-31822D01*
X35321Y-31715D01*
X35379Y-31575D01*
X35380Y-31424D01*
X35322Y-31285D01*
X35215Y-31178D01*
X35179Y-31163D01*
X35179Y-31000D01*
X35179Y-30684D01*
X35372Y-30877D01*
X35372Y-30877D01*
X35729Y-31233D01*
X35678Y-31284D01*
X35620Y-31424D01*
X35619Y-31575D01*
X35677Y-31714D01*
X35784Y-31821D01*
X35924Y-31879D01*
X36075Y-31880D01*
X36214Y-31822D01*
X36321Y-31715D01*
X36379Y-31575D01*
X36380Y-31424D01*
X36322Y-31285D01*
X36215Y-31178D01*
X36144Y-31148D01*
X36127Y-31122D01*
X35627Y-30622D01*
X35627Y-30622D01*
X35429Y-30425D01*
X35429Y-29824D01*
X35574Y-29679D01*
X35783Y-29679D01*
X35836Y-29732D01*
X35805Y-29720D01*
X35694Y-29719D01*
X35591Y-29762D01*
X35512Y-29841D01*
X35470Y-29944D01*
X35469Y-30055D01*
X35512Y-30158D01*
X35591Y-30237D01*
X35694Y-30279D01*
X35775Y-30280D01*
X35872Y-30377D01*
X35872Y-30377D01*
X35931Y-30416D01*
X36000Y-30429D01*
X36094Y-30429D01*
X36094Y-30545D01*
X36110Y-30584D01*
X36140Y-30613D01*
X36179Y-30629D01*
X36220Y-30630D01*
X36570Y-30630D01*
X36609Y-30614D01*
X36638Y-30584D01*
X36654Y-30545D01*
X36655Y-30504D01*
X36655Y-29954D01*
X36639Y-29915D01*
X36609Y-29886D01*
X36570Y-29870D01*
X36529Y-29869D01*
X36179Y-29869D01*
X36140Y-29885D01*
X36111Y-29915D01*
X36095Y-29954D01*
X36094Y-29995D01*
X36094Y-30070D01*
X36074Y-30070D01*
X36029Y-30025D01*
X36030Y-29944D01*
X35987Y-29841D01*
X35913Y-29767D01*
X35944Y-29779D01*
X36055Y-29780D01*
X36158Y-29737D01*
X36237Y-29658D01*
X36279Y-29555D01*
X36280Y-29444D01*
X36237Y-29341D01*
X36158Y-29262D01*
X36055Y-29220D01*
X35944Y-29219D01*
X35841Y-29262D01*
X35783Y-29320D01*
X35500Y-29320D01*
X35431Y-29333D01*
X35398Y-29355D01*
X35627Y-29127D01*
X35666Y-29068D01*
X35666Y-29068D01*
X35679Y-29000D01*
X35679Y-28717D01*
X35784Y-28821D01*
X35924Y-28879D01*
X36075Y-28880D01*
X36214Y-28822D01*
X36321Y-28715D01*
X36379Y-28575D01*
X36380Y-28424D01*
X36322Y-28285D01*
X36301Y-28264D01*
X36301Y-28125D01*
X36625Y-27801D01*
X37374Y-27801D01*
X37698Y-28125D01*
X37698Y-29500D01*
X37721Y-29615D01*
X37786Y-29713D01*
X38286Y-30213D01*
X38384Y-30278D01*
X38384Y-30278D01*
X38467Y-30295D01*
X38467Y-30611D01*
X38483Y-30649D01*
X38513Y-30679D01*
X38552Y-30695D01*
X38593Y-30695D01*
X40268Y-30695D01*
X41271Y-31698D01*
X40655Y-31698D01*
X40655Y-31679D01*
X40639Y-31640D01*
X40609Y-31611D01*
X40570Y-31595D01*
X40529Y-31594D01*
X40271Y-31594D01*
X39463Y-30786D01*
X39365Y-30721D01*
X39250Y-30698D01*
X38375Y-30698D01*
X37713Y-30036D01*
X37615Y-29971D01*
X37500Y-29948D01*
X37426Y-29948D01*
X37426Y-28625D01*
X37426Y-28624D01*
X37426Y-28624D01*
X37422Y-28602D01*
X37403Y-28509D01*
X37403Y-28509D01*
X37380Y-28473D01*
X37380Y-28473D01*
X37380Y-28424D01*
X37322Y-28285D01*
X37215Y-28178D01*
X37075Y-28120D01*
X36924Y-28119D01*
X36785Y-28177D01*
X36678Y-28284D01*
X36620Y-28424D01*
X36619Y-28575D01*
X36677Y-28714D01*
X36784Y-28821D01*
X36823Y-28838D01*
X36823Y-30250D01*
X36844Y-30359D01*
X36844Y-30545D01*
X36860Y-30584D01*
X36890Y-30613D01*
X36929Y-30629D01*
X36970Y-30630D01*
X37320Y-30630D01*
X37359Y-30614D01*
X37388Y-30584D01*
X37394Y-30571D01*
X38036Y-31213D01*
X38036Y-31213D01*
X38134Y-31278D01*
X38134Y-31278D01*
X38227Y-31297D01*
X38249Y-31301D01*
X38249Y-31301D01*
X38250Y-31301D01*
X39124Y-31301D01*
X39844Y-32021D01*
X39844Y-32320D01*
X39860Y-32359D01*
X39890Y-32388D01*
X39929Y-32404D01*
X39970Y-32405D01*
X40570Y-32405D01*
X40609Y-32389D01*
X40638Y-32359D01*
X40654Y-32320D01*
X40654Y-32301D01*
X42308Y-32301D01*
X42423Y-32278D01*
X42521Y-32213D01*
X42558Y-32176D01*
X43250Y-32176D01*
X43359Y-32155D01*
X43545Y-32155D01*
X43584Y-32139D01*
X43613Y-32109D01*
X43629Y-32070D01*
X43630Y-32029D01*
X43630Y-31679D01*
X43630Y-31279D01*
X43630Y-30929D01*
X43614Y-30890D01*
X43584Y-30861D01*
X43545Y-30845D01*
X43504Y-30844D01*
X43224Y-30844D01*
X43179Y-30800D01*
X43179Y-30155D01*
X43295Y-30155D01*
X43334Y-30139D01*
X43363Y-30109D01*
X43379Y-30070D01*
X43380Y-30029D01*
X43380Y-29679D01*
X43364Y-29640D01*
X43334Y-29611D01*
X43295Y-29595D01*
X43254Y-29594D01*
X42704Y-29594D01*
X42665Y-29610D01*
X42636Y-29640D01*
X42620Y-29679D01*
X42619Y-29720D01*
X42619Y-30070D01*
X42635Y-30109D01*
X42665Y-30138D01*
X42704Y-30154D01*
X42745Y-30155D01*
X42820Y-30155D01*
X42820Y-30875D01*
X42833Y-30943D01*
X42834Y-30945D01*
X42734Y-30945D01*
X42719Y-30908D01*
X42689Y-30878D01*
X42650Y-30862D01*
X42609Y-30862D01*
X42380Y-30862D01*
X42380Y-29529D01*
X42380Y-29179D01*
X42364Y-29140D01*
X42334Y-29111D01*
X42295Y-29095D01*
X42254Y-29094D01*
X41704Y-29094D01*
X41665Y-29110D01*
X41636Y-29140D01*
X41620Y-29179D01*
X41619Y-29220D01*
X41619Y-29570D01*
X41635Y-29609D01*
X41665Y-29638D01*
X41704Y-29654D01*
X41745Y-29655D01*
X41820Y-29655D01*
X41820Y-29783D01*
X41762Y-29841D01*
X41720Y-29944D01*
X41719Y-30055D01*
X41762Y-30158D01*
X41841Y-30237D01*
X41944Y-30279D01*
X42055Y-30280D01*
X42158Y-30237D01*
X42237Y-30158D01*
X42279Y-30055D01*
X42280Y-29944D01*
X42237Y-29841D01*
X42179Y-29783D01*
X42179Y-29655D01*
X42295Y-29655D01*
X42334Y-29639D01*
X42363Y-29609D01*
X42379Y-29570D01*
X42380Y-29529D01*
X42380Y-30862D01*
X42215Y-30862D01*
X42176Y-30878D01*
X42147Y-30907D01*
X42131Y-30946D01*
X42130Y-30988D01*
X42130Y-31303D01*
X42146Y-31341D01*
X42176Y-31371D01*
X42215Y-31387D01*
X42256Y-31387D01*
X42650Y-31387D01*
X42689Y-31371D01*
X42718Y-31342D01*
X42734Y-31304D01*
X42869Y-31304D01*
X42869Y-31320D01*
X42885Y-31359D01*
X42915Y-31388D01*
X42954Y-31404D01*
X42995Y-31405D01*
X43545Y-31405D01*
X43584Y-31389D01*
X43613Y-31359D01*
X43629Y-31320D01*
X43630Y-31279D01*
X43630Y-31679D01*
X43614Y-31640D01*
X43584Y-31611D01*
X43545Y-31595D01*
X43504Y-31594D01*
X43359Y-31594D01*
X43250Y-31573D01*
X42433Y-31573D01*
X42432Y-31573D01*
X42410Y-31577D01*
X42317Y-31596D01*
X42293Y-31612D01*
X42215Y-31612D01*
X42176Y-31628D01*
X42147Y-31657D01*
X42131Y-31696D01*
X42131Y-31698D01*
X41860Y-31698D01*
X41868Y-31678D01*
X41869Y-31636D01*
X41869Y-31321D01*
X41853Y-31283D01*
X41823Y-31253D01*
X41784Y-31237D01*
X41743Y-31237D01*
X41706Y-31237D01*
X41682Y-31221D01*
X41639Y-31212D01*
X41122Y-30695D01*
X41447Y-30695D01*
X41486Y-30679D01*
X41515Y-30650D01*
X41531Y-30611D01*
X41532Y-30569D01*
X41532Y-29388D01*
X41516Y-29350D01*
X41486Y-29320D01*
X41447Y-29304D01*
X41406Y-29304D01*
X38552Y-29304D01*
X38513Y-29320D01*
X38484Y-29349D01*
X38468Y-29388D01*
X38467Y-29430D01*
X38467Y-29541D01*
X38301Y-29374D01*
X38301Y-28000D01*
X38278Y-27884D01*
X38278Y-27884D01*
X38213Y-27786D01*
X37713Y-27286D01*
X37615Y-27221D01*
X37500Y-27198D01*
X36697Y-27198D01*
X36716Y-27179D01*
X40500Y-27179D01*
X40568Y-27166D01*
X40568Y-27166D01*
X40627Y-27127D01*
X41000Y-26754D01*
X41122Y-26877D01*
X41122Y-26877D01*
X41181Y-26916D01*
X41250Y-26929D01*
X41344Y-26929D01*
X41344Y-27045D01*
X41360Y-27084D01*
X41390Y-27113D01*
X41429Y-27129D01*
X41446Y-27129D01*
X41458Y-27193D01*
X41497Y-27252D01*
X41514Y-27269D01*
X41514Y-27349D01*
X41486Y-27320D01*
X41447Y-27304D01*
X41406Y-27304D01*
X38552Y-27304D01*
X38513Y-27320D01*
X38484Y-27349D01*
X38468Y-27388D01*
X38467Y-27430D01*
X38467Y-28611D01*
X38483Y-28649D01*
X38513Y-28679D01*
X38552Y-28695D01*
X38593Y-28695D01*
X40268Y-28695D01*
X40786Y-29213D01*
X40884Y-29278D01*
X41000Y-29301D01*
X41115Y-29278D01*
X41213Y-29213D01*
X41278Y-29115D01*
X41301Y-29000D01*
X41278Y-28884D01*
X41213Y-28786D01*
X41122Y-28695D01*
X41447Y-28695D01*
X41486Y-28679D01*
X41515Y-28650D01*
X41531Y-28611D01*
X41532Y-28569D01*
X41532Y-28342D01*
X41560Y-28371D01*
X41599Y-28387D01*
X41638Y-28387D01*
X41636Y-28390D01*
X41620Y-28429D01*
X41619Y-28470D01*
X41619Y-28820D01*
X41635Y-28859D01*
X41665Y-28888D01*
X41704Y-28904D01*
X41745Y-28905D01*
X42295Y-28905D01*
X42334Y-28889D01*
X42363Y-28859D01*
X42370Y-28843D01*
X42390Y-28863D01*
X42429Y-28879D01*
X42470Y-28880D01*
X42646Y-28880D01*
X42636Y-28890D01*
X42620Y-28929D01*
X42619Y-28970D01*
X42619Y-29320D01*
X42635Y-29359D01*
X42665Y-29388D01*
X42704Y-29404D01*
X42745Y-29405D01*
X43295Y-29405D01*
X43334Y-29389D01*
X43363Y-29359D01*
X43379Y-29320D01*
X43380Y-29279D01*
X43380Y-28929D01*
X43364Y-28890D01*
X43334Y-28861D01*
X43295Y-28845D01*
X43254Y-28844D01*
X43179Y-28844D01*
X43179Y-28000D01*
X43166Y-27931D01*
X43127Y-27872D01*
X43127Y-27872D01*
X42985Y-27730D01*
X42985Y-27571D01*
X42969Y-27533D01*
X42939Y-27503D01*
X42900Y-27487D01*
X42859Y-27487D01*
X42465Y-27487D01*
X42426Y-27503D01*
X42397Y-27532D01*
X42381Y-27571D01*
X42380Y-27613D01*
X42380Y-27928D01*
X42396Y-27966D01*
X42426Y-27996D01*
X42465Y-28012D01*
X42506Y-28012D01*
X42758Y-28012D01*
X42820Y-28074D01*
X42820Y-28120D01*
X42779Y-28119D01*
X42429Y-28119D01*
X42390Y-28135D01*
X42361Y-28165D01*
X42345Y-28204D01*
X42344Y-28245D01*
X42344Y-28320D01*
X42179Y-28320D01*
X42179Y-28308D01*
X42179Y-28307D01*
X42179Y-28307D01*
X42166Y-28239D01*
X42127Y-28180D01*
X42127Y-28180D01*
X42119Y-28172D01*
X42119Y-27946D01*
X42103Y-27908D01*
X42073Y-27878D01*
X42034Y-27862D01*
X41993Y-27862D01*
X41599Y-27862D01*
X41560Y-27878D01*
X41532Y-27906D01*
X41532Y-27592D01*
X41560Y-27621D01*
X41599Y-27637D01*
X41640Y-27637D01*
X42034Y-27637D01*
X42073Y-27621D01*
X42102Y-27592D01*
X42118Y-27553D01*
X42119Y-27511D01*
X42119Y-27196D01*
X42103Y-27158D01*
X42073Y-27128D01*
X42034Y-27112D01*
X41993Y-27112D01*
X41866Y-27112D01*
X41863Y-27109D01*
X41888Y-27084D01*
X41904Y-27045D01*
X41905Y-27004D01*
X41905Y-26454D01*
X41889Y-26415D01*
X41859Y-26386D01*
X41820Y-26370D01*
X41779Y-26369D01*
X41429Y-26369D01*
X41390Y-26385D01*
X41361Y-26415D01*
X41345Y-26454D01*
X41344Y-26495D01*
X41344Y-26570D01*
X41324Y-26570D01*
X41179Y-26425D01*
X41179Y-26336D01*
X41214Y-26322D01*
X41321Y-26215D01*
X41379Y-26075D01*
X41380Y-25924D01*
X41322Y-25785D01*
X41217Y-25679D01*
X41782Y-25679D01*
X41678Y-25784D01*
X41620Y-25924D01*
X41619Y-26075D01*
X41677Y-26214D01*
X41784Y-26321D01*
X41924Y-26379D01*
X42075Y-26380D01*
X42214Y-26322D01*
X42321Y-26215D01*
X42379Y-26075D01*
X42380Y-25924D01*
X42322Y-25785D01*
X42217Y-25679D01*
X42782Y-25679D01*
X42678Y-25784D01*
X42620Y-25924D01*
X42619Y-26075D01*
X42677Y-26214D01*
X42784Y-26321D01*
X42924Y-26379D01*
X43075Y-26380D01*
X43111Y-26365D01*
X43820Y-27074D01*
X43820Y-29300D01*
X43833Y-29368D01*
X43872Y-29427D01*
X44322Y-29877D01*
X44381Y-29916D01*
X44381Y-29916D01*
X44450Y-29929D01*
X45075Y-29929D01*
X46870Y-31724D01*
X46870Y-33950D01*
X46883Y-34018D01*
X46922Y-34077D01*
X47247Y-34402D01*
X47247Y-34402D01*
X47306Y-34441D01*
X47375Y-34454D01*
X47400Y-34454D01*
X48025Y-34454D01*
X48093Y-34441D01*
X48093Y-34441D01*
X48152Y-34402D01*
X48374Y-34179D01*
X48597Y-34402D01*
X48597Y-34402D01*
X48656Y-34441D01*
X48724Y-34454D01*
X48724Y-34454D01*
X48725Y-34454D01*
X49150Y-34454D01*
X49875Y-34454D01*
X49943Y-34441D01*
X49943Y-34441D01*
X50002Y-34402D01*
X50127Y-34277D01*
X50127Y-34277D01*
X50127Y-34277D01*
X50166Y-34218D01*
X50179Y-34150D01*
X50179Y-34150D01*
X50179Y-34150D01*
X50179Y-34029D01*
X50220Y-34030D01*
X50570Y-34030D01*
X50609Y-34014D01*
X50638Y-33984D01*
X50654Y-33945D01*
X50655Y-33904D01*
X50655Y-33354D01*
X50639Y-33315D01*
X50613Y-33290D01*
X51332Y-32572D01*
X51371Y-32513D01*
X51371Y-32513D01*
X51384Y-32445D01*
X51384Y-32411D01*
X51421Y-32396D01*
X51450Y-32366D01*
X51466Y-32327D01*
X51467Y-32286D01*
X51467Y-31972D01*
X51451Y-31933D01*
X51421Y-31904D01*
X51384Y-31888D01*
X51384Y-31705D01*
X51371Y-31636D01*
X51332Y-31577D01*
X51332Y-31577D01*
X51277Y-31522D01*
X51277Y-31522D01*
X51127Y-31372D01*
X51068Y-31333D01*
X51000Y-31320D01*
X50916Y-31320D01*
X50858Y-31262D01*
X50755Y-31220D01*
X50734Y-31220D01*
X51127Y-30827D01*
X51166Y-30768D01*
X51179Y-30700D01*
X51179Y-30206D01*
X51216Y-30191D01*
X51245Y-30161D01*
X51261Y-30124D01*
X51738Y-30124D01*
X51753Y-30161D01*
X51762Y-30170D01*
X51694Y-30169D01*
X51591Y-30212D01*
X51512Y-30291D01*
X51470Y-30394D01*
X51469Y-30505D01*
X51512Y-30608D01*
X51591Y-30687D01*
X51615Y-30697D01*
X51615Y-30934D01*
X51583Y-30981D01*
X51570Y-31050D01*
X51583Y-31118D01*
X51615Y-31165D01*
X51615Y-31888D01*
X51578Y-31903D01*
X51549Y-31933D01*
X51533Y-31972D01*
X51532Y-32013D01*
X51532Y-32327D01*
X51548Y-32366D01*
X51578Y-32395D01*
X51615Y-32411D01*
X51615Y-32945D01*
X51628Y-33013D01*
X51667Y-33072D01*
X51886Y-33290D01*
X51861Y-33315D01*
X51845Y-33354D01*
X51844Y-33395D01*
X51844Y-33945D01*
X51860Y-33984D01*
X51890Y-34013D01*
X51929Y-34029D01*
X51970Y-34030D01*
X52320Y-34030D01*
X52359Y-34014D01*
X52388Y-33984D01*
X52404Y-33945D01*
X52405Y-33904D01*
X52405Y-33354D01*
X52389Y-33315D01*
X52359Y-33286D01*
X52320Y-33270D01*
X52303Y-33270D01*
X52291Y-33206D01*
X52252Y-33147D01*
X52252Y-33147D01*
X51974Y-32870D01*
X51974Y-32411D01*
X52011Y-32396D01*
X52040Y-32366D01*
X52056Y-32327D01*
X52057Y-32286D01*
X52057Y-31972D01*
X52041Y-31933D01*
X52011Y-31904D01*
X51974Y-31888D01*
X51974Y-31050D01*
X51970Y-31027D01*
X51974Y-31005D01*
X51974Y-30621D01*
X51987Y-30608D01*
X52029Y-30505D01*
X52030Y-30394D01*
X51987Y-30291D01*
X51908Y-30212D01*
X51894Y-30207D01*
X52177Y-30207D01*
X52216Y-30191D01*
X52245Y-30161D01*
X52261Y-30124D01*
X52738Y-30124D01*
X52753Y-30161D01*
X52783Y-30190D01*
X52822Y-30206D01*
X52863Y-30207D01*
X53177Y-30207D01*
X53216Y-30191D01*
X53245Y-30161D01*
X53261Y-30122D01*
X53262Y-30081D01*
X53262Y-30550D01*
X53237Y-30491D01*
X53158Y-30412D01*
X53055Y-30370D01*
X52944Y-30369D01*
X52841Y-30412D01*
X52762Y-30491D01*
X52720Y-30594D01*
X52719Y-30675D01*
X52577Y-30817D01*
X52538Y-30876D01*
X52525Y-30945D01*
X52525Y-31888D01*
X52488Y-31903D01*
X52459Y-31933D01*
X52443Y-31972D01*
X52442Y-32013D01*
X52442Y-32327D01*
X52458Y-32366D01*
X52488Y-32395D01*
X52527Y-32411D01*
X52568Y-32412D01*
X52882Y-32412D01*
X52921Y-32396D01*
X52950Y-32366D01*
X52966Y-32327D01*
X52967Y-32286D01*
X52967Y-31972D01*
X52951Y-31933D01*
X52921Y-31904D01*
X52884Y-31888D01*
X52884Y-31019D01*
X52974Y-30929D01*
X53055Y-30930D01*
X53158Y-30887D01*
X53237Y-30808D01*
X53279Y-30705D01*
X53280Y-30594D01*
X53280Y-31887D01*
X53117Y-31887D01*
X53078Y-31903D01*
X53049Y-31933D01*
X53033Y-31972D01*
X53032Y-32013D01*
X53032Y-32327D01*
X53048Y-32366D01*
X53078Y-32395D01*
X53115Y-32411D01*
X53115Y-32780D01*
X52747Y-33147D01*
X52708Y-33206D01*
X52696Y-33269D01*
X52679Y-33269D01*
X52640Y-33285D01*
X52611Y-33315D01*
X52595Y-33354D01*
X52594Y-33395D01*
X52594Y-33945D01*
X52610Y-33984D01*
X52640Y-34013D01*
X52679Y-34029D01*
X52720Y-34030D01*
X53070Y-34030D01*
X53109Y-34014D01*
X53138Y-33984D01*
X53154Y-33945D01*
X53155Y-33904D01*
X53155Y-33354D01*
X53139Y-33315D01*
X53113Y-33290D01*
X53422Y-32982D01*
X53461Y-32923D01*
X53461Y-32923D01*
X53474Y-32855D01*
X53474Y-32411D01*
X53511Y-32396D01*
X53540Y-32366D01*
X53556Y-32327D01*
X53557Y-32286D01*
X53557Y-32142D01*
X53627Y-32072D01*
X53666Y-32013D01*
X53666Y-32013D01*
X53679Y-31945D01*
X53679Y-38471D01*
X44905Y-38471D01*
X44905Y-36419D01*
X44843Y-36270D01*
X44729Y-36156D01*
X44679Y-36136D01*
X44679Y-36000D01*
X44666Y-35931D01*
X44666Y-35931D01*
X44627Y-35872D01*
X44127Y-35372D01*
X44068Y-35333D01*
X44000Y-35320D01*
X42000Y-35320D01*
X41931Y-35333D01*
X41872Y-35372D01*
X41425Y-35820D01*
X40750Y-35820D01*
X40551Y-35820D01*
X40551Y-33749D01*
X40528Y-33634D01*
X40463Y-33536D01*
X40338Y-33411D01*
X40240Y-33346D01*
X40125Y-33323D01*
X39625Y-33323D01*
X39250Y-33323D01*
X38250Y-33323D01*
X38000Y-33323D01*
X37842Y-33165D01*
X38088Y-32919D01*
X38153Y-32821D01*
X38176Y-32706D01*
X38176Y-32500D01*
X38155Y-32390D01*
X38155Y-32204D01*
X38139Y-32165D01*
X38109Y-32136D01*
X38070Y-32120D01*
X38029Y-32119D01*
X37679Y-32119D01*
X37640Y-32135D01*
X37611Y-32165D01*
X37595Y-32204D01*
X37594Y-32245D01*
X37594Y-32390D01*
X37573Y-32500D01*
X37573Y-32580D01*
X37203Y-32950D01*
X36775Y-32950D01*
X36736Y-32966D01*
X36707Y-32995D01*
X36691Y-33034D01*
X36690Y-33076D01*
X36690Y-33132D01*
X36530Y-33293D01*
X36530Y-32944D01*
X36487Y-32841D01*
X36408Y-32762D01*
X36305Y-32720D01*
X36224Y-32719D01*
X36127Y-32622D01*
X36068Y-32583D01*
X36000Y-32570D01*
X28426Y-32570D01*
X28426Y-28000D01*
X28405Y-27890D01*
X28405Y-27704D01*
X28389Y-27665D01*
X28359Y-27636D01*
X28320Y-27620D01*
X28279Y-27619D01*
X27929Y-27619D01*
X27890Y-27635D01*
X27861Y-27665D01*
X27847Y-27698D01*
X27750Y-27698D01*
X27380Y-27328D01*
X27380Y-27179D01*
X27364Y-27140D01*
X27334Y-27111D01*
X27295Y-27095D01*
X27254Y-27094D01*
X27109Y-27094D01*
X27000Y-27073D01*
X26125Y-27073D01*
X26124Y-27073D01*
X26102Y-27077D01*
X26009Y-27096D01*
X25973Y-27119D01*
X25973Y-27119D01*
X25924Y-27119D01*
X25785Y-27177D01*
X25678Y-27284D01*
X25620Y-27424D01*
X25619Y-27575D01*
X25677Y-27714D01*
X25698Y-27735D01*
X25698Y-29252D01*
X25721Y-29367D01*
X25786Y-29465D01*
X25827Y-29506D01*
X25827Y-29953D01*
X25843Y-29992D01*
X25873Y-30021D01*
X25912Y-30037D01*
X25946Y-30038D01*
X25946Y-31126D01*
X25405Y-31668D01*
X25405Y-25754D01*
X25405Y-25204D01*
X25389Y-25165D01*
X25359Y-25136D01*
X25320Y-25120D01*
X25279Y-25119D01*
X24929Y-25119D01*
X24890Y-25135D01*
X24861Y-25165D01*
X24845Y-25204D01*
X24844Y-25245D01*
X24844Y-25795D01*
X24860Y-25834D01*
X24890Y-25863D01*
X24929Y-25879D01*
X24945Y-25879D01*
X24945Y-26119D01*
X24924Y-26119D01*
X24785Y-26177D01*
X24678Y-26284D01*
X24620Y-26424D01*
X24619Y-26575D01*
X24677Y-26714D01*
X24784Y-26821D01*
X24924Y-26879D01*
X25075Y-26880D01*
X25214Y-26822D01*
X25321Y-26715D01*
X25379Y-26575D01*
X25380Y-26424D01*
X25322Y-26285D01*
X25304Y-26267D01*
X25304Y-25880D01*
X25320Y-25880D01*
X25359Y-25864D01*
X25388Y-25834D01*
X25404Y-25795D01*
X25405Y-25754D01*
X25405Y-31668D01*
X25172Y-31901D01*
X25172Y-29912D01*
X25172Y-29046D01*
X25156Y-29007D01*
X25126Y-28978D01*
X25087Y-28962D01*
X25046Y-28961D01*
X24450Y-28961D01*
X24450Y-28534D01*
X24434Y-28495D01*
X24405Y-28466D01*
X24405Y-27754D01*
X24405Y-27204D01*
X24389Y-27165D01*
X24359Y-27136D01*
X24320Y-27120D01*
X24303Y-27120D01*
X24291Y-27056D01*
X24252Y-26997D01*
X24252Y-26997D01*
X24127Y-26872D01*
X24068Y-26833D01*
X24000Y-26820D01*
X23905Y-26820D01*
X23905Y-25779D01*
X23905Y-25179D01*
X23889Y-25140D01*
X23859Y-25111D01*
X23820Y-25095D01*
X23779Y-25094D01*
X23179Y-25094D01*
X23140Y-25110D01*
X23111Y-25140D01*
X23095Y-25179D01*
X23094Y-25220D01*
X23094Y-25320D01*
X23000Y-25320D01*
X22931Y-25333D01*
X22872Y-25372D01*
X22577Y-25667D01*
X22538Y-25726D01*
X22525Y-25795D01*
X22525Y-26738D01*
X22488Y-26753D01*
X22459Y-26783D01*
X22443Y-26822D01*
X22442Y-26863D01*
X22442Y-27177D01*
X22458Y-27216D01*
X22488Y-27245D01*
X22527Y-27261D01*
X22568Y-27262D01*
X22882Y-27262D01*
X22921Y-27246D01*
X22950Y-27216D01*
X22966Y-27177D01*
X22967Y-27136D01*
X22967Y-26822D01*
X22951Y-26783D01*
X22921Y-26754D01*
X22884Y-26738D01*
X22884Y-25869D01*
X23074Y-25679D01*
X23094Y-25679D01*
X23094Y-25820D01*
X23110Y-25859D01*
X23140Y-25888D01*
X23179Y-25904D01*
X23220Y-25905D01*
X23820Y-25905D01*
X23859Y-25889D01*
X23888Y-25859D01*
X23904Y-25820D01*
X23905Y-25779D01*
X23905Y-26820D01*
X23556Y-26820D01*
X23541Y-26783D01*
X23511Y-26754D01*
X23472Y-26738D01*
X23431Y-26737D01*
X23117Y-26737D01*
X23078Y-26753D01*
X23049Y-26783D01*
X23033Y-26822D01*
X23032Y-26863D01*
X23032Y-27177D01*
X23048Y-27216D01*
X23078Y-27245D01*
X23117Y-27261D01*
X23158Y-27262D01*
X23472Y-27262D01*
X23511Y-27246D01*
X23540Y-27216D01*
X23556Y-27179D01*
X23855Y-27179D01*
X23845Y-27204D01*
X23844Y-27245D01*
X23844Y-27795D01*
X23860Y-27834D01*
X23890Y-27863D01*
X23929Y-27879D01*
X23970Y-27880D01*
X24320Y-27880D01*
X24359Y-27864D01*
X24388Y-27834D01*
X24404Y-27795D01*
X24405Y-27754D01*
X24405Y-28466D01*
X24404Y-28466D01*
X24365Y-28450D01*
X24324Y-28449D01*
X22434Y-28449D01*
X22395Y-28465D01*
X22366Y-28495D01*
X22350Y-28534D01*
X22349Y-28575D01*
X22349Y-30465D01*
X22365Y-30504D01*
X22395Y-30533D01*
X22434Y-30549D01*
X22475Y-30550D01*
X24365Y-30550D01*
X24404Y-30534D01*
X24433Y-30504D01*
X24449Y-30465D01*
X24450Y-30424D01*
X24450Y-30038D01*
X24457Y-30038D01*
X25087Y-30038D01*
X25126Y-30022D01*
X25155Y-29992D01*
X25171Y-29953D01*
X25172Y-29912D01*
X25172Y-31901D01*
X24951Y-32121D01*
X24939Y-32090D01*
X24909Y-32061D01*
X24870Y-32045D01*
X24829Y-32044D01*
X24129Y-32044D01*
X24090Y-32060D01*
X24061Y-32090D01*
X24045Y-32129D01*
X24044Y-32170D01*
X24044Y-32870D01*
X24060Y-32909D01*
X24090Y-32938D01*
X24129Y-32954D01*
X24170Y-32955D01*
X24870Y-32955D01*
X24909Y-32939D01*
X24938Y-32909D01*
X24954Y-32870D01*
X24955Y-32829D01*
X24955Y-32801D01*
X25000Y-32801D01*
X25115Y-32778D01*
X25213Y-32713D01*
X26461Y-31465D01*
X26461Y-31465D01*
X26461Y-31465D01*
X26526Y-31367D01*
X26526Y-31367D01*
X26545Y-31274D01*
X26549Y-31252D01*
X26549Y-31252D01*
X26549Y-31252D01*
X26549Y-30038D01*
X26583Y-30038D01*
X26622Y-30022D01*
X26651Y-29992D01*
X26667Y-29953D01*
X26668Y-29912D01*
X26668Y-29046D01*
X26652Y-29007D01*
X26622Y-28978D01*
X26583Y-28962D01*
X26542Y-28961D01*
X26301Y-28961D01*
X26301Y-27735D01*
X26321Y-27715D01*
X26338Y-27676D01*
X26874Y-27676D01*
X27411Y-28213D01*
X27509Y-28278D01*
X27625Y-28301D01*
X27847Y-28301D01*
X27860Y-28334D01*
X27890Y-28363D01*
X27929Y-28379D01*
X27970Y-28380D01*
X28320Y-28380D01*
X28359Y-28364D01*
X28388Y-28334D01*
X28404Y-28295D01*
X28405Y-28254D01*
X28405Y-28109D01*
X28426Y-28000D01*
X28426Y-32570D01*
X27500Y-32570D01*
X27499Y-32570D01*
X27431Y-32583D01*
X27372Y-32622D01*
X27372Y-32622D01*
X27247Y-32747D01*
X27208Y-32806D01*
X27195Y-32875D01*
X27195Y-33019D01*
X27179Y-33019D01*
X27140Y-33035D01*
X27111Y-33065D01*
X27095Y-33104D01*
X27094Y-33145D01*
X27094Y-33695D01*
X27110Y-33734D01*
X27140Y-33763D01*
X27179Y-33779D01*
X27220Y-33780D01*
X27570Y-33780D01*
X27609Y-33764D01*
X27638Y-33734D01*
X27654Y-33695D01*
X27655Y-33654D01*
X27655Y-33104D01*
X27639Y-33065D01*
X27609Y-33036D01*
X27570Y-33020D01*
X27554Y-33020D01*
X27554Y-32949D01*
X27574Y-32929D01*
X35925Y-32929D01*
X35970Y-32974D01*
X35969Y-33055D01*
X36012Y-33158D01*
X36091Y-33237D01*
X36194Y-33279D01*
X36305Y-33280D01*
X36408Y-33237D01*
X36487Y-33158D01*
X36529Y-33055D01*
X36530Y-32944D01*
X36530Y-33293D01*
X36499Y-33323D01*
X36250Y-33323D01*
X35250Y-33323D01*
X34950Y-33323D01*
X34744Y-33117D01*
X34646Y-33052D01*
X34609Y-33044D01*
X34609Y-33034D01*
X34593Y-32996D01*
X34563Y-32966D01*
X34524Y-32950D01*
X34483Y-32950D01*
X33775Y-32950D01*
X33736Y-32966D01*
X33707Y-32995D01*
X33693Y-33029D01*
X33669Y-33029D01*
X33553Y-33052D01*
X33455Y-33117D01*
X33249Y-33323D01*
X32250Y-33323D01*
X32000Y-33323D01*
X31794Y-33117D01*
X31696Y-33052D01*
X31609Y-33034D01*
X31609Y-33034D01*
X31593Y-32996D01*
X31563Y-32966D01*
X31524Y-32950D01*
X31483Y-32950D01*
X30775Y-32950D01*
X30736Y-32966D01*
X30707Y-32995D01*
X30693Y-33029D01*
X30669Y-33029D01*
X30553Y-33052D01*
X30455Y-33117D01*
X30249Y-33323D01*
X29250Y-33323D01*
X29044Y-33117D01*
X28946Y-33052D01*
X28831Y-33029D01*
X28706Y-33029D01*
X28693Y-32996D01*
X28663Y-32966D01*
X28624Y-32950D01*
X28583Y-32950D01*
X27875Y-32950D01*
X27836Y-32966D01*
X27807Y-32995D01*
X27791Y-33034D01*
X27790Y-33076D01*
X27790Y-33627D01*
X27806Y-33665D01*
X27836Y-33695D01*
X27875Y-33711D01*
X27916Y-33711D01*
X28624Y-33711D01*
X28663Y-33695D01*
X28692Y-33666D01*
X28706Y-33633D01*
X28869Y-33796D01*
X28869Y-33820D01*
X28885Y-33859D01*
X28915Y-33888D01*
X28954Y-33904D01*
X28995Y-33905D01*
X29015Y-33905D01*
X29125Y-33926D01*
X29250Y-33926D01*
X30250Y-33926D01*
X30375Y-33926D01*
X30484Y-33905D01*
X30545Y-33905D01*
X30584Y-33889D01*
X30613Y-33859D01*
X30629Y-33820D01*
X30630Y-33796D01*
X30733Y-33692D01*
X30736Y-33695D01*
X30775Y-33711D01*
X30816Y-33711D01*
X31524Y-33711D01*
X31531Y-33708D01*
X31661Y-33838D01*
X31759Y-33903D01*
X31875Y-33926D01*
X32250Y-33926D01*
X33250Y-33926D01*
X33375Y-33926D01*
X33484Y-33905D01*
X33545Y-33905D01*
X33584Y-33889D01*
X33613Y-33859D01*
X33629Y-33820D01*
X33630Y-33796D01*
X33733Y-33692D01*
X33736Y-33695D01*
X33775Y-33711D01*
X33816Y-33711D01*
X34484Y-33711D01*
X34611Y-33838D01*
X34709Y-33903D01*
X34825Y-33926D01*
X35250Y-33926D01*
X36250Y-33926D01*
X36625Y-33926D01*
X36740Y-33903D01*
X36838Y-33838D01*
X36965Y-33711D01*
X37524Y-33711D01*
X37531Y-33708D01*
X37661Y-33838D01*
X37759Y-33903D01*
X37875Y-33926D01*
X38250Y-33926D01*
X39250Y-33926D01*
X39625Y-33926D01*
X39999Y-33926D01*
X40036Y-33963D01*
X40134Y-34028D01*
X40249Y-34051D01*
X40365Y-34028D01*
X40463Y-33963D01*
X40528Y-33865D01*
X40551Y-33749D01*
X40551Y-35820D01*
X39630Y-35820D01*
X39630Y-34529D01*
X39630Y-34179D01*
X39614Y-34140D01*
X39584Y-34111D01*
X39545Y-34095D01*
X39504Y-34094D01*
X38954Y-34094D01*
X38915Y-34110D01*
X38886Y-34140D01*
X38870Y-34179D01*
X38869Y-34220D01*
X38869Y-34500D01*
X38605Y-34764D01*
X38446Y-34764D01*
X38408Y-34780D01*
X38378Y-34810D01*
X38362Y-34849D01*
X38362Y-34890D01*
X38362Y-35284D01*
X38378Y-35323D01*
X38407Y-35352D01*
X38446Y-35368D01*
X38488Y-35369D01*
X38803Y-35369D01*
X38841Y-35353D01*
X38871Y-35323D01*
X38887Y-35284D01*
X38887Y-35243D01*
X38887Y-34991D01*
X39224Y-34655D01*
X39545Y-34655D01*
X39584Y-34639D01*
X39613Y-34609D01*
X39629Y-34570D01*
X39630Y-34529D01*
X39630Y-35820D01*
X39074Y-35820D01*
X39029Y-35775D01*
X39030Y-35694D01*
X38987Y-35591D01*
X38908Y-35512D01*
X38805Y-35470D01*
X38694Y-35469D01*
X38591Y-35512D01*
X38512Y-35591D01*
X38482Y-35662D01*
X38467Y-35647D01*
X38428Y-35631D01*
X38386Y-35630D01*
X38071Y-35630D01*
X38054Y-35637D01*
X38054Y-35368D01*
X38091Y-35353D01*
X38121Y-35323D01*
X38137Y-35284D01*
X38137Y-35243D01*
X38137Y-34866D01*
X38349Y-34655D01*
X38545Y-34655D01*
X38584Y-34639D01*
X38613Y-34609D01*
X38629Y-34570D01*
X38630Y-34529D01*
X38630Y-34179D01*
X38614Y-34140D01*
X38584Y-34111D01*
X38545Y-34095D01*
X38504Y-34094D01*
X37954Y-34094D01*
X37915Y-34110D01*
X37886Y-34140D01*
X37870Y-34179D01*
X37869Y-34220D01*
X37869Y-34570D01*
X37885Y-34609D01*
X37886Y-34609D01*
X37747Y-34747D01*
X37736Y-34764D01*
X37696Y-34764D01*
X37658Y-34780D01*
X37628Y-34810D01*
X37612Y-34849D01*
X37612Y-34890D01*
X37612Y-35284D01*
X37628Y-35323D01*
X37657Y-35352D01*
X37695Y-35368D01*
X37695Y-35800D01*
X37675Y-35820D01*
X37609Y-35820D01*
X37609Y-35585D01*
X37609Y-35034D01*
X37594Y-34999D01*
X37608Y-34965D01*
X37609Y-34923D01*
X37609Y-34372D01*
X37593Y-34334D01*
X37563Y-34304D01*
X37524Y-34288D01*
X37483Y-34288D01*
X36775Y-34288D01*
X36736Y-34304D01*
X36707Y-34333D01*
X36691Y-34372D01*
X36690Y-34414D01*
X36690Y-34965D01*
X36705Y-35000D01*
X36691Y-35034D01*
X36690Y-35076D01*
X36690Y-35627D01*
X36706Y-35665D01*
X36736Y-35695D01*
X36775Y-35711D01*
X36816Y-35711D01*
X37524Y-35711D01*
X37563Y-35695D01*
X37592Y-35666D01*
X37608Y-35627D01*
X37609Y-35585D01*
X37609Y-35820D01*
X37500Y-35820D01*
X37431Y-35833D01*
X37372Y-35872D01*
X37372Y-35872D01*
X37122Y-36122D01*
X37083Y-36181D01*
X37070Y-36250D01*
X37070Y-36288D01*
X36775Y-36288D01*
X36736Y-36304D01*
X36707Y-36333D01*
X36691Y-36372D01*
X36690Y-36414D01*
X36690Y-36489D01*
X36630Y-36489D01*
X36630Y-36429D01*
X36630Y-36029D01*
X36630Y-35679D01*
X36630Y-34529D01*
X36630Y-34179D01*
X36614Y-34140D01*
X36584Y-34111D01*
X36545Y-34095D01*
X36504Y-34094D01*
X35954Y-34094D01*
X35915Y-34110D01*
X35886Y-34140D01*
X35870Y-34179D01*
X35869Y-34220D01*
X35869Y-34500D01*
X35605Y-34764D01*
X35446Y-34764D01*
X35408Y-34780D01*
X35378Y-34810D01*
X35362Y-34849D01*
X35362Y-34890D01*
X35362Y-35284D01*
X35378Y-35323D01*
X35407Y-35352D01*
X35446Y-35368D01*
X35488Y-35369D01*
X35803Y-35369D01*
X35841Y-35353D01*
X35871Y-35323D01*
X35887Y-35284D01*
X35887Y-35243D01*
X35887Y-34991D01*
X36224Y-34655D01*
X36545Y-34655D01*
X36584Y-34639D01*
X36613Y-34609D01*
X36629Y-34570D01*
X36630Y-34529D01*
X36630Y-35679D01*
X36614Y-35640D01*
X36584Y-35611D01*
X36545Y-35595D01*
X36504Y-35594D01*
X36429Y-35594D01*
X36429Y-35466D01*
X36487Y-35408D01*
X36529Y-35305D01*
X36530Y-35194D01*
X36487Y-35091D01*
X36408Y-35012D01*
X36305Y-34970D01*
X36194Y-34969D01*
X36091Y-35012D01*
X36012Y-35091D01*
X35970Y-35194D01*
X35969Y-35305D01*
X36012Y-35408D01*
X36070Y-35466D01*
X36070Y-35594D01*
X35954Y-35594D01*
X35915Y-35610D01*
X35886Y-35640D01*
X35870Y-35679D01*
X35869Y-35720D01*
X35869Y-36070D01*
X35885Y-36109D01*
X35915Y-36138D01*
X35954Y-36154D01*
X35995Y-36155D01*
X36545Y-36155D01*
X36584Y-36139D01*
X36613Y-36109D01*
X36629Y-36070D01*
X36630Y-36029D01*
X36630Y-36429D01*
X36614Y-36390D01*
X36584Y-36361D01*
X36545Y-36345D01*
X36504Y-36344D01*
X35954Y-36344D01*
X35915Y-36360D01*
X35905Y-36371D01*
X35905Y-36204D01*
X35889Y-36165D01*
X35859Y-36136D01*
X35820Y-36120D01*
X35779Y-36119D01*
X35512Y-36119D01*
X35512Y-36109D01*
X35512Y-35715D01*
X35496Y-35676D01*
X35467Y-35647D01*
X35428Y-35631D01*
X35386Y-35630D01*
X35071Y-35630D01*
X35054Y-35637D01*
X35054Y-35368D01*
X35091Y-35353D01*
X35121Y-35323D01*
X35137Y-35284D01*
X35137Y-35243D01*
X35137Y-34849D01*
X35121Y-34810D01*
X35095Y-34784D01*
X35224Y-34655D01*
X35545Y-34655D01*
X35584Y-34639D01*
X35613Y-34609D01*
X35629Y-34570D01*
X35630Y-34529D01*
X35630Y-34179D01*
X35614Y-34140D01*
X35584Y-34111D01*
X35545Y-34095D01*
X35504Y-34094D01*
X34954Y-34094D01*
X34915Y-34110D01*
X34886Y-34140D01*
X34870Y-34179D01*
X34869Y-34220D01*
X34869Y-34500D01*
X34747Y-34622D01*
X34708Y-34681D01*
X34695Y-34750D01*
X34695Y-34765D01*
X34658Y-34780D01*
X34628Y-34810D01*
X34612Y-34849D01*
X34612Y-34890D01*
X34612Y-35284D01*
X34628Y-35323D01*
X34657Y-35352D01*
X34695Y-35368D01*
X34695Y-35700D01*
X34625Y-35770D01*
X34609Y-35770D01*
X34609Y-35585D01*
X34609Y-35034D01*
X34594Y-34999D01*
X34608Y-34965D01*
X34609Y-34923D01*
X34609Y-34372D01*
X34593Y-34334D01*
X34563Y-34304D01*
X34524Y-34288D01*
X34483Y-34288D01*
X33775Y-34288D01*
X33736Y-34304D01*
X33707Y-34333D01*
X33691Y-34372D01*
X33690Y-34414D01*
X33690Y-34965D01*
X33705Y-35000D01*
X33691Y-35034D01*
X33690Y-35076D01*
X33690Y-35627D01*
X33706Y-35665D01*
X33736Y-35695D01*
X33775Y-35711D01*
X33816Y-35711D01*
X34524Y-35711D01*
X34563Y-35695D01*
X34592Y-35666D01*
X34608Y-35627D01*
X34609Y-35585D01*
X34609Y-35770D01*
X34350Y-35770D01*
X34281Y-35783D01*
X34222Y-35822D01*
X34222Y-35822D01*
X34022Y-36022D01*
X33983Y-36081D01*
X33970Y-36150D01*
X33970Y-36288D01*
X33775Y-36288D01*
X33736Y-36304D01*
X33707Y-36333D01*
X33691Y-36372D01*
X33690Y-36414D01*
X33690Y-36445D01*
X33630Y-36445D01*
X33630Y-36429D01*
X33630Y-36029D01*
X33630Y-35679D01*
X33630Y-34529D01*
X33630Y-34179D01*
X33614Y-34140D01*
X33584Y-34111D01*
X33545Y-34095D01*
X33504Y-34094D01*
X32954Y-34094D01*
X32915Y-34110D01*
X32886Y-34140D01*
X32870Y-34179D01*
X32869Y-34220D01*
X32869Y-34500D01*
X32605Y-34764D01*
X32446Y-34764D01*
X32408Y-34780D01*
X32378Y-34810D01*
X32362Y-34849D01*
X32362Y-34890D01*
X32362Y-35284D01*
X32378Y-35323D01*
X32407Y-35352D01*
X32446Y-35368D01*
X32488Y-35369D01*
X32803Y-35369D01*
X32841Y-35353D01*
X32871Y-35323D01*
X32887Y-35284D01*
X32887Y-35243D01*
X32887Y-34991D01*
X33224Y-34655D01*
X33545Y-34655D01*
X33584Y-34639D01*
X33613Y-34609D01*
X33629Y-34570D01*
X33630Y-34529D01*
X33630Y-35679D01*
X33614Y-35640D01*
X33584Y-35611D01*
X33545Y-35595D01*
X33504Y-35594D01*
X33429Y-35594D01*
X33429Y-35466D01*
X33487Y-35408D01*
X33529Y-35305D01*
X33530Y-35194D01*
X33487Y-35091D01*
X33408Y-35012D01*
X33305Y-34970D01*
X33194Y-34969D01*
X33091Y-35012D01*
X33012Y-35091D01*
X32970Y-35194D01*
X32969Y-35305D01*
X33012Y-35408D01*
X33070Y-35466D01*
X33070Y-35594D01*
X32954Y-35594D01*
X32915Y-35610D01*
X32886Y-35640D01*
X32870Y-35679D01*
X32869Y-35720D01*
X32869Y-36070D01*
X32885Y-36109D01*
X32915Y-36138D01*
X32954Y-36154D01*
X32995Y-36155D01*
X33545Y-36155D01*
X33584Y-36139D01*
X33613Y-36109D01*
X33629Y-36070D01*
X33630Y-36029D01*
X33630Y-36429D01*
X33614Y-36390D01*
X33584Y-36361D01*
X33545Y-36345D01*
X33504Y-36344D01*
X32954Y-36344D01*
X32915Y-36360D01*
X32905Y-36371D01*
X32905Y-36204D01*
X32889Y-36165D01*
X32859Y-36136D01*
X32820Y-36120D01*
X32779Y-36119D01*
X32512Y-36119D01*
X32512Y-36109D01*
X32512Y-35715D01*
X32496Y-35676D01*
X32467Y-35647D01*
X32428Y-35631D01*
X32386Y-35630D01*
X32071Y-35630D01*
X32054Y-35637D01*
X32054Y-35368D01*
X32091Y-35353D01*
X32121Y-35323D01*
X32137Y-35284D01*
X32137Y-35243D01*
X32137Y-34849D01*
X32121Y-34810D01*
X32095Y-34784D01*
X32224Y-34655D01*
X32545Y-34655D01*
X32584Y-34639D01*
X32613Y-34609D01*
X32629Y-34570D01*
X32630Y-34529D01*
X32630Y-34179D01*
X32614Y-34140D01*
X32584Y-34111D01*
X32545Y-34095D01*
X32504Y-34094D01*
X31954Y-34094D01*
X31915Y-34110D01*
X31886Y-34140D01*
X31870Y-34179D01*
X31869Y-34220D01*
X31869Y-34500D01*
X31747Y-34622D01*
X31708Y-34681D01*
X31695Y-34750D01*
X31695Y-34765D01*
X31658Y-34780D01*
X31628Y-34810D01*
X31612Y-34849D01*
X31612Y-34890D01*
X31612Y-35284D01*
X31628Y-35323D01*
X31657Y-35352D01*
X31695Y-35368D01*
X31695Y-35800D01*
X31675Y-35820D01*
X31609Y-35820D01*
X31609Y-35585D01*
X31609Y-35034D01*
X31594Y-34999D01*
X31608Y-34965D01*
X31609Y-34923D01*
X31609Y-34372D01*
X31593Y-34334D01*
X31563Y-34304D01*
X31524Y-34288D01*
X31483Y-34288D01*
X30775Y-34288D01*
X30736Y-34304D01*
X30707Y-34333D01*
X30691Y-34372D01*
X30690Y-34414D01*
X30690Y-34965D01*
X30705Y-35000D01*
X30691Y-35034D01*
X30690Y-35076D01*
X30690Y-35627D01*
X30706Y-35665D01*
X30736Y-35695D01*
X30775Y-35711D01*
X30816Y-35711D01*
X31524Y-35711D01*
X31563Y-35695D01*
X31592Y-35666D01*
X31608Y-35627D01*
X31609Y-35585D01*
X31609Y-35820D01*
X31500Y-35820D01*
X31431Y-35833D01*
X31372Y-35872D01*
X31372Y-35872D01*
X31122Y-36122D01*
X31083Y-36181D01*
X31070Y-36250D01*
X31070Y-36288D01*
X30775Y-36288D01*
X30736Y-36304D01*
X30707Y-36333D01*
X30691Y-36372D01*
X30690Y-36414D01*
X30690Y-36489D01*
X30630Y-36489D01*
X30630Y-36429D01*
X30630Y-36029D01*
X30630Y-35679D01*
X30630Y-34529D01*
X30630Y-34179D01*
X30614Y-34140D01*
X30584Y-34111D01*
X30545Y-34095D01*
X30504Y-34094D01*
X29954Y-34094D01*
X29915Y-34110D01*
X29886Y-34140D01*
X29870Y-34179D01*
X29869Y-34220D01*
X29869Y-34500D01*
X29605Y-34764D01*
X29446Y-34764D01*
X29408Y-34780D01*
X29378Y-34810D01*
X29362Y-34849D01*
X29362Y-34890D01*
X29362Y-35284D01*
X29378Y-35323D01*
X29407Y-35352D01*
X29446Y-35368D01*
X29488Y-35369D01*
X29803Y-35369D01*
X29841Y-35353D01*
X29871Y-35323D01*
X29887Y-35284D01*
X29887Y-35243D01*
X29887Y-34991D01*
X30224Y-34655D01*
X30545Y-34655D01*
X30584Y-34639D01*
X30613Y-34609D01*
X30629Y-34570D01*
X30630Y-34529D01*
X30630Y-35679D01*
X30614Y-35640D01*
X30584Y-35611D01*
X30545Y-35595D01*
X30504Y-35594D01*
X30429Y-35594D01*
X30429Y-35466D01*
X30487Y-35408D01*
X30529Y-35305D01*
X30530Y-35194D01*
X30487Y-35091D01*
X30408Y-35012D01*
X30305Y-34970D01*
X30194Y-34969D01*
X30091Y-35012D01*
X30012Y-35091D01*
X29970Y-35194D01*
X29969Y-35305D01*
X30012Y-35408D01*
X30070Y-35466D01*
X30070Y-35594D01*
X29954Y-35594D01*
X29915Y-35610D01*
X29886Y-35640D01*
X29870Y-35679D01*
X29869Y-35720D01*
X29869Y-36070D01*
X29885Y-36109D01*
X29915Y-36138D01*
X29954Y-36154D01*
X29995Y-36155D01*
X30545Y-36155D01*
X30584Y-36139D01*
X30613Y-36109D01*
X30629Y-36070D01*
X30630Y-36029D01*
X30630Y-36429D01*
X30614Y-36390D01*
X30584Y-36361D01*
X30545Y-36345D01*
X30504Y-36344D01*
X29954Y-36344D01*
X29915Y-36360D01*
X29886Y-36390D01*
X29870Y-36429D01*
X29869Y-36470D01*
X29869Y-36820D01*
X29885Y-36859D01*
X29915Y-36888D01*
X29954Y-36904D01*
X29995Y-36905D01*
X30545Y-36905D01*
X30584Y-36889D01*
X30613Y-36859D01*
X30618Y-36848D01*
X30690Y-36848D01*
X30690Y-36965D01*
X30706Y-37003D01*
X30736Y-37033D01*
X30775Y-37049D01*
X30816Y-37049D01*
X31446Y-37049D01*
X31425Y-37070D01*
X31250Y-37070D01*
X30716Y-37070D01*
X30658Y-37012D01*
X30555Y-36970D01*
X30444Y-36969D01*
X30341Y-37012D01*
X30283Y-37070D01*
X30074Y-37070D01*
X29429Y-36425D01*
X29429Y-36234D01*
X29466Y-36219D01*
X29496Y-36189D01*
X29512Y-36150D01*
X29512Y-36109D01*
X29512Y-35715D01*
X29496Y-35676D01*
X29467Y-35647D01*
X29428Y-35631D01*
X29386Y-35630D01*
X29071Y-35630D01*
X29054Y-35637D01*
X29054Y-35368D01*
X29091Y-35353D01*
X29121Y-35323D01*
X29137Y-35284D01*
X29137Y-35243D01*
X29137Y-34849D01*
X29121Y-34810D01*
X29095Y-34784D01*
X29224Y-34655D01*
X29545Y-34655D01*
X29584Y-34639D01*
X29613Y-34609D01*
X29629Y-34570D01*
X29630Y-34529D01*
X29630Y-34179D01*
X29614Y-34140D01*
X29584Y-34111D01*
X29545Y-34095D01*
X29504Y-34094D01*
X28954Y-34094D01*
X28915Y-34110D01*
X28886Y-34140D01*
X28870Y-34179D01*
X28869Y-34220D01*
X28869Y-34500D01*
X28747Y-34622D01*
X28709Y-34680D01*
X28709Y-34372D01*
X28693Y-34334D01*
X28663Y-34304D01*
X28624Y-34288D01*
X28583Y-34288D01*
X27875Y-34288D01*
X27836Y-34304D01*
X27807Y-34333D01*
X27791Y-34372D01*
X27790Y-34414D01*
X27790Y-34965D01*
X27805Y-35000D01*
X27791Y-35034D01*
X27790Y-35076D01*
X27790Y-35627D01*
X27806Y-35665D01*
X27836Y-35695D01*
X27875Y-35711D01*
X27916Y-35711D01*
X28624Y-35711D01*
X28663Y-35695D01*
X28692Y-35666D01*
X28695Y-35660D01*
X28695Y-35800D01*
X28675Y-35820D01*
X28500Y-35820D01*
X28431Y-35833D01*
X28372Y-35872D01*
X28372Y-35872D01*
X28122Y-36122D01*
X28083Y-36181D01*
X28070Y-36250D01*
X28070Y-36288D01*
X27875Y-36288D01*
X27836Y-36304D01*
X27822Y-36318D01*
X27752Y-36247D01*
X27693Y-36208D01*
X27630Y-36196D01*
X27630Y-36179D01*
X27630Y-35779D01*
X27630Y-35429D01*
X27614Y-35390D01*
X27584Y-35361D01*
X27545Y-35345D01*
X27504Y-35344D01*
X27429Y-35344D01*
X27429Y-35234D01*
X27466Y-35219D01*
X27496Y-35189D01*
X27512Y-35150D01*
X27512Y-35109D01*
X27512Y-34715D01*
X27496Y-34676D01*
X27467Y-34647D01*
X27428Y-34631D01*
X27386Y-34630D01*
X27137Y-34630D01*
X27137Y-34243D01*
X27137Y-33849D01*
X27121Y-33810D01*
X27092Y-33781D01*
X27054Y-33765D01*
X27054Y-33750D01*
X27041Y-33681D01*
X27002Y-33622D01*
X27002Y-33622D01*
X26905Y-33525D01*
X26905Y-33104D01*
X26889Y-33065D01*
X26859Y-33036D01*
X26820Y-33020D01*
X26779Y-33019D01*
X26429Y-33019D01*
X26390Y-33035D01*
X26361Y-33065D01*
X26345Y-33104D01*
X26344Y-33145D01*
X26344Y-33695D01*
X26360Y-33734D01*
X26390Y-33763D01*
X26429Y-33779D01*
X26470Y-33780D01*
X26650Y-33780D01*
X26654Y-33784D01*
X26628Y-33810D01*
X26612Y-33849D01*
X26612Y-33890D01*
X26612Y-34284D01*
X26628Y-34323D01*
X26657Y-34352D01*
X26696Y-34368D01*
X26738Y-34369D01*
X27053Y-34369D01*
X27091Y-34353D01*
X27121Y-34323D01*
X27137Y-34284D01*
X27137Y-34243D01*
X27137Y-34630D01*
X27071Y-34630D01*
X27033Y-34646D01*
X27003Y-34676D01*
X26987Y-34715D01*
X26987Y-34756D01*
X26987Y-35150D01*
X27003Y-35189D01*
X27032Y-35218D01*
X27070Y-35234D01*
X27070Y-35344D01*
X26954Y-35344D01*
X26915Y-35360D01*
X26886Y-35390D01*
X26870Y-35429D01*
X26869Y-35470D01*
X26869Y-35820D01*
X26885Y-35859D01*
X26915Y-35888D01*
X26954Y-35904D01*
X26995Y-35905D01*
X27545Y-35905D01*
X27584Y-35889D01*
X27613Y-35859D01*
X27629Y-35820D01*
X27630Y-35779D01*
X27630Y-36179D01*
X27614Y-36140D01*
X27584Y-36111D01*
X27545Y-36095D01*
X27504Y-36094D01*
X26954Y-36094D01*
X26915Y-36110D01*
X26886Y-36140D01*
X26870Y-36179D01*
X26869Y-36220D01*
X26869Y-36570D01*
X26885Y-36609D01*
X26915Y-36638D01*
X26954Y-36654D01*
X26995Y-36655D01*
X27545Y-36655D01*
X27584Y-36639D01*
X27609Y-36613D01*
X27790Y-36795D01*
X27790Y-36965D01*
X27806Y-37003D01*
X27836Y-37033D01*
X27875Y-37049D01*
X27916Y-37049D01*
X28624Y-37049D01*
X28663Y-37033D01*
X28692Y-37004D01*
X28708Y-36965D01*
X28709Y-36923D01*
X28709Y-36372D01*
X28693Y-36334D01*
X28663Y-36304D01*
X28624Y-36288D01*
X28583Y-36288D01*
X28465Y-36288D01*
X28574Y-36179D01*
X28750Y-36179D01*
X28818Y-36166D01*
X28818Y-36166D01*
X28877Y-36127D01*
X28987Y-36016D01*
X28987Y-36150D01*
X29003Y-36189D01*
X29032Y-36218D01*
X29070Y-36234D01*
X29070Y-36500D01*
X29083Y-36568D01*
X29122Y-36627D01*
X29872Y-37377D01*
X29872Y-37377D01*
X29931Y-37416D01*
X29999Y-37429D01*
X29999Y-37429D01*
X30000Y-37429D01*
X30283Y-37429D01*
X30341Y-37487D01*
X30444Y-37529D01*
X30555Y-37530D01*
X30658Y-37487D01*
X30716Y-37429D01*
X31175Y-37429D01*
X31622Y-37877D01*
X31681Y-37916D01*
X31681Y-37916D01*
X31750Y-37929D01*
X32000Y-37929D01*
X32068Y-37916D01*
X32068Y-37916D01*
X32127Y-37877D01*
X32324Y-37679D01*
X33425Y-37679D01*
X33622Y-37877D01*
X33622Y-37877D01*
X33681Y-37916D01*
X33750Y-37929D01*
X34250Y-37929D01*
X34318Y-37916D01*
X34318Y-37916D01*
X34377Y-37877D01*
X34574Y-37679D01*
X35175Y-37679D01*
X35622Y-38127D01*
X35681Y-38166D01*
X35681Y-38166D01*
X35750Y-38179D01*
X36750Y-38179D01*
X36818Y-38166D01*
X36818Y-38166D01*
X36877Y-38127D01*
X37074Y-37929D01*
X40750Y-37929D01*
X40818Y-37916D01*
X40818Y-37916D01*
X40877Y-37877D01*
X42074Y-36679D01*
X42094Y-36679D01*
X42094Y-36820D01*
X42110Y-36859D01*
X42140Y-36888D01*
X42179Y-36904D01*
X42220Y-36905D01*
X42820Y-36905D01*
X42859Y-36889D01*
X42888Y-36859D01*
X42904Y-36820D01*
X42905Y-36779D01*
X42905Y-36179D01*
X42889Y-36140D01*
X42859Y-36111D01*
X42820Y-36095D01*
X42779Y-36094D01*
X42179Y-36094D01*
X42145Y-36109D01*
X42324Y-35929D01*
X42750Y-35929D01*
X42925Y-35929D01*
X43211Y-36215D01*
X43156Y-36270D01*
X43095Y-36419D01*
X43094Y-36580D01*
X43156Y-36729D01*
X43270Y-36843D01*
X43419Y-36904D01*
X43580Y-36905D01*
X43729Y-36843D01*
X43843Y-36729D01*
X43904Y-36580D01*
X43905Y-36419D01*
X43843Y-36270D01*
X43729Y-36156D01*
X43612Y-36108D01*
X43184Y-35679D01*
X43925Y-35679D01*
X44320Y-36074D01*
X44320Y-36136D01*
X44270Y-36156D01*
X44156Y-36270D01*
X44095Y-36419D01*
X44094Y-36580D01*
X44156Y-36729D01*
X44270Y-36843D01*
X44419Y-36904D01*
X44580Y-36905D01*
X44729Y-36843D01*
X44843Y-36729D01*
X44904Y-36580D01*
X44905Y-36419D01*
X44905Y-38471D01*
X21207Y-38471D01*
X21207Y-36260D01*
X21207Y-21260D01*
X21024Y-20816D01*
X20684Y-20476D01*
X20241Y-20292D01*
X19760Y-20292D01*
X19316Y-20475D01*
X18976Y-20815D01*
X18792Y-21258D01*
X18792Y-21739D01*
X18975Y-22183D01*
X19315Y-22523D01*
X19758Y-22707D01*
X20239Y-22707D01*
X20683Y-22524D01*
X21023Y-22184D01*
X21207Y-21741D01*
X21207Y-21260D01*
X21207Y-36260D01*
X21024Y-35816D01*
X20684Y-35476D01*
X20241Y-35292D01*
X19760Y-35292D01*
X19316Y-35475D01*
X18976Y-35815D01*
X18792Y-36258D01*
X18792Y-36739D01*
X18975Y-37183D01*
X19315Y-37523D01*
X19758Y-37707D01*
X20239Y-37707D01*
X20683Y-37524D01*
X21023Y-37184D01*
X21207Y-36741D01*
X21207Y-36260D01*
X21207Y-38471D01*
X18028Y-38471D01*
X18028Y-19528D01*
X56971Y-19528D01*
X56971Y-38471D01*
X56971Y-38471D01*
G37*
G54D31*
X56971Y-38471D02*
X56207Y-38471D01*
X56207Y-36260D01*
X56207Y-21260D01*
X56024Y-20816D01*
X55684Y-20476D01*
X55241Y-20292D01*
X54760Y-20292D01*
X54316Y-20475D01*
X53976Y-20815D01*
X53792Y-21258D01*
X53792Y-21739D01*
X53975Y-22183D01*
X54315Y-22523D01*
X54758Y-22707D01*
X55239Y-22707D01*
X55683Y-22524D01*
X56023Y-22184D01*
X56207Y-21741D01*
X56207Y-21260D01*
X56207Y-36260D01*
X56024Y-35816D01*
X55684Y-35476D01*
X55241Y-35292D01*
X54760Y-35292D01*
X54316Y-35475D01*
X53976Y-35815D01*
X53792Y-36258D01*
X53792Y-36739D01*
X53975Y-37183D01*
X54315Y-37523D01*
X54758Y-37707D01*
X55239Y-37707D01*
X55683Y-37524D01*
X56023Y-37184D01*
X56207Y-36741D01*
X56207Y-36260D01*
X56207Y-38471D01*
X53679Y-38471D01*
X53679Y-31945D01*
X53679Y-26650D01*
X53666Y-26581D01*
X53666Y-26581D01*
X53627Y-26522D01*
X53332Y-26227D01*
X53273Y-26188D01*
X53262Y-26186D01*
X53262Y-26177D01*
X53246Y-26138D01*
X53216Y-26109D01*
X53177Y-26093D01*
X53136Y-26092D01*
X52822Y-26092D01*
X52783Y-26108D01*
X52754Y-26138D01*
X52738Y-26175D01*
X52261Y-26175D01*
X52246Y-26138D01*
X52216Y-26109D01*
X52177Y-26093D01*
X52136Y-26092D01*
X51822Y-26092D01*
X51783Y-26108D01*
X51754Y-26138D01*
X51738Y-26175D01*
X51261Y-26175D01*
X51246Y-26138D01*
X51216Y-26109D01*
X51179Y-26093D01*
X51179Y-23500D01*
X51179Y-21750D01*
X51166Y-21681D01*
X51127Y-21622D01*
X51127Y-21622D01*
X50877Y-21372D01*
X50818Y-21333D01*
X50750Y-21320D01*
X42750Y-21320D01*
X42749Y-21320D01*
X42681Y-21333D01*
X42622Y-21372D01*
X42622Y-21372D01*
X41872Y-22122D01*
X41833Y-22181D01*
X41820Y-22250D01*
X41820Y-22663D01*
X41785Y-22677D01*
X41678Y-22784D01*
X41620Y-22924D01*
X41619Y-23075D01*
X41677Y-23214D01*
X41782Y-23320D01*
X41217Y-23320D01*
X41321Y-23215D01*
X41379Y-23075D01*
X41380Y-22924D01*
X41322Y-22785D01*
X41215Y-22678D01*
X41179Y-22663D01*
X41179Y-22574D01*
X42574Y-21179D01*
X47033Y-21179D01*
X47091Y-21237D01*
X47194Y-21279D01*
X47305Y-21280D01*
X47408Y-21237D01*
X47487Y-21158D01*
X47529Y-21055D01*
X47530Y-20944D01*
X47487Y-20841D01*
X47408Y-20762D01*
X47305Y-20720D01*
X47194Y-20719D01*
X47091Y-20762D01*
X47033Y-20820D01*
X42500Y-20820D01*
X42431Y-20833D01*
X42372Y-20872D01*
X42372Y-20872D01*
X40872Y-22372D01*
X40833Y-22431D01*
X40820Y-22500D01*
X40820Y-22663D01*
X40785Y-22677D01*
X40678Y-22784D01*
X40620Y-22924D01*
X40619Y-23075D01*
X40677Y-23214D01*
X40782Y-23320D01*
X40574Y-23320D01*
X40405Y-23150D01*
X40405Y-21779D01*
X40405Y-21179D01*
X40389Y-21140D01*
X40359Y-21111D01*
X40320Y-21095D01*
X40279Y-21094D01*
X39679Y-21094D01*
X39640Y-21110D01*
X39611Y-21140D01*
X39595Y-21179D01*
X39594Y-21220D01*
X39594Y-21650D01*
X39050Y-22195D01*
X38380Y-22195D01*
X38380Y-22179D01*
X38364Y-22140D01*
X38334Y-22111D01*
X38295Y-22095D01*
X38254Y-22094D01*
X37704Y-22094D01*
X37665Y-22110D01*
X37636Y-22140D01*
X37620Y-22179D01*
X37619Y-22220D01*
X37619Y-22570D01*
X37635Y-22609D01*
X37665Y-22638D01*
X37704Y-22654D01*
X37745Y-22655D01*
X37820Y-22655D01*
X37820Y-22663D01*
X37785Y-22677D01*
X37678Y-22784D01*
X37620Y-22924D01*
X37619Y-23075D01*
X37677Y-23214D01*
X37784Y-23321D01*
X37820Y-23336D01*
X37820Y-23844D01*
X37704Y-23844D01*
X37665Y-23860D01*
X37636Y-23890D01*
X37620Y-23929D01*
X37619Y-23970D01*
X37619Y-24320D01*
X37635Y-24359D01*
X37665Y-24388D01*
X37704Y-24404D01*
X37745Y-24405D01*
X38295Y-24405D01*
X38334Y-24389D01*
X38363Y-24359D01*
X38379Y-24320D01*
X38380Y-24279D01*
X38380Y-23929D01*
X38364Y-23890D01*
X38334Y-23861D01*
X38295Y-23845D01*
X38254Y-23844D01*
X38179Y-23844D01*
X38179Y-23336D01*
X38214Y-23322D01*
X38321Y-23215D01*
X38379Y-23075D01*
X38380Y-22924D01*
X38322Y-22785D01*
X38215Y-22678D01*
X38179Y-22663D01*
X38179Y-22655D01*
X38295Y-22655D01*
X38334Y-22639D01*
X38363Y-22609D01*
X38379Y-22570D01*
X38379Y-22554D01*
X39125Y-22554D01*
X39193Y-22541D01*
X39193Y-22541D01*
X39252Y-22502D01*
X39849Y-21905D01*
X40320Y-21905D01*
X40359Y-21889D01*
X40388Y-21859D01*
X40404Y-21820D01*
X40405Y-21779D01*
X40405Y-23150D01*
X40365Y-23111D01*
X40379Y-23075D01*
X40380Y-22924D01*
X40322Y-22785D01*
X40215Y-22678D01*
X40075Y-22620D01*
X39924Y-22619D01*
X39785Y-22677D01*
X39678Y-22784D01*
X39620Y-22924D01*
X39619Y-23075D01*
X39677Y-23214D01*
X39784Y-23321D01*
X39924Y-23379D01*
X40075Y-23380D01*
X40111Y-23365D01*
X40315Y-23570D01*
X39824Y-23570D01*
X39365Y-23111D01*
X39379Y-23075D01*
X39380Y-22924D01*
X39322Y-22785D01*
X39215Y-22678D01*
X39075Y-22620D01*
X38924Y-22619D01*
X38785Y-22677D01*
X38678Y-22784D01*
X38620Y-22924D01*
X38619Y-23075D01*
X38677Y-23214D01*
X38784Y-23321D01*
X38924Y-23379D01*
X39075Y-23380D01*
X39111Y-23365D01*
X39622Y-23877D01*
X39622Y-23877D01*
X39681Y-23916D01*
X39749Y-23929D01*
X39749Y-23929D01*
X39750Y-23929D01*
X43750Y-23929D01*
X43818Y-23916D01*
X43818Y-23916D01*
X43877Y-23877D01*
X44824Y-22929D01*
X45675Y-22929D01*
X46372Y-23627D01*
X46372Y-23627D01*
X46431Y-23666D01*
X46499Y-23679D01*
X46499Y-23679D01*
X46500Y-23679D01*
X47250Y-23679D01*
X47318Y-23666D01*
X47318Y-23666D01*
X47377Y-23627D01*
X47619Y-23384D01*
X47669Y-23404D01*
X47830Y-23405D01*
X47979Y-23343D01*
X48093Y-23229D01*
X48154Y-23080D01*
X48155Y-22919D01*
X48093Y-22770D01*
X48002Y-22679D01*
X48175Y-22679D01*
X48344Y-22849D01*
X48344Y-23320D01*
X48360Y-23359D01*
X48390Y-23388D01*
X48429Y-23404D01*
X48470Y-23405D01*
X49070Y-23405D01*
X49109Y-23389D01*
X49138Y-23359D01*
X49154Y-23320D01*
X49155Y-23279D01*
X49155Y-22679D01*
X49139Y-22640D01*
X49109Y-22611D01*
X49070Y-22595D01*
X49029Y-22594D01*
X48599Y-22594D01*
X48377Y-22372D01*
X48318Y-22333D01*
X48250Y-22320D01*
X44500Y-22320D01*
X44431Y-22333D01*
X44372Y-22372D01*
X44372Y-22372D01*
X43425Y-23320D01*
X43217Y-23320D01*
X43321Y-23215D01*
X43379Y-23075D01*
X43380Y-22924D01*
X43322Y-22785D01*
X43215Y-22678D01*
X43179Y-22663D01*
X43179Y-22324D01*
X43324Y-22179D01*
X49675Y-22179D01*
X49820Y-22324D01*
X49820Y-23750D01*
X49820Y-26093D01*
X49783Y-26108D01*
X49754Y-26138D01*
X49738Y-26175D01*
X49261Y-26175D01*
X49246Y-26138D01*
X49216Y-26109D01*
X49177Y-26093D01*
X49155Y-26092D01*
X49155Y-23919D01*
X49093Y-23770D01*
X48979Y-23656D01*
X48830Y-23595D01*
X48669Y-23594D01*
X48520Y-23656D01*
X48406Y-23770D01*
X48345Y-23919D01*
X48344Y-24080D01*
X48406Y-24229D01*
X48520Y-24343D01*
X48669Y-24404D01*
X48830Y-24405D01*
X48979Y-24343D01*
X49093Y-24229D01*
X49154Y-24080D01*
X49155Y-23919D01*
X49155Y-26092D01*
X49136Y-26092D01*
X48822Y-26092D01*
X48783Y-26108D01*
X48754Y-26138D01*
X48738Y-26175D01*
X48261Y-26175D01*
X48246Y-26138D01*
X48216Y-26109D01*
X48177Y-26093D01*
X48155Y-26092D01*
X48155Y-23919D01*
X48093Y-23770D01*
X47979Y-23656D01*
X47830Y-23595D01*
X47669Y-23594D01*
X47520Y-23656D01*
X47406Y-23770D01*
X47345Y-23919D01*
X47344Y-24080D01*
X47406Y-24229D01*
X47520Y-24343D01*
X47669Y-24404D01*
X47830Y-24405D01*
X47979Y-24343D01*
X48093Y-24229D01*
X48154Y-24080D01*
X48155Y-23919D01*
X48155Y-26092D01*
X48136Y-26092D01*
X47822Y-26092D01*
X47783Y-26108D01*
X47754Y-26138D01*
X47738Y-26175D01*
X46645Y-26175D01*
X46576Y-26188D01*
X46517Y-26227D01*
X46517Y-26227D01*
X46275Y-26470D01*
X46194Y-26469D01*
X46091Y-26512D01*
X46012Y-26591D01*
X45970Y-26694D01*
X45969Y-26805D01*
X46012Y-26908D01*
X46091Y-26987D01*
X46194Y-27029D01*
X46305Y-27030D01*
X46408Y-26987D01*
X46487Y-26908D01*
X46529Y-26805D01*
X46530Y-26724D01*
X46719Y-26534D01*
X47738Y-26534D01*
X47753Y-26571D01*
X47783Y-26600D01*
X47822Y-26616D01*
X47863Y-26617D01*
X48177Y-26617D01*
X48216Y-26601D01*
X48245Y-26571D01*
X48261Y-26534D01*
X48738Y-26534D01*
X48753Y-26571D01*
X48783Y-26600D01*
X48822Y-26616D01*
X48863Y-26617D01*
X49177Y-26617D01*
X49216Y-26601D01*
X49245Y-26571D01*
X49261Y-26534D01*
X49738Y-26534D01*
X49753Y-26571D01*
X49783Y-26600D01*
X49822Y-26616D01*
X49863Y-26617D01*
X50177Y-26617D01*
X50216Y-26601D01*
X50245Y-26571D01*
X50261Y-26532D01*
X50262Y-26491D01*
X50262Y-26177D01*
X50246Y-26138D01*
X50216Y-26109D01*
X50179Y-26093D01*
X50179Y-23750D01*
X50179Y-22250D01*
X50166Y-22181D01*
X50127Y-22122D01*
X50127Y-22122D01*
X49877Y-21872D01*
X49818Y-21833D01*
X49750Y-21820D01*
X43250Y-21820D01*
X43181Y-21833D01*
X43122Y-21872D01*
X43122Y-21872D01*
X42872Y-22122D01*
X42833Y-22181D01*
X42820Y-22250D01*
X42820Y-22663D01*
X42785Y-22677D01*
X42678Y-22784D01*
X42620Y-22924D01*
X42619Y-23075D01*
X42677Y-23214D01*
X42782Y-23320D01*
X42217Y-23320D01*
X42321Y-23215D01*
X42379Y-23075D01*
X42380Y-22924D01*
X42322Y-22785D01*
X42215Y-22678D01*
X42179Y-22663D01*
X42179Y-22324D01*
X42824Y-21679D01*
X50675Y-21679D01*
X50820Y-21824D01*
X50820Y-23500D01*
X50820Y-26093D01*
X50783Y-26108D01*
X50754Y-26138D01*
X50738Y-26177D01*
X50737Y-26218D01*
X50737Y-26532D01*
X50753Y-26571D01*
X50783Y-26600D01*
X50822Y-26616D01*
X50863Y-26617D01*
X51177Y-26617D01*
X51216Y-26601D01*
X51245Y-26571D01*
X51261Y-26534D01*
X51738Y-26534D01*
X51753Y-26571D01*
X51783Y-26600D01*
X51822Y-26616D01*
X51863Y-26617D01*
X52177Y-26617D01*
X52216Y-26601D01*
X52245Y-26571D01*
X52261Y-26534D01*
X52738Y-26534D01*
X52753Y-26571D01*
X52783Y-26600D01*
X52822Y-26616D01*
X52863Y-26617D01*
X53177Y-26617D01*
X53202Y-26606D01*
X53320Y-26724D01*
X53320Y-31870D01*
X53302Y-31887D01*
X53280Y-31887D01*
X53280Y-30594D01*
X53262Y-30550D01*
X53262Y-30081D01*
X53262Y-29767D01*
X53246Y-29728D01*
X53216Y-29699D01*
X53177Y-29683D01*
X53136Y-29682D01*
X52822Y-29682D01*
X52783Y-29698D01*
X52754Y-29728D01*
X52738Y-29765D01*
X52261Y-29765D01*
X52246Y-29728D01*
X52216Y-29699D01*
X52177Y-29683D01*
X52136Y-29682D01*
X51822Y-29682D01*
X51783Y-29698D01*
X51754Y-29728D01*
X51738Y-29765D01*
X51261Y-29765D01*
X51246Y-29728D01*
X51216Y-29699D01*
X51177Y-29683D01*
X51136Y-29682D01*
X50822Y-29682D01*
X50783Y-29698D01*
X50754Y-29728D01*
X50738Y-29767D01*
X50737Y-29808D01*
X50737Y-30122D01*
X50753Y-30161D01*
X50783Y-30190D01*
X50820Y-30206D01*
X50820Y-30625D01*
X50167Y-31277D01*
X50128Y-31336D01*
X50115Y-31405D01*
X50115Y-31645D01*
X50115Y-31647D01*
X50115Y-31647D01*
X50115Y-31650D01*
X50115Y-31888D01*
X50078Y-31903D01*
X50049Y-31933D01*
X50033Y-31972D01*
X50032Y-32013D01*
X50032Y-32327D01*
X50048Y-32366D01*
X50078Y-32395D01*
X50115Y-32411D01*
X50115Y-32780D01*
X49872Y-33022D01*
X49833Y-33081D01*
X49820Y-33150D01*
X49820Y-33270D01*
X49804Y-33270D01*
X49804Y-33099D01*
X49832Y-33072D01*
X49871Y-33013D01*
X49871Y-33013D01*
X49884Y-32945D01*
X49884Y-32411D01*
X49921Y-32396D01*
X49950Y-32366D01*
X49966Y-32327D01*
X49967Y-32286D01*
X49967Y-31972D01*
X49951Y-31933D01*
X49921Y-31904D01*
X49884Y-31888D01*
X49884Y-31350D01*
X49884Y-31069D01*
X50477Y-30477D01*
X50516Y-30418D01*
X50516Y-30418D01*
X50529Y-30350D01*
X50529Y-30250D01*
X50529Y-29550D01*
X50529Y-29549D01*
X50529Y-29549D01*
X50516Y-29481D01*
X50477Y-29422D01*
X50477Y-29422D01*
X50282Y-29227D01*
X50262Y-29214D01*
X50262Y-29177D01*
X50246Y-29138D01*
X50216Y-29109D01*
X50179Y-29093D01*
X50179Y-28224D01*
X50719Y-27684D01*
X50719Y-27705D01*
X50762Y-27808D01*
X50841Y-27887D01*
X50944Y-27929D01*
X51025Y-27930D01*
X51372Y-28277D01*
X51431Y-28316D01*
X51431Y-28316D01*
X51500Y-28329D01*
X52425Y-28329D01*
X52820Y-28724D01*
X52820Y-29093D01*
X52783Y-29108D01*
X52756Y-29136D01*
X52737Y-29091D01*
X52658Y-29012D01*
X52555Y-28970D01*
X52444Y-28969D01*
X52341Y-29012D01*
X52262Y-29091D01*
X52243Y-29136D01*
X52216Y-29109D01*
X52177Y-29093D01*
X52136Y-29092D01*
X51822Y-29092D01*
X51783Y-29108D01*
X51754Y-29138D01*
X51738Y-29177D01*
X51738Y-29192D01*
X51737Y-29191D01*
X51658Y-29112D01*
X51555Y-29070D01*
X51444Y-29069D01*
X51341Y-29112D01*
X51278Y-29175D01*
X51261Y-29175D01*
X51246Y-29138D01*
X51216Y-29109D01*
X51177Y-29093D01*
X51136Y-29092D01*
X50822Y-29092D01*
X50783Y-29108D01*
X50754Y-29138D01*
X50738Y-29177D01*
X50737Y-29218D01*
X50737Y-29532D01*
X50753Y-29571D01*
X50783Y-29600D01*
X50822Y-29616D01*
X50863Y-29617D01*
X51177Y-29617D01*
X51216Y-29601D01*
X51245Y-29571D01*
X51261Y-29534D01*
X51288Y-29534D01*
X51341Y-29587D01*
X51444Y-29629D01*
X51555Y-29630D01*
X51658Y-29587D01*
X51737Y-29508D01*
X51737Y-29507D01*
X51737Y-29532D01*
X51753Y-29571D01*
X51783Y-29600D01*
X51822Y-29616D01*
X51863Y-29617D01*
X52177Y-29617D01*
X52216Y-29601D01*
X52245Y-29571D01*
X52261Y-29534D01*
X52395Y-29534D01*
X52436Y-29526D01*
X52436Y-29526D01*
X52444Y-29529D01*
X52555Y-29530D01*
X52658Y-29487D01*
X52737Y-29408D01*
X52737Y-29407D01*
X52737Y-29532D01*
X52753Y-29571D01*
X52783Y-29600D01*
X52822Y-29616D01*
X52863Y-29617D01*
X53177Y-29617D01*
X53216Y-29601D01*
X53245Y-29571D01*
X53261Y-29532D01*
X53262Y-29491D01*
X53262Y-29177D01*
X53246Y-29138D01*
X53216Y-29109D01*
X53179Y-29093D01*
X53179Y-28650D01*
X53166Y-28581D01*
X53166Y-28581D01*
X53127Y-28522D01*
X52754Y-28150D01*
X53127Y-27777D01*
X53166Y-27718D01*
X53166Y-27718D01*
X53179Y-27650D01*
X53179Y-27206D01*
X53216Y-27191D01*
X53245Y-27161D01*
X53261Y-27122D01*
X53262Y-27081D01*
X53262Y-26767D01*
X53246Y-26728D01*
X53216Y-26699D01*
X53177Y-26683D01*
X53136Y-26682D01*
X52822Y-26682D01*
X52783Y-26698D01*
X52754Y-26728D01*
X52738Y-26767D01*
X52737Y-26808D01*
X52737Y-27122D01*
X52753Y-27161D01*
X52783Y-27190D01*
X52820Y-27206D01*
X52820Y-27575D01*
X52425Y-27970D01*
X51574Y-27970D01*
X51279Y-27675D01*
X51280Y-27594D01*
X51237Y-27491D01*
X51158Y-27412D01*
X51055Y-27370D01*
X51034Y-27370D01*
X51127Y-27277D01*
X51127Y-27277D01*
X51127Y-27277D01*
X51166Y-27218D01*
X51168Y-27207D01*
X51177Y-27207D01*
X51216Y-27191D01*
X51219Y-27187D01*
X51219Y-27205D01*
X51262Y-27308D01*
X51341Y-27387D01*
X51444Y-27429D01*
X51555Y-27430D01*
X51658Y-27387D01*
X51737Y-27308D01*
X51779Y-27205D01*
X51779Y-27187D01*
X51783Y-27190D01*
X51822Y-27206D01*
X51863Y-27207D01*
X52177Y-27207D01*
X52216Y-27191D01*
X52245Y-27161D01*
X52261Y-27122D01*
X52262Y-27081D01*
X52262Y-26767D01*
X52246Y-26728D01*
X52216Y-26699D01*
X52177Y-26683D01*
X52136Y-26682D01*
X51822Y-26682D01*
X51783Y-26698D01*
X51754Y-26728D01*
X51738Y-26765D01*
X51705Y-26765D01*
X51636Y-26778D01*
X51577Y-26817D01*
X51525Y-26870D01*
X51444Y-26869D01*
X51341Y-26912D01*
X51262Y-26991D01*
X51262Y-26992D01*
X51262Y-26767D01*
X51246Y-26728D01*
X51216Y-26699D01*
X51177Y-26683D01*
X51136Y-26682D01*
X50822Y-26682D01*
X50783Y-26698D01*
X50754Y-26728D01*
X50738Y-26767D01*
X50737Y-26808D01*
X50737Y-27122D01*
X50748Y-27147D01*
X49872Y-28022D01*
X49833Y-28081D01*
X49820Y-28150D01*
X49820Y-29093D01*
X49783Y-29108D01*
X49780Y-29112D01*
X49780Y-28944D01*
X49737Y-28841D01*
X49658Y-28762D01*
X49555Y-28720D01*
X49444Y-28719D01*
X49341Y-28762D01*
X49262Y-28841D01*
X49220Y-28944D01*
X49219Y-29025D01*
X49152Y-29092D01*
X49136Y-29092D01*
X48822Y-29092D01*
X48783Y-29108D01*
X48754Y-29138D01*
X48738Y-29177D01*
X48737Y-29218D01*
X48737Y-29532D01*
X48753Y-29571D01*
X48783Y-29600D01*
X48822Y-29616D01*
X48863Y-29617D01*
X49177Y-29617D01*
X49216Y-29601D01*
X49245Y-29571D01*
X49261Y-29532D01*
X49262Y-29491D01*
X49262Y-29488D01*
X49272Y-29482D01*
X49474Y-29279D01*
X49555Y-29280D01*
X49658Y-29237D01*
X49737Y-29158D01*
X49779Y-29055D01*
X49780Y-28944D01*
X49780Y-29112D01*
X49754Y-29138D01*
X49738Y-29177D01*
X49737Y-29218D01*
X49737Y-29532D01*
X49753Y-29571D01*
X49783Y-29600D01*
X49822Y-29616D01*
X49863Y-29617D01*
X50162Y-29617D01*
X50170Y-29624D01*
X50170Y-29683D01*
X50136Y-29682D01*
X49822Y-29682D01*
X49783Y-29698D01*
X49754Y-29728D01*
X49738Y-29765D01*
X49261Y-29765D01*
X49246Y-29728D01*
X49216Y-29699D01*
X49177Y-29683D01*
X49136Y-29682D01*
X48822Y-29682D01*
X48783Y-29698D01*
X48754Y-29728D01*
X48738Y-29765D01*
X48261Y-29765D01*
X48246Y-29728D01*
X48216Y-29699D01*
X48177Y-29683D01*
X48136Y-29682D01*
X47822Y-29682D01*
X47783Y-29698D01*
X47754Y-29728D01*
X47738Y-29765D01*
X47279Y-29765D01*
X47280Y-29694D01*
X47237Y-29591D01*
X47158Y-29512D01*
X47055Y-29470D01*
X46974Y-29469D01*
X46805Y-29301D01*
X46834Y-29289D01*
X46863Y-29259D01*
X46879Y-29220D01*
X46880Y-29179D01*
X46880Y-28903D01*
X46944Y-28929D01*
X47055Y-28930D01*
X47158Y-28887D01*
X47237Y-28808D01*
X47279Y-28705D01*
X47280Y-28594D01*
X47237Y-28491D01*
X47200Y-28454D01*
X48299Y-28454D01*
X48262Y-28491D01*
X48220Y-28594D01*
X48219Y-28675D01*
X47872Y-29022D01*
X47833Y-29081D01*
X47831Y-29092D01*
X47822Y-29092D01*
X47783Y-29108D01*
X47754Y-29138D01*
X47738Y-29177D01*
X47737Y-29218D01*
X47737Y-29532D01*
X47753Y-29571D01*
X47783Y-29600D01*
X47822Y-29616D01*
X47863Y-29617D01*
X48177Y-29617D01*
X48216Y-29601D01*
X48245Y-29571D01*
X48261Y-29532D01*
X48262Y-29491D01*
X48262Y-29177D01*
X48251Y-29152D01*
X48474Y-28929D01*
X48555Y-28930D01*
X48658Y-28887D01*
X48737Y-28808D01*
X48779Y-28705D01*
X48780Y-28624D01*
X50127Y-27277D01*
X50127Y-27277D01*
X50127Y-27277D01*
X50166Y-27218D01*
X50168Y-27207D01*
X50177Y-27207D01*
X50216Y-27191D01*
X50245Y-27161D01*
X50261Y-27122D01*
X50262Y-27081D01*
X50262Y-26767D01*
X50246Y-26728D01*
X50216Y-26699D01*
X50177Y-26683D01*
X50136Y-26682D01*
X49822Y-26682D01*
X49783Y-26698D01*
X49754Y-26728D01*
X49738Y-26767D01*
X49737Y-26808D01*
X49737Y-27122D01*
X49748Y-27147D01*
X49280Y-27615D01*
X49280Y-27594D01*
X49237Y-27491D01*
X49179Y-27433D01*
X49179Y-27206D01*
X49216Y-27191D01*
X49245Y-27161D01*
X49261Y-27122D01*
X49262Y-27081D01*
X49262Y-26767D01*
X49246Y-26728D01*
X49216Y-26699D01*
X49177Y-26683D01*
X49136Y-26682D01*
X48822Y-26682D01*
X48783Y-26698D01*
X48754Y-26728D01*
X48738Y-26767D01*
X48737Y-26808D01*
X48737Y-27122D01*
X48753Y-27161D01*
X48783Y-27190D01*
X48820Y-27206D01*
X48820Y-27433D01*
X48762Y-27491D01*
X48720Y-27594D01*
X48719Y-27675D01*
X48300Y-28095D01*
X46880Y-28095D01*
X46880Y-28079D01*
X46864Y-28040D01*
X46834Y-28011D01*
X46795Y-27995D01*
X46754Y-27994D01*
X46204Y-27994D01*
X46165Y-28010D01*
X46136Y-28040D01*
X46120Y-28079D01*
X46119Y-28120D01*
X46119Y-28146D01*
X46109Y-28136D01*
X46070Y-28120D01*
X46029Y-28119D01*
X45784Y-28119D01*
X46074Y-27829D01*
X47783Y-27829D01*
X47841Y-27887D01*
X47944Y-27929D01*
X48055Y-27930D01*
X48158Y-27887D01*
X48237Y-27808D01*
X48279Y-27705D01*
X48280Y-27594D01*
X48237Y-27491D01*
X48179Y-27433D01*
X48179Y-27206D01*
X48216Y-27191D01*
X48245Y-27161D01*
X48261Y-27122D01*
X48262Y-27081D01*
X48262Y-26767D01*
X48246Y-26728D01*
X48216Y-26699D01*
X48177Y-26683D01*
X48136Y-26682D01*
X47822Y-26682D01*
X47783Y-26698D01*
X47754Y-26728D01*
X47738Y-26767D01*
X47737Y-26808D01*
X47737Y-27122D01*
X47753Y-27161D01*
X47783Y-27190D01*
X47820Y-27206D01*
X47820Y-27433D01*
X47783Y-27470D01*
X46000Y-27470D01*
X45931Y-27483D01*
X45872Y-27522D01*
X45372Y-28022D01*
X45333Y-28081D01*
X45325Y-28122D01*
X45320Y-28120D01*
X45304Y-28120D01*
X45304Y-25875D01*
X45291Y-25806D01*
X45252Y-25747D01*
X45252Y-25747D01*
X44377Y-24872D01*
X44318Y-24833D01*
X44250Y-24820D01*
X39750Y-24820D01*
X39681Y-24833D01*
X39622Y-24872D01*
X39175Y-25320D01*
X39030Y-25320D01*
X39030Y-24444D01*
X38987Y-24341D01*
X38908Y-24262D01*
X38805Y-24220D01*
X38694Y-24219D01*
X38591Y-24262D01*
X38512Y-24341D01*
X38470Y-24444D01*
X38469Y-24525D01*
X38359Y-24636D01*
X38334Y-24611D01*
X38295Y-24595D01*
X38254Y-24594D01*
X37704Y-24594D01*
X37665Y-24610D01*
X37636Y-24640D01*
X37620Y-24679D01*
X37619Y-24720D01*
X37619Y-25070D01*
X37635Y-25109D01*
X37665Y-25138D01*
X37704Y-25154D01*
X37745Y-25155D01*
X38295Y-25155D01*
X38334Y-25139D01*
X38363Y-25109D01*
X38379Y-25070D01*
X38379Y-25053D01*
X38443Y-25041D01*
X38443Y-25041D01*
X38502Y-25002D01*
X38724Y-24779D01*
X38805Y-24780D01*
X38908Y-24737D01*
X38987Y-24658D01*
X39029Y-24555D01*
X39030Y-24444D01*
X39030Y-25320D01*
X38500Y-25320D01*
X38431Y-25333D01*
X38372Y-25372D01*
X38111Y-25634D01*
X38075Y-25620D01*
X37924Y-25619D01*
X37785Y-25677D01*
X37678Y-25784D01*
X37620Y-25924D01*
X37619Y-26075D01*
X37677Y-26214D01*
X37782Y-26320D01*
X37380Y-26320D01*
X37380Y-22924D01*
X37322Y-22785D01*
X37215Y-22678D01*
X37179Y-22663D01*
X37179Y-22655D01*
X37295Y-22655D01*
X37334Y-22639D01*
X37363Y-22609D01*
X37379Y-22570D01*
X37380Y-22529D01*
X37380Y-22179D01*
X37364Y-22140D01*
X37334Y-22111D01*
X37295Y-22095D01*
X37254Y-22094D01*
X36704Y-22094D01*
X36665Y-22110D01*
X36636Y-22140D01*
X36620Y-22179D01*
X36620Y-22195D01*
X36449Y-22195D01*
X35627Y-21372D01*
X35568Y-21333D01*
X35500Y-21320D01*
X35405Y-21320D01*
X35405Y-21179D01*
X35389Y-21140D01*
X35359Y-21111D01*
X35320Y-21095D01*
X35279Y-21094D01*
X34679Y-21094D01*
X34640Y-21110D01*
X34611Y-21140D01*
X34595Y-21179D01*
X34594Y-21220D01*
X34594Y-21820D01*
X34610Y-21859D01*
X34640Y-21888D01*
X34679Y-21904D01*
X34720Y-21905D01*
X35320Y-21905D01*
X35359Y-21889D01*
X35388Y-21859D01*
X35404Y-21820D01*
X35405Y-21779D01*
X35405Y-21679D01*
X35425Y-21679D01*
X36247Y-22502D01*
X36247Y-22502D01*
X36306Y-22541D01*
X36375Y-22554D01*
X36619Y-22554D01*
X36619Y-22570D01*
X36635Y-22609D01*
X36665Y-22638D01*
X36704Y-22654D01*
X36745Y-22655D01*
X36820Y-22655D01*
X36820Y-22663D01*
X36785Y-22677D01*
X36678Y-22784D01*
X36620Y-22924D01*
X36619Y-23075D01*
X36677Y-23214D01*
X36784Y-23321D01*
X36924Y-23379D01*
X37075Y-23380D01*
X37214Y-23322D01*
X37321Y-23215D01*
X37379Y-23075D01*
X37380Y-22924D01*
X37380Y-26320D01*
X36217Y-26320D01*
X36321Y-26215D01*
X36379Y-26075D01*
X36380Y-25924D01*
X36322Y-25785D01*
X36304Y-25767D01*
X36304Y-25380D01*
X36320Y-25380D01*
X36359Y-25364D01*
X36388Y-25334D01*
X36404Y-25295D01*
X36405Y-25254D01*
X36405Y-24704D01*
X36389Y-24665D01*
X36359Y-24636D01*
X36320Y-24620D01*
X36279Y-24619D01*
X35929Y-24619D01*
X35890Y-24635D01*
X35861Y-24665D01*
X35845Y-24704D01*
X35844Y-24745D01*
X35844Y-25295D01*
X35860Y-25334D01*
X35890Y-25363D01*
X35929Y-25379D01*
X35945Y-25379D01*
X35945Y-25619D01*
X35924Y-25619D01*
X35785Y-25677D01*
X35678Y-25784D01*
X35620Y-25924D01*
X35619Y-26075D01*
X35677Y-26214D01*
X35784Y-26321D01*
X35885Y-26364D01*
X35872Y-26372D01*
X35405Y-26840D01*
X35405Y-24254D01*
X35405Y-23704D01*
X35389Y-23665D01*
X35359Y-23636D01*
X35320Y-23620D01*
X35304Y-23620D01*
X35304Y-23232D01*
X35321Y-23215D01*
X35379Y-23075D01*
X35380Y-22924D01*
X35322Y-22785D01*
X35215Y-22678D01*
X35075Y-22620D01*
X34924Y-22619D01*
X34785Y-22677D01*
X34678Y-22784D01*
X34620Y-22924D01*
X34619Y-23075D01*
X34677Y-23214D01*
X34784Y-23321D01*
X34924Y-23379D01*
X34945Y-23379D01*
X34945Y-23619D01*
X34929Y-23619D01*
X34890Y-23635D01*
X34861Y-23665D01*
X34845Y-23704D01*
X34844Y-23745D01*
X34844Y-24295D01*
X34860Y-24334D01*
X34890Y-24363D01*
X34929Y-24379D01*
X34970Y-24380D01*
X35320Y-24380D01*
X35359Y-24364D01*
X35388Y-24334D01*
X35404Y-24295D01*
X35405Y-24254D01*
X35405Y-26840D01*
X35372Y-26872D01*
X35333Y-26931D01*
X35320Y-27000D01*
X35320Y-28282D01*
X35215Y-28178D01*
X35075Y-28120D01*
X34924Y-28119D01*
X34785Y-28177D01*
X34679Y-28282D01*
X34679Y-27074D01*
X35127Y-26627D01*
X35166Y-26568D01*
X35166Y-26568D01*
X35179Y-26500D01*
X35179Y-26336D01*
X35214Y-26322D01*
X35321Y-26215D01*
X35379Y-26075D01*
X35380Y-25924D01*
X35322Y-25785D01*
X35215Y-25678D01*
X35075Y-25620D01*
X34924Y-25619D01*
X34785Y-25677D01*
X34678Y-25784D01*
X34620Y-25924D01*
X34619Y-26075D01*
X34677Y-26214D01*
X34784Y-26321D01*
X34820Y-26336D01*
X34820Y-26425D01*
X34372Y-26872D01*
X34333Y-26931D01*
X34320Y-27000D01*
X34320Y-28282D01*
X34215Y-28178D01*
X34075Y-28120D01*
X33924Y-28119D01*
X33785Y-28177D01*
X33679Y-28282D01*
X33679Y-27074D01*
X34127Y-26627D01*
X34166Y-26568D01*
X34166Y-26568D01*
X34179Y-26500D01*
X34179Y-26336D01*
X34214Y-26322D01*
X34321Y-26215D01*
X34379Y-26075D01*
X34380Y-25924D01*
X34380Y-22924D01*
X34322Y-22785D01*
X34215Y-22678D01*
X34075Y-22620D01*
X33924Y-22619D01*
X33785Y-22677D01*
X33678Y-22784D01*
X33620Y-22924D01*
X33619Y-23075D01*
X33677Y-23214D01*
X33784Y-23321D01*
X33924Y-23379D01*
X34075Y-23380D01*
X34214Y-23322D01*
X34321Y-23215D01*
X34379Y-23075D01*
X34380Y-22924D01*
X34380Y-25924D01*
X34322Y-25785D01*
X34215Y-25678D01*
X34075Y-25620D01*
X33924Y-25619D01*
X33785Y-25677D01*
X33678Y-25784D01*
X33620Y-25924D01*
X33619Y-26075D01*
X33677Y-26214D01*
X33784Y-26321D01*
X33820Y-26336D01*
X33820Y-26425D01*
X33372Y-26872D01*
X33333Y-26931D01*
X33320Y-27000D01*
X33320Y-28282D01*
X33215Y-28178D01*
X33075Y-28120D01*
X32924Y-28119D01*
X32785Y-28177D01*
X32679Y-28282D01*
X32679Y-27074D01*
X33127Y-26627D01*
X33166Y-26568D01*
X33166Y-26568D01*
X33179Y-26500D01*
X33179Y-26336D01*
X33214Y-26322D01*
X33321Y-26215D01*
X33379Y-26075D01*
X33380Y-25924D01*
X33380Y-22924D01*
X33322Y-22785D01*
X33215Y-22678D01*
X33075Y-22620D01*
X32924Y-22619D01*
X32785Y-22677D01*
X32678Y-22784D01*
X32620Y-22924D01*
X32619Y-23075D01*
X32677Y-23214D01*
X32784Y-23321D01*
X32924Y-23379D01*
X33075Y-23380D01*
X33214Y-23322D01*
X33321Y-23215D01*
X33379Y-23075D01*
X33380Y-22924D01*
X33380Y-25924D01*
X33322Y-25785D01*
X33215Y-25678D01*
X33075Y-25620D01*
X32924Y-25619D01*
X32785Y-25677D01*
X32679Y-25782D01*
X32679Y-25500D01*
X32666Y-25431D01*
X32627Y-25372D01*
X32627Y-25372D01*
X32530Y-25275D01*
X32530Y-20944D01*
X32487Y-20841D01*
X32408Y-20762D01*
X32305Y-20720D01*
X32194Y-20719D01*
X32091Y-20762D01*
X32033Y-20820D01*
X30000Y-20820D01*
X29931Y-20833D01*
X29872Y-20872D01*
X29872Y-20872D01*
X28872Y-21872D01*
X28833Y-21931D01*
X28820Y-22000D01*
X28820Y-23750D01*
X28833Y-23818D01*
X28872Y-23877D01*
X29470Y-24474D01*
X29469Y-24555D01*
X29512Y-24658D01*
X29591Y-24737D01*
X29694Y-24779D01*
X29805Y-24780D01*
X29908Y-24737D01*
X29987Y-24658D01*
X30029Y-24555D01*
X30030Y-24444D01*
X29987Y-24341D01*
X29908Y-24262D01*
X29805Y-24220D01*
X29724Y-24219D01*
X29179Y-23675D01*
X29179Y-22074D01*
X30074Y-21179D01*
X32033Y-21179D01*
X32091Y-21237D01*
X32194Y-21279D01*
X32305Y-21280D01*
X32408Y-21237D01*
X32487Y-21158D01*
X32529Y-21055D01*
X32530Y-20944D01*
X32530Y-25275D01*
X32380Y-25125D01*
X32380Y-22924D01*
X32322Y-22785D01*
X32215Y-22678D01*
X32075Y-22620D01*
X31924Y-22619D01*
X31785Y-22677D01*
X31678Y-22784D01*
X31620Y-22924D01*
X31619Y-23075D01*
X31677Y-23214D01*
X31784Y-23321D01*
X31924Y-23379D01*
X32075Y-23380D01*
X32214Y-23322D01*
X32321Y-23215D01*
X32379Y-23075D01*
X32380Y-22924D01*
X32380Y-25125D01*
X31627Y-24372D01*
X31568Y-24333D01*
X31500Y-24320D01*
X31394Y-24320D01*
X31404Y-24295D01*
X31405Y-24254D01*
X31405Y-23704D01*
X31389Y-23665D01*
X31359Y-23636D01*
X31320Y-23620D01*
X31304Y-23620D01*
X31304Y-23232D01*
X31321Y-23215D01*
X31379Y-23075D01*
X31380Y-22924D01*
X31322Y-22785D01*
X31215Y-22678D01*
X31075Y-22620D01*
X30924Y-22619D01*
X30785Y-22677D01*
X30678Y-22784D01*
X30620Y-22924D01*
X30619Y-23075D01*
X30677Y-23214D01*
X30784Y-23321D01*
X30924Y-23379D01*
X30945Y-23379D01*
X30945Y-23619D01*
X30929Y-23619D01*
X30890Y-23635D01*
X30861Y-23665D01*
X30845Y-23704D01*
X30844Y-23745D01*
X30844Y-24295D01*
X30855Y-24320D01*
X30574Y-24320D01*
X30179Y-23925D01*
X30179Y-23336D01*
X30214Y-23322D01*
X30321Y-23215D01*
X30379Y-23075D01*
X30380Y-22924D01*
X30322Y-22785D01*
X30215Y-22678D01*
X30075Y-22620D01*
X29924Y-22619D01*
X29785Y-22677D01*
X29678Y-22784D01*
X29620Y-22924D01*
X29619Y-23075D01*
X29677Y-23214D01*
X29784Y-23321D01*
X29820Y-23336D01*
X29820Y-24000D01*
X29833Y-24068D01*
X29872Y-24127D01*
X30372Y-24627D01*
X30431Y-24666D01*
X30431Y-24666D01*
X30500Y-24679D01*
X31425Y-24679D01*
X32320Y-25574D01*
X32320Y-25782D01*
X32215Y-25678D01*
X32075Y-25620D01*
X31924Y-25619D01*
X31888Y-25634D01*
X31127Y-24872D01*
X31068Y-24833D01*
X31000Y-24820D01*
X28252Y-24820D01*
X28343Y-24729D01*
X28404Y-24580D01*
X28405Y-24419D01*
X28343Y-24270D01*
X28229Y-24156D01*
X28080Y-24095D01*
X27919Y-24094D01*
X27770Y-24156D01*
X27656Y-24270D01*
X27595Y-24419D01*
X27594Y-24580D01*
X27656Y-24729D01*
X27747Y-24820D01*
X27574Y-24820D01*
X27384Y-24630D01*
X27404Y-24580D01*
X27405Y-24419D01*
X27343Y-24270D01*
X27229Y-24156D01*
X27080Y-24095D01*
X26919Y-24094D01*
X26770Y-24156D01*
X26656Y-24270D01*
X26595Y-24419D01*
X26594Y-24580D01*
X26656Y-24729D01*
X26770Y-24843D01*
X26919Y-24904D01*
X27080Y-24905D01*
X27130Y-24884D01*
X27372Y-25127D01*
X27431Y-25166D01*
X27431Y-25166D01*
X27500Y-25179D01*
X30925Y-25179D01*
X31634Y-25888D01*
X31620Y-25924D01*
X31619Y-26075D01*
X31677Y-26214D01*
X31784Y-26321D01*
X31924Y-26379D01*
X32075Y-26380D01*
X32214Y-26322D01*
X32320Y-26217D01*
X32320Y-26425D01*
X31372Y-27372D01*
X31333Y-27431D01*
X31320Y-27500D01*
X31320Y-28282D01*
X31215Y-28178D01*
X31075Y-28120D01*
X30924Y-28119D01*
X30785Y-28177D01*
X30679Y-28282D01*
X30679Y-27074D01*
X31127Y-26627D01*
X31166Y-26568D01*
X31166Y-26568D01*
X31179Y-26500D01*
X31179Y-26336D01*
X31214Y-26322D01*
X31321Y-26215D01*
X31379Y-26075D01*
X31380Y-25924D01*
X31322Y-25785D01*
X31215Y-25678D01*
X31075Y-25620D01*
X30924Y-25619D01*
X30785Y-25677D01*
X30678Y-25784D01*
X30620Y-25924D01*
X30619Y-26075D01*
X30677Y-26214D01*
X30784Y-26321D01*
X30820Y-26336D01*
X30820Y-26425D01*
X30380Y-26865D01*
X30380Y-26254D01*
X30380Y-25704D01*
X30364Y-25665D01*
X30334Y-25636D01*
X30295Y-25620D01*
X30254Y-25619D01*
X29704Y-25619D01*
X29665Y-25635D01*
X29636Y-25665D01*
X29620Y-25704D01*
X29619Y-25745D01*
X29619Y-26125D01*
X29247Y-26497D01*
X29208Y-26556D01*
X29196Y-26619D01*
X29179Y-26619D01*
X29140Y-26635D01*
X29111Y-26665D01*
X29095Y-26704D01*
X29094Y-26745D01*
X29094Y-27295D01*
X29110Y-27334D01*
X29140Y-27363D01*
X29179Y-27379D01*
X29220Y-27380D01*
X29570Y-27380D01*
X29609Y-27364D01*
X29638Y-27334D01*
X29654Y-27295D01*
X29655Y-27254D01*
X29655Y-26704D01*
X29639Y-26665D01*
X29613Y-26640D01*
X29874Y-26380D01*
X30295Y-26380D01*
X30334Y-26364D01*
X30363Y-26334D01*
X30379Y-26295D01*
X30380Y-26254D01*
X30380Y-26865D01*
X30372Y-26872D01*
X30333Y-26931D01*
X30320Y-27000D01*
X30320Y-28282D01*
X30280Y-28242D01*
X30280Y-26944D01*
X30237Y-26841D01*
X30158Y-26762D01*
X30055Y-26720D01*
X29944Y-26719D01*
X29841Y-26762D01*
X29762Y-26841D01*
X29720Y-26944D01*
X29719Y-27055D01*
X29762Y-27158D01*
X29820Y-27216D01*
X29820Y-27425D01*
X29425Y-27820D01*
X29155Y-27820D01*
X29155Y-27704D01*
X29139Y-27665D01*
X29109Y-27636D01*
X29070Y-27620D01*
X29029Y-27619D01*
X28905Y-27619D01*
X28905Y-27254D01*
X28905Y-26704D01*
X28889Y-26665D01*
X28859Y-26636D01*
X28820Y-26620D01*
X28804Y-26620D01*
X28804Y-26125D01*
X28804Y-26124D01*
X28804Y-26124D01*
X28791Y-26056D01*
X28779Y-26039D01*
X28779Y-26039D01*
X28780Y-25944D01*
X28737Y-25841D01*
X28658Y-25762D01*
X28555Y-25720D01*
X28444Y-25719D01*
X28341Y-25762D01*
X28262Y-25841D01*
X28220Y-25944D01*
X28219Y-26055D01*
X28262Y-26158D01*
X28341Y-26237D01*
X28444Y-26279D01*
X28445Y-26279D01*
X28445Y-26619D01*
X28429Y-26619D01*
X28390Y-26635D01*
X28361Y-26665D01*
X28345Y-26704D01*
X28344Y-26745D01*
X28344Y-27295D01*
X28360Y-27334D01*
X28390Y-27363D01*
X28429Y-27379D01*
X28470Y-27380D01*
X28820Y-27380D01*
X28859Y-27364D01*
X28888Y-27334D01*
X28904Y-27295D01*
X28905Y-27254D01*
X28905Y-27619D01*
X28679Y-27619D01*
X28640Y-27635D01*
X28611Y-27665D01*
X28595Y-27704D01*
X28594Y-27745D01*
X28594Y-28295D01*
X28610Y-28334D01*
X28640Y-28363D01*
X28679Y-28379D01*
X28720Y-28380D01*
X29070Y-28380D01*
X29109Y-28364D01*
X29138Y-28334D01*
X29154Y-28295D01*
X29155Y-28254D01*
X29155Y-28179D01*
X29500Y-28179D01*
X29568Y-28166D01*
X29568Y-28166D01*
X29627Y-28127D01*
X30127Y-27627D01*
X30166Y-27568D01*
X30166Y-27568D01*
X30179Y-27500D01*
X30179Y-27216D01*
X30237Y-27158D01*
X30279Y-27055D01*
X30280Y-26944D01*
X30280Y-28242D01*
X30215Y-28178D01*
X30075Y-28120D01*
X29924Y-28119D01*
X29785Y-28177D01*
X29678Y-28284D01*
X29620Y-28424D01*
X29619Y-28575D01*
X29677Y-28714D01*
X29784Y-28821D01*
X29924Y-28879D01*
X30075Y-28880D01*
X30214Y-28822D01*
X30320Y-28717D01*
X30320Y-30425D01*
X29872Y-30872D01*
X29833Y-30931D01*
X29820Y-31000D01*
X29820Y-31119D01*
X29704Y-31119D01*
X29665Y-31135D01*
X29636Y-31165D01*
X29620Y-31204D01*
X29619Y-31245D01*
X29619Y-31795D01*
X29635Y-31834D01*
X29665Y-31863D01*
X29704Y-31879D01*
X29745Y-31880D01*
X30295Y-31880D01*
X30334Y-31864D01*
X30352Y-31846D01*
X30372Y-31877D01*
X30720Y-32224D01*
X30719Y-32305D01*
X30762Y-32408D01*
X30841Y-32487D01*
X30944Y-32529D01*
X31055Y-32530D01*
X31158Y-32487D01*
X31237Y-32408D01*
X31279Y-32305D01*
X31280Y-32194D01*
X31237Y-32091D01*
X31158Y-32012D01*
X31055Y-31970D01*
X30974Y-31969D01*
X30855Y-31851D01*
X30924Y-31879D01*
X31075Y-31880D01*
X31214Y-31822D01*
X31321Y-31715D01*
X31379Y-31575D01*
X31380Y-31424D01*
X31322Y-31285D01*
X31215Y-31178D01*
X31179Y-31163D01*
X31179Y-31074D01*
X31627Y-30627D01*
X31666Y-30568D01*
X31666Y-30568D01*
X31679Y-30500D01*
X31679Y-28717D01*
X31784Y-28821D01*
X31924Y-28879D01*
X32075Y-28880D01*
X32214Y-28822D01*
X32320Y-28717D01*
X32320Y-30425D01*
X31872Y-30872D01*
X31833Y-30931D01*
X31820Y-31000D01*
X31820Y-31163D01*
X31785Y-31177D01*
X31678Y-31284D01*
X31620Y-31424D01*
X31619Y-31575D01*
X31677Y-31714D01*
X31784Y-31821D01*
X31924Y-31879D01*
X32075Y-31880D01*
X32214Y-31822D01*
X32320Y-31717D01*
X32320Y-31750D01*
X32333Y-31818D01*
X32372Y-31877D01*
X32720Y-32224D01*
X32719Y-32305D01*
X32762Y-32408D01*
X32841Y-32487D01*
X32944Y-32529D01*
X33055Y-32530D01*
X33158Y-32487D01*
X33237Y-32408D01*
X33279Y-32305D01*
X33280Y-32194D01*
X33237Y-32091D01*
X33158Y-32012D01*
X33055Y-31970D01*
X32974Y-31969D01*
X32855Y-31851D01*
X32924Y-31879D01*
X33075Y-31880D01*
X33214Y-31822D01*
X33321Y-31715D01*
X33379Y-31575D01*
X33380Y-31424D01*
X33322Y-31285D01*
X33215Y-31178D01*
X33179Y-31163D01*
X33179Y-31074D01*
X33627Y-30627D01*
X33666Y-30568D01*
X33666Y-30568D01*
X33679Y-30500D01*
X33679Y-28717D01*
X33784Y-28821D01*
X33924Y-28879D01*
X34075Y-28880D01*
X34214Y-28822D01*
X34320Y-28717D01*
X34320Y-30425D01*
X33872Y-30872D01*
X33833Y-30931D01*
X33820Y-31000D01*
X33820Y-31163D01*
X33785Y-31177D01*
X33678Y-31284D01*
X33620Y-31424D01*
X33619Y-31575D01*
X33677Y-31714D01*
X33784Y-31821D01*
X33924Y-31879D01*
X34075Y-31880D01*
X34214Y-31822D01*
X34320Y-31717D01*
X34320Y-31750D01*
X34333Y-31818D01*
X34372Y-31877D01*
X34720Y-32224D01*
X34719Y-32305D01*
X34762Y-32408D01*
X34841Y-32487D01*
X34944Y-32529D01*
X35055Y-32530D01*
X35158Y-32487D01*
X35237Y-32408D01*
X35279Y-32305D01*
X35280Y-32194D01*
X35237Y-32091D01*
X35158Y-32012D01*
X35055Y-31970D01*
X34974Y-31969D01*
X34855Y-31851D01*
X34924Y-31879D01*
X35075Y-31880D01*
X35214Y-31822D01*
X35321Y-31715D01*
X35379Y-31575D01*
X35380Y-31424D01*
X35322Y-31285D01*
X35215Y-31178D01*
X35179Y-31163D01*
X35179Y-31000D01*
X35179Y-30684D01*
X35372Y-30877D01*
X35372Y-30877D01*
X35729Y-31233D01*
X35678Y-31284D01*
X35620Y-31424D01*
X35619Y-31575D01*
X35677Y-31714D01*
X35784Y-31821D01*
X35924Y-31879D01*
X36075Y-31880D01*
X36214Y-31822D01*
X36321Y-31715D01*
X36379Y-31575D01*
X36380Y-31424D01*
X36322Y-31285D01*
X36215Y-31178D01*
X36144Y-31148D01*
X36127Y-31122D01*
X35627Y-30622D01*
X35627Y-30622D01*
X35429Y-30425D01*
X35429Y-29824D01*
X35574Y-29679D01*
X35783Y-29679D01*
X35836Y-29732D01*
X35805Y-29720D01*
X35694Y-29719D01*
X35591Y-29762D01*
X35512Y-29841D01*
X35470Y-29944D01*
X35469Y-30055D01*
X35512Y-30158D01*
X35591Y-30237D01*
X35694Y-30279D01*
X35775Y-30280D01*
X35872Y-30377D01*
X35872Y-30377D01*
X35931Y-30416D01*
X36000Y-30429D01*
X36094Y-30429D01*
X36094Y-30545D01*
X36110Y-30584D01*
X36140Y-30613D01*
X36179Y-30629D01*
X36220Y-30630D01*
X36570Y-30630D01*
X36609Y-30614D01*
X36638Y-30584D01*
X36654Y-30545D01*
X36655Y-30504D01*
X36655Y-29954D01*
X36639Y-29915D01*
X36609Y-29886D01*
X36570Y-29870D01*
X36529Y-29869D01*
X36179Y-29869D01*
X36140Y-29885D01*
X36111Y-29915D01*
X36095Y-29954D01*
X36094Y-29995D01*
X36094Y-30070D01*
X36074Y-30070D01*
X36029Y-30025D01*
X36030Y-29944D01*
X35987Y-29841D01*
X35913Y-29767D01*
X35944Y-29779D01*
X36055Y-29780D01*
X36158Y-29737D01*
X36237Y-29658D01*
X36279Y-29555D01*
X36280Y-29444D01*
X36237Y-29341D01*
X36158Y-29262D01*
X36055Y-29220D01*
X35944Y-29219D01*
X35841Y-29262D01*
X35783Y-29320D01*
X35500Y-29320D01*
X35431Y-29333D01*
X35398Y-29355D01*
X35627Y-29127D01*
X35666Y-29068D01*
X35666Y-29068D01*
X35679Y-29000D01*
X35679Y-28717D01*
X35784Y-28821D01*
X35924Y-28879D01*
X36075Y-28880D01*
X36214Y-28822D01*
X36321Y-28715D01*
X36379Y-28575D01*
X36380Y-28424D01*
X36322Y-28285D01*
X36301Y-28264D01*
X36301Y-28125D01*
X36625Y-27801D01*
X37374Y-27801D01*
X37698Y-28125D01*
X37698Y-29500D01*
X37721Y-29615D01*
X37786Y-29713D01*
X38286Y-30213D01*
X38384Y-30278D01*
X38384Y-30278D01*
X38467Y-30295D01*
X38467Y-30611D01*
X38483Y-30649D01*
X38513Y-30679D01*
X38552Y-30695D01*
X38593Y-30695D01*
X40268Y-30695D01*
X41271Y-31698D01*
X40655Y-31698D01*
X40655Y-31679D01*
X40639Y-31640D01*
X40609Y-31611D01*
X40570Y-31595D01*
X40529Y-31594D01*
X40271Y-31594D01*
X39463Y-30786D01*
X39365Y-30721D01*
X39250Y-30698D01*
X38375Y-30698D01*
X37713Y-30036D01*
X37615Y-29971D01*
X37500Y-29948D01*
X37426Y-29948D01*
X37426Y-28625D01*
X37426Y-28624D01*
X37426Y-28624D01*
X37422Y-28602D01*
X37403Y-28509D01*
X37403Y-28509D01*
X37380Y-28473D01*
X37380Y-28473D01*
X37380Y-28424D01*
X37322Y-28285D01*
X37215Y-28178D01*
X37075Y-28120D01*
X36924Y-28119D01*
X36785Y-28177D01*
X36678Y-28284D01*
X36620Y-28424D01*
X36619Y-28575D01*
X36677Y-28714D01*
X36784Y-28821D01*
X36823Y-28838D01*
X36823Y-30250D01*
X36844Y-30359D01*
X36844Y-30545D01*
X36860Y-30584D01*
X36890Y-30613D01*
X36929Y-30629D01*
X36970Y-30630D01*
X37320Y-30630D01*
X37359Y-30614D01*
X37388Y-30584D01*
X37394Y-30571D01*
X38036Y-31213D01*
X38036Y-31213D01*
X38134Y-31278D01*
X38134Y-31278D01*
X38227Y-31297D01*
X38249Y-31301D01*
X38249Y-31301D01*
X38250Y-31301D01*
X39124Y-31301D01*
X39844Y-32021D01*
X39844Y-32320D01*
X39860Y-32359D01*
X39890Y-32388D01*
X39929Y-32404D01*
X39970Y-32405D01*
X40570Y-32405D01*
X40609Y-32389D01*
X40638Y-32359D01*
X40654Y-32320D01*
X40654Y-32301D01*
X42308Y-32301D01*
X42423Y-32278D01*
X42521Y-32213D01*
X42558Y-32176D01*
X43250Y-32176D01*
X43359Y-32155D01*
X43545Y-32155D01*
X43584Y-32139D01*
X43613Y-32109D01*
X43629Y-32070D01*
X43630Y-32029D01*
X43630Y-31679D01*
X43630Y-31279D01*
X43630Y-30929D01*
X43614Y-30890D01*
X43584Y-30861D01*
X43545Y-30845D01*
X43504Y-30844D01*
X43224Y-30844D01*
X43179Y-30800D01*
X43179Y-30155D01*
X43295Y-30155D01*
X43334Y-30139D01*
X43363Y-30109D01*
X43379Y-30070D01*
X43380Y-30029D01*
X43380Y-29679D01*
X43364Y-29640D01*
X43334Y-29611D01*
X43295Y-29595D01*
X43254Y-29594D01*
X42704Y-29594D01*
X42665Y-29610D01*
X42636Y-29640D01*
X42620Y-29679D01*
X42619Y-29720D01*
X42619Y-30070D01*
X42635Y-30109D01*
X42665Y-30138D01*
X42704Y-30154D01*
X42745Y-30155D01*
X42820Y-30155D01*
X42820Y-30875D01*
X42833Y-30943D01*
X42834Y-30945D01*
X42734Y-30945D01*
X42719Y-30908D01*
X42689Y-30878D01*
X42650Y-30862D01*
X42609Y-30862D01*
X42380Y-30862D01*
X42380Y-29529D01*
X42380Y-29179D01*
X42364Y-29140D01*
X42334Y-29111D01*
X42295Y-29095D01*
X42254Y-29094D01*
X41704Y-29094D01*
X41665Y-29110D01*
X41636Y-29140D01*
X41620Y-29179D01*
X41619Y-29220D01*
X41619Y-29570D01*
X41635Y-29609D01*
X41665Y-29638D01*
X41704Y-29654D01*
X41745Y-29655D01*
X41820Y-29655D01*
X41820Y-29783D01*
X41762Y-29841D01*
X41720Y-29944D01*
X41719Y-30055D01*
X41762Y-30158D01*
X41841Y-30237D01*
X41944Y-30279D01*
X42055Y-30280D01*
X42158Y-30237D01*
X42237Y-30158D01*
X42279Y-30055D01*
X42280Y-29944D01*
X42237Y-29841D01*
X42179Y-29783D01*
X42179Y-29655D01*
X42295Y-29655D01*
X42334Y-29639D01*
X42363Y-29609D01*
X42379Y-29570D01*
X42380Y-29529D01*
X42380Y-30862D01*
X42215Y-30862D01*
X42176Y-30878D01*
X42147Y-30907D01*
X42131Y-30946D01*
X42130Y-30988D01*
X42130Y-31303D01*
X42146Y-31341D01*
X42176Y-31371D01*
X42215Y-31387D01*
X42256Y-31387D01*
X42650Y-31387D01*
X42689Y-31371D01*
X42718Y-31342D01*
X42734Y-31304D01*
X42869Y-31304D01*
X42869Y-31320D01*
X42885Y-31359D01*
X42915Y-31388D01*
X42954Y-31404D01*
X42995Y-31405D01*
X43545Y-31405D01*
X43584Y-31389D01*
X43613Y-31359D01*
X43629Y-31320D01*
X43630Y-31279D01*
X43630Y-31679D01*
X43614Y-31640D01*
X43584Y-31611D01*
X43545Y-31595D01*
X43504Y-31594D01*
X43359Y-31594D01*
X43250Y-31573D01*
X42433Y-31573D01*
X42432Y-31573D01*
X42410Y-31577D01*
X42317Y-31596D01*
X42293Y-31612D01*
X42215Y-31612D01*
X42176Y-31628D01*
X42147Y-31657D01*
X42131Y-31696D01*
X42131Y-31698D01*
X41860Y-31698D01*
X41868Y-31678D01*
X41869Y-31636D01*
X41869Y-31321D01*
X41853Y-31283D01*
X41823Y-31253D01*
X41784Y-31237D01*
X41743Y-31237D01*
X41706Y-31237D01*
X41682Y-31221D01*
X41639Y-31212D01*
X41122Y-30695D01*
X41447Y-30695D01*
X41486Y-30679D01*
X41515Y-30650D01*
X41531Y-30611D01*
X41532Y-30569D01*
X41532Y-29388D01*
X41516Y-29350D01*
X41486Y-29320D01*
X41447Y-29304D01*
X41406Y-29304D01*
X38552Y-29304D01*
X38513Y-29320D01*
X38484Y-29349D01*
X38468Y-29388D01*
X38467Y-29430D01*
X38467Y-29541D01*
X38301Y-29374D01*
X38301Y-28000D01*
X38278Y-27884D01*
X38278Y-27884D01*
X38213Y-27786D01*
X37713Y-27286D01*
X37615Y-27221D01*
X37500Y-27198D01*
X36697Y-27198D01*
X36716Y-27179D01*
X40500Y-27179D01*
X40568Y-27166D01*
X40568Y-27166D01*
X40627Y-27127D01*
X41000Y-26754D01*
X41122Y-26877D01*
X41122Y-26877D01*
X41181Y-26916D01*
X41250Y-26929D01*
X41344Y-26929D01*
X41344Y-27045D01*
X41360Y-27084D01*
X41390Y-27113D01*
X41429Y-27129D01*
X41446Y-27129D01*
X41458Y-27193D01*
X41497Y-27252D01*
X41514Y-27269D01*
X41514Y-27349D01*
X41486Y-27320D01*
X41447Y-27304D01*
X41406Y-27304D01*
X38552Y-27304D01*
X38513Y-27320D01*
X38484Y-27349D01*
X38468Y-27388D01*
X38467Y-27430D01*
X38467Y-28611D01*
X38483Y-28649D01*
X38513Y-28679D01*
X38552Y-28695D01*
X38593Y-28695D01*
X40268Y-28695D01*
X40786Y-29213D01*
X40884Y-29278D01*
X41000Y-29301D01*
X41115Y-29278D01*
X41213Y-29213D01*
X41278Y-29115D01*
X41301Y-29000D01*
X41278Y-28884D01*
X41213Y-28786D01*
X41122Y-28695D01*
X41447Y-28695D01*
X41486Y-28679D01*
X41515Y-28650D01*
X41531Y-28611D01*
X41532Y-28569D01*
X41532Y-28342D01*
X41560Y-28371D01*
X41599Y-28387D01*
X41638Y-28387D01*
X41636Y-28390D01*
X41620Y-28429D01*
X41619Y-28470D01*
X41619Y-28820D01*
X41635Y-28859D01*
X41665Y-28888D01*
X41704Y-28904D01*
X41745Y-28905D01*
X42295Y-28905D01*
X42334Y-28889D01*
X42363Y-28859D01*
X42370Y-28843D01*
X42390Y-28863D01*
X42429Y-28879D01*
X42470Y-28880D01*
X42646Y-28880D01*
X42636Y-28890D01*
X42620Y-28929D01*
X42619Y-28970D01*
X42619Y-29320D01*
X42635Y-29359D01*
X42665Y-29388D01*
X42704Y-29404D01*
X42745Y-29405D01*
X43295Y-29405D01*
X43334Y-29389D01*
X43363Y-29359D01*
X43379Y-29320D01*
X43380Y-29279D01*
X43380Y-28929D01*
X43364Y-28890D01*
X43334Y-28861D01*
X43295Y-28845D01*
X43254Y-28844D01*
X43179Y-28844D01*
X43179Y-28000D01*
X43166Y-27931D01*
X43127Y-27872D01*
X43127Y-27872D01*
X42985Y-27730D01*
X42985Y-27571D01*
X42969Y-27533D01*
X42939Y-27503D01*
X42900Y-27487D01*
X42859Y-27487D01*
X42465Y-27487D01*
X42426Y-27503D01*
X42397Y-27532D01*
X42381Y-27571D01*
X42380Y-27613D01*
X42380Y-27928D01*
X42396Y-27966D01*
X42426Y-27996D01*
X42465Y-28012D01*
X42506Y-28012D01*
X42758Y-28012D01*
X42820Y-28074D01*
X42820Y-28120D01*
X42779Y-28119D01*
X42429Y-28119D01*
X42390Y-28135D01*
X42361Y-28165D01*
X42345Y-28204D01*
X42344Y-28245D01*
X42344Y-28320D01*
X42179Y-28320D01*
X42179Y-28308D01*
X42179Y-28307D01*
X42179Y-28307D01*
X42166Y-28239D01*
X42127Y-28180D01*
X42127Y-28180D01*
X42119Y-28172D01*
X42119Y-27946D01*
X42103Y-27908D01*
X42073Y-27878D01*
X42034Y-27862D01*
X41993Y-27862D01*
X41599Y-27862D01*
X41560Y-27878D01*
X41532Y-27906D01*
X41532Y-27592D01*
X41560Y-27621D01*
X41599Y-27637D01*
X41640Y-27637D01*
X42034Y-27637D01*
X42073Y-27621D01*
X42102Y-27592D01*
X42118Y-27553D01*
X42119Y-27511D01*
X42119Y-27196D01*
X42103Y-27158D01*
X42073Y-27128D01*
X42034Y-27112D01*
X41993Y-27112D01*
X41866Y-27112D01*
X41863Y-27109D01*
X41888Y-27084D01*
X41904Y-27045D01*
X41905Y-27004D01*
X41905Y-26454D01*
X41889Y-26415D01*
X41859Y-26386D01*
X41820Y-26370D01*
X41779Y-26369D01*
X41429Y-26369D01*
X41390Y-26385D01*
X41361Y-26415D01*
X41345Y-26454D01*
X41344Y-26495D01*
X41344Y-26570D01*
X41324Y-26570D01*
X41179Y-26425D01*
X41179Y-26336D01*
X41214Y-26322D01*
X41321Y-26215D01*
X41379Y-26075D01*
X41380Y-25924D01*
X41322Y-25785D01*
X41217Y-25679D01*
X41782Y-25679D01*
X41678Y-25784D01*
X41620Y-25924D01*
X41619Y-26075D01*
X41677Y-26214D01*
X41784Y-26321D01*
X41924Y-26379D01*
X42075Y-26380D01*
X42214Y-26322D01*
X42321Y-26215D01*
X42379Y-26075D01*
X42380Y-25924D01*
X42322Y-25785D01*
X42217Y-25679D01*
X42782Y-25679D01*
X42678Y-25784D01*
X42620Y-25924D01*
X42619Y-26075D01*
X42677Y-26214D01*
X42784Y-26321D01*
X42924Y-26379D01*
X43075Y-26380D01*
X43111Y-26365D01*
X43820Y-27074D01*
X43820Y-29300D01*
X43833Y-29368D01*
X43872Y-29427D01*
X44322Y-29877D01*
X44381Y-29916D01*
X44381Y-29916D01*
X44450Y-29929D01*
X45075Y-29929D01*
X46870Y-31724D01*
X46870Y-33950D01*
X46883Y-34018D01*
X46922Y-34077D01*
X47247Y-34402D01*
X47247Y-34402D01*
X47306Y-34441D01*
X47375Y-34454D01*
X47400Y-34454D01*
X48025Y-34454D01*
X48093Y-34441D01*
X48093Y-34441D01*
X48152Y-34402D01*
X48374Y-34179D01*
X48597Y-34402D01*
X48597Y-34402D01*
X48656Y-34441D01*
X48724Y-34454D01*
X48724Y-34454D01*
X48725Y-34454D01*
X49150Y-34454D01*
X49875Y-34454D01*
X49943Y-34441D01*
X49943Y-34441D01*
X50002Y-34402D01*
X50127Y-34277D01*
X50127Y-34277D01*
X50127Y-34277D01*
X50166Y-34218D01*
X50179Y-34150D01*
X50179Y-34150D01*
X50179Y-34150D01*
X50179Y-34029D01*
X50220Y-34030D01*
X50570Y-34030D01*
X50609Y-34014D01*
X50638Y-33984D01*
X50654Y-33945D01*
X50655Y-33904D01*
X50655Y-33354D01*
X50639Y-33315D01*
X50613Y-33290D01*
X51332Y-32572D01*
X51371Y-32513D01*
X51371Y-32513D01*
X51384Y-32445D01*
X51384Y-32411D01*
X51421Y-32396D01*
X51450Y-32366D01*
X51466Y-32327D01*
X51467Y-32286D01*
X51467Y-31972D01*
X51451Y-31933D01*
X51421Y-31904D01*
X51384Y-31888D01*
X51384Y-31705D01*
X51371Y-31636D01*
X51332Y-31577D01*
X51332Y-31577D01*
X51277Y-31522D01*
X51277Y-31522D01*
X51127Y-31372D01*
X51068Y-31333D01*
X51000Y-31320D01*
X50916Y-31320D01*
X50858Y-31262D01*
X50755Y-31220D01*
X50734Y-31220D01*
X51127Y-30827D01*
X51166Y-30768D01*
X51179Y-30700D01*
X51179Y-30206D01*
X51216Y-30191D01*
X51245Y-30161D01*
X51261Y-30124D01*
X51738Y-30124D01*
X51753Y-30161D01*
X51762Y-30170D01*
X51694Y-30169D01*
X51591Y-30212D01*
X51512Y-30291D01*
X51470Y-30394D01*
X51469Y-30505D01*
X51512Y-30608D01*
X51591Y-30687D01*
X51615Y-30697D01*
X51615Y-30934D01*
X51583Y-30981D01*
X51570Y-31050D01*
X51583Y-31118D01*
X51615Y-31165D01*
X51615Y-31888D01*
X51578Y-31903D01*
X51549Y-31933D01*
X51533Y-31972D01*
X51532Y-32013D01*
X51532Y-32327D01*
X51548Y-32366D01*
X51578Y-32395D01*
X51615Y-32411D01*
X51615Y-32945D01*
X51628Y-33013D01*
X51667Y-33072D01*
X51886Y-33290D01*
X51861Y-33315D01*
X51845Y-33354D01*
X51844Y-33395D01*
X51844Y-33945D01*
X51860Y-33984D01*
X51890Y-34013D01*
X51929Y-34029D01*
X51970Y-34030D01*
X52320Y-34030D01*
X52359Y-34014D01*
X52388Y-33984D01*
X52404Y-33945D01*
X52405Y-33904D01*
X52405Y-33354D01*
X52389Y-33315D01*
X52359Y-33286D01*
X52320Y-33270D01*
X52303Y-33270D01*
X52291Y-33206D01*
X52252Y-33147D01*
X52252Y-33147D01*
X51974Y-32870D01*
X51974Y-32411D01*
X52011Y-32396D01*
X52040Y-32366D01*
X52056Y-32327D01*
X52057Y-32286D01*
X52057Y-31972D01*
X52041Y-31933D01*
X52011Y-31904D01*
X51974Y-31888D01*
X51974Y-31050D01*
X51970Y-31027D01*
X51974Y-31005D01*
X51974Y-30621D01*
X51987Y-30608D01*
X52029Y-30505D01*
X52030Y-30394D01*
X51987Y-30291D01*
X51908Y-30212D01*
X51894Y-30207D01*
X52177Y-30207D01*
X52216Y-30191D01*
X52245Y-30161D01*
X52261Y-30124D01*
X52738Y-30124D01*
X52753Y-30161D01*
X52783Y-30190D01*
X52822Y-30206D01*
X52863Y-30207D01*
X53177Y-30207D01*
X53216Y-30191D01*
X53245Y-30161D01*
X53261Y-30122D01*
X53262Y-30081D01*
X53262Y-30550D01*
X53237Y-30491D01*
X53158Y-30412D01*
X53055Y-30370D01*
X52944Y-30369D01*
X52841Y-30412D01*
X52762Y-30491D01*
X52720Y-30594D01*
X52719Y-30675D01*
X52577Y-30817D01*
X52538Y-30876D01*
X52525Y-30945D01*
X52525Y-31888D01*
X52488Y-31903D01*
X52459Y-31933D01*
X52443Y-31972D01*
X52442Y-32013D01*
X52442Y-32327D01*
X52458Y-32366D01*
X52488Y-32395D01*
X52527Y-32411D01*
X52568Y-32412D01*
X52882Y-32412D01*
X52921Y-32396D01*
X52950Y-32366D01*
X52966Y-32327D01*
X52967Y-32286D01*
X52967Y-31972D01*
X52951Y-31933D01*
X52921Y-31904D01*
X52884Y-31888D01*
X52884Y-31019D01*
X52974Y-30929D01*
X53055Y-30930D01*
X53158Y-30887D01*
X53237Y-30808D01*
X53279Y-30705D01*
X53280Y-30594D01*
X53280Y-31887D01*
X53117Y-31887D01*
X53078Y-31903D01*
X53049Y-31933D01*
X53033Y-31972D01*
X53032Y-32013D01*
X53032Y-32327D01*
X53048Y-32366D01*
X53078Y-32395D01*
X53115Y-32411D01*
X53115Y-32780D01*
X52747Y-33147D01*
X52708Y-33206D01*
X52696Y-33269D01*
X52679Y-33269D01*
X52640Y-33285D01*
X52611Y-33315D01*
X52595Y-33354D01*
X52594Y-33395D01*
X52594Y-33945D01*
X52610Y-33984D01*
X52640Y-34013D01*
X52679Y-34029D01*
X52720Y-34030D01*
X53070Y-34030D01*
X53109Y-34014D01*
X53138Y-33984D01*
X53154Y-33945D01*
X53155Y-33904D01*
X53155Y-33354D01*
X53139Y-33315D01*
X53113Y-33290D01*
X53422Y-32982D01*
X53461Y-32923D01*
X53461Y-32923D01*
X53474Y-32855D01*
X53474Y-32411D01*
X53511Y-32396D01*
X53540Y-32366D01*
X53556Y-32327D01*
X53557Y-32286D01*
X53557Y-32142D01*
X53627Y-32072D01*
X53666Y-32013D01*
X53666Y-32013D01*
X53679Y-31945D01*
X53679Y-38471D01*
X44905Y-38471D01*
X44905Y-36419D01*
X44843Y-36270D01*
X44729Y-36156D01*
X44679Y-36136D01*
X44679Y-36000D01*
X44666Y-35931D01*
X44666Y-35931D01*
X44627Y-35872D01*
X44127Y-35372D01*
X44068Y-35333D01*
X44000Y-35320D01*
X42000Y-35320D01*
X41931Y-35333D01*
X41872Y-35372D01*
X41425Y-35820D01*
X40750Y-35820D01*
X40551Y-35820D01*
X40551Y-33749D01*
X40528Y-33634D01*
X40463Y-33536D01*
X40338Y-33411D01*
X40240Y-33346D01*
X40125Y-33323D01*
X39625Y-33323D01*
X39250Y-33323D01*
X38250Y-33323D01*
X38000Y-33323D01*
X37842Y-33165D01*
X38088Y-32919D01*
X38153Y-32821D01*
X38176Y-32706D01*
X38176Y-32500D01*
X38155Y-32390D01*
X38155Y-32204D01*
X38139Y-32165D01*
X38109Y-32136D01*
X38070Y-32120D01*
X38029Y-32119D01*
X37679Y-32119D01*
X37640Y-32135D01*
X37611Y-32165D01*
X37595Y-32204D01*
X37594Y-32245D01*
X37594Y-32390D01*
X37573Y-32500D01*
X37573Y-32580D01*
X37203Y-32950D01*
X36775Y-32950D01*
X36736Y-32966D01*
X36707Y-32995D01*
X36691Y-33034D01*
X36690Y-33076D01*
X36690Y-33132D01*
X36530Y-33293D01*
X36530Y-32944D01*
X36487Y-32841D01*
X36408Y-32762D01*
X36305Y-32720D01*
X36224Y-32719D01*
X36127Y-32622D01*
X36068Y-32583D01*
X36000Y-32570D01*
X28426Y-32570D01*
X28426Y-28000D01*
X28405Y-27890D01*
X28405Y-27704D01*
X28389Y-27665D01*
X28359Y-27636D01*
X28320Y-27620D01*
X28279Y-27619D01*
X27929Y-27619D01*
X27890Y-27635D01*
X27861Y-27665D01*
X27847Y-27698D01*
X27750Y-27698D01*
X27380Y-27328D01*
X27380Y-27179D01*
X27364Y-27140D01*
X27334Y-27111D01*
X27295Y-27095D01*
X27254Y-27094D01*
X27109Y-27094D01*
X27000Y-27073D01*
X26125Y-27073D01*
X26124Y-27073D01*
X26102Y-27077D01*
X26009Y-27096D01*
X25973Y-27119D01*
X25973Y-27119D01*
X25924Y-27119D01*
X25785Y-27177D01*
X25678Y-27284D01*
X25620Y-27424D01*
X25619Y-27575D01*
X25677Y-27714D01*
X25698Y-27735D01*
X25698Y-29252D01*
X25721Y-29367D01*
X25786Y-29465D01*
X25827Y-29506D01*
X25827Y-29953D01*
X25843Y-29992D01*
X25873Y-30021D01*
X25912Y-30037D01*
X25946Y-30038D01*
X25946Y-31126D01*
X25405Y-31668D01*
X25405Y-25754D01*
X25405Y-25204D01*
X25389Y-25165D01*
X25359Y-25136D01*
X25320Y-25120D01*
X25279Y-25119D01*
X24929Y-25119D01*
X24890Y-25135D01*
X24861Y-25165D01*
X24845Y-25204D01*
X24844Y-25245D01*
X24844Y-25795D01*
X24860Y-25834D01*
X24890Y-25863D01*
X24929Y-25879D01*
X24945Y-25879D01*
X24945Y-26119D01*
X24924Y-26119D01*
X24785Y-26177D01*
X24678Y-26284D01*
X24620Y-26424D01*
X24619Y-26575D01*
X24677Y-26714D01*
X24784Y-26821D01*
X24924Y-26879D01*
X25075Y-26880D01*
X25214Y-26822D01*
X25321Y-26715D01*
X25379Y-26575D01*
X25380Y-26424D01*
X25322Y-26285D01*
X25304Y-26267D01*
X25304Y-25880D01*
X25320Y-25880D01*
X25359Y-25864D01*
X25388Y-25834D01*
X25404Y-25795D01*
X25405Y-25754D01*
X25405Y-31668D01*
X25172Y-31901D01*
X25172Y-29912D01*
X25172Y-29046D01*
X25156Y-29007D01*
X25126Y-28978D01*
X25087Y-28962D01*
X25046Y-28961D01*
X24450Y-28961D01*
X24450Y-28534D01*
X24434Y-28495D01*
X24405Y-28466D01*
X24405Y-27754D01*
X24405Y-27204D01*
X24389Y-27165D01*
X24359Y-27136D01*
X24320Y-27120D01*
X24303Y-27120D01*
X24291Y-27056D01*
X24252Y-26997D01*
X24252Y-26997D01*
X24127Y-26872D01*
X24068Y-26833D01*
X24000Y-26820D01*
X23905Y-26820D01*
X23905Y-25779D01*
X23905Y-25179D01*
X23889Y-25140D01*
X23859Y-25111D01*
X23820Y-25095D01*
X23779Y-25094D01*
X23179Y-25094D01*
X23140Y-25110D01*
X23111Y-25140D01*
X23095Y-25179D01*
X23094Y-25220D01*
X23094Y-25320D01*
X23000Y-25320D01*
X22931Y-25333D01*
X22872Y-25372D01*
X22577Y-25667D01*
X22538Y-25726D01*
X22525Y-25795D01*
X22525Y-26738D01*
X22488Y-26753D01*
X22459Y-26783D01*
X22443Y-26822D01*
X22442Y-26863D01*
X22442Y-27177D01*
X22458Y-27216D01*
X22488Y-27245D01*
X22527Y-27261D01*
X22568Y-27262D01*
X22882Y-27262D01*
X22921Y-27246D01*
X22950Y-27216D01*
X22966Y-27177D01*
X22967Y-27136D01*
X22967Y-26822D01*
X22951Y-26783D01*
X22921Y-26754D01*
X22884Y-26738D01*
X22884Y-25869D01*
X23074Y-25679D01*
X23094Y-25679D01*
X23094Y-25820D01*
X23110Y-25859D01*
X23140Y-25888D01*
X23179Y-25904D01*
X23220Y-25905D01*
X23820Y-25905D01*
X23859Y-25889D01*
X23888Y-25859D01*
X23904Y-25820D01*
X23905Y-25779D01*
X23905Y-26820D01*
X23556Y-26820D01*
X23541Y-26783D01*
X23511Y-26754D01*
X23472Y-26738D01*
X23431Y-26737D01*
X23117Y-26737D01*
X23078Y-26753D01*
X23049Y-26783D01*
X23033Y-26822D01*
X23032Y-26863D01*
X23032Y-27177D01*
X23048Y-27216D01*
X23078Y-27245D01*
X23117Y-27261D01*
X23158Y-27262D01*
X23472Y-27262D01*
X23511Y-27246D01*
X23540Y-27216D01*
X23556Y-27179D01*
X23855Y-27179D01*
X23845Y-27204D01*
X23844Y-27245D01*
X23844Y-27795D01*
X23860Y-27834D01*
X23890Y-27863D01*
X23929Y-27879D01*
X23970Y-27880D01*
X24320Y-27880D01*
X24359Y-27864D01*
X24388Y-27834D01*
X24404Y-27795D01*
X24405Y-27754D01*
X24405Y-28466D01*
X24404Y-28466D01*
X24365Y-28450D01*
X24324Y-28449D01*
X22434Y-28449D01*
X22395Y-28465D01*
X22366Y-28495D01*
X22350Y-28534D01*
X22349Y-28575D01*
X22349Y-30465D01*
X22365Y-30504D01*
X22395Y-30533D01*
X22434Y-30549D01*
X22475Y-30550D01*
X24365Y-30550D01*
X24404Y-30534D01*
X24433Y-30504D01*
X24449Y-30465D01*
X24450Y-30424D01*
X24450Y-30038D01*
X24457Y-30038D01*
X25087Y-30038D01*
X25126Y-30022D01*
X25155Y-29992D01*
X25171Y-29953D01*
X25172Y-29912D01*
X25172Y-31901D01*
X24951Y-32121D01*
X24939Y-32090D01*
X24909Y-32061D01*
X24870Y-32045D01*
X24829Y-32044D01*
X24129Y-32044D01*
X24090Y-32060D01*
X24061Y-32090D01*
X24045Y-32129D01*
X24044Y-32170D01*
X24044Y-32870D01*
X24060Y-32909D01*
X24090Y-32938D01*
X24129Y-32954D01*
X24170Y-32955D01*
X24870Y-32955D01*
X24909Y-32939D01*
X24938Y-32909D01*
X24954Y-32870D01*
X24955Y-32829D01*
X24955Y-32801D01*
X25000Y-32801D01*
X25115Y-32778D01*
X25213Y-32713D01*
X26461Y-31465D01*
X26461Y-31465D01*
X26461Y-31465D01*
X26526Y-31367D01*
X26526Y-31367D01*
X26545Y-31274D01*
X26549Y-31252D01*
X26549Y-31252D01*
X26549Y-31252D01*
X26549Y-30038D01*
X26583Y-30038D01*
X26622Y-30022D01*
X26651Y-29992D01*
X26667Y-29953D01*
X26668Y-29912D01*
X26668Y-29046D01*
X26652Y-29007D01*
X26622Y-28978D01*
X26583Y-28962D01*
X26542Y-28961D01*
X26301Y-28961D01*
X26301Y-27735D01*
X26321Y-27715D01*
X26338Y-27676D01*
X26874Y-27676D01*
X27411Y-28213D01*
X27509Y-28278D01*
X27625Y-28301D01*
X27847Y-28301D01*
X27860Y-28334D01*
X27890Y-28363D01*
X27929Y-28379D01*
X27970Y-28380D01*
X28320Y-28380D01*
X28359Y-28364D01*
X28388Y-28334D01*
X28404Y-28295D01*
X28405Y-28254D01*
X28405Y-28109D01*
X28426Y-28000D01*
X28426Y-32570D01*
X27500Y-32570D01*
X27499Y-32570D01*
X27431Y-32583D01*
X27372Y-32622D01*
X27372Y-32622D01*
X27247Y-32747D01*
X27208Y-32806D01*
X27195Y-32875D01*
X27195Y-33019D01*
X27179Y-33019D01*
X27140Y-33035D01*
X27111Y-33065D01*
X27095Y-33104D01*
X27094Y-33145D01*
X27094Y-33695D01*
X27110Y-33734D01*
X27140Y-33763D01*
X27179Y-33779D01*
X27220Y-33780D01*
X27570Y-33780D01*
X27609Y-33764D01*
X27638Y-33734D01*
X27654Y-33695D01*
X27655Y-33654D01*
X27655Y-33104D01*
X27639Y-33065D01*
X27609Y-33036D01*
X27570Y-33020D01*
X27554Y-33020D01*
X27554Y-32949D01*
X27574Y-32929D01*
X35925Y-32929D01*
X35970Y-32974D01*
X35969Y-33055D01*
X36012Y-33158D01*
X36091Y-33237D01*
X36194Y-33279D01*
X36305Y-33280D01*
X36408Y-33237D01*
X36487Y-33158D01*
X36529Y-33055D01*
X36530Y-32944D01*
X36530Y-33293D01*
X36499Y-33323D01*
X36250Y-33323D01*
X35250Y-33323D01*
X34950Y-33323D01*
X34744Y-33117D01*
X34646Y-33052D01*
X34609Y-33044D01*
X34609Y-33034D01*
X34593Y-32996D01*
X34563Y-32966D01*
X34524Y-32950D01*
X34483Y-32950D01*
X33775Y-32950D01*
X33736Y-32966D01*
X33707Y-32995D01*
X33693Y-33029D01*
X33669Y-33029D01*
X33553Y-33052D01*
X33455Y-33117D01*
X33249Y-33323D01*
X32250Y-33323D01*
X32000Y-33323D01*
X31794Y-33117D01*
X31696Y-33052D01*
X31609Y-33034D01*
X31609Y-33034D01*
X31593Y-32996D01*
X31563Y-32966D01*
X31524Y-32950D01*
X31483Y-32950D01*
X30775Y-32950D01*
X30736Y-32966D01*
X30707Y-32995D01*
X30693Y-33029D01*
X30669Y-33029D01*
X30553Y-33052D01*
X30455Y-33117D01*
X30249Y-33323D01*
X29250Y-33323D01*
X29044Y-33117D01*
X28946Y-33052D01*
X28831Y-33029D01*
X28706Y-33029D01*
X28693Y-32996D01*
X28663Y-32966D01*
X28624Y-32950D01*
X28583Y-32950D01*
X27875Y-32950D01*
X27836Y-32966D01*
X27807Y-32995D01*
X27791Y-33034D01*
X27790Y-33076D01*
X27790Y-33627D01*
X27806Y-33665D01*
X27836Y-33695D01*
X27875Y-33711D01*
X27916Y-33711D01*
X28624Y-33711D01*
X28663Y-33695D01*
X28692Y-33666D01*
X28706Y-33633D01*
X28869Y-33796D01*
X28869Y-33820D01*
X28885Y-33859D01*
X28915Y-33888D01*
X28954Y-33904D01*
X28995Y-33905D01*
X29015Y-33905D01*
X29125Y-33926D01*
X29250Y-33926D01*
X30250Y-33926D01*
X30375Y-33926D01*
X30484Y-33905D01*
X30545Y-33905D01*
X30584Y-33889D01*
X30613Y-33859D01*
X30629Y-33820D01*
X30630Y-33796D01*
X30733Y-33692D01*
X30736Y-33695D01*
X30775Y-33711D01*
X30816Y-33711D01*
X31524Y-33711D01*
X31531Y-33708D01*
X31661Y-33838D01*
X31759Y-33903D01*
X31875Y-33926D01*
X32250Y-33926D01*
X33250Y-33926D01*
X33375Y-33926D01*
X33484Y-33905D01*
X33545Y-33905D01*
X33584Y-33889D01*
X33613Y-33859D01*
X33629Y-33820D01*
X33630Y-33796D01*
X33733Y-33692D01*
X33736Y-33695D01*
X33775Y-33711D01*
X33816Y-33711D01*
X34484Y-33711D01*
X34611Y-33838D01*
X34709Y-33903D01*
X34825Y-33926D01*
X35250Y-33926D01*
X36250Y-33926D01*
X36625Y-33926D01*
X36740Y-33903D01*
X36838Y-33838D01*
X36965Y-33711D01*
X37524Y-33711D01*
X37531Y-33708D01*
X37661Y-33838D01*
X37759Y-33903D01*
X37875Y-33926D01*
X38250Y-33926D01*
X39250Y-33926D01*
X39625Y-33926D01*
X39999Y-33926D01*
X40036Y-33963D01*
X40134Y-34028D01*
X40249Y-34051D01*
X40365Y-34028D01*
X40463Y-33963D01*
X40528Y-33865D01*
X40551Y-33749D01*
X40551Y-35820D01*
X39630Y-35820D01*
X39630Y-34529D01*
X39630Y-34179D01*
X39614Y-34140D01*
X39584Y-34111D01*
X39545Y-34095D01*
X39504Y-34094D01*
X38954Y-34094D01*
X38915Y-34110D01*
X38886Y-34140D01*
X38870Y-34179D01*
X38869Y-34220D01*
X38869Y-34500D01*
X38605Y-34764D01*
X38446Y-34764D01*
X38408Y-34780D01*
X38378Y-34810D01*
X38362Y-34849D01*
X38362Y-34890D01*
X38362Y-35284D01*
X38378Y-35323D01*
X38407Y-35352D01*
X38446Y-35368D01*
X38488Y-35369D01*
X38803Y-35369D01*
X38841Y-35353D01*
X38871Y-35323D01*
X38887Y-35284D01*
X38887Y-35243D01*
X38887Y-34991D01*
X39224Y-34655D01*
X39545Y-34655D01*
X39584Y-34639D01*
X39613Y-34609D01*
X39629Y-34570D01*
X39630Y-34529D01*
X39630Y-35820D01*
X39074Y-35820D01*
X39029Y-35775D01*
X39030Y-35694D01*
X38987Y-35591D01*
X38908Y-35512D01*
X38805Y-35470D01*
X38694Y-35469D01*
X38591Y-35512D01*
X38512Y-35591D01*
X38482Y-35662D01*
X38467Y-35647D01*
X38428Y-35631D01*
X38386Y-35630D01*
X38071Y-35630D01*
X38054Y-35637D01*
X38054Y-35368D01*
X38091Y-35353D01*
X38121Y-35323D01*
X38137Y-35284D01*
X38137Y-35243D01*
X38137Y-34866D01*
X38349Y-34655D01*
X38545Y-34655D01*
X38584Y-34639D01*
X38613Y-34609D01*
X38629Y-34570D01*
X38630Y-34529D01*
X38630Y-34179D01*
X38614Y-34140D01*
X38584Y-34111D01*
X38545Y-34095D01*
X38504Y-34094D01*
X37954Y-34094D01*
X37915Y-34110D01*
X37886Y-34140D01*
X37870Y-34179D01*
X37869Y-34220D01*
X37869Y-34570D01*
X37885Y-34609D01*
X37886Y-34609D01*
X37747Y-34747D01*
X37736Y-34764D01*
X37696Y-34764D01*
X37658Y-34780D01*
X37628Y-34810D01*
X37612Y-34849D01*
X37612Y-34890D01*
X37612Y-35284D01*
X37628Y-35323D01*
X37657Y-35352D01*
X37695Y-35368D01*
X37695Y-35800D01*
X37675Y-35820D01*
X37609Y-35820D01*
X37609Y-35585D01*
X37609Y-35034D01*
X37594Y-34999D01*
X37608Y-34965D01*
X37609Y-34923D01*
X37609Y-34372D01*
X37593Y-34334D01*
X37563Y-34304D01*
X37524Y-34288D01*
X37483Y-34288D01*
X36775Y-34288D01*
X36736Y-34304D01*
X36707Y-34333D01*
X36691Y-34372D01*
X36690Y-34414D01*
X36690Y-34965D01*
X36705Y-35000D01*
X36691Y-35034D01*
X36690Y-35076D01*
X36690Y-35627D01*
X36706Y-35665D01*
X36736Y-35695D01*
X36775Y-35711D01*
X36816Y-35711D01*
X37524Y-35711D01*
X37563Y-35695D01*
X37592Y-35666D01*
X37608Y-35627D01*
X37609Y-35585D01*
X37609Y-35820D01*
X37500Y-35820D01*
X37431Y-35833D01*
X37372Y-35872D01*
X37372Y-35872D01*
X37122Y-36122D01*
X37083Y-36181D01*
X37070Y-36250D01*
X37070Y-36288D01*
X36775Y-36288D01*
X36736Y-36304D01*
X36707Y-36333D01*
X36691Y-36372D01*
X36690Y-36414D01*
X36690Y-36489D01*
X36630Y-36489D01*
X36630Y-36429D01*
X36630Y-36029D01*
X36630Y-35679D01*
X36630Y-34529D01*
X36630Y-34179D01*
X36614Y-34140D01*
X36584Y-34111D01*
X36545Y-34095D01*
X36504Y-34094D01*
X35954Y-34094D01*
X35915Y-34110D01*
X35886Y-34140D01*
X35870Y-34179D01*
X35869Y-34220D01*
X35869Y-34500D01*
X35605Y-34764D01*
X35446Y-34764D01*
X35408Y-34780D01*
X35378Y-34810D01*
X35362Y-34849D01*
X35362Y-34890D01*
X35362Y-35284D01*
X35378Y-35323D01*
X35407Y-35352D01*
X35446Y-35368D01*
X35488Y-35369D01*
X35803Y-35369D01*
X35841Y-35353D01*
X35871Y-35323D01*
X35887Y-35284D01*
X35887Y-35243D01*
X35887Y-34991D01*
X36224Y-34655D01*
X36545Y-34655D01*
X36584Y-34639D01*
X36613Y-34609D01*
X36629Y-34570D01*
X36630Y-34529D01*
X36630Y-35679D01*
X36614Y-35640D01*
X36584Y-35611D01*
X36545Y-35595D01*
X36504Y-35594D01*
X36429Y-35594D01*
X36429Y-35466D01*
X36487Y-35408D01*
X36529Y-35305D01*
X36530Y-35194D01*
X36487Y-35091D01*
X36408Y-35012D01*
X36305Y-34970D01*
X36194Y-34969D01*
X36091Y-35012D01*
X36012Y-35091D01*
X35970Y-35194D01*
X35969Y-35305D01*
X36012Y-35408D01*
X36070Y-35466D01*
X36070Y-35594D01*
X35954Y-35594D01*
X35915Y-35610D01*
X35886Y-35640D01*
X35870Y-35679D01*
X35869Y-35720D01*
X35869Y-36070D01*
X35885Y-36109D01*
X35915Y-36138D01*
X35954Y-36154D01*
X35995Y-36155D01*
X36545Y-36155D01*
X36584Y-36139D01*
X36613Y-36109D01*
X36629Y-36070D01*
X36630Y-36029D01*
X36630Y-36429D01*
X36614Y-36390D01*
X36584Y-36361D01*
X36545Y-36345D01*
X36504Y-36344D01*
X35954Y-36344D01*
X35915Y-36360D01*
X35905Y-36371D01*
X35905Y-36204D01*
X35889Y-36165D01*
X35859Y-36136D01*
X35820Y-36120D01*
X35779Y-36119D01*
X35512Y-36119D01*
X35512Y-36109D01*
X35512Y-35715D01*
X35496Y-35676D01*
X35467Y-35647D01*
X35428Y-35631D01*
X35386Y-35630D01*
X35071Y-35630D01*
X35054Y-35637D01*
X35054Y-35368D01*
X35091Y-35353D01*
X35121Y-35323D01*
X35137Y-35284D01*
X35137Y-35243D01*
X35137Y-34849D01*
X35121Y-34810D01*
X35095Y-34784D01*
X35224Y-34655D01*
X35545Y-34655D01*
X35584Y-34639D01*
X35613Y-34609D01*
X35629Y-34570D01*
X35630Y-34529D01*
X35630Y-34179D01*
X35614Y-34140D01*
X35584Y-34111D01*
X35545Y-34095D01*
X35504Y-34094D01*
X34954Y-34094D01*
X34915Y-34110D01*
X34886Y-34140D01*
X34870Y-34179D01*
X34869Y-34220D01*
X34869Y-34500D01*
X34747Y-34622D01*
X34708Y-34681D01*
X34695Y-34750D01*
X34695Y-34765D01*
X34658Y-34780D01*
X34628Y-34810D01*
X34612Y-34849D01*
X34612Y-34890D01*
X34612Y-35284D01*
X34628Y-35323D01*
X34657Y-35352D01*
X34695Y-35368D01*
X34695Y-35700D01*
X34625Y-35770D01*
X34609Y-35770D01*
X34609Y-35585D01*
X34609Y-35034D01*
X34594Y-34999D01*
X34608Y-34965D01*
X34609Y-34923D01*
X34609Y-34372D01*
X34593Y-34334D01*
X34563Y-34304D01*
X34524Y-34288D01*
X34483Y-34288D01*
X33775Y-34288D01*
X33736Y-34304D01*
X33707Y-34333D01*
X33691Y-34372D01*
X33690Y-34414D01*
X33690Y-34965D01*
X33705Y-35000D01*
X33691Y-35034D01*
X33690Y-35076D01*
X33690Y-35627D01*
X33706Y-35665D01*
X33736Y-35695D01*
X33775Y-35711D01*
X33816Y-35711D01*
X34524Y-35711D01*
X34563Y-35695D01*
X34592Y-35666D01*
X34608Y-35627D01*
X34609Y-35585D01*
X34609Y-35770D01*
X34350Y-35770D01*
X34281Y-35783D01*
X34222Y-35822D01*
X34222Y-35822D01*
X34022Y-36022D01*
X33983Y-36081D01*
X33970Y-36150D01*
X33970Y-36288D01*
X33775Y-36288D01*
X33736Y-36304D01*
X33707Y-36333D01*
X33691Y-36372D01*
X33690Y-36414D01*
X33690Y-36445D01*
X33630Y-36445D01*
X33630Y-36429D01*
X33630Y-36029D01*
X33630Y-35679D01*
X33630Y-34529D01*
X33630Y-34179D01*
X33614Y-34140D01*
X33584Y-34111D01*
X33545Y-34095D01*
X33504Y-34094D01*
X32954Y-34094D01*
X32915Y-34110D01*
X32886Y-34140D01*
X32870Y-34179D01*
X32869Y-34220D01*
X32869Y-34500D01*
X32605Y-34764D01*
X32446Y-34764D01*
X32408Y-34780D01*
X32378Y-34810D01*
X32362Y-34849D01*
X32362Y-34890D01*
X32362Y-35284D01*
X32378Y-35323D01*
X32407Y-35352D01*
X32446Y-35368D01*
X32488Y-35369D01*
X32803Y-35369D01*
X32841Y-35353D01*
X32871Y-35323D01*
X32887Y-35284D01*
X32887Y-35243D01*
X32887Y-34991D01*
X33224Y-34655D01*
X33545Y-34655D01*
X33584Y-34639D01*
X33613Y-34609D01*
X33629Y-34570D01*
X33630Y-34529D01*
X33630Y-35679D01*
X33614Y-35640D01*
X33584Y-35611D01*
X33545Y-35595D01*
X33504Y-35594D01*
X33429Y-35594D01*
X33429Y-35466D01*
X33487Y-35408D01*
X33529Y-35305D01*
X33530Y-35194D01*
X33487Y-35091D01*
X33408Y-35012D01*
X33305Y-34970D01*
X33194Y-34969D01*
X33091Y-35012D01*
X33012Y-35091D01*
X32970Y-35194D01*
X32969Y-35305D01*
X33012Y-35408D01*
X33070Y-35466D01*
X33070Y-35594D01*
X32954Y-35594D01*
X32915Y-35610D01*
X32886Y-35640D01*
X32870Y-35679D01*
X32869Y-35720D01*
X32869Y-36070D01*
X32885Y-36109D01*
X32915Y-36138D01*
X32954Y-36154D01*
X32995Y-36155D01*
X33545Y-36155D01*
X33584Y-36139D01*
X33613Y-36109D01*
X33629Y-36070D01*
X33630Y-36029D01*
X33630Y-36429D01*
X33614Y-36390D01*
X33584Y-36361D01*
X33545Y-36345D01*
X33504Y-36344D01*
X32954Y-36344D01*
X32915Y-36360D01*
X32905Y-36371D01*
X32905Y-36204D01*
X32889Y-36165D01*
X32859Y-36136D01*
X32820Y-36120D01*
X32779Y-36119D01*
X32512Y-36119D01*
X32512Y-36109D01*
X32512Y-35715D01*
X32496Y-35676D01*
X32467Y-35647D01*
X32428Y-35631D01*
X32386Y-35630D01*
X32071Y-35630D01*
X32054Y-35637D01*
X32054Y-35368D01*
X32091Y-35353D01*
X32121Y-35323D01*
X32137Y-35284D01*
X32137Y-35243D01*
X32137Y-34849D01*
X32121Y-34810D01*
X32095Y-34784D01*
X32224Y-34655D01*
X32545Y-34655D01*
X32584Y-34639D01*
X32613Y-34609D01*
X32629Y-34570D01*
X32630Y-34529D01*
X32630Y-34179D01*
X32614Y-34140D01*
X32584Y-34111D01*
X32545Y-34095D01*
X32504Y-34094D01*
X31954Y-34094D01*
X31915Y-34110D01*
X31886Y-34140D01*
X31870Y-34179D01*
X31869Y-34220D01*
X31869Y-34500D01*
X31747Y-34622D01*
X31708Y-34681D01*
X31695Y-34750D01*
X31695Y-34765D01*
X31658Y-34780D01*
X31628Y-34810D01*
X31612Y-34849D01*
X31612Y-34890D01*
X31612Y-35284D01*
X31628Y-35323D01*
X31657Y-35352D01*
X31695Y-35368D01*
X31695Y-35800D01*
X31675Y-35820D01*
X31609Y-35820D01*
X31609Y-35585D01*
X31609Y-35034D01*
X31594Y-34999D01*
X31608Y-34965D01*
X31609Y-34923D01*
X31609Y-34372D01*
X31593Y-34334D01*
X31563Y-34304D01*
X31524Y-34288D01*
X31483Y-34288D01*
X30775Y-34288D01*
X30736Y-34304D01*
X30707Y-34333D01*
X30691Y-34372D01*
X30690Y-34414D01*
X30690Y-34965D01*
X30705Y-35000D01*
X30691Y-35034D01*
X30690Y-35076D01*
X30690Y-35627D01*
X30706Y-35665D01*
X30736Y-35695D01*
X30775Y-35711D01*
X30816Y-35711D01*
X31524Y-35711D01*
X31563Y-35695D01*
X31592Y-35666D01*
X31608Y-35627D01*
X31609Y-35585D01*
X31609Y-35820D01*
X31500Y-35820D01*
X31431Y-35833D01*
X31372Y-35872D01*
X31372Y-35872D01*
X31122Y-36122D01*
X31083Y-36181D01*
X31070Y-36250D01*
X31070Y-36288D01*
X30775Y-36288D01*
X30736Y-36304D01*
X30707Y-36333D01*
X30691Y-36372D01*
X30690Y-36414D01*
X30690Y-36489D01*
X30630Y-36489D01*
X30630Y-36429D01*
X30630Y-36029D01*
X30630Y-35679D01*
X30630Y-34529D01*
X30630Y-34179D01*
X30614Y-34140D01*
X30584Y-34111D01*
X30545Y-34095D01*
X30504Y-34094D01*
X29954Y-34094D01*
X29915Y-34110D01*
X29886Y-34140D01*
X29870Y-34179D01*
X29869Y-34220D01*
X29869Y-34500D01*
X29605Y-34764D01*
X29446Y-34764D01*
X29408Y-34780D01*
X29378Y-34810D01*
X29362Y-34849D01*
X29362Y-34890D01*
X29362Y-35284D01*
X29378Y-35323D01*
X29407Y-35352D01*
X29446Y-35368D01*
X29488Y-35369D01*
X29803Y-35369D01*
X29841Y-35353D01*
X29871Y-35323D01*
X29887Y-35284D01*
X29887Y-35243D01*
X29887Y-34991D01*
X30224Y-34655D01*
X30545Y-34655D01*
X30584Y-34639D01*
X30613Y-34609D01*
X30629Y-34570D01*
X30630Y-34529D01*
X30630Y-35679D01*
X30614Y-35640D01*
X30584Y-35611D01*
X30545Y-35595D01*
X30504Y-35594D01*
X30429Y-35594D01*
X30429Y-35466D01*
X30487Y-35408D01*
X30529Y-35305D01*
X30530Y-35194D01*
X30487Y-35091D01*
X30408Y-35012D01*
X30305Y-34970D01*
X30194Y-34969D01*
X30091Y-35012D01*
X30012Y-35091D01*
X29970Y-35194D01*
X29969Y-35305D01*
X30012Y-35408D01*
X30070Y-35466D01*
X30070Y-35594D01*
X29954Y-35594D01*
X29915Y-35610D01*
X29886Y-35640D01*
X29870Y-35679D01*
X29869Y-35720D01*
X29869Y-36070D01*
X29885Y-36109D01*
X29915Y-36138D01*
X29954Y-36154D01*
X29995Y-36155D01*
X30545Y-36155D01*
X30584Y-36139D01*
X30613Y-36109D01*
X30629Y-36070D01*
X30630Y-36029D01*
X30630Y-36429D01*
X30614Y-36390D01*
X30584Y-36361D01*
X30545Y-36345D01*
X30504Y-36344D01*
X29954Y-36344D01*
X29915Y-36360D01*
X29886Y-36390D01*
X29870Y-36429D01*
X29869Y-36470D01*
X29869Y-36820D01*
X29885Y-36859D01*
X29915Y-36888D01*
X29954Y-36904D01*
X29995Y-36905D01*
X30545Y-36905D01*
X30584Y-36889D01*
X30613Y-36859D01*
X30618Y-36848D01*
X30690Y-36848D01*
X30690Y-36965D01*
X30706Y-37003D01*
X30736Y-37033D01*
X30775Y-37049D01*
X30816Y-37049D01*
X31446Y-37049D01*
X31425Y-37070D01*
X31250Y-37070D01*
X30716Y-37070D01*
X30658Y-37012D01*
X30555Y-36970D01*
X30444Y-36969D01*
X30341Y-37012D01*
X30283Y-37070D01*
X30074Y-37070D01*
X29429Y-36425D01*
X29429Y-36234D01*
X29466Y-36219D01*
X29496Y-36189D01*
X29512Y-36150D01*
X29512Y-36109D01*
X29512Y-35715D01*
X29496Y-35676D01*
X29467Y-35647D01*
X29428Y-35631D01*
X29386Y-35630D01*
X29071Y-35630D01*
X29054Y-35637D01*
X29054Y-35368D01*
X29091Y-35353D01*
X29121Y-35323D01*
X29137Y-35284D01*
X29137Y-35243D01*
X29137Y-34849D01*
X29121Y-34810D01*
X29095Y-34784D01*
X29224Y-34655D01*
X29545Y-34655D01*
X29584Y-34639D01*
X29613Y-34609D01*
X29629Y-34570D01*
X29630Y-34529D01*
X29630Y-34179D01*
X29614Y-34140D01*
X29584Y-34111D01*
X29545Y-34095D01*
X29504Y-34094D01*
X28954Y-34094D01*
X28915Y-34110D01*
X28886Y-34140D01*
X28870Y-34179D01*
X28869Y-34220D01*
X28869Y-34500D01*
X28747Y-34622D01*
X28709Y-34680D01*
X28709Y-34372D01*
X28693Y-34334D01*
X28663Y-34304D01*
X28624Y-34288D01*
X28583Y-34288D01*
X27875Y-34288D01*
X27836Y-34304D01*
X27807Y-34333D01*
X27791Y-34372D01*
X27790Y-34414D01*
X27790Y-34965D01*
X27805Y-35000D01*
X27791Y-35034D01*
X27790Y-35076D01*
X27790Y-35627D01*
X27806Y-35665D01*
X27836Y-35695D01*
X27875Y-35711D01*
X27916Y-35711D01*
X28624Y-35711D01*
X28663Y-35695D01*
X28692Y-35666D01*
X28695Y-35660D01*
X28695Y-35800D01*
X28675Y-35820D01*
X28500Y-35820D01*
X28431Y-35833D01*
X28372Y-35872D01*
X28372Y-35872D01*
X28122Y-36122D01*
X28083Y-36181D01*
X28070Y-36250D01*
X28070Y-36288D01*
X27875Y-36288D01*
X27836Y-36304D01*
X27822Y-36318D01*
X27752Y-36247D01*
X27693Y-36208D01*
X27630Y-36196D01*
X27630Y-36179D01*
X27630Y-35779D01*
X27630Y-35429D01*
X27614Y-35390D01*
X27584Y-35361D01*
X27545Y-35345D01*
X27504Y-35344D01*
X27429Y-35344D01*
X27429Y-35234D01*
X27466Y-35219D01*
X27496Y-35189D01*
X27512Y-35150D01*
X27512Y-35109D01*
X27512Y-34715D01*
X27496Y-34676D01*
X27467Y-34647D01*
X27428Y-34631D01*
X27386Y-34630D01*
X27137Y-34630D01*
X27137Y-34243D01*
X27137Y-33849D01*
X27121Y-33810D01*
X27092Y-33781D01*
X27054Y-33765D01*
X27054Y-33750D01*
X27041Y-33681D01*
X27002Y-33622D01*
X27002Y-33622D01*
X26905Y-33525D01*
X26905Y-33104D01*
X26889Y-33065D01*
X26859Y-33036D01*
X26820Y-33020D01*
X26779Y-33019D01*
X26429Y-33019D01*
X26390Y-33035D01*
X26361Y-33065D01*
X26345Y-33104D01*
X26344Y-33145D01*
X26344Y-33695D01*
X26360Y-33734D01*
X26390Y-33763D01*
X26429Y-33779D01*
X26470Y-33780D01*
X26650Y-33780D01*
X26654Y-33784D01*
X26628Y-33810D01*
X26612Y-33849D01*
X26612Y-33890D01*
X26612Y-34284D01*
X26628Y-34323D01*
X26657Y-34352D01*
X26696Y-34368D01*
X26738Y-34369D01*
X27053Y-34369D01*
X27091Y-34353D01*
X27121Y-34323D01*
X27137Y-34284D01*
X27137Y-34243D01*
X27137Y-34630D01*
X27071Y-34630D01*
X27033Y-34646D01*
X27003Y-34676D01*
X26987Y-34715D01*
X26987Y-34756D01*
X26987Y-35150D01*
X27003Y-35189D01*
X27032Y-35218D01*
X27070Y-35234D01*
X27070Y-35344D01*
X26954Y-35344D01*
X26915Y-35360D01*
X26886Y-35390D01*
X26870Y-35429D01*
X26869Y-35470D01*
X26869Y-35820D01*
X26885Y-35859D01*
X26915Y-35888D01*
X26954Y-35904D01*
X26995Y-35905D01*
X27545Y-35905D01*
X27584Y-35889D01*
X27613Y-35859D01*
X27629Y-35820D01*
X27630Y-35779D01*
X27630Y-36179D01*
X27614Y-36140D01*
X27584Y-36111D01*
X27545Y-36095D01*
X27504Y-36094D01*
X26954Y-36094D01*
X26915Y-36110D01*
X26886Y-36140D01*
X26870Y-36179D01*
X26869Y-36220D01*
X26869Y-36570D01*
X26885Y-36609D01*
X26915Y-36638D01*
X26954Y-36654D01*
X26995Y-36655D01*
X27545Y-36655D01*
X27584Y-36639D01*
X27609Y-36613D01*
X27790Y-36795D01*
X27790Y-36965D01*
X27806Y-37003D01*
X27836Y-37033D01*
X27875Y-37049D01*
X27916Y-37049D01*
X28624Y-37049D01*
X28663Y-37033D01*
X28692Y-37004D01*
X28708Y-36965D01*
X28709Y-36923D01*
X28709Y-36372D01*
X28693Y-36334D01*
X28663Y-36304D01*
X28624Y-36288D01*
X28583Y-36288D01*
X28465Y-36288D01*
X28574Y-36179D01*
X28750Y-36179D01*
X28818Y-36166D01*
X28818Y-36166D01*
X28877Y-36127D01*
X28987Y-36016D01*
X28987Y-36150D01*
X29003Y-36189D01*
X29032Y-36218D01*
X29070Y-36234D01*
X29070Y-36500D01*
X29083Y-36568D01*
X29122Y-36627D01*
X29872Y-37377D01*
X29872Y-37377D01*
X29931Y-37416D01*
X29999Y-37429D01*
X29999Y-37429D01*
X30000Y-37429D01*
X30283Y-37429D01*
X30341Y-37487D01*
X30444Y-37529D01*
X30555Y-37530D01*
X30658Y-37487D01*
X30716Y-37429D01*
X31175Y-37429D01*
X31622Y-37877D01*
X31681Y-37916D01*
X31681Y-37916D01*
X31750Y-37929D01*
X32000Y-37929D01*
X32068Y-37916D01*
X32068Y-37916D01*
X32127Y-37877D01*
X32324Y-37679D01*
X33425Y-37679D01*
X33622Y-37877D01*
X33622Y-37877D01*
X33681Y-37916D01*
X33750Y-37929D01*
X34250Y-37929D01*
X34318Y-37916D01*
X34318Y-37916D01*
X34377Y-37877D01*
X34574Y-37679D01*
X35175Y-37679D01*
X35622Y-38127D01*
X35681Y-38166D01*
X35681Y-38166D01*
X35750Y-38179D01*
X36750Y-38179D01*
X36818Y-38166D01*
X36818Y-38166D01*
X36877Y-38127D01*
X37074Y-37929D01*
X40750Y-37929D01*
X40818Y-37916D01*
X40818Y-37916D01*
X40877Y-37877D01*
X42074Y-36679D01*
X42094Y-36679D01*
X42094Y-36820D01*
X42110Y-36859D01*
X42140Y-36888D01*
X42179Y-36904D01*
X42220Y-36905D01*
X42820Y-36905D01*
X42859Y-36889D01*
X42888Y-36859D01*
X42904Y-36820D01*
X42905Y-36779D01*
X42905Y-36179D01*
X42889Y-36140D01*
X42859Y-36111D01*
X42820Y-36095D01*
X42779Y-36094D01*
X42179Y-36094D01*
X42145Y-36109D01*
X42324Y-35929D01*
X42750Y-35929D01*
X42925Y-35929D01*
X43211Y-36215D01*
X43156Y-36270D01*
X43095Y-36419D01*
X43094Y-36580D01*
X43156Y-36729D01*
X43270Y-36843D01*
X43419Y-36904D01*
X43580Y-36905D01*
X43729Y-36843D01*
X43843Y-36729D01*
X43904Y-36580D01*
X43905Y-36419D01*
X43843Y-36270D01*
X43729Y-36156D01*
X43612Y-36108D01*
X43184Y-35679D01*
X43925Y-35679D01*
X44320Y-36074D01*
X44320Y-36136D01*
X44270Y-36156D01*
X44156Y-36270D01*
X44095Y-36419D01*
X44094Y-36580D01*
X44156Y-36729D01*
X44270Y-36843D01*
X44419Y-36904D01*
X44580Y-36905D01*
X44729Y-36843D01*
X44843Y-36729D01*
X44904Y-36580D01*
X44905Y-36419D01*
X44905Y-38471D01*
X21207Y-38471D01*
X21207Y-36260D01*
X21207Y-21260D01*
X21024Y-20816D01*
X20684Y-20476D01*
X20241Y-20292D01*
X19760Y-20292D01*
X19316Y-20475D01*
X18976Y-20815D01*
X18792Y-21258D01*
X18792Y-21739D01*
X18975Y-22183D01*
X19315Y-22523D01*
X19758Y-22707D01*
X20239Y-22707D01*
X20683Y-22524D01*
X21023Y-22184D01*
X21207Y-21741D01*
X21207Y-21260D01*
X21207Y-36260D01*
X21024Y-35816D01*
X20684Y-35476D01*
X20241Y-35292D01*
X19760Y-35292D01*
X19316Y-35475D01*
X18976Y-35815D01*
X18792Y-36258D01*
X18792Y-36739D01*
X18975Y-37183D01*
X19315Y-37523D01*
X19758Y-37707D01*
X20239Y-37707D01*
X20683Y-37524D01*
X21023Y-37184D01*
X21207Y-36741D01*
X21207Y-36260D01*
X21207Y-38471D01*
X18028Y-38471D01*
X18028Y-19528D01*
X56971Y-19528D01*
X56971Y-38471D01*
M02*
