G04 (created by PCBNEW (2013-07-07 BZR 4022)-stable) date 17.09.2014 22:00:27*
%MOIN*%
G04 Gerber Fmt 3.4, Leading zero omitted, Abs format*
%FSLAX34Y34*%
G01*
G70*
G90*
G04 APERTURE LIST*
%ADD10C,0.00590551*%
%ADD11C,0.011811*%
%ADD12C,0.015*%
%ADD13C,0.0031*%
%ADD14C,0.0039*%
%ADD15C,0.008*%
%ADD16C,0.006*%
%ADD17C,0.0026*%
%ADD18C,0.012*%
%ADD19C,0.004*%
%ADD20C,0.005*%
%ADD21C,0.01125*%
%ADD22C,0.0047*%
%ADD23C,0.0043*%
%ADD24C,0.0035*%
%ADD25C,0.0015315*%
%ADD26C,0.01*%
G04 APERTURE END LIST*
G54D10*
X49345Y-24007D02*
X49585Y-24007D01*
X49465Y-24127D02*
X49465Y-23887D01*
X49884Y-23812D02*
X49735Y-23812D01*
X49720Y-23962D01*
X49735Y-23947D01*
X49764Y-23932D01*
X49839Y-23932D01*
X49869Y-23947D01*
X49884Y-23962D01*
X49899Y-23992D01*
X49899Y-24067D01*
X49884Y-24097D01*
X49869Y-24112D01*
X49839Y-24127D01*
X49764Y-24127D01*
X49735Y-24112D01*
X49720Y-24097D01*
X49989Y-23812D02*
X50094Y-24127D01*
X50199Y-23812D01*
X48877Y-22244D02*
X48562Y-22244D01*
X48787Y-22139D01*
X48562Y-22034D01*
X48877Y-22034D01*
X48877Y-21884D02*
X48562Y-21884D01*
X48862Y-21750D02*
X48877Y-21705D01*
X48877Y-21630D01*
X48862Y-21600D01*
X48847Y-21585D01*
X48817Y-21570D01*
X48787Y-21570D01*
X48757Y-21585D01*
X48742Y-21600D01*
X48727Y-21630D01*
X48712Y-21690D01*
X48697Y-21720D01*
X48682Y-21735D01*
X48652Y-21750D01*
X48622Y-21750D01*
X48592Y-21735D01*
X48577Y-21720D01*
X48562Y-21690D01*
X48562Y-21615D01*
X48577Y-21570D01*
X48562Y-21375D02*
X48562Y-21315D01*
X48577Y-21285D01*
X48607Y-21255D01*
X48667Y-21240D01*
X48772Y-21240D01*
X48832Y-21255D01*
X48862Y-21285D01*
X48877Y-21315D01*
X48877Y-21375D01*
X48862Y-21405D01*
X48832Y-21435D01*
X48772Y-21450D01*
X48667Y-21450D01*
X48607Y-21435D01*
X48577Y-21405D01*
X48562Y-21375D01*
X47862Y-22404D02*
X47877Y-22359D01*
X47877Y-22284D01*
X47862Y-22254D01*
X47847Y-22239D01*
X47817Y-22224D01*
X47787Y-22224D01*
X47757Y-22239D01*
X47742Y-22254D01*
X47727Y-22284D01*
X47712Y-22344D01*
X47697Y-22374D01*
X47682Y-22389D01*
X47652Y-22404D01*
X47622Y-22404D01*
X47592Y-22389D01*
X47577Y-22374D01*
X47562Y-22344D01*
X47562Y-22269D01*
X47577Y-22224D01*
X47847Y-21910D02*
X47862Y-21925D01*
X47877Y-21970D01*
X47877Y-21999D01*
X47862Y-22044D01*
X47832Y-22074D01*
X47802Y-22089D01*
X47742Y-22104D01*
X47697Y-22104D01*
X47637Y-22089D01*
X47607Y-22074D01*
X47577Y-22044D01*
X47562Y-21999D01*
X47562Y-21970D01*
X47577Y-21925D01*
X47592Y-21910D01*
X47877Y-21775D02*
X47562Y-21775D01*
X47877Y-21595D02*
X47697Y-21730D01*
X47562Y-21595D02*
X47742Y-21775D01*
X46877Y-21902D02*
X46727Y-22007D01*
X46877Y-22082D02*
X46562Y-22082D01*
X46562Y-21962D01*
X46577Y-21932D01*
X46592Y-21917D01*
X46622Y-21902D01*
X46667Y-21902D01*
X46697Y-21917D01*
X46712Y-21932D01*
X46727Y-21962D01*
X46727Y-22082D01*
X46577Y-25489D02*
X46562Y-25519D01*
X46562Y-25564D01*
X46577Y-25609D01*
X46607Y-25639D01*
X46637Y-25654D01*
X46697Y-25669D01*
X46742Y-25669D01*
X46802Y-25654D01*
X46832Y-25639D01*
X46862Y-25609D01*
X46877Y-25564D01*
X46877Y-25534D01*
X46862Y-25489D01*
X46847Y-25474D01*
X46742Y-25474D01*
X46742Y-25534D01*
X46877Y-25339D02*
X46562Y-25339D01*
X46877Y-25160D01*
X46562Y-25160D01*
X46877Y-25010D02*
X46562Y-25010D01*
X46562Y-24935D01*
X46577Y-24890D01*
X46607Y-24860D01*
X46637Y-24845D01*
X46697Y-24830D01*
X46742Y-24830D01*
X46802Y-24845D01*
X46832Y-24860D01*
X46862Y-24890D01*
X46877Y-24935D01*
X46877Y-25010D01*
X47377Y-25744D02*
X47062Y-25744D01*
X47287Y-25639D01*
X47062Y-25534D01*
X47377Y-25534D01*
X47062Y-25324D02*
X47062Y-25264D01*
X47077Y-25235D01*
X47107Y-25205D01*
X47167Y-25190D01*
X47272Y-25190D01*
X47332Y-25205D01*
X47362Y-25235D01*
X47377Y-25264D01*
X47377Y-25324D01*
X47362Y-25354D01*
X47332Y-25384D01*
X47272Y-25399D01*
X47167Y-25399D01*
X47107Y-25384D01*
X47077Y-25354D01*
X47062Y-25324D01*
X47362Y-25070D02*
X47377Y-25025D01*
X47377Y-24950D01*
X47362Y-24920D01*
X47347Y-24905D01*
X47317Y-24890D01*
X47287Y-24890D01*
X47257Y-24905D01*
X47242Y-24920D01*
X47227Y-24950D01*
X47212Y-25010D01*
X47197Y-25040D01*
X47182Y-25055D01*
X47152Y-25070D01*
X47122Y-25070D01*
X47092Y-25055D01*
X47077Y-25040D01*
X47062Y-25010D01*
X47062Y-24935D01*
X47077Y-24890D01*
X47377Y-24755D02*
X47062Y-24755D01*
G54D11*
X45548Y-36964D02*
X45520Y-36935D01*
X45464Y-36851D01*
X45436Y-36795D01*
X45408Y-36710D01*
X45380Y-36570D01*
X45380Y-36457D01*
X45408Y-36317D01*
X45436Y-36232D01*
X45464Y-36176D01*
X45520Y-36092D01*
X45548Y-36064D01*
X46111Y-36682D02*
X46083Y-36710D01*
X45998Y-36739D01*
X45942Y-36739D01*
X45858Y-36710D01*
X45802Y-36654D01*
X45773Y-36598D01*
X45745Y-36485D01*
X45745Y-36401D01*
X45773Y-36289D01*
X45802Y-36232D01*
X45858Y-36176D01*
X45942Y-36148D01*
X45998Y-36148D01*
X46083Y-36176D01*
X46111Y-36204D01*
X46308Y-36964D02*
X46336Y-36935D01*
X46392Y-36851D01*
X46420Y-36795D01*
X46448Y-36710D01*
X46476Y-36570D01*
X46476Y-36457D01*
X46448Y-36317D01*
X46420Y-36232D01*
X46392Y-36176D01*
X46336Y-36092D01*
X46308Y-36064D01*
X47179Y-36710D02*
X47264Y-36739D01*
X47404Y-36739D01*
X47461Y-36710D01*
X47489Y-36682D01*
X47517Y-36626D01*
X47517Y-36570D01*
X47489Y-36514D01*
X47461Y-36485D01*
X47404Y-36457D01*
X47292Y-36429D01*
X47236Y-36401D01*
X47208Y-36373D01*
X47179Y-36317D01*
X47179Y-36260D01*
X47208Y-36204D01*
X47236Y-36176D01*
X47292Y-36148D01*
X47433Y-36148D01*
X47517Y-36176D01*
X47686Y-36345D02*
X47911Y-36345D01*
X47770Y-36148D02*
X47770Y-36654D01*
X47798Y-36710D01*
X47854Y-36739D01*
X47911Y-36739D01*
X48332Y-36710D02*
X48276Y-36739D01*
X48164Y-36739D01*
X48107Y-36710D01*
X48079Y-36654D01*
X48079Y-36429D01*
X48107Y-36373D01*
X48164Y-36345D01*
X48276Y-36345D01*
X48332Y-36373D01*
X48361Y-36429D01*
X48361Y-36485D01*
X48079Y-36542D01*
X48529Y-36345D02*
X48754Y-36345D01*
X48614Y-36739D02*
X48614Y-36232D01*
X48642Y-36176D01*
X48698Y-36148D01*
X48754Y-36148D01*
X49204Y-36739D02*
X49204Y-36429D01*
X49176Y-36373D01*
X49120Y-36345D01*
X49007Y-36345D01*
X48951Y-36373D01*
X49204Y-36710D02*
X49148Y-36739D01*
X49007Y-36739D01*
X48951Y-36710D01*
X48923Y-36654D01*
X48923Y-36598D01*
X48951Y-36542D01*
X49007Y-36514D01*
X49148Y-36514D01*
X49204Y-36485D01*
X49485Y-36345D02*
X49485Y-36739D01*
X49485Y-36401D02*
X49514Y-36373D01*
X49570Y-36345D01*
X49654Y-36345D01*
X49710Y-36373D01*
X49739Y-36429D01*
X49739Y-36739D01*
X50470Y-36739D02*
X50470Y-36148D01*
X50470Y-36429D02*
X50807Y-36429D01*
X50807Y-36739D02*
X50807Y-36148D01*
X51313Y-36710D02*
X51257Y-36739D01*
X51145Y-36739D01*
X51088Y-36710D01*
X51060Y-36654D01*
X51060Y-36429D01*
X51088Y-36373D01*
X51145Y-36345D01*
X51257Y-36345D01*
X51313Y-36373D01*
X51341Y-36429D01*
X51341Y-36485D01*
X51060Y-36542D01*
X51679Y-36739D02*
X51623Y-36710D01*
X51595Y-36654D01*
X51595Y-36148D01*
X51904Y-36739D02*
X51904Y-36345D01*
X51904Y-36401D02*
X51932Y-36373D01*
X51988Y-36345D01*
X52073Y-36345D01*
X52129Y-36373D01*
X52157Y-36429D01*
X52157Y-36739D01*
X52157Y-36429D02*
X52185Y-36373D01*
X52241Y-36345D01*
X52326Y-36345D01*
X52382Y-36373D01*
X52410Y-36429D01*
X52410Y-36739D01*
X52916Y-36710D02*
X52860Y-36739D01*
X52748Y-36739D01*
X52691Y-36710D01*
X52663Y-36654D01*
X52663Y-36429D01*
X52691Y-36373D01*
X52748Y-36345D01*
X52860Y-36345D01*
X52916Y-36373D01*
X52944Y-36429D01*
X52944Y-36485D01*
X52663Y-36542D01*
X53197Y-36739D02*
X53197Y-36345D01*
X53197Y-36457D02*
X53226Y-36401D01*
X53254Y-36373D01*
X53310Y-36345D01*
X53366Y-36345D01*
X53479Y-36345D02*
X53704Y-36345D01*
X53563Y-36148D02*
X53563Y-36654D01*
X53591Y-36710D01*
X53647Y-36739D01*
X53704Y-36739D01*
X47615Y-37655D02*
X47559Y-37683D01*
X47447Y-37683D01*
X47390Y-37655D01*
X47362Y-37599D01*
X47362Y-37374D01*
X47390Y-37318D01*
X47447Y-37290D01*
X47559Y-37290D01*
X47615Y-37318D01*
X47643Y-37374D01*
X47643Y-37430D01*
X47362Y-37487D01*
X47897Y-37290D02*
X47897Y-37683D01*
X47897Y-37346D02*
X47925Y-37318D01*
X47981Y-37290D01*
X48065Y-37290D01*
X48122Y-37318D01*
X48150Y-37374D01*
X48150Y-37683D01*
X48347Y-37290D02*
X48571Y-37290D01*
X48431Y-37093D02*
X48431Y-37599D01*
X48459Y-37655D01*
X48515Y-37683D01*
X48571Y-37683D01*
X48768Y-37683D02*
X48768Y-37290D01*
X48768Y-37402D02*
X48796Y-37346D01*
X48825Y-37318D01*
X48881Y-37290D01*
X48937Y-37290D01*
X49218Y-37683D02*
X49162Y-37655D01*
X49134Y-37627D01*
X49106Y-37571D01*
X49106Y-37402D01*
X49134Y-37346D01*
X49162Y-37318D01*
X49218Y-37290D01*
X49303Y-37290D01*
X49359Y-37318D01*
X49387Y-37346D01*
X49415Y-37402D01*
X49415Y-37571D01*
X49387Y-37627D01*
X49359Y-37655D01*
X49303Y-37683D01*
X49218Y-37683D01*
X49640Y-37655D02*
X49696Y-37683D01*
X49809Y-37683D01*
X49865Y-37655D01*
X49893Y-37599D01*
X49893Y-37571D01*
X49865Y-37515D01*
X49809Y-37487D01*
X49724Y-37487D01*
X49668Y-37458D01*
X49640Y-37402D01*
X49640Y-37374D01*
X49668Y-37318D01*
X49724Y-37290D01*
X49809Y-37290D01*
X49865Y-37318D01*
X50371Y-37655D02*
X50315Y-37683D01*
X50203Y-37683D01*
X50146Y-37655D01*
X50118Y-37599D01*
X50118Y-37374D01*
X50146Y-37318D01*
X50203Y-37290D01*
X50315Y-37290D01*
X50371Y-37318D01*
X50399Y-37374D01*
X50399Y-37430D01*
X50118Y-37487D01*
X50652Y-37683D02*
X50652Y-37290D01*
X50652Y-37402D02*
X50681Y-37346D01*
X50709Y-37318D01*
X50765Y-37290D01*
X50821Y-37290D01*
X50962Y-37290D02*
X51102Y-37683D01*
X51243Y-37290D01*
X51468Y-37627D02*
X51496Y-37655D01*
X51468Y-37683D01*
X51440Y-37655D01*
X51468Y-37627D01*
X51468Y-37683D01*
X52002Y-37683D02*
X52002Y-37093D01*
X52002Y-37655D02*
X51946Y-37683D01*
X51834Y-37683D01*
X51777Y-37655D01*
X51749Y-37627D01*
X51721Y-37571D01*
X51721Y-37402D01*
X51749Y-37346D01*
X51777Y-37318D01*
X51834Y-37290D01*
X51946Y-37290D01*
X52002Y-37318D01*
X52508Y-37655D02*
X52452Y-37683D01*
X52340Y-37683D01*
X52284Y-37655D01*
X52255Y-37599D01*
X52255Y-37374D01*
X52284Y-37318D01*
X52340Y-37290D01*
X52452Y-37290D01*
X52508Y-37318D01*
X52537Y-37374D01*
X52537Y-37430D01*
X52255Y-37487D01*
X41260Y-19898D02*
X41597Y-19898D01*
X41428Y-20489D02*
X41428Y-19898D01*
X42019Y-20460D02*
X41963Y-20489D01*
X41850Y-20489D01*
X41794Y-20460D01*
X41766Y-20404D01*
X41766Y-20179D01*
X41794Y-20123D01*
X41850Y-20095D01*
X41963Y-20095D01*
X42019Y-20123D01*
X42047Y-20179D01*
X42047Y-20235D01*
X41766Y-20292D01*
X42272Y-20460D02*
X42328Y-20489D01*
X42441Y-20489D01*
X42497Y-20460D01*
X42525Y-20404D01*
X42525Y-20376D01*
X42497Y-20320D01*
X42441Y-20292D01*
X42356Y-20292D01*
X42300Y-20264D01*
X42272Y-20207D01*
X42272Y-20179D01*
X42300Y-20123D01*
X42356Y-20095D01*
X42441Y-20095D01*
X42497Y-20123D01*
X42694Y-20095D02*
X42919Y-20095D01*
X42778Y-19898D02*
X42778Y-20404D01*
X42806Y-20460D01*
X42863Y-20489D01*
X42919Y-20489D01*
X43116Y-20489D02*
X43116Y-19898D01*
X43116Y-20123D02*
X43172Y-20095D01*
X43284Y-20095D01*
X43341Y-20123D01*
X43369Y-20151D01*
X43397Y-20207D01*
X43397Y-20376D01*
X43369Y-20432D01*
X43341Y-20460D01*
X43284Y-20489D01*
X43172Y-20489D01*
X43116Y-20460D01*
X43734Y-20489D02*
X43678Y-20460D01*
X43650Y-20432D01*
X43622Y-20376D01*
X43622Y-20207D01*
X43650Y-20151D01*
X43678Y-20123D01*
X43734Y-20095D01*
X43819Y-20095D01*
X43875Y-20123D01*
X43903Y-20151D01*
X43931Y-20207D01*
X43931Y-20376D01*
X43903Y-20432D01*
X43875Y-20460D01*
X43819Y-20489D01*
X43734Y-20489D01*
X44437Y-20489D02*
X44437Y-20179D01*
X44409Y-20123D01*
X44353Y-20095D01*
X44241Y-20095D01*
X44184Y-20123D01*
X44437Y-20460D02*
X44381Y-20489D01*
X44241Y-20489D01*
X44184Y-20460D01*
X44156Y-20404D01*
X44156Y-20348D01*
X44184Y-20292D01*
X44241Y-20264D01*
X44381Y-20264D01*
X44437Y-20235D01*
X44719Y-20489D02*
X44719Y-20095D01*
X44719Y-20207D02*
X44747Y-20151D01*
X44775Y-20123D01*
X44831Y-20095D01*
X44887Y-20095D01*
X45337Y-20489D02*
X45337Y-19898D01*
X45337Y-20460D02*
X45281Y-20489D01*
X45169Y-20489D01*
X45112Y-20460D01*
X45084Y-20432D01*
X45056Y-20376D01*
X45056Y-20207D01*
X45084Y-20151D01*
X45112Y-20123D01*
X45169Y-20095D01*
X45281Y-20095D01*
X45337Y-20123D01*
X45984Y-20095D02*
X46209Y-20095D01*
X46068Y-20489D02*
X46068Y-19982D01*
X46097Y-19926D01*
X46153Y-19898D01*
X46209Y-19898D01*
X46490Y-20489D02*
X46434Y-20460D01*
X46406Y-20432D01*
X46378Y-20376D01*
X46378Y-20207D01*
X46406Y-20151D01*
X46434Y-20123D01*
X46490Y-20095D01*
X46575Y-20095D01*
X46631Y-20123D01*
X46659Y-20151D01*
X46687Y-20207D01*
X46687Y-20376D01*
X46659Y-20432D01*
X46631Y-20460D01*
X46575Y-20489D01*
X46490Y-20489D01*
X46940Y-20489D02*
X46940Y-20095D01*
X46940Y-20207D02*
X46968Y-20151D01*
X46996Y-20123D01*
X47053Y-20095D01*
X47109Y-20095D01*
X48037Y-20489D02*
X47756Y-20489D01*
X47756Y-19898D01*
X48149Y-19898D02*
X48487Y-19898D01*
X48318Y-20489D02*
X48318Y-19898D01*
X48627Y-19898D02*
X48993Y-19898D01*
X48796Y-20123D01*
X48881Y-20123D01*
X48937Y-20151D01*
X48965Y-20179D01*
X48993Y-20235D01*
X48993Y-20376D01*
X48965Y-20432D01*
X48937Y-20460D01*
X48881Y-20489D01*
X48712Y-20489D01*
X48656Y-20460D01*
X48627Y-20432D01*
X49359Y-19898D02*
X49415Y-19898D01*
X49471Y-19926D01*
X49499Y-19954D01*
X49527Y-20010D01*
X49555Y-20123D01*
X49555Y-20264D01*
X49527Y-20376D01*
X49499Y-20432D01*
X49471Y-20460D01*
X49415Y-20489D01*
X49359Y-20489D01*
X49302Y-20460D01*
X49274Y-20432D01*
X49246Y-20376D01*
X49218Y-20264D01*
X49218Y-20123D01*
X49246Y-20010D01*
X49274Y-19954D01*
X49302Y-19926D01*
X49359Y-19898D01*
X50062Y-19898D02*
X49949Y-19898D01*
X49893Y-19926D01*
X49865Y-19954D01*
X49809Y-20039D01*
X49780Y-20151D01*
X49780Y-20376D01*
X49809Y-20432D01*
X49837Y-20460D01*
X49893Y-20489D01*
X50005Y-20489D01*
X50062Y-20460D01*
X50090Y-20432D01*
X50118Y-20376D01*
X50118Y-20235D01*
X50090Y-20179D01*
X50062Y-20151D01*
X50005Y-20123D01*
X49893Y-20123D01*
X49837Y-20151D01*
X49809Y-20179D01*
X49780Y-20235D01*
X50483Y-19898D02*
X50540Y-19898D01*
X50596Y-19926D01*
X50624Y-19954D01*
X50652Y-20010D01*
X50680Y-20123D01*
X50680Y-20264D01*
X50652Y-20376D01*
X50624Y-20432D01*
X50596Y-20460D01*
X50540Y-20489D01*
X50483Y-20489D01*
X50427Y-20460D01*
X50399Y-20432D01*
X50371Y-20376D01*
X50343Y-20264D01*
X50343Y-20123D01*
X50371Y-20010D01*
X50399Y-19954D01*
X50427Y-19926D01*
X50483Y-19898D01*
X50933Y-20489D02*
X50933Y-19898D01*
X50933Y-20123D02*
X50990Y-20095D01*
X51102Y-20095D01*
X51158Y-20123D01*
X51187Y-20151D01*
X51215Y-20207D01*
X51215Y-20376D01*
X51187Y-20432D01*
X51158Y-20460D01*
X51102Y-20489D01*
X50990Y-20489D01*
X50933Y-20460D01*
X51552Y-20489D02*
X51496Y-20460D01*
X51468Y-20432D01*
X51440Y-20376D01*
X51440Y-20207D01*
X51468Y-20151D01*
X51496Y-20123D01*
X51552Y-20095D01*
X51636Y-20095D01*
X51693Y-20123D01*
X51721Y-20151D01*
X51749Y-20207D01*
X51749Y-20376D01*
X51721Y-20432D01*
X51693Y-20460D01*
X51636Y-20489D01*
X51552Y-20489D01*
X52255Y-20489D02*
X52255Y-20179D01*
X52227Y-20123D01*
X52171Y-20095D01*
X52058Y-20095D01*
X52002Y-20123D01*
X52255Y-20460D02*
X52199Y-20489D01*
X52058Y-20489D01*
X52002Y-20460D01*
X51974Y-20404D01*
X51974Y-20348D01*
X52002Y-20292D01*
X52058Y-20264D01*
X52199Y-20264D01*
X52255Y-20235D01*
X52536Y-20489D02*
X52536Y-20095D01*
X52536Y-20207D02*
X52564Y-20151D01*
X52593Y-20123D01*
X52649Y-20095D01*
X52705Y-20095D01*
X53155Y-20489D02*
X53155Y-19898D01*
X53155Y-20460D02*
X53099Y-20489D01*
X52986Y-20489D01*
X52930Y-20460D01*
X52902Y-20432D01*
X52874Y-20376D01*
X52874Y-20207D01*
X52902Y-20151D01*
X52930Y-20123D01*
X52986Y-20095D01*
X53099Y-20095D01*
X53155Y-20123D01*
X28014Y-21509D02*
X28014Y-21059D01*
X28239Y-21284D02*
X27789Y-21284D01*
X27648Y-20496D02*
X27648Y-20778D01*
X27929Y-20806D01*
X27901Y-20778D01*
X27873Y-20721D01*
X27873Y-20581D01*
X27901Y-20525D01*
X27929Y-20496D01*
X27985Y-20468D01*
X28126Y-20468D01*
X28182Y-20496D01*
X28210Y-20525D01*
X28239Y-20581D01*
X28239Y-20721D01*
X28210Y-20778D01*
X28182Y-20806D01*
X27648Y-20300D02*
X28239Y-20103D01*
X27648Y-19906D01*
X25676Y-21199D02*
X25648Y-21256D01*
X25648Y-21340D01*
X25676Y-21424D01*
X25732Y-21481D01*
X25789Y-21509D01*
X25901Y-21537D01*
X25985Y-21537D01*
X26098Y-21509D01*
X26154Y-21481D01*
X26210Y-21424D01*
X26239Y-21340D01*
X26239Y-21284D01*
X26210Y-21199D01*
X26182Y-21171D01*
X25985Y-21171D01*
X25985Y-21284D01*
X26239Y-20918D02*
X25648Y-20918D01*
X26239Y-20581D01*
X25648Y-20581D01*
X26239Y-20300D02*
X25648Y-20300D01*
X25648Y-20159D01*
X25676Y-20075D01*
X25732Y-20018D01*
X25789Y-19990D01*
X25901Y-19962D01*
X25985Y-19962D01*
X26098Y-19990D01*
X26154Y-20018D01*
X26210Y-20075D01*
X26239Y-20159D01*
X26239Y-20300D01*
X26648Y-21449D02*
X26648Y-21112D01*
X27239Y-21281D02*
X26648Y-21281D01*
X26648Y-20971D02*
X27239Y-20578D01*
X26648Y-20578D02*
X27239Y-20971D01*
X44443Y-37248D02*
X44556Y-37248D01*
X44612Y-37276D01*
X44668Y-37332D01*
X44696Y-37445D01*
X44696Y-37642D01*
X44668Y-37754D01*
X44612Y-37810D01*
X44556Y-37839D01*
X44443Y-37839D01*
X44387Y-37810D01*
X44331Y-37754D01*
X44303Y-37642D01*
X44303Y-37445D01*
X44331Y-37332D01*
X44387Y-37276D01*
X44443Y-37248D01*
X43668Y-37801D02*
X43331Y-37801D01*
X43499Y-37210D02*
X43499Y-37801D01*
X42450Y-37789D02*
X42450Y-37198D01*
X44161Y-34739D02*
X44161Y-34148D01*
X44301Y-34148D01*
X44385Y-34176D01*
X44442Y-34232D01*
X44470Y-34289D01*
X44498Y-34401D01*
X44498Y-34485D01*
X44470Y-34598D01*
X44442Y-34654D01*
X44385Y-34710D01*
X44301Y-34739D01*
X44161Y-34739D01*
X44751Y-34148D02*
X44751Y-34626D01*
X44779Y-34682D01*
X44807Y-34710D01*
X44864Y-34739D01*
X44976Y-34739D01*
X45032Y-34710D01*
X45060Y-34682D01*
X45089Y-34626D01*
X45089Y-34148D01*
X45285Y-34148D02*
X45623Y-34148D01*
X45454Y-34739D02*
X45454Y-34148D01*
X42431Y-35683D02*
X42150Y-35683D01*
X42150Y-35093D01*
X42544Y-35093D02*
X42881Y-35093D01*
X42712Y-35683D02*
X42712Y-35093D01*
X43022Y-35093D02*
X43387Y-35093D01*
X43190Y-35318D01*
X43275Y-35318D01*
X43331Y-35346D01*
X43359Y-35374D01*
X43387Y-35430D01*
X43387Y-35571D01*
X43359Y-35627D01*
X43331Y-35655D01*
X43275Y-35683D01*
X43106Y-35683D01*
X43050Y-35655D01*
X43022Y-35627D01*
X43753Y-35093D02*
X43809Y-35093D01*
X43865Y-35121D01*
X43893Y-35149D01*
X43921Y-35205D01*
X43950Y-35318D01*
X43950Y-35458D01*
X43921Y-35571D01*
X43893Y-35627D01*
X43865Y-35655D01*
X43809Y-35683D01*
X43753Y-35683D01*
X43697Y-35655D01*
X43668Y-35627D01*
X43640Y-35571D01*
X43612Y-35458D01*
X43612Y-35318D01*
X43640Y-35205D01*
X43668Y-35149D01*
X43697Y-35121D01*
X43753Y-35093D01*
X44456Y-35093D02*
X44343Y-35093D01*
X44287Y-35121D01*
X44259Y-35149D01*
X44203Y-35233D01*
X44175Y-35346D01*
X44175Y-35571D01*
X44203Y-35627D01*
X44231Y-35655D01*
X44287Y-35683D01*
X44400Y-35683D01*
X44456Y-35655D01*
X44484Y-35627D01*
X44512Y-35571D01*
X44512Y-35430D01*
X44484Y-35374D01*
X44456Y-35346D01*
X44400Y-35318D01*
X44287Y-35318D01*
X44231Y-35346D01*
X44203Y-35374D01*
X44175Y-35430D01*
X44878Y-35093D02*
X44934Y-35093D01*
X44990Y-35121D01*
X45018Y-35149D01*
X45046Y-35205D01*
X45074Y-35318D01*
X45074Y-35458D01*
X45046Y-35571D01*
X45018Y-35627D01*
X44990Y-35655D01*
X44934Y-35683D01*
X44878Y-35683D01*
X44821Y-35655D01*
X44793Y-35627D01*
X44765Y-35571D01*
X44737Y-35458D01*
X44737Y-35318D01*
X44765Y-35205D01*
X44793Y-35149D01*
X44821Y-35121D01*
X44878Y-35093D01*
X45328Y-35683D02*
X45328Y-35093D01*
X45328Y-35318D02*
X45384Y-35290D01*
X45496Y-35290D01*
X45553Y-35318D01*
X45581Y-35346D01*
X45609Y-35402D01*
X45609Y-35571D01*
X45581Y-35627D01*
X45553Y-35655D01*
X45496Y-35683D01*
X45384Y-35683D01*
X45328Y-35655D01*
X45946Y-35683D02*
X45890Y-35655D01*
X45862Y-35627D01*
X45834Y-35571D01*
X45834Y-35402D01*
X45862Y-35346D01*
X45890Y-35318D01*
X45946Y-35290D01*
X46031Y-35290D01*
X46087Y-35318D01*
X46115Y-35346D01*
X46143Y-35402D01*
X46143Y-35571D01*
X46115Y-35627D01*
X46087Y-35655D01*
X46031Y-35683D01*
X45946Y-35683D01*
X46649Y-35683D02*
X46649Y-35374D01*
X46621Y-35318D01*
X46565Y-35290D01*
X46452Y-35290D01*
X46396Y-35318D01*
X46649Y-35655D02*
X46593Y-35683D01*
X46452Y-35683D01*
X46396Y-35655D01*
X46368Y-35599D01*
X46368Y-35543D01*
X46396Y-35487D01*
X46452Y-35458D01*
X46593Y-35458D01*
X46649Y-35430D01*
X46930Y-35683D02*
X46930Y-35290D01*
X46930Y-35402D02*
X46959Y-35346D01*
X46987Y-35318D01*
X47043Y-35290D01*
X47099Y-35290D01*
X47549Y-35683D02*
X47549Y-35093D01*
X47549Y-35655D02*
X47493Y-35683D01*
X47380Y-35683D01*
X47324Y-35655D01*
X47296Y-35627D01*
X47268Y-35571D01*
X47268Y-35402D01*
X47296Y-35346D01*
X47324Y-35318D01*
X47380Y-35290D01*
X47493Y-35290D01*
X47549Y-35318D01*
X52654Y-31787D02*
X52626Y-31759D01*
X52598Y-31703D01*
X52598Y-31562D01*
X52626Y-31506D01*
X52654Y-31478D01*
X52710Y-31450D01*
X52767Y-31450D01*
X52851Y-31478D01*
X53189Y-31815D01*
X53189Y-31450D01*
X53189Y-30915D02*
X53189Y-31196D01*
X52598Y-31196D01*
X51204Y-31787D02*
X51176Y-31759D01*
X51148Y-31703D01*
X51148Y-31562D01*
X51176Y-31506D01*
X51204Y-31478D01*
X51260Y-31450D01*
X51317Y-31450D01*
X51401Y-31478D01*
X51739Y-31815D01*
X51739Y-31450D01*
X51739Y-31196D02*
X51148Y-31196D01*
X51429Y-31196D02*
X51429Y-30859D01*
X51739Y-30859D02*
X51148Y-30859D01*
X49979Y-31759D02*
X49979Y-31562D01*
X50289Y-31478D02*
X50289Y-31759D01*
X49698Y-31759D01*
X49698Y-31478D01*
X50289Y-30887D02*
X50007Y-31084D01*
X50289Y-31225D02*
X49698Y-31225D01*
X49698Y-31000D01*
X49726Y-30943D01*
X49754Y-30915D01*
X49810Y-30887D01*
X49895Y-30887D01*
X49951Y-30915D01*
X49979Y-30943D01*
X50007Y-31000D01*
X50007Y-31225D01*
X50289Y-30297D02*
X50007Y-30493D01*
X50289Y-30634D02*
X49698Y-30634D01*
X49698Y-30409D01*
X49726Y-30353D01*
X49754Y-30325D01*
X49810Y-30297D01*
X49895Y-30297D01*
X49951Y-30325D01*
X49979Y-30353D01*
X50007Y-30409D01*
X50007Y-30634D01*
X48248Y-31596D02*
X48248Y-31484D01*
X48276Y-31428D01*
X48332Y-31371D01*
X48445Y-31343D01*
X48642Y-31343D01*
X48754Y-31371D01*
X48810Y-31428D01*
X48839Y-31484D01*
X48839Y-31596D01*
X48810Y-31653D01*
X48754Y-31709D01*
X48642Y-31737D01*
X48445Y-31737D01*
X48332Y-31709D01*
X48276Y-31653D01*
X48248Y-31596D01*
X48839Y-31090D02*
X48248Y-31090D01*
X48839Y-30753D02*
X48501Y-31006D01*
X48248Y-30753D02*
X48585Y-31090D01*
G54D10*
X49862Y-28915D02*
X49862Y-28855D01*
X49877Y-28825D01*
X49907Y-28795D01*
X49967Y-28780D01*
X50072Y-28780D01*
X50132Y-28795D01*
X50162Y-28825D01*
X50177Y-28855D01*
X50177Y-28915D01*
X50162Y-28945D01*
X50132Y-28975D01*
X50072Y-28990D01*
X49967Y-28990D01*
X49907Y-28975D01*
X49877Y-28945D01*
X49862Y-28915D01*
X49862Y-28645D02*
X50117Y-28645D01*
X50147Y-28630D01*
X50162Y-28615D01*
X50177Y-28585D01*
X50177Y-28525D01*
X50162Y-28495D01*
X50147Y-28480D01*
X50117Y-28465D01*
X49862Y-28465D01*
X49862Y-28360D02*
X49862Y-28180D01*
X50177Y-28270D02*
X49862Y-28270D01*
X48127Y-28925D02*
X47812Y-28925D01*
X48127Y-28775D02*
X47812Y-28775D01*
X48127Y-28595D01*
X47812Y-28595D01*
X48827Y-28810D02*
X48812Y-28840D01*
X48812Y-28885D01*
X48827Y-28930D01*
X48857Y-28960D01*
X48887Y-28975D01*
X48947Y-28990D01*
X48992Y-28990D01*
X49052Y-28975D01*
X49082Y-28960D01*
X49112Y-28930D01*
X49127Y-28885D01*
X49127Y-28855D01*
X49112Y-28810D01*
X49097Y-28795D01*
X48992Y-28795D01*
X48992Y-28855D01*
X49127Y-28660D02*
X48812Y-28660D01*
X49127Y-28480D01*
X48812Y-28480D01*
X49127Y-28330D02*
X48812Y-28330D01*
X48812Y-28255D01*
X48827Y-28210D01*
X48857Y-28180D01*
X48887Y-28165D01*
X48947Y-28150D01*
X48992Y-28150D01*
X49052Y-28165D01*
X49082Y-28180D01*
X49112Y-28210D01*
X49127Y-28255D01*
X49127Y-28330D01*
X51097Y-28795D02*
X51112Y-28810D01*
X51127Y-28855D01*
X51127Y-28885D01*
X51112Y-28930D01*
X51082Y-28960D01*
X51052Y-28975D01*
X50992Y-28990D01*
X50947Y-28990D01*
X50887Y-28975D01*
X50857Y-28960D01*
X50827Y-28930D01*
X50812Y-28885D01*
X50812Y-28855D01*
X50827Y-28810D01*
X50842Y-28795D01*
X51037Y-28675D02*
X51037Y-28525D01*
X51127Y-28705D02*
X50812Y-28600D01*
X51127Y-28495D01*
X51127Y-28390D02*
X50812Y-28390D01*
X50812Y-28270D01*
X50827Y-28240D01*
X50842Y-28225D01*
X50872Y-28210D01*
X50917Y-28210D01*
X50947Y-28225D01*
X50962Y-28240D01*
X50977Y-28270D01*
X50977Y-28390D01*
X51812Y-28915D02*
X51812Y-28855D01*
X51827Y-28825D01*
X51857Y-28795D01*
X51917Y-28780D01*
X52022Y-28780D01*
X52082Y-28795D01*
X52112Y-28825D01*
X52127Y-28855D01*
X52127Y-28915D01*
X52112Y-28945D01*
X52082Y-28975D01*
X52022Y-28990D01*
X51917Y-28990D01*
X51857Y-28975D01*
X51827Y-28945D01*
X51812Y-28915D01*
X52127Y-28645D02*
X51812Y-28645D01*
X51812Y-28525D01*
X51827Y-28495D01*
X51842Y-28480D01*
X51872Y-28465D01*
X51917Y-28465D01*
X51947Y-28480D01*
X51962Y-28495D01*
X51977Y-28525D01*
X51977Y-28645D01*
X51962Y-28330D02*
X51962Y-28225D01*
X52127Y-28180D02*
X52127Y-28330D01*
X51812Y-28330D01*
X51812Y-28180D01*
X52127Y-28045D02*
X51812Y-28045D01*
X52127Y-27865D01*
X51812Y-27865D01*
X51797Y-27490D02*
X52202Y-27760D01*
X51812Y-27415D02*
X51812Y-27205D01*
X52127Y-27415D01*
X52127Y-27205D01*
X53112Y-28990D02*
X53127Y-28945D01*
X53127Y-28870D01*
X53112Y-28840D01*
X53097Y-28825D01*
X53067Y-28810D01*
X53037Y-28810D01*
X53007Y-28825D01*
X52992Y-28840D01*
X52977Y-28870D01*
X52962Y-28930D01*
X52947Y-28960D01*
X52932Y-28975D01*
X52902Y-28990D01*
X52872Y-28990D01*
X52842Y-28975D01*
X52827Y-28960D01*
X52812Y-28930D01*
X52812Y-28855D01*
X52827Y-28810D01*
X53127Y-28675D02*
X52812Y-28675D01*
X52962Y-28675D02*
X52962Y-28495D01*
X53127Y-28495D02*
X52812Y-28495D01*
X52812Y-28285D02*
X52812Y-28225D01*
X52827Y-28195D01*
X52857Y-28165D01*
X52917Y-28150D01*
X53022Y-28150D01*
X53082Y-28165D01*
X53112Y-28195D01*
X53127Y-28225D01*
X53127Y-28285D01*
X53112Y-28315D01*
X53082Y-28345D01*
X53022Y-28360D01*
X52917Y-28360D01*
X52857Y-28345D01*
X52827Y-28315D01*
X52812Y-28285D01*
X53127Y-27835D02*
X52977Y-27940D01*
X53127Y-28015D02*
X52812Y-28015D01*
X52812Y-27895D01*
X52827Y-27865D01*
X52842Y-27850D01*
X52872Y-27835D01*
X52917Y-27835D01*
X52947Y-27850D01*
X52962Y-27865D01*
X52977Y-27895D01*
X52977Y-28015D01*
X52812Y-27745D02*
X52812Y-27565D01*
X53127Y-27655D02*
X52812Y-27655D01*
G54D11*
X20462Y-27239D02*
X20462Y-26648D01*
X20687Y-26648D01*
X20743Y-26676D01*
X20771Y-26704D01*
X20800Y-26760D01*
X20800Y-26845D01*
X20771Y-26901D01*
X20743Y-26929D01*
X20687Y-26957D01*
X20462Y-26957D01*
X20996Y-26648D02*
X21137Y-27239D01*
X21250Y-26817D01*
X21362Y-27239D01*
X21503Y-26648D01*
X22065Y-27239D02*
X21868Y-26957D01*
X21728Y-27239D02*
X21728Y-26648D01*
X21953Y-26648D01*
X22009Y-26676D01*
X22037Y-26704D01*
X22065Y-26760D01*
X22065Y-26845D01*
X22037Y-26901D01*
X22009Y-26929D01*
X21953Y-26957D01*
X21728Y-26957D01*
X18884Y-27239D02*
X18546Y-27239D01*
X18715Y-27239D02*
X18715Y-26648D01*
X18659Y-26732D01*
X18603Y-26789D01*
X18546Y-26817D01*
X19109Y-26704D02*
X19137Y-26676D01*
X19193Y-26648D01*
X19334Y-26648D01*
X19390Y-26676D01*
X19418Y-26704D01*
X19446Y-26760D01*
X19446Y-26817D01*
X19418Y-26901D01*
X19081Y-27239D01*
X19446Y-27239D01*
X19615Y-26648D02*
X19812Y-27239D01*
X20009Y-26648D01*
X52648Y-25643D02*
X52648Y-25924D01*
X52929Y-25953D01*
X52901Y-25924D01*
X52873Y-25868D01*
X52873Y-25728D01*
X52901Y-25671D01*
X52929Y-25643D01*
X52985Y-25615D01*
X53126Y-25615D01*
X53182Y-25643D01*
X53210Y-25671D01*
X53239Y-25728D01*
X53239Y-25868D01*
X53210Y-25924D01*
X53182Y-25953D01*
X52648Y-25446D02*
X53239Y-25250D01*
X52648Y-25053D01*
X52648Y-24743D02*
X52648Y-24687D01*
X52676Y-24631D01*
X52704Y-24603D01*
X52760Y-24575D01*
X52873Y-24546D01*
X53014Y-24546D01*
X53126Y-24575D01*
X53182Y-24603D01*
X53210Y-24631D01*
X53239Y-24687D01*
X53239Y-24743D01*
X53210Y-24800D01*
X53182Y-24828D01*
X53126Y-24856D01*
X53014Y-24884D01*
X52873Y-24884D01*
X52760Y-24856D01*
X52704Y-24828D01*
X52676Y-24800D01*
X52648Y-24743D01*
X51648Y-25981D02*
X51648Y-25615D01*
X51873Y-25812D01*
X51873Y-25728D01*
X51901Y-25671D01*
X51929Y-25643D01*
X51985Y-25615D01*
X52126Y-25615D01*
X52182Y-25643D01*
X52210Y-25671D01*
X52239Y-25728D01*
X52239Y-25896D01*
X52210Y-25953D01*
X52182Y-25981D01*
X51648Y-25446D02*
X52239Y-25250D01*
X51648Y-25053D01*
X51648Y-24912D02*
X51648Y-24546D01*
X51873Y-24743D01*
X51873Y-24659D01*
X51901Y-24603D01*
X51929Y-24575D01*
X51985Y-24546D01*
X52126Y-24546D01*
X52182Y-24575D01*
X52210Y-24603D01*
X52239Y-24659D01*
X52239Y-24828D01*
X52210Y-24884D01*
X52182Y-24912D01*
X50704Y-25953D02*
X50676Y-25924D01*
X50648Y-25868D01*
X50648Y-25728D01*
X50676Y-25671D01*
X50704Y-25643D01*
X50760Y-25615D01*
X50817Y-25615D01*
X50901Y-25643D01*
X51239Y-25981D01*
X51239Y-25615D01*
X50648Y-25446D02*
X51239Y-25250D01*
X50648Y-25053D01*
X50648Y-24575D02*
X50648Y-24856D01*
X50929Y-24884D01*
X50901Y-24856D01*
X50873Y-24800D01*
X50873Y-24659D01*
X50901Y-24603D01*
X50929Y-24575D01*
X50985Y-24546D01*
X51126Y-24546D01*
X51182Y-24575D01*
X51210Y-24603D01*
X51239Y-24659D01*
X51239Y-24800D01*
X51210Y-24856D01*
X51182Y-24884D01*
X50239Y-25615D02*
X50239Y-25953D01*
X50239Y-25784D02*
X49648Y-25784D01*
X49732Y-25840D01*
X49789Y-25896D01*
X49817Y-25953D01*
X49648Y-25446D02*
X50239Y-25250D01*
X49648Y-25053D01*
X49901Y-24771D02*
X49873Y-24828D01*
X49845Y-24856D01*
X49789Y-24884D01*
X49760Y-24884D01*
X49704Y-24856D01*
X49676Y-24828D01*
X49648Y-24771D01*
X49648Y-24659D01*
X49676Y-24603D01*
X49704Y-24575D01*
X49760Y-24546D01*
X49789Y-24546D01*
X49845Y-24575D01*
X49873Y-24603D01*
X49901Y-24659D01*
X49901Y-24771D01*
X49929Y-24828D01*
X49957Y-24856D01*
X50014Y-24884D01*
X50126Y-24884D01*
X50182Y-24856D01*
X50210Y-24828D01*
X50239Y-24771D01*
X50239Y-24659D01*
X50210Y-24603D01*
X50182Y-24575D01*
X50126Y-24546D01*
X50014Y-24546D01*
X49957Y-24575D01*
X49929Y-24603D01*
X49901Y-24659D01*
X49239Y-25615D02*
X49239Y-25953D01*
X49239Y-25784D02*
X48648Y-25784D01*
X48732Y-25840D01*
X48789Y-25896D01*
X48817Y-25953D01*
X48648Y-25446D02*
X49239Y-25250D01*
X48648Y-25053D01*
X48648Y-24575D02*
X48648Y-24856D01*
X48929Y-24884D01*
X48901Y-24856D01*
X48873Y-24800D01*
X48873Y-24659D01*
X48901Y-24603D01*
X48929Y-24575D01*
X48985Y-24546D01*
X49126Y-24546D01*
X49182Y-24575D01*
X49210Y-24603D01*
X49239Y-24659D01*
X49239Y-24800D01*
X49210Y-24856D01*
X49182Y-24884D01*
X48239Y-25615D02*
X48239Y-25953D01*
X48239Y-25784D02*
X47648Y-25784D01*
X47732Y-25840D01*
X47789Y-25896D01*
X47817Y-25953D01*
X47648Y-25446D02*
X48239Y-25250D01*
X47648Y-25053D01*
X47704Y-24884D02*
X47676Y-24856D01*
X47648Y-24800D01*
X47648Y-24659D01*
X47676Y-24603D01*
X47704Y-24575D01*
X47760Y-24546D01*
X47817Y-24546D01*
X47901Y-24575D01*
X48239Y-24912D01*
X48239Y-24546D01*
X44923Y-24489D02*
X44923Y-23898D01*
X45176Y-24460D02*
X45260Y-24489D01*
X45401Y-24489D01*
X45457Y-24460D01*
X45485Y-24432D01*
X45514Y-24376D01*
X45514Y-24320D01*
X45485Y-24264D01*
X45457Y-24235D01*
X45401Y-24207D01*
X45289Y-24179D01*
X45232Y-24151D01*
X45204Y-24123D01*
X45176Y-24067D01*
X45176Y-24010D01*
X45204Y-23954D01*
X45232Y-23926D01*
X45289Y-23898D01*
X45429Y-23898D01*
X45514Y-23926D01*
X45767Y-24489D02*
X45767Y-23898D01*
X45992Y-23898D01*
X46048Y-23926D01*
X46076Y-23954D01*
X46104Y-24010D01*
X46104Y-24095D01*
X46076Y-24151D01*
X46048Y-24179D01*
X45992Y-24207D01*
X45767Y-24207D01*
G54D12*
X29000Y-29500D02*
X29000Y-29500D01*
X29000Y-29500D02*
X29500Y-29500D01*
X29500Y-29500D02*
X29500Y-30500D01*
X29500Y-30500D02*
X29000Y-30500D01*
X29000Y-29000D02*
X38000Y-29000D01*
X38000Y-29000D02*
X38000Y-31000D01*
X38000Y-31000D02*
X29000Y-31000D01*
X29000Y-31000D02*
X29000Y-29000D01*
G54D13*
X42174Y-27287D02*
G75*
G03X42174Y-27287I-62J0D01*
G74*
G01*
X42450Y-28250D02*
X42050Y-28250D01*
X42450Y-27225D02*
X42050Y-27225D01*
X42050Y-28250D02*
X42050Y-27225D01*
X42450Y-27225D02*
X42450Y-28250D01*
X42200Y-31963D02*
G75*
G03X42200Y-31963I-62J0D01*
G74*
G01*
X41800Y-31000D02*
X42200Y-31000D01*
X41800Y-32025D02*
X42200Y-32025D01*
X42200Y-31000D02*
X42200Y-32025D01*
X41800Y-32025D02*
X41800Y-31000D01*
X27775Y-34362D02*
G75*
G03X27775Y-34362I-62J0D01*
G74*
G01*
X26750Y-34700D02*
X26750Y-34300D01*
X27775Y-34700D02*
X27775Y-34300D01*
X26750Y-34300D02*
X27775Y-34300D01*
X27775Y-34700D02*
X26750Y-34700D01*
X29775Y-35362D02*
G75*
G03X29775Y-35362I-62J0D01*
G74*
G01*
X28750Y-35700D02*
X28750Y-35300D01*
X29775Y-35700D02*
X29775Y-35300D01*
X28750Y-35300D02*
X29775Y-35300D01*
X29775Y-35700D02*
X28750Y-35700D01*
X32775Y-35362D02*
G75*
G03X32775Y-35362I-62J0D01*
G74*
G01*
X31750Y-35700D02*
X31750Y-35300D01*
X32775Y-35700D02*
X32775Y-35300D01*
X31750Y-35300D02*
X32775Y-35300D01*
X32775Y-35700D02*
X31750Y-35700D01*
X35775Y-35362D02*
G75*
G03X35775Y-35362I-62J0D01*
G74*
G01*
X34750Y-35700D02*
X34750Y-35300D01*
X35775Y-35700D02*
X35775Y-35300D01*
X34750Y-35300D02*
X35775Y-35300D01*
X35775Y-35700D02*
X34750Y-35700D01*
X38775Y-35362D02*
G75*
G03X38775Y-35362I-62J0D01*
G74*
G01*
X37750Y-35700D02*
X37750Y-35300D01*
X38775Y-35700D02*
X38775Y-35300D01*
X37750Y-35300D02*
X38775Y-35300D01*
X38775Y-35700D02*
X37750Y-35700D01*
G54D14*
X29600Y-34650D02*
G75*
G03X29600Y-34650I-50J0D01*
G74*
G01*
X29550Y-34200D02*
X29550Y-34600D01*
X29550Y-34600D02*
X28950Y-34600D01*
X28950Y-34600D02*
X28950Y-34200D01*
X28950Y-33800D02*
X28950Y-33400D01*
X28950Y-33400D02*
X29550Y-33400D01*
X29550Y-33400D02*
X29550Y-33800D01*
X41400Y-27050D02*
G75*
G03X41400Y-27050I-50J0D01*
G74*
G01*
X41800Y-27050D02*
X41400Y-27050D01*
X41400Y-27050D02*
X41400Y-26450D01*
X41400Y-26450D02*
X41800Y-26450D01*
X42200Y-26450D02*
X42600Y-26450D01*
X42600Y-26450D02*
X42600Y-27050D01*
X42600Y-27050D02*
X42200Y-27050D01*
X30900Y-24300D02*
G75*
G03X30900Y-24300I-50J0D01*
G74*
G01*
X31300Y-24300D02*
X30900Y-24300D01*
X30900Y-24300D02*
X30900Y-23700D01*
X30900Y-23700D02*
X31300Y-23700D01*
X31700Y-23700D02*
X32100Y-23700D01*
X32100Y-23700D02*
X32100Y-24300D01*
X32100Y-24300D02*
X31700Y-24300D01*
X29200Y-27700D02*
G75*
G03X29200Y-27700I-50J0D01*
G74*
G01*
X28700Y-27700D02*
X29100Y-27700D01*
X29100Y-27700D02*
X29100Y-28300D01*
X29100Y-28300D02*
X28700Y-28300D01*
X28300Y-28300D02*
X27900Y-28300D01*
X27900Y-28300D02*
X27900Y-27700D01*
X27900Y-27700D02*
X28300Y-27700D01*
X26750Y-26350D02*
G75*
G03X26750Y-26350I-50J0D01*
G74*
G01*
X26700Y-26800D02*
X26700Y-26400D01*
X26700Y-26400D02*
X27300Y-26400D01*
X27300Y-26400D02*
X27300Y-26800D01*
X27300Y-27200D02*
X27300Y-27600D01*
X27300Y-27600D02*
X26700Y-27600D01*
X26700Y-27600D02*
X26700Y-27200D01*
X26200Y-25200D02*
G75*
G03X26200Y-25200I-50J0D01*
G74*
G01*
X25700Y-25200D02*
X26100Y-25200D01*
X26100Y-25200D02*
X26100Y-25800D01*
X26100Y-25800D02*
X25700Y-25800D01*
X25300Y-25800D02*
X24900Y-25800D01*
X24900Y-25800D02*
X24900Y-25200D01*
X24900Y-25200D02*
X25300Y-25200D01*
X36200Y-23700D02*
G75*
G03X36200Y-23700I-50J0D01*
G74*
G01*
X35700Y-23700D02*
X36100Y-23700D01*
X36100Y-23700D02*
X36100Y-24300D01*
X36100Y-24300D02*
X35700Y-24300D01*
X35300Y-24300D02*
X34900Y-24300D01*
X34900Y-24300D02*
X34900Y-23700D01*
X34900Y-23700D02*
X35300Y-23700D01*
X36150Y-30550D02*
G75*
G03X36150Y-30550I-50J0D01*
G74*
G01*
X36550Y-30550D02*
X36150Y-30550D01*
X36150Y-30550D02*
X36150Y-29950D01*
X36150Y-29950D02*
X36550Y-29950D01*
X36950Y-29950D02*
X37350Y-29950D01*
X37350Y-29950D02*
X37350Y-30550D01*
X37350Y-30550D02*
X36950Y-30550D01*
X42400Y-28800D02*
G75*
G03X42400Y-28800I-50J0D01*
G74*
G01*
X42800Y-28800D02*
X42400Y-28800D01*
X42400Y-28800D02*
X42400Y-28200D01*
X42400Y-28200D02*
X42800Y-28200D01*
X43200Y-28200D02*
X43600Y-28200D01*
X43600Y-28200D02*
X43600Y-28800D01*
X43600Y-28800D02*
X43200Y-28800D01*
X33100Y-38150D02*
G75*
G03X33100Y-38150I-50J0D01*
G74*
G01*
X33050Y-37700D02*
X33050Y-38100D01*
X33050Y-38100D02*
X32450Y-38100D01*
X32450Y-38100D02*
X32450Y-37700D01*
X32450Y-37300D02*
X32450Y-36900D01*
X32450Y-36900D02*
X33050Y-36900D01*
X33050Y-36900D02*
X33050Y-37300D01*
X32950Y-36200D02*
G75*
G03X32950Y-36200I-50J0D01*
G74*
G01*
X32450Y-36200D02*
X32850Y-36200D01*
X32850Y-36200D02*
X32850Y-36800D01*
X32850Y-36800D02*
X32450Y-36800D01*
X32050Y-36800D02*
X31650Y-36800D01*
X31650Y-36800D02*
X31650Y-36200D01*
X31650Y-36200D02*
X32050Y-36200D01*
X40500Y-35350D02*
G75*
G03X40500Y-35350I-50J0D01*
G74*
G01*
X40450Y-35800D02*
X40450Y-35400D01*
X40450Y-35400D02*
X41050Y-35400D01*
X41050Y-35400D02*
X41050Y-35800D01*
X41050Y-36200D02*
X41050Y-36600D01*
X41050Y-36600D02*
X40450Y-36600D01*
X40450Y-36600D02*
X40450Y-36200D01*
X32600Y-34650D02*
G75*
G03X32600Y-34650I-50J0D01*
G74*
G01*
X32550Y-34200D02*
X32550Y-34600D01*
X32550Y-34600D02*
X31950Y-34600D01*
X31950Y-34600D02*
X31950Y-34200D01*
X31950Y-33800D02*
X31950Y-33400D01*
X31950Y-33400D02*
X32550Y-33400D01*
X32550Y-33400D02*
X32550Y-33800D01*
X35600Y-34650D02*
G75*
G03X35600Y-34650I-50J0D01*
G74*
G01*
X35550Y-34200D02*
X35550Y-34600D01*
X35550Y-34600D02*
X34950Y-34600D01*
X34950Y-34600D02*
X34950Y-34200D01*
X34950Y-33800D02*
X34950Y-33400D01*
X34950Y-33400D02*
X35550Y-33400D01*
X35550Y-33400D02*
X35550Y-33800D01*
X38600Y-34650D02*
G75*
G03X38600Y-34650I-50J0D01*
G74*
G01*
X38550Y-34200D02*
X38550Y-34600D01*
X38550Y-34600D02*
X37950Y-34600D01*
X37950Y-34600D02*
X37950Y-34200D01*
X37950Y-33800D02*
X37950Y-33400D01*
X37950Y-33400D02*
X38550Y-33400D01*
X38550Y-33400D02*
X38550Y-33800D01*
X25200Y-27200D02*
G75*
G03X25200Y-27200I-50J0D01*
G74*
G01*
X24700Y-27200D02*
X25100Y-27200D01*
X25100Y-27200D02*
X25100Y-27800D01*
X25100Y-27800D02*
X24700Y-27800D01*
X24300Y-27800D02*
X23900Y-27800D01*
X23900Y-27800D02*
X23900Y-27200D01*
X23900Y-27200D02*
X24300Y-27200D01*
X26400Y-33700D02*
G75*
G03X26400Y-33700I-50J0D01*
G74*
G01*
X26800Y-33700D02*
X26400Y-33700D01*
X26400Y-33700D02*
X26400Y-33100D01*
X26400Y-33100D02*
X26800Y-33100D01*
X27200Y-33100D02*
X27600Y-33100D01*
X27600Y-33100D02*
X27600Y-33700D01*
X27600Y-33700D02*
X27200Y-33700D01*
X46250Y-28000D02*
G75*
G03X46250Y-28000I-50J0D01*
G74*
G01*
X46200Y-28450D02*
X46200Y-28050D01*
X46200Y-28050D02*
X46800Y-28050D01*
X46800Y-28050D02*
X46800Y-28450D01*
X46800Y-28850D02*
X46800Y-29250D01*
X46800Y-29250D02*
X46200Y-29250D01*
X46200Y-29250D02*
X46200Y-28850D01*
X37750Y-21350D02*
G75*
G03X37750Y-21350I-50J0D01*
G74*
G01*
X37700Y-21800D02*
X37700Y-21400D01*
X37700Y-21400D02*
X38300Y-21400D01*
X38300Y-21400D02*
X38300Y-21800D01*
X38300Y-22200D02*
X38300Y-22600D01*
X38300Y-22600D02*
X37700Y-22600D01*
X37700Y-22600D02*
X37700Y-22200D01*
X38350Y-25150D02*
G75*
G03X38350Y-25150I-50J0D01*
G74*
G01*
X38300Y-24700D02*
X38300Y-25100D01*
X38300Y-25100D02*
X37700Y-25100D01*
X37700Y-25100D02*
X37700Y-24700D01*
X37700Y-24300D02*
X37700Y-23900D01*
X37700Y-23900D02*
X38300Y-23900D01*
X38300Y-23900D02*
X38300Y-24300D01*
X36750Y-21350D02*
G75*
G03X36750Y-21350I-50J0D01*
G74*
G01*
X36700Y-21800D02*
X36700Y-21400D01*
X36700Y-21400D02*
X37300Y-21400D01*
X37300Y-21400D02*
X37300Y-21800D01*
X37300Y-22200D02*
X37300Y-22600D01*
X37300Y-22600D02*
X36700Y-22600D01*
X36700Y-22600D02*
X36700Y-22200D01*
X44900Y-28800D02*
G75*
G03X44900Y-28800I-50J0D01*
G74*
G01*
X45300Y-28800D02*
X44900Y-28800D01*
X44900Y-28800D02*
X44900Y-28200D01*
X44900Y-28200D02*
X45300Y-28200D01*
X45700Y-28200D02*
X46100Y-28200D01*
X46100Y-28200D02*
X46100Y-28800D01*
X46100Y-28800D02*
X45700Y-28800D01*
X53200Y-33350D02*
G75*
G03X53200Y-33350I-50J0D01*
G74*
G01*
X52700Y-33350D02*
X53100Y-33350D01*
X53100Y-33350D02*
X53100Y-33950D01*
X53100Y-33950D02*
X52700Y-33950D01*
X52300Y-33950D02*
X51900Y-33950D01*
X51900Y-33950D02*
X51900Y-33350D01*
X51900Y-33350D02*
X52300Y-33350D01*
X50700Y-33350D02*
G75*
G03X50700Y-33350I-50J0D01*
G74*
G01*
X50200Y-33350D02*
X50600Y-33350D01*
X50600Y-33350D02*
X50600Y-33950D01*
X50600Y-33950D02*
X50200Y-33950D01*
X49800Y-33950D02*
X49400Y-33950D01*
X49400Y-33950D02*
X49400Y-33350D01*
X49400Y-33350D02*
X49800Y-33350D01*
X48700Y-33350D02*
G75*
G03X48700Y-33350I-50J0D01*
G74*
G01*
X48200Y-33350D02*
X48600Y-33350D01*
X48600Y-33350D02*
X48600Y-33950D01*
X48600Y-33950D02*
X48200Y-33950D01*
X47800Y-33950D02*
X47400Y-33950D01*
X47400Y-33950D02*
X47400Y-33350D01*
X47400Y-33350D02*
X47800Y-33350D01*
X43000Y-30850D02*
G75*
G03X43000Y-30850I-50J0D01*
G74*
G01*
X42950Y-31300D02*
X42950Y-30900D01*
X42950Y-30900D02*
X43550Y-30900D01*
X43550Y-30900D02*
X43550Y-31300D01*
X43550Y-31700D02*
X43550Y-32100D01*
X43550Y-32100D02*
X42950Y-32100D01*
X42950Y-32100D02*
X42950Y-31700D01*
X39600Y-34650D02*
G75*
G03X39600Y-34650I-50J0D01*
G74*
G01*
X39550Y-34200D02*
X39550Y-34600D01*
X39550Y-34600D02*
X38950Y-34600D01*
X38950Y-34600D02*
X38950Y-34200D01*
X38950Y-33800D02*
X38950Y-33400D01*
X38950Y-33400D02*
X39550Y-33400D01*
X39550Y-33400D02*
X39550Y-33800D01*
X36600Y-34650D02*
G75*
G03X36600Y-34650I-50J0D01*
G74*
G01*
X36550Y-34200D02*
X36550Y-34600D01*
X36550Y-34600D02*
X35950Y-34600D01*
X35950Y-34600D02*
X35950Y-34200D01*
X35950Y-33800D02*
X35950Y-33400D01*
X35950Y-33400D02*
X36550Y-33400D01*
X36550Y-33400D02*
X36550Y-33800D01*
X33600Y-34650D02*
G75*
G03X33600Y-34650I-50J0D01*
G74*
G01*
X33550Y-34200D02*
X33550Y-34600D01*
X33550Y-34600D02*
X32950Y-34600D01*
X32950Y-34600D02*
X32950Y-34200D01*
X32950Y-33800D02*
X32950Y-33400D01*
X32950Y-33400D02*
X33550Y-33400D01*
X33550Y-33400D02*
X33550Y-33800D01*
X36000Y-35600D02*
G75*
G03X36000Y-35600I-50J0D01*
G74*
G01*
X35950Y-36050D02*
X35950Y-35650D01*
X35950Y-35650D02*
X36550Y-35650D01*
X36550Y-35650D02*
X36550Y-36050D01*
X36550Y-36450D02*
X36550Y-36850D01*
X36550Y-36850D02*
X35950Y-36850D01*
X35950Y-36850D02*
X35950Y-36450D01*
X33000Y-35600D02*
G75*
G03X33000Y-35600I-50J0D01*
G74*
G01*
X32950Y-36050D02*
X32950Y-35650D01*
X32950Y-35650D02*
X33550Y-35650D01*
X33550Y-35650D02*
X33550Y-36050D01*
X33550Y-36450D02*
X33550Y-36850D01*
X33550Y-36850D02*
X32950Y-36850D01*
X32950Y-36850D02*
X32950Y-36450D01*
X30000Y-35600D02*
G75*
G03X30000Y-35600I-50J0D01*
G74*
G01*
X29950Y-36050D02*
X29950Y-35650D01*
X29950Y-35650D02*
X30550Y-35650D01*
X30550Y-35650D02*
X30550Y-36050D01*
X30550Y-36450D02*
X30550Y-36850D01*
X30550Y-36850D02*
X29950Y-36850D01*
X29950Y-36850D02*
X29950Y-36450D01*
X36900Y-32800D02*
G75*
G03X36900Y-32800I-50J0D01*
G74*
G01*
X37300Y-32800D02*
X36900Y-32800D01*
X36900Y-32800D02*
X36900Y-32200D01*
X36900Y-32200D02*
X37300Y-32200D01*
X37700Y-32200D02*
X38100Y-32200D01*
X38100Y-32200D02*
X38100Y-32800D01*
X38100Y-32800D02*
X37700Y-32800D01*
X30600Y-34650D02*
G75*
G03X30600Y-34650I-50J0D01*
G74*
G01*
X30550Y-34200D02*
X30550Y-34600D01*
X30550Y-34600D02*
X29950Y-34600D01*
X29950Y-34600D02*
X29950Y-34200D01*
X29950Y-33800D02*
X29950Y-33400D01*
X29950Y-33400D02*
X30550Y-33400D01*
X30550Y-33400D02*
X30550Y-33800D01*
X41750Y-28350D02*
G75*
G03X41750Y-28350I-50J0D01*
G74*
G01*
X41700Y-28800D02*
X41700Y-28400D01*
X41700Y-28400D02*
X42300Y-28400D01*
X42300Y-28400D02*
X42300Y-28800D01*
X42300Y-29200D02*
X42300Y-29600D01*
X42300Y-29600D02*
X41700Y-29600D01*
X41700Y-29600D02*
X41700Y-29200D01*
X42750Y-28850D02*
G75*
G03X42750Y-28850I-50J0D01*
G74*
G01*
X42700Y-29300D02*
X42700Y-28900D01*
X42700Y-28900D02*
X43300Y-28900D01*
X43300Y-28900D02*
X43300Y-29300D01*
X43300Y-29700D02*
X43300Y-30100D01*
X43300Y-30100D02*
X42700Y-30100D01*
X42700Y-30100D02*
X42700Y-29700D01*
X27600Y-36650D02*
G75*
G03X27600Y-36650I-50J0D01*
G74*
G01*
X27550Y-36200D02*
X27550Y-36600D01*
X27550Y-36600D02*
X26950Y-36600D01*
X26950Y-36600D02*
X26950Y-36200D01*
X26950Y-35800D02*
X26950Y-35400D01*
X26950Y-35400D02*
X27550Y-35400D01*
X27550Y-35400D02*
X27550Y-35800D01*
X35950Y-36200D02*
G75*
G03X35950Y-36200I-50J0D01*
G74*
G01*
X35450Y-36200D02*
X35850Y-36200D01*
X35850Y-36200D02*
X35850Y-36800D01*
X35850Y-36800D02*
X35450Y-36800D01*
X35050Y-36800D02*
X34650Y-36800D01*
X34650Y-36800D02*
X34650Y-36200D01*
X34650Y-36200D02*
X35050Y-36200D01*
X38950Y-36200D02*
G75*
G03X38950Y-36200I-50J0D01*
G74*
G01*
X38450Y-36200D02*
X38850Y-36200D01*
X38850Y-36200D02*
X38850Y-36800D01*
X38850Y-36800D02*
X38450Y-36800D01*
X38050Y-36800D02*
X37650Y-36800D01*
X37650Y-36800D02*
X37650Y-36200D01*
X37650Y-36200D02*
X38050Y-36200D01*
X39750Y-35350D02*
G75*
G03X39750Y-35350I-50J0D01*
G74*
G01*
X39700Y-35800D02*
X39700Y-35400D01*
X39700Y-35400D02*
X40300Y-35400D01*
X40300Y-35400D02*
X40300Y-35800D01*
X40300Y-36200D02*
X40300Y-36600D01*
X40300Y-36600D02*
X39700Y-36600D01*
X39700Y-36600D02*
X39700Y-36200D01*
G54D15*
X46250Y-22500D02*
X49250Y-22500D01*
X49250Y-24500D02*
X46250Y-24500D01*
X46250Y-24500D02*
X46250Y-22500D01*
X49250Y-22500D02*
X49250Y-24500D01*
G54D16*
X42000Y-37000D02*
X42000Y-36000D01*
X42000Y-36000D02*
X45000Y-36000D01*
X45000Y-36000D02*
X45000Y-37000D01*
X45000Y-37000D02*
X42000Y-37000D01*
X43000Y-36000D02*
X43000Y-37000D01*
G54D15*
X31455Y-36335D02*
X31455Y-35695D01*
X30845Y-36335D02*
X30845Y-35705D01*
X30845Y-35705D02*
X30845Y-35700D01*
G54D17*
X31460Y-36340D02*
X31460Y-36100D01*
X31460Y-36100D02*
X30840Y-36100D01*
X30840Y-36340D02*
X30840Y-36100D01*
X31460Y-36340D02*
X30840Y-36340D01*
G54D15*
X30954Y-35804D02*
X31150Y-36196D01*
X31150Y-36196D02*
X31346Y-35804D01*
X31346Y-35804D02*
X30954Y-35804D01*
X31455Y-34335D02*
X31455Y-33695D01*
X30845Y-34335D02*
X30845Y-33705D01*
X30845Y-33705D02*
X30845Y-33700D01*
G54D17*
X31460Y-34340D02*
X31460Y-34100D01*
X31460Y-34100D02*
X30840Y-34100D01*
X30840Y-34340D02*
X30840Y-34100D01*
X31460Y-34340D02*
X30840Y-34340D01*
G54D15*
X30954Y-33804D02*
X31150Y-34196D01*
X31150Y-34196D02*
X31346Y-33804D01*
X31346Y-33804D02*
X30954Y-33804D01*
X34455Y-36335D02*
X34455Y-35695D01*
X33845Y-36335D02*
X33845Y-35705D01*
X33845Y-35705D02*
X33845Y-35700D01*
G54D17*
X34460Y-36340D02*
X34460Y-36100D01*
X34460Y-36100D02*
X33840Y-36100D01*
X33840Y-36340D02*
X33840Y-36100D01*
X34460Y-36340D02*
X33840Y-36340D01*
G54D15*
X33954Y-35804D02*
X34150Y-36196D01*
X34150Y-36196D02*
X34346Y-35804D01*
X34346Y-35804D02*
X33954Y-35804D01*
X34455Y-34335D02*
X34455Y-33695D01*
X33845Y-34335D02*
X33845Y-33705D01*
X33845Y-33705D02*
X33845Y-33700D01*
G54D17*
X34460Y-34340D02*
X34460Y-34100D01*
X34460Y-34100D02*
X33840Y-34100D01*
X33840Y-34340D02*
X33840Y-34100D01*
X34460Y-34340D02*
X33840Y-34340D01*
G54D15*
X33954Y-33804D02*
X34150Y-34196D01*
X34150Y-34196D02*
X34346Y-33804D01*
X34346Y-33804D02*
X33954Y-33804D01*
X37455Y-36335D02*
X37455Y-35695D01*
X36845Y-36335D02*
X36845Y-35705D01*
X36845Y-35705D02*
X36845Y-35700D01*
G54D17*
X37460Y-36340D02*
X37460Y-36100D01*
X37460Y-36100D02*
X36840Y-36100D01*
X36840Y-36340D02*
X36840Y-36100D01*
X37460Y-36340D02*
X36840Y-36340D01*
G54D15*
X36954Y-35804D02*
X37150Y-36196D01*
X37150Y-36196D02*
X37346Y-35804D01*
X37346Y-35804D02*
X36954Y-35804D01*
X37455Y-34335D02*
X37455Y-33695D01*
X36845Y-34335D02*
X36845Y-33705D01*
X36845Y-33705D02*
X36845Y-33700D01*
G54D17*
X37460Y-34340D02*
X37460Y-34100D01*
X37460Y-34100D02*
X36840Y-34100D01*
X36840Y-34340D02*
X36840Y-34100D01*
X37460Y-34340D02*
X36840Y-34340D01*
G54D15*
X36954Y-33804D02*
X37150Y-34196D01*
X37150Y-34196D02*
X37346Y-33804D01*
X37346Y-33804D02*
X36954Y-33804D01*
X28555Y-36335D02*
X28555Y-35695D01*
X27945Y-36335D02*
X27945Y-35705D01*
X27945Y-35705D02*
X27945Y-35700D01*
G54D17*
X28560Y-36340D02*
X28560Y-36100D01*
X28560Y-36100D02*
X27940Y-36100D01*
X27940Y-36340D02*
X27940Y-36100D01*
X28560Y-36340D02*
X27940Y-36340D01*
G54D15*
X28054Y-35804D02*
X28250Y-36196D01*
X28250Y-36196D02*
X28446Y-35804D01*
X28446Y-35804D02*
X28054Y-35804D01*
X28555Y-34335D02*
X28555Y-33695D01*
X27945Y-34335D02*
X27945Y-33705D01*
X27945Y-33705D02*
X27945Y-33700D01*
G54D17*
X28560Y-34340D02*
X28560Y-34100D01*
X28560Y-34100D02*
X27940Y-34100D01*
X27940Y-34340D02*
X27940Y-34100D01*
X28560Y-34340D02*
X27940Y-34340D01*
G54D15*
X28054Y-33804D02*
X28250Y-34196D01*
X28250Y-34196D02*
X28446Y-33804D01*
X28446Y-33804D02*
X28054Y-33804D01*
G54D18*
X24500Y-26500D02*
X26000Y-28000D01*
X26000Y-28000D02*
X26500Y-28000D01*
X26500Y-28000D02*
X27000Y-27500D01*
X27000Y-27500D02*
X27000Y-26500D01*
X27000Y-26500D02*
X26000Y-25500D01*
X26000Y-25500D02*
X25000Y-25500D01*
X25000Y-25500D02*
X24500Y-26000D01*
X24500Y-26000D02*
X24500Y-26500D01*
G54D17*
X23177Y-26823D02*
X23177Y-27177D01*
X23177Y-27177D02*
X23334Y-27177D01*
X23334Y-26823D02*
X23334Y-27177D01*
X23177Y-26823D02*
X23334Y-26823D01*
X22666Y-26823D02*
X22666Y-27177D01*
X22666Y-27177D02*
X22823Y-27177D01*
X22823Y-26823D02*
X22823Y-27177D01*
X22666Y-26823D02*
X22823Y-26823D01*
X23000Y-26823D02*
X23000Y-26882D01*
X23000Y-26882D02*
X23118Y-26882D01*
X23118Y-26823D02*
X23118Y-26882D01*
X23000Y-26823D02*
X23118Y-26823D01*
X23000Y-27118D02*
X23000Y-27177D01*
X23000Y-27177D02*
X23118Y-27177D01*
X23118Y-27118D02*
X23118Y-27177D01*
X23000Y-27118D02*
X23118Y-27118D01*
X23000Y-26941D02*
X23000Y-27059D01*
X23000Y-27059D02*
X23118Y-27059D01*
X23118Y-26941D02*
X23118Y-27059D01*
X23000Y-26941D02*
X23118Y-26941D01*
G54D19*
X23177Y-26843D02*
X22823Y-26843D01*
X23177Y-27157D02*
X22823Y-27157D01*
G54D17*
X50177Y-31973D02*
X50177Y-32327D01*
X50177Y-32327D02*
X50334Y-32327D01*
X50334Y-31973D02*
X50334Y-32327D01*
X50177Y-31973D02*
X50334Y-31973D01*
X49666Y-31973D02*
X49666Y-32327D01*
X49666Y-32327D02*
X49823Y-32327D01*
X49823Y-31973D02*
X49823Y-32327D01*
X49666Y-31973D02*
X49823Y-31973D01*
X50000Y-31973D02*
X50000Y-32032D01*
X50000Y-32032D02*
X50118Y-32032D01*
X50118Y-31973D02*
X50118Y-32032D01*
X50000Y-31973D02*
X50118Y-31973D01*
X50000Y-32268D02*
X50000Y-32327D01*
X50000Y-32327D02*
X50118Y-32327D01*
X50118Y-32268D02*
X50118Y-32327D01*
X50000Y-32268D02*
X50118Y-32268D01*
X50000Y-32091D02*
X50000Y-32209D01*
X50000Y-32209D02*
X50118Y-32209D01*
X50118Y-32091D02*
X50118Y-32209D01*
X50000Y-32091D02*
X50118Y-32091D01*
G54D19*
X50177Y-31993D02*
X49823Y-31993D01*
X50177Y-32307D02*
X49823Y-32307D01*
G54D17*
X51323Y-32327D02*
X51323Y-31973D01*
X51323Y-31973D02*
X51166Y-31973D01*
X51166Y-32327D02*
X51166Y-31973D01*
X51323Y-32327D02*
X51166Y-32327D01*
X51834Y-32327D02*
X51834Y-31973D01*
X51834Y-31973D02*
X51677Y-31973D01*
X51677Y-32327D02*
X51677Y-31973D01*
X51834Y-32327D02*
X51677Y-32327D01*
X51500Y-32327D02*
X51500Y-32268D01*
X51500Y-32268D02*
X51382Y-32268D01*
X51382Y-32327D02*
X51382Y-32268D01*
X51500Y-32327D02*
X51382Y-32327D01*
X51500Y-32032D02*
X51500Y-31973D01*
X51500Y-31973D02*
X51382Y-31973D01*
X51382Y-32032D02*
X51382Y-31973D01*
X51500Y-32032D02*
X51382Y-32032D01*
X51500Y-32209D02*
X51500Y-32091D01*
X51500Y-32091D02*
X51382Y-32091D01*
X51382Y-32209D02*
X51382Y-32091D01*
X51500Y-32209D02*
X51382Y-32209D01*
G54D19*
X51323Y-32307D02*
X51677Y-32307D01*
X51323Y-31993D02*
X51677Y-31993D01*
G54D17*
X53177Y-31973D02*
X53177Y-32327D01*
X53177Y-32327D02*
X53334Y-32327D01*
X53334Y-31973D02*
X53334Y-32327D01*
X53177Y-31973D02*
X53334Y-31973D01*
X52666Y-31973D02*
X52666Y-32327D01*
X52666Y-32327D02*
X52823Y-32327D01*
X52823Y-31973D02*
X52823Y-32327D01*
X52666Y-31973D02*
X52823Y-31973D01*
X53000Y-31973D02*
X53000Y-32032D01*
X53000Y-32032D02*
X53118Y-32032D01*
X53118Y-31973D02*
X53118Y-32032D01*
X53000Y-31973D02*
X53118Y-31973D01*
X53000Y-32268D02*
X53000Y-32327D01*
X53000Y-32327D02*
X53118Y-32327D01*
X53118Y-32268D02*
X53118Y-32327D01*
X53000Y-32268D02*
X53118Y-32268D01*
X53000Y-32091D02*
X53000Y-32209D01*
X53000Y-32209D02*
X53118Y-32209D01*
X53118Y-32091D02*
X53118Y-32209D01*
X53000Y-32091D02*
X53118Y-32091D01*
G54D19*
X53177Y-31993D02*
X52823Y-31993D01*
X53177Y-32307D02*
X52823Y-32307D01*
G54D17*
X52823Y-26473D02*
X53177Y-26473D01*
X53177Y-26473D02*
X53177Y-26316D01*
X52823Y-26316D02*
X53177Y-26316D01*
X52823Y-26473D02*
X52823Y-26316D01*
X52823Y-26984D02*
X53177Y-26984D01*
X53177Y-26984D02*
X53177Y-26827D01*
X52823Y-26827D02*
X53177Y-26827D01*
X52823Y-26984D02*
X52823Y-26827D01*
X52823Y-26650D02*
X52882Y-26650D01*
X52882Y-26650D02*
X52882Y-26532D01*
X52823Y-26532D02*
X52882Y-26532D01*
X52823Y-26650D02*
X52823Y-26532D01*
X53118Y-26650D02*
X53177Y-26650D01*
X53177Y-26650D02*
X53177Y-26532D01*
X53118Y-26532D02*
X53177Y-26532D01*
X53118Y-26650D02*
X53118Y-26532D01*
X52941Y-26650D02*
X53059Y-26650D01*
X53059Y-26650D02*
X53059Y-26532D01*
X52941Y-26532D02*
X53059Y-26532D01*
X52941Y-26650D02*
X52941Y-26532D01*
G54D19*
X52843Y-26473D02*
X52843Y-26827D01*
X53157Y-26473D02*
X53157Y-26827D01*
G54D17*
X51823Y-26473D02*
X52177Y-26473D01*
X52177Y-26473D02*
X52177Y-26316D01*
X51823Y-26316D02*
X52177Y-26316D01*
X51823Y-26473D02*
X51823Y-26316D01*
X51823Y-26984D02*
X52177Y-26984D01*
X52177Y-26984D02*
X52177Y-26827D01*
X51823Y-26827D02*
X52177Y-26827D01*
X51823Y-26984D02*
X51823Y-26827D01*
X51823Y-26650D02*
X51882Y-26650D01*
X51882Y-26650D02*
X51882Y-26532D01*
X51823Y-26532D02*
X51882Y-26532D01*
X51823Y-26650D02*
X51823Y-26532D01*
X52118Y-26650D02*
X52177Y-26650D01*
X52177Y-26650D02*
X52177Y-26532D01*
X52118Y-26532D02*
X52177Y-26532D01*
X52118Y-26650D02*
X52118Y-26532D01*
X51941Y-26650D02*
X52059Y-26650D01*
X52059Y-26650D02*
X52059Y-26532D01*
X51941Y-26532D02*
X52059Y-26532D01*
X51941Y-26650D02*
X51941Y-26532D01*
G54D19*
X51843Y-26473D02*
X51843Y-26827D01*
X52157Y-26473D02*
X52157Y-26827D01*
G54D17*
X50823Y-26473D02*
X51177Y-26473D01*
X51177Y-26473D02*
X51177Y-26316D01*
X50823Y-26316D02*
X51177Y-26316D01*
X50823Y-26473D02*
X50823Y-26316D01*
X50823Y-26984D02*
X51177Y-26984D01*
X51177Y-26984D02*
X51177Y-26827D01*
X50823Y-26827D02*
X51177Y-26827D01*
X50823Y-26984D02*
X50823Y-26827D01*
X50823Y-26650D02*
X50882Y-26650D01*
X50882Y-26650D02*
X50882Y-26532D01*
X50823Y-26532D02*
X50882Y-26532D01*
X50823Y-26650D02*
X50823Y-26532D01*
X51118Y-26650D02*
X51177Y-26650D01*
X51177Y-26650D02*
X51177Y-26532D01*
X51118Y-26532D02*
X51177Y-26532D01*
X51118Y-26650D02*
X51118Y-26532D01*
X50941Y-26650D02*
X51059Y-26650D01*
X51059Y-26650D02*
X51059Y-26532D01*
X50941Y-26532D02*
X51059Y-26532D01*
X50941Y-26650D02*
X50941Y-26532D01*
G54D19*
X50843Y-26473D02*
X50843Y-26827D01*
X51157Y-26473D02*
X51157Y-26827D01*
G54D17*
X49823Y-26473D02*
X50177Y-26473D01*
X50177Y-26473D02*
X50177Y-26316D01*
X49823Y-26316D02*
X50177Y-26316D01*
X49823Y-26473D02*
X49823Y-26316D01*
X49823Y-26984D02*
X50177Y-26984D01*
X50177Y-26984D02*
X50177Y-26827D01*
X49823Y-26827D02*
X50177Y-26827D01*
X49823Y-26984D02*
X49823Y-26827D01*
X49823Y-26650D02*
X49882Y-26650D01*
X49882Y-26650D02*
X49882Y-26532D01*
X49823Y-26532D02*
X49882Y-26532D01*
X49823Y-26650D02*
X49823Y-26532D01*
X50118Y-26650D02*
X50177Y-26650D01*
X50177Y-26650D02*
X50177Y-26532D01*
X50118Y-26532D02*
X50177Y-26532D01*
X50118Y-26650D02*
X50118Y-26532D01*
X49941Y-26650D02*
X50059Y-26650D01*
X50059Y-26650D02*
X50059Y-26532D01*
X49941Y-26532D02*
X50059Y-26532D01*
X49941Y-26650D02*
X49941Y-26532D01*
G54D19*
X49843Y-26473D02*
X49843Y-26827D01*
X50157Y-26473D02*
X50157Y-26827D01*
G54D17*
X48823Y-26473D02*
X49177Y-26473D01*
X49177Y-26473D02*
X49177Y-26316D01*
X48823Y-26316D02*
X49177Y-26316D01*
X48823Y-26473D02*
X48823Y-26316D01*
X48823Y-26984D02*
X49177Y-26984D01*
X49177Y-26984D02*
X49177Y-26827D01*
X48823Y-26827D02*
X49177Y-26827D01*
X48823Y-26984D02*
X48823Y-26827D01*
X48823Y-26650D02*
X48882Y-26650D01*
X48882Y-26650D02*
X48882Y-26532D01*
X48823Y-26532D02*
X48882Y-26532D01*
X48823Y-26650D02*
X48823Y-26532D01*
X49118Y-26650D02*
X49177Y-26650D01*
X49177Y-26650D02*
X49177Y-26532D01*
X49118Y-26532D02*
X49177Y-26532D01*
X49118Y-26650D02*
X49118Y-26532D01*
X48941Y-26650D02*
X49059Y-26650D01*
X49059Y-26650D02*
X49059Y-26532D01*
X48941Y-26532D02*
X49059Y-26532D01*
X48941Y-26650D02*
X48941Y-26532D01*
G54D19*
X48843Y-26473D02*
X48843Y-26827D01*
X49157Y-26473D02*
X49157Y-26827D01*
G54D17*
X47823Y-26473D02*
X48177Y-26473D01*
X48177Y-26473D02*
X48177Y-26316D01*
X47823Y-26316D02*
X48177Y-26316D01*
X47823Y-26473D02*
X47823Y-26316D01*
X47823Y-26984D02*
X48177Y-26984D01*
X48177Y-26984D02*
X48177Y-26827D01*
X47823Y-26827D02*
X48177Y-26827D01*
X47823Y-26984D02*
X47823Y-26827D01*
X47823Y-26650D02*
X47882Y-26650D01*
X47882Y-26650D02*
X47882Y-26532D01*
X47823Y-26532D02*
X47882Y-26532D01*
X47823Y-26650D02*
X47823Y-26532D01*
X48118Y-26650D02*
X48177Y-26650D01*
X48177Y-26650D02*
X48177Y-26532D01*
X48118Y-26532D02*
X48177Y-26532D01*
X48118Y-26650D02*
X48118Y-26532D01*
X47941Y-26650D02*
X48059Y-26650D01*
X48059Y-26650D02*
X48059Y-26532D01*
X47941Y-26532D02*
X48059Y-26532D01*
X47941Y-26650D02*
X47941Y-26532D01*
G54D19*
X47843Y-26473D02*
X47843Y-26827D01*
X48157Y-26473D02*
X48157Y-26827D01*
G54D17*
X51177Y-29827D02*
X50823Y-29827D01*
X50823Y-29827D02*
X50823Y-29984D01*
X51177Y-29984D02*
X50823Y-29984D01*
X51177Y-29827D02*
X51177Y-29984D01*
X51177Y-29316D02*
X50823Y-29316D01*
X50823Y-29316D02*
X50823Y-29473D01*
X51177Y-29473D02*
X50823Y-29473D01*
X51177Y-29316D02*
X51177Y-29473D01*
X51177Y-29650D02*
X51118Y-29650D01*
X51118Y-29650D02*
X51118Y-29768D01*
X51177Y-29768D02*
X51118Y-29768D01*
X51177Y-29650D02*
X51177Y-29768D01*
X50882Y-29650D02*
X50823Y-29650D01*
X50823Y-29650D02*
X50823Y-29768D01*
X50882Y-29768D02*
X50823Y-29768D01*
X50882Y-29650D02*
X50882Y-29768D01*
X51059Y-29650D02*
X50941Y-29650D01*
X50941Y-29650D02*
X50941Y-29768D01*
X51059Y-29768D02*
X50941Y-29768D01*
X51059Y-29650D02*
X51059Y-29768D01*
G54D19*
X51157Y-29827D02*
X51157Y-29473D01*
X50843Y-29827D02*
X50843Y-29473D01*
G54D17*
X52177Y-29827D02*
X51823Y-29827D01*
X51823Y-29827D02*
X51823Y-29984D01*
X52177Y-29984D02*
X51823Y-29984D01*
X52177Y-29827D02*
X52177Y-29984D01*
X52177Y-29316D02*
X51823Y-29316D01*
X51823Y-29316D02*
X51823Y-29473D01*
X52177Y-29473D02*
X51823Y-29473D01*
X52177Y-29316D02*
X52177Y-29473D01*
X52177Y-29650D02*
X52118Y-29650D01*
X52118Y-29650D02*
X52118Y-29768D01*
X52177Y-29768D02*
X52118Y-29768D01*
X52177Y-29650D02*
X52177Y-29768D01*
X51882Y-29650D02*
X51823Y-29650D01*
X51823Y-29650D02*
X51823Y-29768D01*
X51882Y-29768D02*
X51823Y-29768D01*
X51882Y-29650D02*
X51882Y-29768D01*
X52059Y-29650D02*
X51941Y-29650D01*
X51941Y-29650D02*
X51941Y-29768D01*
X52059Y-29768D02*
X51941Y-29768D01*
X52059Y-29650D02*
X52059Y-29768D01*
G54D19*
X52157Y-29827D02*
X52157Y-29473D01*
X51843Y-29827D02*
X51843Y-29473D01*
G54D17*
X53177Y-29827D02*
X52823Y-29827D01*
X52823Y-29827D02*
X52823Y-29984D01*
X53177Y-29984D02*
X52823Y-29984D01*
X53177Y-29827D02*
X53177Y-29984D01*
X53177Y-29316D02*
X52823Y-29316D01*
X52823Y-29316D02*
X52823Y-29473D01*
X53177Y-29473D02*
X52823Y-29473D01*
X53177Y-29316D02*
X53177Y-29473D01*
X53177Y-29650D02*
X53118Y-29650D01*
X53118Y-29650D02*
X53118Y-29768D01*
X53177Y-29768D02*
X53118Y-29768D01*
X53177Y-29650D02*
X53177Y-29768D01*
X52882Y-29650D02*
X52823Y-29650D01*
X52823Y-29650D02*
X52823Y-29768D01*
X52882Y-29768D02*
X52823Y-29768D01*
X52882Y-29650D02*
X52882Y-29768D01*
X53059Y-29650D02*
X52941Y-29650D01*
X52941Y-29650D02*
X52941Y-29768D01*
X53059Y-29768D02*
X52941Y-29768D01*
X53059Y-29650D02*
X53059Y-29768D01*
G54D19*
X53157Y-29827D02*
X53157Y-29473D01*
X52843Y-29827D02*
X52843Y-29473D01*
G54D17*
X50177Y-29827D02*
X49823Y-29827D01*
X49823Y-29827D02*
X49823Y-29984D01*
X50177Y-29984D02*
X49823Y-29984D01*
X50177Y-29827D02*
X50177Y-29984D01*
X50177Y-29316D02*
X49823Y-29316D01*
X49823Y-29316D02*
X49823Y-29473D01*
X50177Y-29473D02*
X49823Y-29473D01*
X50177Y-29316D02*
X50177Y-29473D01*
X50177Y-29650D02*
X50118Y-29650D01*
X50118Y-29650D02*
X50118Y-29768D01*
X50177Y-29768D02*
X50118Y-29768D01*
X50177Y-29650D02*
X50177Y-29768D01*
X49882Y-29650D02*
X49823Y-29650D01*
X49823Y-29650D02*
X49823Y-29768D01*
X49882Y-29768D02*
X49823Y-29768D01*
X49882Y-29650D02*
X49882Y-29768D01*
X50059Y-29650D02*
X49941Y-29650D01*
X49941Y-29650D02*
X49941Y-29768D01*
X50059Y-29768D02*
X49941Y-29768D01*
X50059Y-29650D02*
X50059Y-29768D01*
G54D19*
X50157Y-29827D02*
X50157Y-29473D01*
X49843Y-29827D02*
X49843Y-29473D01*
G54D17*
X49177Y-29827D02*
X48823Y-29827D01*
X48823Y-29827D02*
X48823Y-29984D01*
X49177Y-29984D02*
X48823Y-29984D01*
X49177Y-29827D02*
X49177Y-29984D01*
X49177Y-29316D02*
X48823Y-29316D01*
X48823Y-29316D02*
X48823Y-29473D01*
X49177Y-29473D02*
X48823Y-29473D01*
X49177Y-29316D02*
X49177Y-29473D01*
X49177Y-29650D02*
X49118Y-29650D01*
X49118Y-29650D02*
X49118Y-29768D01*
X49177Y-29768D02*
X49118Y-29768D01*
X49177Y-29650D02*
X49177Y-29768D01*
X48882Y-29650D02*
X48823Y-29650D01*
X48823Y-29650D02*
X48823Y-29768D01*
X48882Y-29768D02*
X48823Y-29768D01*
X48882Y-29650D02*
X48882Y-29768D01*
X49059Y-29650D02*
X48941Y-29650D01*
X48941Y-29650D02*
X48941Y-29768D01*
X49059Y-29768D02*
X48941Y-29768D01*
X49059Y-29650D02*
X49059Y-29768D01*
G54D19*
X49157Y-29827D02*
X49157Y-29473D01*
X48843Y-29827D02*
X48843Y-29473D01*
G54D17*
X48177Y-29827D02*
X47823Y-29827D01*
X47823Y-29827D02*
X47823Y-29984D01*
X48177Y-29984D02*
X47823Y-29984D01*
X48177Y-29827D02*
X48177Y-29984D01*
X48177Y-29316D02*
X47823Y-29316D01*
X47823Y-29316D02*
X47823Y-29473D01*
X48177Y-29473D02*
X47823Y-29473D01*
X48177Y-29316D02*
X48177Y-29473D01*
X48177Y-29650D02*
X48118Y-29650D01*
X48118Y-29650D02*
X48118Y-29768D01*
X48177Y-29768D02*
X48118Y-29768D01*
X48177Y-29650D02*
X48177Y-29768D01*
X47882Y-29650D02*
X47823Y-29650D01*
X47823Y-29650D02*
X47823Y-29768D01*
X47882Y-29768D02*
X47823Y-29768D01*
X47882Y-29650D02*
X47882Y-29768D01*
X48059Y-29650D02*
X47941Y-29650D01*
X47941Y-29650D02*
X47941Y-29768D01*
X48059Y-29768D02*
X47941Y-29768D01*
X48059Y-29650D02*
X48059Y-29768D01*
G54D19*
X48157Y-29827D02*
X48157Y-29473D01*
X47843Y-29827D02*
X47843Y-29473D01*
G54D17*
X48677Y-31973D02*
X48677Y-32327D01*
X48677Y-32327D02*
X48834Y-32327D01*
X48834Y-31973D02*
X48834Y-32327D01*
X48677Y-31973D02*
X48834Y-31973D01*
X48166Y-31973D02*
X48166Y-32327D01*
X48166Y-32327D02*
X48323Y-32327D01*
X48323Y-31973D02*
X48323Y-32327D01*
X48166Y-31973D02*
X48323Y-31973D01*
X48500Y-31973D02*
X48500Y-32032D01*
X48500Y-32032D02*
X48618Y-32032D01*
X48618Y-31973D02*
X48618Y-32032D01*
X48500Y-31973D02*
X48618Y-31973D01*
X48500Y-32268D02*
X48500Y-32327D01*
X48500Y-32327D02*
X48618Y-32327D01*
X48618Y-32268D02*
X48618Y-32327D01*
X48500Y-32268D02*
X48618Y-32268D01*
X48500Y-32091D02*
X48500Y-32209D01*
X48500Y-32209D02*
X48618Y-32209D01*
X48618Y-32091D02*
X48618Y-32209D01*
X48500Y-32091D02*
X48618Y-32091D01*
G54D19*
X48677Y-31993D02*
X48323Y-31993D01*
X48677Y-32307D02*
X48323Y-32307D01*
G54D12*
X18200Y-27800D02*
X17900Y-27800D01*
X17900Y-27800D02*
X17900Y-31200D01*
X17900Y-31200D02*
X18200Y-31200D01*
X19400Y-27800D02*
X19400Y-31200D01*
X23200Y-27800D02*
X23200Y-31200D01*
X18200Y-31200D02*
X23200Y-31200D01*
X18200Y-27800D02*
X23200Y-27800D01*
G54D20*
X25200Y-29500D02*
X25120Y-29500D01*
X24600Y-28750D02*
X26400Y-28750D01*
X26400Y-28750D02*
X26400Y-29000D01*
X25760Y-30250D02*
X25760Y-28750D01*
X25890Y-30250D02*
X25890Y-28750D01*
X24600Y-30000D02*
X24600Y-30250D01*
X24600Y-30250D02*
X26400Y-30250D01*
X26400Y-30250D02*
X26400Y-30000D01*
X24600Y-29000D02*
X24600Y-28750D01*
X25450Y-29500D02*
X25200Y-29313D01*
X25200Y-29313D02*
X25200Y-29500D01*
X25200Y-29500D02*
X25200Y-29687D01*
X25200Y-29687D02*
X25450Y-29500D01*
X25450Y-29500D02*
X25450Y-29375D01*
X25450Y-29375D02*
X25388Y-29313D01*
X25450Y-29500D02*
X25450Y-29625D01*
X25450Y-29625D02*
X25512Y-29687D01*
X25450Y-29500D02*
X25887Y-29500D01*
G54D18*
X26250Y-33500D02*
G75*
G03X26250Y-33500I-1750J0D01*
G74*
G01*
G54D20*
X41000Y-32000D02*
G75*
G03X41000Y-32000I-1250J0D01*
G74*
G01*
X24750Y-25000D02*
G75*
G03X24750Y-25000I-1250J0D01*
G74*
G01*
X41250Y-21000D02*
G75*
G03X41250Y-21000I-1250J0D01*
G74*
G01*
X36250Y-21000D02*
G75*
G03X36250Y-21000I-1250J0D01*
G74*
G01*
G54D12*
X29000Y-23500D02*
X44000Y-23500D01*
X44000Y-23500D02*
X44000Y-25500D01*
X44000Y-25500D02*
X29000Y-25500D01*
X29000Y-25500D02*
X29000Y-23500D01*
X29000Y-24000D02*
X29500Y-24000D01*
X29500Y-24000D02*
X29500Y-25000D01*
X29500Y-25000D02*
X29000Y-25000D01*
G54D14*
X37200Y-24700D02*
G75*
G03X37200Y-24700I-50J0D01*
G74*
G01*
X36700Y-24700D02*
X37100Y-24700D01*
X37100Y-24700D02*
X37100Y-25300D01*
X37100Y-25300D02*
X36700Y-25300D01*
X36300Y-25300D02*
X35900Y-25300D01*
X35900Y-25300D02*
X35900Y-24700D01*
X35900Y-24700D02*
X36300Y-24700D01*
X28400Y-27300D02*
G75*
G03X28400Y-27300I-50J0D01*
G74*
G01*
X28800Y-27300D02*
X28400Y-27300D01*
X28400Y-27300D02*
X28400Y-26700D01*
X28400Y-26700D02*
X28800Y-26700D01*
X29200Y-26700D02*
X29600Y-26700D01*
X29600Y-26700D02*
X29600Y-27300D01*
X29600Y-27300D02*
X29200Y-27300D01*
G54D16*
X25500Y-25000D02*
X25500Y-24000D01*
X25500Y-24000D02*
X28500Y-24000D01*
X28500Y-24000D02*
X28500Y-25000D01*
X28500Y-25000D02*
X25500Y-25000D01*
X26500Y-24000D02*
X26500Y-25000D01*
G54D21*
X30607Y-27392D02*
X30607Y-27878D01*
X30628Y-27935D01*
X30650Y-27964D01*
X30692Y-27992D01*
X30778Y-27992D01*
X30821Y-27964D01*
X30842Y-27935D01*
X30864Y-27878D01*
X30864Y-27392D01*
X31314Y-27992D02*
X31057Y-27992D01*
X31185Y-27992D02*
X31185Y-27392D01*
X31142Y-27478D01*
X31100Y-27535D01*
X31057Y-27564D01*
G54D18*
G54D21*
X32253Y-27292D02*
X32253Y-27778D01*
X32275Y-27835D01*
X32296Y-27864D01*
X32339Y-27892D01*
X32425Y-27892D01*
X32467Y-27864D01*
X32489Y-27835D01*
X32510Y-27778D01*
X32510Y-27292D01*
X32939Y-27892D02*
X32725Y-27892D01*
X32725Y-27292D01*
X33089Y-27892D02*
X33089Y-27292D01*
X33346Y-27892D01*
X33346Y-27292D01*
X33539Y-27350D02*
X33560Y-27321D01*
X33603Y-27292D01*
X33710Y-27292D01*
X33753Y-27321D01*
X33775Y-27350D01*
X33796Y-27407D01*
X33796Y-27464D01*
X33775Y-27550D01*
X33517Y-27892D01*
X33796Y-27892D01*
X34075Y-27292D02*
X34117Y-27292D01*
X34160Y-27321D01*
X34182Y-27350D01*
X34203Y-27407D01*
X34225Y-27521D01*
X34225Y-27664D01*
X34203Y-27778D01*
X34182Y-27835D01*
X34160Y-27864D01*
X34117Y-27892D01*
X34075Y-27892D01*
X34032Y-27864D01*
X34010Y-27835D01*
X33989Y-27778D01*
X33967Y-27664D01*
X33967Y-27521D01*
X33989Y-27407D01*
X34010Y-27350D01*
X34032Y-27321D01*
X34075Y-27292D01*
X34503Y-27292D02*
X34546Y-27292D01*
X34589Y-27321D01*
X34610Y-27350D01*
X34632Y-27407D01*
X34653Y-27521D01*
X34653Y-27664D01*
X34632Y-27778D01*
X34610Y-27835D01*
X34589Y-27864D01*
X34546Y-27892D01*
X34503Y-27892D01*
X34460Y-27864D01*
X34439Y-27835D01*
X34417Y-27778D01*
X34396Y-27664D01*
X34396Y-27521D01*
X34417Y-27407D01*
X34439Y-27350D01*
X34460Y-27321D01*
X34503Y-27292D01*
X34803Y-27292D02*
X35082Y-27292D01*
X34932Y-27521D01*
X34996Y-27521D01*
X35039Y-27550D01*
X35060Y-27578D01*
X35082Y-27635D01*
X35082Y-27778D01*
X35060Y-27835D01*
X35039Y-27864D01*
X34996Y-27892D01*
X34867Y-27892D01*
X34825Y-27864D01*
X34803Y-27835D01*
X35253Y-27721D02*
X35467Y-27721D01*
X35210Y-27892D02*
X35360Y-27292D01*
X35510Y-27892D01*
G54D18*
G54D22*
X43271Y-27750D02*
X43242Y-27735D01*
X43214Y-27707D01*
X43171Y-27664D01*
X43142Y-27650D01*
X43114Y-27650D01*
X43128Y-27721D02*
X43100Y-27707D01*
X43071Y-27678D01*
X43057Y-27621D01*
X43057Y-27521D01*
X43071Y-27464D01*
X43100Y-27435D01*
X43128Y-27421D01*
X43185Y-27421D01*
X43214Y-27435D01*
X43242Y-27464D01*
X43257Y-27521D01*
X43257Y-27621D01*
X43242Y-27678D01*
X43214Y-27707D01*
X43185Y-27721D01*
X43128Y-27721D01*
X43542Y-27721D02*
X43371Y-27721D01*
X43457Y-27721D02*
X43457Y-27421D01*
X43428Y-27464D01*
X43400Y-27492D01*
X43371Y-27507D01*
G54D14*
X42684Y-27276D02*
X42712Y-27285D01*
X42721Y-27295D01*
X42731Y-27314D01*
X42731Y-27342D01*
X42721Y-27360D01*
X42712Y-27370D01*
X42693Y-27379D01*
X42618Y-27379D01*
X42618Y-27182D01*
X42684Y-27182D01*
X42702Y-27192D01*
X42712Y-27201D01*
X42721Y-27220D01*
X42721Y-27239D01*
X42712Y-27257D01*
X42702Y-27267D01*
X42684Y-27276D01*
X42618Y-27276D01*
X42928Y-27360D02*
X42918Y-27370D01*
X42890Y-27379D01*
X42871Y-27379D01*
X42843Y-27370D01*
X42824Y-27351D01*
X42815Y-27332D01*
X42806Y-27295D01*
X42806Y-27267D01*
X42815Y-27229D01*
X42824Y-27210D01*
X42843Y-27192D01*
X42871Y-27182D01*
X42890Y-27182D01*
X42918Y-27192D01*
X42928Y-27201D01*
X43040Y-27267D02*
X43021Y-27257D01*
X43012Y-27248D01*
X43003Y-27229D01*
X43003Y-27220D01*
X43012Y-27201D01*
X43021Y-27192D01*
X43040Y-27182D01*
X43078Y-27182D01*
X43096Y-27192D01*
X43106Y-27201D01*
X43115Y-27220D01*
X43115Y-27229D01*
X43106Y-27248D01*
X43096Y-27257D01*
X43078Y-27267D01*
X43040Y-27267D01*
X43021Y-27276D01*
X43012Y-27285D01*
X43003Y-27304D01*
X43003Y-27342D01*
X43012Y-27360D01*
X43021Y-27370D01*
X43040Y-27379D01*
X43078Y-27379D01*
X43096Y-27370D01*
X43106Y-27360D01*
X43115Y-27342D01*
X43115Y-27304D01*
X43106Y-27285D01*
X43096Y-27276D01*
X43078Y-27267D01*
X43284Y-27248D02*
X43284Y-27379D01*
X43237Y-27173D02*
X43190Y-27314D01*
X43312Y-27314D01*
X43472Y-27182D02*
X43434Y-27182D01*
X43415Y-27192D01*
X43406Y-27201D01*
X43387Y-27229D01*
X43378Y-27267D01*
X43378Y-27342D01*
X43387Y-27360D01*
X43397Y-27370D01*
X43415Y-27379D01*
X43453Y-27379D01*
X43472Y-27370D01*
X43481Y-27360D01*
X43490Y-27342D01*
X43490Y-27295D01*
X43481Y-27276D01*
X43472Y-27267D01*
X43453Y-27257D01*
X43415Y-27257D01*
X43397Y-27267D01*
X43387Y-27276D01*
X43378Y-27295D01*
G54D22*
X41932Y-30863D02*
X41903Y-30848D01*
X41875Y-30820D01*
X41832Y-30777D01*
X41803Y-30763D01*
X41775Y-30763D01*
X41789Y-30834D02*
X41761Y-30820D01*
X41732Y-30791D01*
X41718Y-30734D01*
X41718Y-30634D01*
X41732Y-30577D01*
X41761Y-30548D01*
X41789Y-30534D01*
X41846Y-30534D01*
X41875Y-30548D01*
X41903Y-30577D01*
X41918Y-30634D01*
X41918Y-30734D01*
X41903Y-30791D01*
X41875Y-30820D01*
X41846Y-30834D01*
X41789Y-30834D01*
X42018Y-30534D02*
X42203Y-30534D01*
X42103Y-30648D01*
X42146Y-30648D01*
X42175Y-30663D01*
X42189Y-30677D01*
X42203Y-30705D01*
X42203Y-30777D01*
X42189Y-30805D01*
X42175Y-30820D01*
X42146Y-30834D01*
X42061Y-30834D01*
X42032Y-30820D01*
X42018Y-30805D01*
G54D14*
X41634Y-32276D02*
X41662Y-32285D01*
X41671Y-32295D01*
X41681Y-32314D01*
X41681Y-32342D01*
X41671Y-32360D01*
X41662Y-32370D01*
X41643Y-32379D01*
X41568Y-32379D01*
X41568Y-32182D01*
X41634Y-32182D01*
X41652Y-32192D01*
X41662Y-32201D01*
X41671Y-32220D01*
X41671Y-32239D01*
X41662Y-32257D01*
X41652Y-32267D01*
X41634Y-32276D01*
X41568Y-32276D01*
X41878Y-32360D02*
X41868Y-32370D01*
X41840Y-32379D01*
X41821Y-32379D01*
X41793Y-32370D01*
X41774Y-32351D01*
X41765Y-32332D01*
X41756Y-32295D01*
X41756Y-32267D01*
X41765Y-32229D01*
X41774Y-32210D01*
X41793Y-32192D01*
X41821Y-32182D01*
X41840Y-32182D01*
X41868Y-32192D01*
X41878Y-32201D01*
X41990Y-32267D02*
X41971Y-32257D01*
X41962Y-32248D01*
X41953Y-32229D01*
X41953Y-32220D01*
X41962Y-32201D01*
X41971Y-32192D01*
X41990Y-32182D01*
X42028Y-32182D01*
X42046Y-32192D01*
X42056Y-32201D01*
X42065Y-32220D01*
X42065Y-32229D01*
X42056Y-32248D01*
X42046Y-32257D01*
X42028Y-32267D01*
X41990Y-32267D01*
X41971Y-32276D01*
X41962Y-32285D01*
X41953Y-32304D01*
X41953Y-32342D01*
X41962Y-32360D01*
X41971Y-32370D01*
X41990Y-32379D01*
X42028Y-32379D01*
X42046Y-32370D01*
X42056Y-32360D01*
X42065Y-32342D01*
X42065Y-32304D01*
X42056Y-32285D01*
X42046Y-32276D01*
X42028Y-32267D01*
X42243Y-32182D02*
X42150Y-32182D01*
X42140Y-32276D01*
X42150Y-32267D01*
X42168Y-32257D01*
X42215Y-32257D01*
X42234Y-32267D01*
X42243Y-32276D01*
X42253Y-32295D01*
X42253Y-32342D01*
X42243Y-32360D01*
X42234Y-32370D01*
X42215Y-32379D01*
X42168Y-32379D01*
X42150Y-32370D01*
X42140Y-32360D01*
X42422Y-32182D02*
X42384Y-32182D01*
X42365Y-32192D01*
X42356Y-32201D01*
X42337Y-32229D01*
X42328Y-32267D01*
X42328Y-32342D01*
X42337Y-32360D01*
X42347Y-32370D01*
X42365Y-32379D01*
X42403Y-32379D01*
X42422Y-32370D01*
X42431Y-32360D01*
X42440Y-32342D01*
X42440Y-32295D01*
X42431Y-32276D01*
X42422Y-32267D01*
X42403Y-32257D01*
X42365Y-32257D01*
X42347Y-32267D01*
X42337Y-32276D01*
X42328Y-32295D01*
G54D22*
X26613Y-34567D02*
X26598Y-34596D01*
X26570Y-34624D01*
X26527Y-34667D01*
X26513Y-34696D01*
X26513Y-34724D01*
X26584Y-34710D02*
X26570Y-34739D01*
X26541Y-34767D01*
X26484Y-34781D01*
X26384Y-34781D01*
X26327Y-34767D01*
X26298Y-34739D01*
X26284Y-34710D01*
X26284Y-34653D01*
X26298Y-34624D01*
X26327Y-34596D01*
X26384Y-34581D01*
X26484Y-34581D01*
X26541Y-34596D01*
X26570Y-34624D01*
X26584Y-34653D01*
X26584Y-34710D01*
X26313Y-34467D02*
X26298Y-34453D01*
X26284Y-34424D01*
X26284Y-34353D01*
X26298Y-34324D01*
X26313Y-34310D01*
X26341Y-34296D01*
X26370Y-34296D01*
X26413Y-34310D01*
X26584Y-34481D01*
X26584Y-34296D01*
G54D14*
X26034Y-35026D02*
X26062Y-35035D01*
X26071Y-35045D01*
X26081Y-35064D01*
X26081Y-35092D01*
X26071Y-35110D01*
X26062Y-35120D01*
X26043Y-35129D01*
X25968Y-35129D01*
X25968Y-34932D01*
X26034Y-34932D01*
X26052Y-34942D01*
X26062Y-34951D01*
X26071Y-34970D01*
X26071Y-34989D01*
X26062Y-35007D01*
X26052Y-35017D01*
X26034Y-35026D01*
X25968Y-35026D01*
X26278Y-35110D02*
X26268Y-35120D01*
X26240Y-35129D01*
X26221Y-35129D01*
X26193Y-35120D01*
X26174Y-35101D01*
X26165Y-35082D01*
X26156Y-35045D01*
X26156Y-35017D01*
X26165Y-34979D01*
X26174Y-34960D01*
X26193Y-34942D01*
X26221Y-34932D01*
X26240Y-34932D01*
X26268Y-34942D01*
X26278Y-34951D01*
X26390Y-35017D02*
X26371Y-35007D01*
X26362Y-34998D01*
X26353Y-34979D01*
X26353Y-34970D01*
X26362Y-34951D01*
X26371Y-34942D01*
X26390Y-34932D01*
X26428Y-34932D01*
X26446Y-34942D01*
X26456Y-34951D01*
X26465Y-34970D01*
X26465Y-34979D01*
X26456Y-34998D01*
X26446Y-35007D01*
X26428Y-35017D01*
X26390Y-35017D01*
X26371Y-35026D01*
X26362Y-35035D01*
X26353Y-35054D01*
X26353Y-35092D01*
X26362Y-35110D01*
X26371Y-35120D01*
X26390Y-35129D01*
X26428Y-35129D01*
X26446Y-35120D01*
X26456Y-35110D01*
X26465Y-35092D01*
X26465Y-35054D01*
X26456Y-35035D01*
X26446Y-35026D01*
X26428Y-35017D01*
X26634Y-34998D02*
X26634Y-35129D01*
X26587Y-34923D02*
X26540Y-35064D01*
X26662Y-35064D01*
X26822Y-34932D02*
X26784Y-34932D01*
X26765Y-34942D01*
X26756Y-34951D01*
X26737Y-34979D01*
X26728Y-35017D01*
X26728Y-35092D01*
X26737Y-35110D01*
X26747Y-35120D01*
X26765Y-35129D01*
X26803Y-35129D01*
X26822Y-35120D01*
X26831Y-35110D01*
X26840Y-35092D01*
X26840Y-35045D01*
X26831Y-35026D01*
X26822Y-35017D01*
X26803Y-35007D01*
X26765Y-35007D01*
X26747Y-35017D01*
X26737Y-35026D01*
X26728Y-35045D01*
G54D22*
X29600Y-37578D02*
X29585Y-37607D01*
X29557Y-37635D01*
X29514Y-37678D01*
X29500Y-37707D01*
X29500Y-37735D01*
X29571Y-37721D02*
X29557Y-37750D01*
X29528Y-37778D01*
X29471Y-37792D01*
X29371Y-37792D01*
X29314Y-37778D01*
X29285Y-37750D01*
X29271Y-37721D01*
X29271Y-37664D01*
X29285Y-37635D01*
X29314Y-37607D01*
X29371Y-37592D01*
X29471Y-37592D01*
X29528Y-37607D01*
X29557Y-37635D01*
X29571Y-37664D01*
X29571Y-37721D01*
X29371Y-37335D02*
X29571Y-37335D01*
X29257Y-37407D02*
X29471Y-37478D01*
X29471Y-37292D01*
G54D14*
X29326Y-37134D02*
X29335Y-37106D01*
X29345Y-37097D01*
X29364Y-37087D01*
X29392Y-37087D01*
X29410Y-37097D01*
X29420Y-37106D01*
X29429Y-37125D01*
X29429Y-37200D01*
X29232Y-37200D01*
X29232Y-37134D01*
X29242Y-37115D01*
X29251Y-37106D01*
X29270Y-37097D01*
X29289Y-37097D01*
X29307Y-37106D01*
X29317Y-37115D01*
X29326Y-37134D01*
X29326Y-37200D01*
X29410Y-36890D02*
X29420Y-36900D01*
X29429Y-36928D01*
X29429Y-36946D01*
X29420Y-36975D01*
X29401Y-36993D01*
X29382Y-37003D01*
X29345Y-37012D01*
X29317Y-37012D01*
X29279Y-37003D01*
X29260Y-36993D01*
X29242Y-36975D01*
X29232Y-36946D01*
X29232Y-36928D01*
X29242Y-36900D01*
X29251Y-36890D01*
X29232Y-36825D02*
X29429Y-36778D01*
X29289Y-36740D01*
X29429Y-36703D01*
X29232Y-36656D01*
X29232Y-36496D02*
X29232Y-36534D01*
X29242Y-36552D01*
X29251Y-36562D01*
X29279Y-36581D01*
X29317Y-36590D01*
X29392Y-36590D01*
X29410Y-36581D01*
X29420Y-36571D01*
X29429Y-36552D01*
X29429Y-36515D01*
X29420Y-36496D01*
X29410Y-36487D01*
X29392Y-36477D01*
X29345Y-36477D01*
X29326Y-36487D01*
X29317Y-36496D01*
X29307Y-36515D01*
X29307Y-36552D01*
X29317Y-36571D01*
X29326Y-36581D01*
X29345Y-36590D01*
X29317Y-36365D02*
X29307Y-36384D01*
X29298Y-36393D01*
X29279Y-36402D01*
X29270Y-36402D01*
X29251Y-36393D01*
X29242Y-36384D01*
X29232Y-36365D01*
X29232Y-36327D01*
X29242Y-36309D01*
X29251Y-36299D01*
X29270Y-36290D01*
X29279Y-36290D01*
X29298Y-36299D01*
X29307Y-36309D01*
X29317Y-36327D01*
X29317Y-36365D01*
X29326Y-36384D01*
X29335Y-36393D01*
X29354Y-36402D01*
X29392Y-36402D01*
X29410Y-36393D01*
X29420Y-36384D01*
X29429Y-36365D01*
X29429Y-36327D01*
X29420Y-36309D01*
X29410Y-36299D01*
X29392Y-36290D01*
X29354Y-36290D01*
X29335Y-36299D01*
X29326Y-36309D01*
X29317Y-36327D01*
G54D22*
X32900Y-35928D02*
X32885Y-35957D01*
X32857Y-35985D01*
X32814Y-36028D01*
X32800Y-36057D01*
X32800Y-36085D01*
X32871Y-36071D02*
X32857Y-36100D01*
X32828Y-36128D01*
X32771Y-36142D01*
X32671Y-36142D01*
X32614Y-36128D01*
X32585Y-36100D01*
X32571Y-36071D01*
X32571Y-36014D01*
X32585Y-35985D01*
X32614Y-35957D01*
X32671Y-35942D01*
X32771Y-35942D01*
X32828Y-35957D01*
X32857Y-35985D01*
X32871Y-36014D01*
X32871Y-36071D01*
X32571Y-35671D02*
X32571Y-35814D01*
X32714Y-35828D01*
X32700Y-35814D01*
X32685Y-35785D01*
X32685Y-35714D01*
X32700Y-35685D01*
X32714Y-35671D01*
X32742Y-35657D01*
X32814Y-35657D01*
X32842Y-35671D01*
X32857Y-35685D01*
X32871Y-35714D01*
X32871Y-35785D01*
X32857Y-35814D01*
X32842Y-35828D01*
G54D14*
X31726Y-34565D02*
X31735Y-34537D01*
X31745Y-34528D01*
X31764Y-34518D01*
X31792Y-34518D01*
X31810Y-34528D01*
X31820Y-34537D01*
X31829Y-34556D01*
X31829Y-34631D01*
X31632Y-34631D01*
X31632Y-34565D01*
X31642Y-34547D01*
X31651Y-34537D01*
X31670Y-34528D01*
X31689Y-34528D01*
X31707Y-34537D01*
X31717Y-34547D01*
X31726Y-34565D01*
X31726Y-34631D01*
X31810Y-34321D02*
X31820Y-34331D01*
X31829Y-34359D01*
X31829Y-34378D01*
X31820Y-34406D01*
X31801Y-34425D01*
X31782Y-34434D01*
X31745Y-34443D01*
X31717Y-34443D01*
X31679Y-34434D01*
X31660Y-34425D01*
X31642Y-34406D01*
X31632Y-34378D01*
X31632Y-34359D01*
X31642Y-34331D01*
X31651Y-34321D01*
X31717Y-34209D02*
X31707Y-34228D01*
X31698Y-34237D01*
X31679Y-34246D01*
X31670Y-34246D01*
X31651Y-34237D01*
X31642Y-34228D01*
X31632Y-34209D01*
X31632Y-34171D01*
X31642Y-34153D01*
X31651Y-34143D01*
X31670Y-34134D01*
X31679Y-34134D01*
X31698Y-34143D01*
X31707Y-34153D01*
X31717Y-34171D01*
X31717Y-34209D01*
X31726Y-34228D01*
X31735Y-34237D01*
X31754Y-34246D01*
X31792Y-34246D01*
X31810Y-34237D01*
X31820Y-34228D01*
X31829Y-34209D01*
X31829Y-34171D01*
X31820Y-34153D01*
X31810Y-34143D01*
X31792Y-34134D01*
X31754Y-34134D01*
X31735Y-34143D01*
X31726Y-34153D01*
X31717Y-34171D01*
X31632Y-33956D02*
X31632Y-34049D01*
X31726Y-34059D01*
X31717Y-34049D01*
X31707Y-34031D01*
X31707Y-33984D01*
X31717Y-33965D01*
X31726Y-33956D01*
X31745Y-33946D01*
X31792Y-33946D01*
X31810Y-33956D01*
X31820Y-33965D01*
X31829Y-33984D01*
X31829Y-34031D01*
X31820Y-34049D01*
X31810Y-34059D01*
X31632Y-33777D02*
X31632Y-33815D01*
X31642Y-33834D01*
X31651Y-33843D01*
X31679Y-33862D01*
X31717Y-33871D01*
X31792Y-33871D01*
X31810Y-33862D01*
X31820Y-33852D01*
X31829Y-33834D01*
X31829Y-33796D01*
X31820Y-33777D01*
X31810Y-33768D01*
X31792Y-33759D01*
X31745Y-33759D01*
X31726Y-33768D01*
X31717Y-33777D01*
X31707Y-33796D01*
X31707Y-33834D01*
X31717Y-33852D01*
X31726Y-33862D01*
X31745Y-33871D01*
G54D22*
X35850Y-35878D02*
X35835Y-35907D01*
X35807Y-35935D01*
X35764Y-35978D01*
X35750Y-36007D01*
X35750Y-36035D01*
X35821Y-36021D02*
X35807Y-36050D01*
X35778Y-36078D01*
X35721Y-36092D01*
X35621Y-36092D01*
X35564Y-36078D01*
X35535Y-36050D01*
X35521Y-36021D01*
X35521Y-35964D01*
X35535Y-35935D01*
X35564Y-35907D01*
X35621Y-35892D01*
X35721Y-35892D01*
X35778Y-35907D01*
X35807Y-35935D01*
X35821Y-35964D01*
X35821Y-36021D01*
X35521Y-35635D02*
X35521Y-35692D01*
X35535Y-35721D01*
X35550Y-35735D01*
X35592Y-35764D01*
X35650Y-35778D01*
X35764Y-35778D01*
X35792Y-35764D01*
X35807Y-35750D01*
X35821Y-35721D01*
X35821Y-35664D01*
X35807Y-35635D01*
X35792Y-35621D01*
X35764Y-35607D01*
X35692Y-35607D01*
X35664Y-35621D01*
X35650Y-35635D01*
X35635Y-35664D01*
X35635Y-35721D01*
X35650Y-35750D01*
X35664Y-35764D01*
X35692Y-35778D01*
G54D14*
X34726Y-34615D02*
X34735Y-34587D01*
X34745Y-34578D01*
X34764Y-34568D01*
X34792Y-34568D01*
X34810Y-34578D01*
X34820Y-34587D01*
X34829Y-34606D01*
X34829Y-34681D01*
X34632Y-34681D01*
X34632Y-34615D01*
X34642Y-34597D01*
X34651Y-34587D01*
X34670Y-34578D01*
X34689Y-34578D01*
X34707Y-34587D01*
X34717Y-34597D01*
X34726Y-34615D01*
X34726Y-34681D01*
X34810Y-34371D02*
X34820Y-34381D01*
X34829Y-34409D01*
X34829Y-34428D01*
X34820Y-34456D01*
X34801Y-34475D01*
X34782Y-34484D01*
X34745Y-34493D01*
X34717Y-34493D01*
X34679Y-34484D01*
X34660Y-34475D01*
X34642Y-34456D01*
X34632Y-34428D01*
X34632Y-34409D01*
X34642Y-34381D01*
X34651Y-34371D01*
X34717Y-34259D02*
X34707Y-34278D01*
X34698Y-34287D01*
X34679Y-34296D01*
X34670Y-34296D01*
X34651Y-34287D01*
X34642Y-34278D01*
X34632Y-34259D01*
X34632Y-34221D01*
X34642Y-34203D01*
X34651Y-34193D01*
X34670Y-34184D01*
X34679Y-34184D01*
X34698Y-34193D01*
X34707Y-34203D01*
X34717Y-34221D01*
X34717Y-34259D01*
X34726Y-34278D01*
X34735Y-34287D01*
X34754Y-34296D01*
X34792Y-34296D01*
X34810Y-34287D01*
X34820Y-34278D01*
X34829Y-34259D01*
X34829Y-34221D01*
X34820Y-34203D01*
X34810Y-34193D01*
X34792Y-34184D01*
X34754Y-34184D01*
X34735Y-34193D01*
X34726Y-34203D01*
X34717Y-34221D01*
X34632Y-34006D02*
X34632Y-34099D01*
X34726Y-34109D01*
X34717Y-34099D01*
X34707Y-34081D01*
X34707Y-34034D01*
X34717Y-34015D01*
X34726Y-34006D01*
X34745Y-33996D01*
X34792Y-33996D01*
X34810Y-34006D01*
X34820Y-34015D01*
X34829Y-34034D01*
X34829Y-34081D01*
X34820Y-34099D01*
X34810Y-34109D01*
X34632Y-33827D02*
X34632Y-33865D01*
X34642Y-33884D01*
X34651Y-33893D01*
X34679Y-33912D01*
X34717Y-33921D01*
X34792Y-33921D01*
X34810Y-33912D01*
X34820Y-33902D01*
X34829Y-33884D01*
X34829Y-33846D01*
X34820Y-33827D01*
X34810Y-33818D01*
X34792Y-33809D01*
X34745Y-33809D01*
X34726Y-33818D01*
X34717Y-33827D01*
X34707Y-33846D01*
X34707Y-33884D01*
X34717Y-33902D01*
X34726Y-33912D01*
X34745Y-33921D01*
G54D22*
X39221Y-35600D02*
X39192Y-35585D01*
X39164Y-35557D01*
X39121Y-35514D01*
X39092Y-35500D01*
X39064Y-35500D01*
X39078Y-35571D02*
X39050Y-35557D01*
X39021Y-35528D01*
X39007Y-35471D01*
X39007Y-35371D01*
X39021Y-35314D01*
X39050Y-35285D01*
X39078Y-35271D01*
X39135Y-35271D01*
X39164Y-35285D01*
X39192Y-35314D01*
X39207Y-35371D01*
X39207Y-35471D01*
X39192Y-35528D01*
X39164Y-35557D01*
X39135Y-35571D01*
X39078Y-35571D01*
X39307Y-35271D02*
X39507Y-35271D01*
X39378Y-35571D01*
G54D14*
X38984Y-34976D02*
X39012Y-34985D01*
X39021Y-34995D01*
X39031Y-35014D01*
X39031Y-35042D01*
X39021Y-35060D01*
X39012Y-35070D01*
X38993Y-35079D01*
X38918Y-35079D01*
X38918Y-34882D01*
X38984Y-34882D01*
X39002Y-34892D01*
X39012Y-34901D01*
X39021Y-34920D01*
X39021Y-34939D01*
X39012Y-34957D01*
X39002Y-34967D01*
X38984Y-34976D01*
X38918Y-34976D01*
X39228Y-35060D02*
X39218Y-35070D01*
X39190Y-35079D01*
X39171Y-35079D01*
X39143Y-35070D01*
X39124Y-35051D01*
X39115Y-35032D01*
X39106Y-34995D01*
X39106Y-34967D01*
X39115Y-34929D01*
X39124Y-34910D01*
X39143Y-34892D01*
X39171Y-34882D01*
X39190Y-34882D01*
X39218Y-34892D01*
X39228Y-34901D01*
X39340Y-34967D02*
X39321Y-34957D01*
X39312Y-34948D01*
X39303Y-34929D01*
X39303Y-34920D01*
X39312Y-34901D01*
X39321Y-34892D01*
X39340Y-34882D01*
X39378Y-34882D01*
X39396Y-34892D01*
X39406Y-34901D01*
X39415Y-34920D01*
X39415Y-34929D01*
X39406Y-34948D01*
X39396Y-34957D01*
X39378Y-34967D01*
X39340Y-34967D01*
X39321Y-34976D01*
X39312Y-34985D01*
X39303Y-35004D01*
X39303Y-35042D01*
X39312Y-35060D01*
X39321Y-35070D01*
X39340Y-35079D01*
X39378Y-35079D01*
X39396Y-35070D01*
X39406Y-35060D01*
X39415Y-35042D01*
X39415Y-35004D01*
X39406Y-34985D01*
X39396Y-34976D01*
X39378Y-34967D01*
X39593Y-34882D02*
X39500Y-34882D01*
X39490Y-34976D01*
X39500Y-34967D01*
X39518Y-34957D01*
X39565Y-34957D01*
X39584Y-34967D01*
X39593Y-34976D01*
X39603Y-34995D01*
X39603Y-35042D01*
X39593Y-35060D01*
X39584Y-35070D01*
X39565Y-35079D01*
X39518Y-35079D01*
X39500Y-35070D01*
X39490Y-35060D01*
X39772Y-34882D02*
X39734Y-34882D01*
X39715Y-34892D01*
X39706Y-34901D01*
X39687Y-34929D01*
X39678Y-34967D01*
X39678Y-35042D01*
X39687Y-35060D01*
X39697Y-35070D01*
X39715Y-35079D01*
X39753Y-35079D01*
X39772Y-35070D01*
X39781Y-35060D01*
X39790Y-35042D01*
X39790Y-34995D01*
X39781Y-34976D01*
X39772Y-34967D01*
X39753Y-34957D01*
X39715Y-34957D01*
X39697Y-34967D01*
X39687Y-34976D01*
X39678Y-34995D01*
G54D18*
X41200Y-31392D02*
X40914Y-31392D01*
X40914Y-30792D01*
X41714Y-31392D02*
X41371Y-31392D01*
X41542Y-31392D02*
X41542Y-30792D01*
X41485Y-30878D01*
X41428Y-30935D01*
X41371Y-30964D01*
X37792Y-28328D02*
X37792Y-28442D01*
X37821Y-28500D01*
X37850Y-28528D01*
X37935Y-28585D01*
X38050Y-28614D01*
X38278Y-28614D01*
X38335Y-28585D01*
X38364Y-28557D01*
X38392Y-28500D01*
X38392Y-28385D01*
X38364Y-28328D01*
X38335Y-28300D01*
X38278Y-28271D01*
X38135Y-28271D01*
X38078Y-28300D01*
X38050Y-28328D01*
X38021Y-28385D01*
X38021Y-28500D01*
X38050Y-28557D01*
X38078Y-28585D01*
X38135Y-28614D01*
X38050Y-27928D02*
X38021Y-27985D01*
X37992Y-28014D01*
X37935Y-28042D01*
X37907Y-28042D01*
X37850Y-28014D01*
X37821Y-27985D01*
X37792Y-27928D01*
X37792Y-27814D01*
X37821Y-27757D01*
X37850Y-27728D01*
X37907Y-27700D01*
X37935Y-27700D01*
X37992Y-27728D01*
X38021Y-27757D01*
X38050Y-27814D01*
X38050Y-27928D01*
X38078Y-27985D01*
X38107Y-28014D01*
X38164Y-28042D01*
X38278Y-28042D01*
X38335Y-28014D01*
X38364Y-27985D01*
X38392Y-27928D01*
X38392Y-27814D01*
X38364Y-27757D01*
X38335Y-27728D01*
X38278Y-27700D01*
X38164Y-27700D01*
X38107Y-27728D01*
X38078Y-27757D01*
X38050Y-27814D01*
X37792Y-27328D02*
X37792Y-27271D01*
X37821Y-27214D01*
X37850Y-27185D01*
X37907Y-27157D01*
X38021Y-27128D01*
X38164Y-27128D01*
X38278Y-27157D01*
X38335Y-27185D01*
X38364Y-27214D01*
X38392Y-27271D01*
X38392Y-27328D01*
X38364Y-27385D01*
X38335Y-27414D01*
X38278Y-27442D01*
X38164Y-27471D01*
X38021Y-27471D01*
X37907Y-27442D01*
X37850Y-27414D01*
X37821Y-27385D01*
X37792Y-27328D01*
X37992Y-26614D02*
X38392Y-26614D01*
X37992Y-26871D02*
X38307Y-26871D01*
X38364Y-26842D01*
X38392Y-26785D01*
X38392Y-26699D01*
X38364Y-26642D01*
X38335Y-26614D01*
G54D23*
X29229Y-33076D02*
X29135Y-33142D01*
X29229Y-33189D02*
X29032Y-33189D01*
X29032Y-33114D01*
X29042Y-33095D01*
X29051Y-33086D01*
X29070Y-33076D01*
X29098Y-33076D01*
X29117Y-33086D01*
X29126Y-33095D01*
X29135Y-33114D01*
X29135Y-33189D01*
X29032Y-33010D02*
X29032Y-32889D01*
X29107Y-32954D01*
X29107Y-32926D01*
X29117Y-32907D01*
X29126Y-32898D01*
X29145Y-32889D01*
X29192Y-32889D01*
X29210Y-32898D01*
X29220Y-32907D01*
X29229Y-32926D01*
X29229Y-32982D01*
X29220Y-33001D01*
X29210Y-33010D01*
X29229Y-32701D02*
X29229Y-32813D01*
X29229Y-32757D02*
X29032Y-32757D01*
X29060Y-32776D01*
X29079Y-32795D01*
X29089Y-32813D01*
X29398Y-33136D02*
X29529Y-33136D01*
X29323Y-33182D02*
X29464Y-33229D01*
X29464Y-33107D01*
X29529Y-33032D02*
X29332Y-33032D01*
X29454Y-33014D02*
X29529Y-32957D01*
X29398Y-32957D02*
X29473Y-33032D01*
X29332Y-32892D02*
X29332Y-32760D01*
X29529Y-32845D01*
X40923Y-26679D02*
X40857Y-26585D01*
X40810Y-26679D02*
X40810Y-26482D01*
X40885Y-26482D01*
X40904Y-26492D01*
X40913Y-26501D01*
X40923Y-26520D01*
X40923Y-26548D01*
X40913Y-26567D01*
X40904Y-26576D01*
X40885Y-26585D01*
X40810Y-26585D01*
X40998Y-26501D02*
X41007Y-26492D01*
X41026Y-26482D01*
X41073Y-26482D01*
X41092Y-26492D01*
X41101Y-26501D01*
X41110Y-26520D01*
X41110Y-26539D01*
X41101Y-26567D01*
X40989Y-26679D01*
X41110Y-26679D01*
X41204Y-26679D02*
X41242Y-26679D01*
X41261Y-26670D01*
X41270Y-26660D01*
X41289Y-26632D01*
X41298Y-26595D01*
X41298Y-26520D01*
X41289Y-26501D01*
X41279Y-26492D01*
X41261Y-26482D01*
X41223Y-26482D01*
X41204Y-26492D01*
X41195Y-26501D01*
X41186Y-26520D01*
X41186Y-26567D01*
X41195Y-26585D01*
X41204Y-26595D01*
X41223Y-26604D01*
X41261Y-26604D01*
X41279Y-26595D01*
X41289Y-26585D01*
X41298Y-26567D01*
X40870Y-26901D02*
X40879Y-26892D01*
X40898Y-26882D01*
X40945Y-26882D01*
X40963Y-26892D01*
X40973Y-26901D01*
X40982Y-26920D01*
X40982Y-26939D01*
X40973Y-26967D01*
X40860Y-27079D01*
X40982Y-27079D01*
X41067Y-27079D02*
X41067Y-26882D01*
X41085Y-27004D02*
X41142Y-27079D01*
X41142Y-26948D02*
X41067Y-27023D01*
X41217Y-26901D02*
X41226Y-26892D01*
X41245Y-26882D01*
X41292Y-26882D01*
X41311Y-26892D01*
X41320Y-26901D01*
X41329Y-26920D01*
X41329Y-26939D01*
X41320Y-26967D01*
X41207Y-27079D01*
X41329Y-27079D01*
X31073Y-24629D02*
X31007Y-24535D01*
X30960Y-24629D02*
X30960Y-24432D01*
X31035Y-24432D01*
X31054Y-24442D01*
X31063Y-24451D01*
X31073Y-24470D01*
X31073Y-24498D01*
X31063Y-24517D01*
X31054Y-24526D01*
X31035Y-24535D01*
X30960Y-24535D01*
X31148Y-24451D02*
X31157Y-24442D01*
X31176Y-24432D01*
X31223Y-24432D01*
X31242Y-24442D01*
X31251Y-24451D01*
X31260Y-24470D01*
X31260Y-24489D01*
X31251Y-24517D01*
X31139Y-24629D01*
X31260Y-24629D01*
X31382Y-24432D02*
X31401Y-24432D01*
X31420Y-24442D01*
X31429Y-24451D01*
X31439Y-24470D01*
X31448Y-24507D01*
X31448Y-24554D01*
X31439Y-24592D01*
X31429Y-24610D01*
X31420Y-24620D01*
X31401Y-24629D01*
X31382Y-24629D01*
X31364Y-24620D01*
X31354Y-24610D01*
X31345Y-24592D01*
X31336Y-24554D01*
X31336Y-24507D01*
X31345Y-24470D01*
X31354Y-24451D01*
X31364Y-24442D01*
X31382Y-24432D01*
X31799Y-24498D02*
X31799Y-24629D01*
X31753Y-24423D02*
X31706Y-24564D01*
X31828Y-24564D01*
X31884Y-24432D02*
X32015Y-24432D01*
X31931Y-24629D01*
X32128Y-24432D02*
X32147Y-24432D01*
X32165Y-24442D01*
X32175Y-24451D01*
X32184Y-24470D01*
X32193Y-24507D01*
X32193Y-24554D01*
X32184Y-24592D01*
X32175Y-24610D01*
X32165Y-24620D01*
X32147Y-24629D01*
X32128Y-24629D01*
X32109Y-24620D01*
X32100Y-24610D01*
X32090Y-24592D01*
X32081Y-24554D01*
X32081Y-24507D01*
X32090Y-24470D01*
X32100Y-24451D01*
X32109Y-24442D01*
X32128Y-24432D01*
X28923Y-28629D02*
X28857Y-28535D01*
X28810Y-28629D02*
X28810Y-28432D01*
X28885Y-28432D01*
X28904Y-28442D01*
X28913Y-28451D01*
X28923Y-28470D01*
X28923Y-28498D01*
X28913Y-28517D01*
X28904Y-28526D01*
X28885Y-28535D01*
X28810Y-28535D01*
X29110Y-28629D02*
X28998Y-28629D01*
X29054Y-28629D02*
X29054Y-28432D01*
X29035Y-28460D01*
X29017Y-28479D01*
X28998Y-28489D01*
X29204Y-28629D02*
X29242Y-28629D01*
X29261Y-28620D01*
X29270Y-28610D01*
X29289Y-28582D01*
X29298Y-28545D01*
X29298Y-28470D01*
X29289Y-28451D01*
X29279Y-28442D01*
X29261Y-28432D01*
X29223Y-28432D01*
X29204Y-28442D01*
X29195Y-28451D01*
X29186Y-28470D01*
X29186Y-28517D01*
X29195Y-28535D01*
X29204Y-28545D01*
X29223Y-28554D01*
X29261Y-28554D01*
X29279Y-28545D01*
X29289Y-28535D01*
X29298Y-28517D01*
X28232Y-28629D02*
X28120Y-28629D01*
X28176Y-28629D02*
X28176Y-28432D01*
X28157Y-28460D01*
X28138Y-28479D01*
X28120Y-28489D01*
X28354Y-28432D02*
X28373Y-28432D01*
X28392Y-28442D01*
X28401Y-28451D01*
X28410Y-28470D01*
X28420Y-28507D01*
X28420Y-28554D01*
X28410Y-28592D01*
X28401Y-28610D01*
X28392Y-28620D01*
X28373Y-28629D01*
X28354Y-28629D01*
X28335Y-28620D01*
X28326Y-28610D01*
X28317Y-28592D01*
X28307Y-28554D01*
X28307Y-28507D01*
X28317Y-28470D01*
X28326Y-28451D01*
X28335Y-28442D01*
X28354Y-28432D01*
X28504Y-28629D02*
X28504Y-28432D01*
X28523Y-28554D02*
X28579Y-28629D01*
X28579Y-28498D02*
X28504Y-28573D01*
X27210Y-26182D02*
X27220Y-26192D01*
X27229Y-26220D01*
X27229Y-26239D01*
X27220Y-26267D01*
X27201Y-26286D01*
X27182Y-26295D01*
X27145Y-26304D01*
X27117Y-26304D01*
X27079Y-26295D01*
X27060Y-26286D01*
X27042Y-26267D01*
X27032Y-26239D01*
X27032Y-26220D01*
X27042Y-26192D01*
X27051Y-26182D01*
X27051Y-26107D02*
X27042Y-26098D01*
X27032Y-26079D01*
X27032Y-26032D01*
X27042Y-26013D01*
X27051Y-26004D01*
X27070Y-25995D01*
X27089Y-25995D01*
X27117Y-26004D01*
X27229Y-26117D01*
X27229Y-25995D01*
X27232Y-28392D02*
X27232Y-28270D01*
X27307Y-28336D01*
X27307Y-28307D01*
X27317Y-28289D01*
X27326Y-28279D01*
X27345Y-28270D01*
X27392Y-28270D01*
X27410Y-28279D01*
X27420Y-28289D01*
X27429Y-28307D01*
X27429Y-28364D01*
X27420Y-28383D01*
X27410Y-28392D01*
X27232Y-28204D02*
X27232Y-28082D01*
X27307Y-28148D01*
X27307Y-28120D01*
X27317Y-28101D01*
X27326Y-28092D01*
X27345Y-28082D01*
X27392Y-28082D01*
X27410Y-28092D01*
X27420Y-28101D01*
X27429Y-28120D01*
X27429Y-28176D01*
X27420Y-28195D01*
X27410Y-28204D01*
X27232Y-27960D02*
X27232Y-27942D01*
X27242Y-27923D01*
X27251Y-27913D01*
X27270Y-27904D01*
X27307Y-27895D01*
X27354Y-27895D01*
X27392Y-27904D01*
X27410Y-27913D01*
X27420Y-27923D01*
X27429Y-27942D01*
X27429Y-27960D01*
X27420Y-27979D01*
X27410Y-27989D01*
X27392Y-27998D01*
X27354Y-28007D01*
X27307Y-28007D01*
X27270Y-27998D01*
X27251Y-27989D01*
X27242Y-27979D01*
X27232Y-27960D01*
X27298Y-27810D02*
X27429Y-27810D01*
X27317Y-27810D02*
X27307Y-27801D01*
X27298Y-27782D01*
X27298Y-27754D01*
X27307Y-27735D01*
X27326Y-27726D01*
X27429Y-27726D01*
X26417Y-25660D02*
X26407Y-25670D01*
X26379Y-25679D01*
X26360Y-25679D01*
X26332Y-25670D01*
X26313Y-25651D01*
X26304Y-25632D01*
X26295Y-25595D01*
X26295Y-25567D01*
X26304Y-25529D01*
X26313Y-25510D01*
X26332Y-25492D01*
X26360Y-25482D01*
X26379Y-25482D01*
X26407Y-25492D01*
X26417Y-25501D01*
X26482Y-25482D02*
X26604Y-25482D01*
X26539Y-25557D01*
X26567Y-25557D01*
X26586Y-25567D01*
X26595Y-25576D01*
X26604Y-25595D01*
X26604Y-25642D01*
X26595Y-25660D01*
X26586Y-25670D01*
X26567Y-25679D01*
X26510Y-25679D01*
X26492Y-25670D01*
X26482Y-25660D01*
X26529Y-25279D02*
X26416Y-25279D01*
X26473Y-25279D02*
X26473Y-25082D01*
X26454Y-25110D01*
X26435Y-25129D01*
X26416Y-25139D01*
X26651Y-25082D02*
X26670Y-25082D01*
X26689Y-25092D01*
X26698Y-25101D01*
X26707Y-25120D01*
X26717Y-25157D01*
X26717Y-25204D01*
X26707Y-25242D01*
X26698Y-25260D01*
X26689Y-25270D01*
X26670Y-25279D01*
X26651Y-25279D01*
X26632Y-25270D01*
X26623Y-25260D01*
X26613Y-25242D01*
X26604Y-25204D01*
X26604Y-25157D01*
X26613Y-25120D01*
X26623Y-25101D01*
X26632Y-25092D01*
X26651Y-25082D01*
X26839Y-25082D02*
X26857Y-25082D01*
X26876Y-25092D01*
X26886Y-25101D01*
X26895Y-25120D01*
X26904Y-25157D01*
X26904Y-25204D01*
X26895Y-25242D01*
X26886Y-25260D01*
X26876Y-25270D01*
X26857Y-25279D01*
X26839Y-25279D01*
X26820Y-25270D01*
X26810Y-25260D01*
X26801Y-25242D01*
X26792Y-25204D01*
X26792Y-25157D01*
X26801Y-25120D01*
X26810Y-25101D01*
X26820Y-25092D01*
X26839Y-25082D01*
X26989Y-25148D02*
X26989Y-25279D01*
X26989Y-25167D02*
X26998Y-25157D01*
X27017Y-25148D01*
X27045Y-25148D01*
X27064Y-25157D01*
X27073Y-25176D01*
X27073Y-25279D01*
X35073Y-24629D02*
X35007Y-24535D01*
X34960Y-24629D02*
X34960Y-24432D01*
X35035Y-24432D01*
X35054Y-24442D01*
X35063Y-24451D01*
X35073Y-24470D01*
X35073Y-24498D01*
X35063Y-24517D01*
X35054Y-24526D01*
X35035Y-24535D01*
X34960Y-24535D01*
X35148Y-24451D02*
X35157Y-24442D01*
X35176Y-24432D01*
X35223Y-24432D01*
X35242Y-24442D01*
X35251Y-24451D01*
X35260Y-24470D01*
X35260Y-24489D01*
X35251Y-24517D01*
X35139Y-24629D01*
X35260Y-24629D01*
X35336Y-24451D02*
X35345Y-24442D01*
X35364Y-24432D01*
X35411Y-24432D01*
X35429Y-24442D01*
X35439Y-24451D01*
X35448Y-24470D01*
X35448Y-24489D01*
X35439Y-24517D01*
X35326Y-24629D01*
X35448Y-24629D01*
X35776Y-24529D02*
X35663Y-24529D01*
X35720Y-24529D02*
X35720Y-24332D01*
X35701Y-24360D01*
X35682Y-24379D01*
X35663Y-24389D01*
X35860Y-24529D02*
X35860Y-24332D01*
X35879Y-24454D02*
X35936Y-24529D01*
X35936Y-24398D02*
X35860Y-24473D01*
X36473Y-29779D02*
X36407Y-29685D01*
X36360Y-29779D02*
X36360Y-29582D01*
X36435Y-29582D01*
X36454Y-29592D01*
X36463Y-29601D01*
X36473Y-29620D01*
X36473Y-29648D01*
X36463Y-29667D01*
X36454Y-29676D01*
X36435Y-29685D01*
X36360Y-29685D01*
X36548Y-29601D02*
X36557Y-29592D01*
X36576Y-29582D01*
X36623Y-29582D01*
X36642Y-29592D01*
X36651Y-29601D01*
X36660Y-29620D01*
X36660Y-29639D01*
X36651Y-29667D01*
X36539Y-29779D01*
X36660Y-29779D01*
X36848Y-29779D02*
X36736Y-29779D01*
X36792Y-29779D02*
X36792Y-29582D01*
X36773Y-29610D01*
X36754Y-29629D01*
X36736Y-29639D01*
X37113Y-29698D02*
X37113Y-29829D01*
X37067Y-29623D02*
X37020Y-29764D01*
X37142Y-29764D01*
X37198Y-29632D02*
X37329Y-29632D01*
X37245Y-29829D01*
X37404Y-29829D02*
X37404Y-29632D01*
X37423Y-29754D02*
X37479Y-29829D01*
X37479Y-29698D02*
X37404Y-29773D01*
X43223Y-28079D02*
X43157Y-27985D01*
X43110Y-28079D02*
X43110Y-27882D01*
X43185Y-27882D01*
X43204Y-27892D01*
X43213Y-27901D01*
X43223Y-27920D01*
X43223Y-27948D01*
X43213Y-27967D01*
X43204Y-27976D01*
X43185Y-27985D01*
X43110Y-27985D01*
X43289Y-27882D02*
X43410Y-27882D01*
X43345Y-27957D01*
X43373Y-27957D01*
X43392Y-27967D01*
X43401Y-27976D01*
X43410Y-27995D01*
X43410Y-28042D01*
X43401Y-28060D01*
X43392Y-28070D01*
X43373Y-28079D01*
X43317Y-28079D01*
X43298Y-28070D01*
X43289Y-28060D01*
X43532Y-27882D02*
X43551Y-27882D01*
X43570Y-27892D01*
X43579Y-27901D01*
X43589Y-27920D01*
X43598Y-27957D01*
X43598Y-28004D01*
X43589Y-28042D01*
X43579Y-28060D01*
X43570Y-28070D01*
X43551Y-28079D01*
X43532Y-28079D01*
X43514Y-28070D01*
X43504Y-28060D01*
X43495Y-28042D01*
X43486Y-28004D01*
X43486Y-27957D01*
X43495Y-27920D01*
X43504Y-27901D01*
X43514Y-27892D01*
X43532Y-27882D01*
X43570Y-28901D02*
X43579Y-28892D01*
X43598Y-28882D01*
X43645Y-28882D01*
X43663Y-28892D01*
X43673Y-28901D01*
X43682Y-28920D01*
X43682Y-28939D01*
X43673Y-28967D01*
X43560Y-29079D01*
X43682Y-29079D01*
X43767Y-29079D02*
X43767Y-28882D01*
X43785Y-29004D02*
X43842Y-29079D01*
X43842Y-28948D02*
X43767Y-29023D01*
X43917Y-28901D02*
X43926Y-28892D01*
X43945Y-28882D01*
X43992Y-28882D01*
X44011Y-28892D01*
X44020Y-28901D01*
X44029Y-28920D01*
X44029Y-28939D01*
X44020Y-28967D01*
X43907Y-29079D01*
X44029Y-29079D01*
X32329Y-37782D02*
X32235Y-37848D01*
X32329Y-37895D02*
X32132Y-37895D01*
X32132Y-37820D01*
X32142Y-37801D01*
X32151Y-37792D01*
X32170Y-37782D01*
X32198Y-37782D01*
X32217Y-37792D01*
X32226Y-37801D01*
X32235Y-37820D01*
X32235Y-37895D01*
X32329Y-37689D02*
X32329Y-37651D01*
X32320Y-37632D01*
X32310Y-37623D01*
X32282Y-37604D01*
X32245Y-37595D01*
X32170Y-37595D01*
X32151Y-37604D01*
X32142Y-37613D01*
X32132Y-37632D01*
X32132Y-37670D01*
X32142Y-37689D01*
X32151Y-37698D01*
X32170Y-37707D01*
X32217Y-37707D01*
X32235Y-37698D01*
X32245Y-37689D01*
X32254Y-37670D01*
X32254Y-37632D01*
X32245Y-37613D01*
X32235Y-37604D01*
X32217Y-37595D01*
X33379Y-38023D02*
X33379Y-38136D01*
X33379Y-38079D02*
X33182Y-38079D01*
X33210Y-38098D01*
X33229Y-38117D01*
X33239Y-38136D01*
X33379Y-37939D02*
X33182Y-37939D01*
X33304Y-37920D02*
X33379Y-37863D01*
X33248Y-37863D02*
X33323Y-37939D01*
X31567Y-37429D02*
X31501Y-37335D01*
X31454Y-37429D02*
X31454Y-37232D01*
X31529Y-37232D01*
X31548Y-37242D01*
X31557Y-37251D01*
X31567Y-37270D01*
X31567Y-37298D01*
X31557Y-37317D01*
X31548Y-37326D01*
X31529Y-37335D01*
X31454Y-37335D01*
X31679Y-37317D02*
X31660Y-37307D01*
X31651Y-37298D01*
X31642Y-37279D01*
X31642Y-37270D01*
X31651Y-37251D01*
X31660Y-37242D01*
X31679Y-37232D01*
X31717Y-37232D01*
X31736Y-37242D01*
X31745Y-37251D01*
X31754Y-37270D01*
X31754Y-37279D01*
X31745Y-37298D01*
X31736Y-37307D01*
X31717Y-37317D01*
X31679Y-37317D01*
X31660Y-37326D01*
X31651Y-37335D01*
X31642Y-37354D01*
X31642Y-37392D01*
X31651Y-37410D01*
X31660Y-37420D01*
X31679Y-37429D01*
X31717Y-37429D01*
X31736Y-37420D01*
X31745Y-37410D01*
X31754Y-37392D01*
X31754Y-37354D01*
X31745Y-37335D01*
X31736Y-37326D01*
X31717Y-37317D01*
X31613Y-37598D02*
X31613Y-37729D01*
X31567Y-37523D02*
X31520Y-37664D01*
X31642Y-37664D01*
X31698Y-37532D02*
X31829Y-37532D01*
X31745Y-37729D01*
X31904Y-37729D02*
X31904Y-37532D01*
X31923Y-37654D02*
X31979Y-37729D01*
X31979Y-37598D02*
X31904Y-37673D01*
X41379Y-36526D02*
X41285Y-36592D01*
X41379Y-36639D02*
X41182Y-36639D01*
X41182Y-36564D01*
X41192Y-36545D01*
X41201Y-36536D01*
X41220Y-36526D01*
X41248Y-36526D01*
X41267Y-36536D01*
X41276Y-36545D01*
X41285Y-36564D01*
X41285Y-36639D01*
X41379Y-36339D02*
X41379Y-36451D01*
X41379Y-36395D02*
X41182Y-36395D01*
X41210Y-36414D01*
X41229Y-36432D01*
X41239Y-36451D01*
X41182Y-36273D02*
X41182Y-36151D01*
X41257Y-36217D01*
X41257Y-36188D01*
X41267Y-36170D01*
X41276Y-36160D01*
X41295Y-36151D01*
X41342Y-36151D01*
X41360Y-36160D01*
X41370Y-36170D01*
X41379Y-36188D01*
X41379Y-36245D01*
X41370Y-36263D01*
X41360Y-36273D01*
X41379Y-35723D02*
X41379Y-35836D01*
X41379Y-35779D02*
X41182Y-35779D01*
X41210Y-35798D01*
X41229Y-35817D01*
X41239Y-35836D01*
X41379Y-35639D02*
X41182Y-35639D01*
X41304Y-35620D02*
X41379Y-35563D01*
X41248Y-35563D02*
X41323Y-35639D01*
X32229Y-33126D02*
X32135Y-33192D01*
X32229Y-33239D02*
X32032Y-33239D01*
X32032Y-33164D01*
X32042Y-33145D01*
X32051Y-33136D01*
X32070Y-33126D01*
X32098Y-33126D01*
X32117Y-33136D01*
X32126Y-33145D01*
X32135Y-33164D01*
X32135Y-33239D01*
X32032Y-33060D02*
X32032Y-32939D01*
X32107Y-33004D01*
X32107Y-32976D01*
X32117Y-32957D01*
X32126Y-32948D01*
X32145Y-32939D01*
X32192Y-32939D01*
X32210Y-32948D01*
X32220Y-32957D01*
X32229Y-32976D01*
X32229Y-33032D01*
X32220Y-33051D01*
X32210Y-33060D01*
X32051Y-32863D02*
X32042Y-32854D01*
X32032Y-32835D01*
X32032Y-32788D01*
X32042Y-32770D01*
X32051Y-32760D01*
X32070Y-32751D01*
X32089Y-32751D01*
X32117Y-32760D01*
X32229Y-32873D01*
X32229Y-32751D01*
X32448Y-33186D02*
X32579Y-33186D01*
X32373Y-33232D02*
X32514Y-33279D01*
X32514Y-33157D01*
X32579Y-33082D02*
X32382Y-33082D01*
X32504Y-33064D02*
X32579Y-33007D01*
X32448Y-33007D02*
X32523Y-33082D01*
X32382Y-32942D02*
X32382Y-32810D01*
X32579Y-32895D01*
X35129Y-33176D02*
X35035Y-33242D01*
X35129Y-33289D02*
X34932Y-33289D01*
X34932Y-33214D01*
X34942Y-33195D01*
X34951Y-33186D01*
X34970Y-33176D01*
X34998Y-33176D01*
X35017Y-33186D01*
X35026Y-33195D01*
X35035Y-33214D01*
X35035Y-33289D01*
X34932Y-33110D02*
X34932Y-32989D01*
X35007Y-33054D01*
X35007Y-33026D01*
X35017Y-33007D01*
X35026Y-32998D01*
X35045Y-32989D01*
X35092Y-32989D01*
X35110Y-32998D01*
X35120Y-33007D01*
X35129Y-33026D01*
X35129Y-33082D01*
X35120Y-33101D01*
X35110Y-33110D01*
X34932Y-32923D02*
X34932Y-32801D01*
X35007Y-32867D01*
X35007Y-32838D01*
X35017Y-32820D01*
X35026Y-32810D01*
X35045Y-32801D01*
X35092Y-32801D01*
X35110Y-32810D01*
X35120Y-32820D01*
X35129Y-32838D01*
X35129Y-32895D01*
X35120Y-32913D01*
X35110Y-32923D01*
X35348Y-33236D02*
X35479Y-33236D01*
X35273Y-33282D02*
X35414Y-33329D01*
X35414Y-33207D01*
X35479Y-33132D02*
X35282Y-33132D01*
X35404Y-33114D02*
X35479Y-33057D01*
X35348Y-33057D02*
X35423Y-33132D01*
X35282Y-32992D02*
X35282Y-32860D01*
X35479Y-32945D01*
X37829Y-33876D02*
X37735Y-33942D01*
X37829Y-33989D02*
X37632Y-33989D01*
X37632Y-33914D01*
X37642Y-33895D01*
X37651Y-33886D01*
X37670Y-33876D01*
X37698Y-33876D01*
X37717Y-33886D01*
X37726Y-33895D01*
X37735Y-33914D01*
X37735Y-33989D01*
X37632Y-33810D02*
X37632Y-33689D01*
X37707Y-33754D01*
X37707Y-33726D01*
X37717Y-33707D01*
X37726Y-33698D01*
X37745Y-33689D01*
X37792Y-33689D01*
X37810Y-33698D01*
X37820Y-33707D01*
X37829Y-33726D01*
X37829Y-33782D01*
X37820Y-33801D01*
X37810Y-33810D01*
X37698Y-33520D02*
X37829Y-33520D01*
X37623Y-33567D02*
X37764Y-33613D01*
X37764Y-33492D01*
X38348Y-33236D02*
X38479Y-33236D01*
X38273Y-33282D02*
X38414Y-33329D01*
X38414Y-33207D01*
X38479Y-33132D02*
X38282Y-33132D01*
X38404Y-33114D02*
X38479Y-33057D01*
X38348Y-33057D02*
X38423Y-33132D01*
X38282Y-32992D02*
X38282Y-32860D01*
X38479Y-32945D01*
X24523Y-28079D02*
X24457Y-27985D01*
X24410Y-28079D02*
X24410Y-27882D01*
X24485Y-27882D01*
X24504Y-27892D01*
X24513Y-27901D01*
X24523Y-27920D01*
X24523Y-27948D01*
X24513Y-27967D01*
X24504Y-27976D01*
X24485Y-27985D01*
X24410Y-27985D01*
X24598Y-27901D02*
X24607Y-27892D01*
X24626Y-27882D01*
X24673Y-27882D01*
X24692Y-27892D01*
X24701Y-27901D01*
X24710Y-27920D01*
X24710Y-27939D01*
X24701Y-27967D01*
X24589Y-28079D01*
X24710Y-28079D01*
X24823Y-27967D02*
X24804Y-27957D01*
X24795Y-27948D01*
X24786Y-27929D01*
X24786Y-27920D01*
X24795Y-27901D01*
X24804Y-27892D01*
X24823Y-27882D01*
X24861Y-27882D01*
X24879Y-27892D01*
X24889Y-27901D01*
X24898Y-27920D01*
X24898Y-27929D01*
X24889Y-27948D01*
X24879Y-27957D01*
X24861Y-27967D01*
X24823Y-27967D01*
X24804Y-27976D01*
X24795Y-27985D01*
X24786Y-28004D01*
X24786Y-28042D01*
X24795Y-28060D01*
X24804Y-28070D01*
X24823Y-28079D01*
X24861Y-28079D01*
X24879Y-28070D01*
X24889Y-28060D01*
X24898Y-28042D01*
X24898Y-28004D01*
X24889Y-27985D01*
X24879Y-27976D01*
X24861Y-27967D01*
X23926Y-28079D02*
X23813Y-28079D01*
X23870Y-28079D02*
X23870Y-27882D01*
X23851Y-27910D01*
X23832Y-27929D01*
X23813Y-27939D01*
X24010Y-28079D02*
X24010Y-27882D01*
X24029Y-28004D02*
X24086Y-28079D01*
X24086Y-27948D02*
X24010Y-28023D01*
X27317Y-32679D02*
X27251Y-32585D01*
X27204Y-32679D02*
X27204Y-32482D01*
X27279Y-32482D01*
X27298Y-32492D01*
X27307Y-32501D01*
X27317Y-32520D01*
X27317Y-32548D01*
X27307Y-32567D01*
X27298Y-32576D01*
X27279Y-32585D01*
X27204Y-32585D01*
X27504Y-32679D02*
X27392Y-32679D01*
X27448Y-32679D02*
X27448Y-32482D01*
X27429Y-32510D01*
X27410Y-32529D01*
X27392Y-32539D01*
X27163Y-32848D02*
X27163Y-32979D01*
X27117Y-32773D02*
X27070Y-32914D01*
X27192Y-32914D01*
X27267Y-32979D02*
X27267Y-32782D01*
X27285Y-32904D02*
X27342Y-32979D01*
X27342Y-32848D02*
X27267Y-32923D01*
X27407Y-32782D02*
X27539Y-32782D01*
X27454Y-32979D01*
X46704Y-28776D02*
X46610Y-28842D01*
X46704Y-28889D02*
X46507Y-28889D01*
X46507Y-28814D01*
X46517Y-28795D01*
X46526Y-28786D01*
X46545Y-28776D01*
X46573Y-28776D01*
X46592Y-28786D01*
X46601Y-28795D01*
X46610Y-28814D01*
X46610Y-28889D01*
X46526Y-28701D02*
X46517Y-28692D01*
X46507Y-28673D01*
X46507Y-28626D01*
X46517Y-28607D01*
X46526Y-28598D01*
X46545Y-28589D01*
X46564Y-28589D01*
X46592Y-28598D01*
X46704Y-28710D01*
X46704Y-28589D01*
X46507Y-28523D02*
X46507Y-28401D01*
X46582Y-28467D01*
X46582Y-28438D01*
X46592Y-28420D01*
X46601Y-28410D01*
X46620Y-28401D01*
X46667Y-28401D01*
X46685Y-28410D01*
X46695Y-28420D01*
X46704Y-28438D01*
X46704Y-28495D01*
X46695Y-28513D01*
X46685Y-28523D01*
X46429Y-28673D02*
X46429Y-28786D01*
X46429Y-28729D02*
X46232Y-28729D01*
X46260Y-28748D01*
X46279Y-28767D01*
X46289Y-28786D01*
X46429Y-28589D02*
X46232Y-28589D01*
X46354Y-28570D02*
X46429Y-28513D01*
X46298Y-28513D02*
X46373Y-28589D01*
X38660Y-22282D02*
X38670Y-22292D01*
X38679Y-22320D01*
X38679Y-22339D01*
X38670Y-22367D01*
X38651Y-22386D01*
X38632Y-22395D01*
X38595Y-22404D01*
X38567Y-22404D01*
X38529Y-22395D01*
X38510Y-22386D01*
X38492Y-22367D01*
X38482Y-22339D01*
X38482Y-22320D01*
X38492Y-22292D01*
X38501Y-22282D01*
X38482Y-22113D02*
X38482Y-22151D01*
X38492Y-22170D01*
X38501Y-22179D01*
X38529Y-22198D01*
X38567Y-22207D01*
X38642Y-22207D01*
X38660Y-22198D01*
X38670Y-22189D01*
X38679Y-22170D01*
X38679Y-22132D01*
X38670Y-22113D01*
X38660Y-22104D01*
X38642Y-22095D01*
X38595Y-22095D01*
X38576Y-22104D01*
X38567Y-22113D01*
X38557Y-22132D01*
X38557Y-22170D01*
X38567Y-22189D01*
X38576Y-22198D01*
X38595Y-22207D01*
X37629Y-21720D02*
X37629Y-21833D01*
X37629Y-21776D02*
X37432Y-21776D01*
X37460Y-21795D01*
X37479Y-21814D01*
X37489Y-21833D01*
X37432Y-21598D02*
X37432Y-21579D01*
X37442Y-21560D01*
X37451Y-21551D01*
X37470Y-21542D01*
X37507Y-21532D01*
X37554Y-21532D01*
X37592Y-21542D01*
X37610Y-21551D01*
X37620Y-21560D01*
X37629Y-21579D01*
X37629Y-21598D01*
X37620Y-21617D01*
X37610Y-21626D01*
X37592Y-21636D01*
X37554Y-21645D01*
X37507Y-21645D01*
X37470Y-21636D01*
X37451Y-21626D01*
X37442Y-21617D01*
X37432Y-21598D01*
X37432Y-21410D02*
X37432Y-21392D01*
X37442Y-21373D01*
X37451Y-21363D01*
X37470Y-21354D01*
X37507Y-21345D01*
X37554Y-21345D01*
X37592Y-21354D01*
X37610Y-21363D01*
X37620Y-21373D01*
X37629Y-21392D01*
X37629Y-21410D01*
X37620Y-21429D01*
X37610Y-21439D01*
X37592Y-21448D01*
X37554Y-21457D01*
X37507Y-21457D01*
X37470Y-21448D01*
X37451Y-21439D01*
X37442Y-21429D01*
X37432Y-21410D01*
X37498Y-21260D02*
X37629Y-21260D01*
X37517Y-21260D02*
X37507Y-21251D01*
X37498Y-21232D01*
X37498Y-21204D01*
X37507Y-21185D01*
X37526Y-21176D01*
X37629Y-21176D01*
X38629Y-24032D02*
X38629Y-24126D01*
X38432Y-24126D01*
X38451Y-23976D02*
X38442Y-23967D01*
X38432Y-23948D01*
X38432Y-23901D01*
X38442Y-23882D01*
X38451Y-23873D01*
X38470Y-23863D01*
X38489Y-23863D01*
X38517Y-23873D01*
X38629Y-23985D01*
X38629Y-23863D01*
X37529Y-24220D02*
X37529Y-24333D01*
X37529Y-24276D02*
X37332Y-24276D01*
X37360Y-24295D01*
X37379Y-24314D01*
X37389Y-24333D01*
X37332Y-24098D02*
X37332Y-24079D01*
X37342Y-24060D01*
X37351Y-24051D01*
X37370Y-24042D01*
X37407Y-24032D01*
X37454Y-24032D01*
X37492Y-24042D01*
X37510Y-24051D01*
X37520Y-24060D01*
X37529Y-24079D01*
X37529Y-24098D01*
X37520Y-24117D01*
X37510Y-24126D01*
X37492Y-24136D01*
X37454Y-24145D01*
X37407Y-24145D01*
X37370Y-24136D01*
X37351Y-24126D01*
X37342Y-24117D01*
X37332Y-24098D01*
X37332Y-23910D02*
X37332Y-23892D01*
X37342Y-23873D01*
X37351Y-23863D01*
X37370Y-23854D01*
X37407Y-23845D01*
X37454Y-23845D01*
X37492Y-23854D01*
X37510Y-23863D01*
X37520Y-23873D01*
X37529Y-23892D01*
X37529Y-23910D01*
X37520Y-23929D01*
X37510Y-23939D01*
X37492Y-23948D01*
X37454Y-23957D01*
X37407Y-23957D01*
X37370Y-23948D01*
X37351Y-23939D01*
X37342Y-23929D01*
X37332Y-23910D01*
X37398Y-23760D02*
X37529Y-23760D01*
X37417Y-23760D02*
X37407Y-23751D01*
X37398Y-23732D01*
X37398Y-23704D01*
X37407Y-23685D01*
X37426Y-23676D01*
X37529Y-23676D01*
X37610Y-22282D02*
X37620Y-22292D01*
X37629Y-22320D01*
X37629Y-22339D01*
X37620Y-22367D01*
X37601Y-22386D01*
X37582Y-22395D01*
X37545Y-22404D01*
X37517Y-22404D01*
X37479Y-22395D01*
X37460Y-22386D01*
X37442Y-22367D01*
X37432Y-22339D01*
X37432Y-22320D01*
X37442Y-22292D01*
X37451Y-22282D01*
X37432Y-22104D02*
X37432Y-22198D01*
X37526Y-22207D01*
X37517Y-22198D01*
X37507Y-22179D01*
X37507Y-22132D01*
X37517Y-22113D01*
X37526Y-22104D01*
X37545Y-22095D01*
X37592Y-22095D01*
X37610Y-22104D01*
X37620Y-22113D01*
X37629Y-22132D01*
X37629Y-22179D01*
X37620Y-22198D01*
X37610Y-22207D01*
X36579Y-22220D02*
X36579Y-22333D01*
X36579Y-22276D02*
X36382Y-22276D01*
X36410Y-22295D01*
X36429Y-22314D01*
X36439Y-22333D01*
X36382Y-22098D02*
X36382Y-22079D01*
X36392Y-22060D01*
X36401Y-22051D01*
X36420Y-22042D01*
X36457Y-22032D01*
X36504Y-22032D01*
X36542Y-22042D01*
X36560Y-22051D01*
X36570Y-22060D01*
X36579Y-22079D01*
X36579Y-22098D01*
X36570Y-22117D01*
X36560Y-22126D01*
X36542Y-22136D01*
X36504Y-22145D01*
X36457Y-22145D01*
X36420Y-22136D01*
X36401Y-22126D01*
X36392Y-22117D01*
X36382Y-22098D01*
X36382Y-21910D02*
X36382Y-21892D01*
X36392Y-21873D01*
X36401Y-21863D01*
X36420Y-21854D01*
X36457Y-21845D01*
X36504Y-21845D01*
X36542Y-21854D01*
X36560Y-21863D01*
X36570Y-21873D01*
X36579Y-21892D01*
X36579Y-21910D01*
X36570Y-21929D01*
X36560Y-21939D01*
X36542Y-21948D01*
X36504Y-21957D01*
X36457Y-21957D01*
X36420Y-21948D01*
X36401Y-21939D01*
X36392Y-21929D01*
X36382Y-21910D01*
X36448Y-21760D02*
X36579Y-21760D01*
X36467Y-21760D02*
X36457Y-21751D01*
X36448Y-21732D01*
X36448Y-21704D01*
X36457Y-21685D01*
X36476Y-21676D01*
X36579Y-21676D01*
X45373Y-28454D02*
X45307Y-28360D01*
X45260Y-28454D02*
X45260Y-28257D01*
X45335Y-28257D01*
X45354Y-28267D01*
X45363Y-28276D01*
X45373Y-28295D01*
X45373Y-28323D01*
X45363Y-28342D01*
X45354Y-28351D01*
X45335Y-28360D01*
X45260Y-28360D01*
X45448Y-28276D02*
X45457Y-28267D01*
X45476Y-28257D01*
X45523Y-28257D01*
X45542Y-28267D01*
X45551Y-28276D01*
X45560Y-28295D01*
X45560Y-28314D01*
X45551Y-28342D01*
X45439Y-28454D01*
X45560Y-28454D01*
X45729Y-28323D02*
X45729Y-28454D01*
X45682Y-28248D02*
X45636Y-28389D01*
X45757Y-28389D01*
X45476Y-28729D02*
X45363Y-28729D01*
X45420Y-28729D02*
X45420Y-28532D01*
X45401Y-28560D01*
X45382Y-28579D01*
X45363Y-28589D01*
X45560Y-28729D02*
X45560Y-28532D01*
X45579Y-28654D02*
X45636Y-28729D01*
X45636Y-28598D02*
X45560Y-28673D01*
X52373Y-34279D02*
X52307Y-34185D01*
X52260Y-34279D02*
X52260Y-34082D01*
X52335Y-34082D01*
X52354Y-34092D01*
X52363Y-34101D01*
X52373Y-34120D01*
X52373Y-34148D01*
X52363Y-34167D01*
X52354Y-34176D01*
X52335Y-34185D01*
X52260Y-34185D01*
X52448Y-34101D02*
X52457Y-34092D01*
X52476Y-34082D01*
X52523Y-34082D01*
X52542Y-34092D01*
X52551Y-34101D01*
X52560Y-34120D01*
X52560Y-34139D01*
X52551Y-34167D01*
X52439Y-34279D01*
X52560Y-34279D01*
X52739Y-34082D02*
X52645Y-34082D01*
X52636Y-34176D01*
X52645Y-34167D01*
X52664Y-34157D01*
X52711Y-34157D01*
X52729Y-34167D01*
X52739Y-34176D01*
X52748Y-34195D01*
X52748Y-34242D01*
X52739Y-34260D01*
X52729Y-34270D01*
X52711Y-34279D01*
X52664Y-34279D01*
X52645Y-34270D01*
X52636Y-34260D01*
X52476Y-33229D02*
X52363Y-33229D01*
X52420Y-33229D02*
X52420Y-33032D01*
X52401Y-33060D01*
X52382Y-33079D01*
X52363Y-33089D01*
X52560Y-33229D02*
X52560Y-33032D01*
X52579Y-33154D02*
X52636Y-33229D01*
X52636Y-33098D02*
X52560Y-33173D01*
X49873Y-34329D02*
X49807Y-34235D01*
X49760Y-34329D02*
X49760Y-34132D01*
X49835Y-34132D01*
X49854Y-34142D01*
X49863Y-34151D01*
X49873Y-34170D01*
X49873Y-34198D01*
X49863Y-34217D01*
X49854Y-34226D01*
X49835Y-34235D01*
X49760Y-34235D01*
X49948Y-34151D02*
X49957Y-34142D01*
X49976Y-34132D01*
X50023Y-34132D01*
X50042Y-34142D01*
X50051Y-34151D01*
X50060Y-34170D01*
X50060Y-34189D01*
X50051Y-34217D01*
X49939Y-34329D01*
X50060Y-34329D01*
X50229Y-34132D02*
X50192Y-34132D01*
X50173Y-34142D01*
X50164Y-34151D01*
X50145Y-34179D01*
X50136Y-34217D01*
X50136Y-34292D01*
X50145Y-34310D01*
X50154Y-34320D01*
X50173Y-34329D01*
X50211Y-34329D01*
X50229Y-34320D01*
X50239Y-34310D01*
X50248Y-34292D01*
X50248Y-34245D01*
X50239Y-34226D01*
X50229Y-34217D01*
X50211Y-34207D01*
X50173Y-34207D01*
X50154Y-34217D01*
X50145Y-34226D01*
X50136Y-34245D01*
X49976Y-33229D02*
X49863Y-33229D01*
X49920Y-33229D02*
X49920Y-33032D01*
X49901Y-33060D01*
X49882Y-33079D01*
X49863Y-33089D01*
X50060Y-33229D02*
X50060Y-33032D01*
X50079Y-33154D02*
X50136Y-33229D01*
X50136Y-33098D02*
X50060Y-33173D01*
X47873Y-34279D02*
X47807Y-34185D01*
X47760Y-34279D02*
X47760Y-34082D01*
X47835Y-34082D01*
X47854Y-34092D01*
X47863Y-34101D01*
X47873Y-34120D01*
X47873Y-34148D01*
X47863Y-34167D01*
X47854Y-34176D01*
X47835Y-34185D01*
X47760Y-34185D01*
X47948Y-34101D02*
X47957Y-34092D01*
X47976Y-34082D01*
X48023Y-34082D01*
X48042Y-34092D01*
X48051Y-34101D01*
X48060Y-34120D01*
X48060Y-34139D01*
X48051Y-34167D01*
X47939Y-34279D01*
X48060Y-34279D01*
X48126Y-34082D02*
X48257Y-34082D01*
X48173Y-34279D01*
X47976Y-33229D02*
X47863Y-33229D01*
X47920Y-33229D02*
X47920Y-33032D01*
X47901Y-33060D01*
X47882Y-33079D01*
X47863Y-33089D01*
X48060Y-33229D02*
X48060Y-33032D01*
X48079Y-33154D02*
X48136Y-33229D01*
X48136Y-33098D02*
X48060Y-33173D01*
X43879Y-31532D02*
X43785Y-31598D01*
X43879Y-31645D02*
X43682Y-31645D01*
X43682Y-31570D01*
X43692Y-31551D01*
X43701Y-31542D01*
X43720Y-31532D01*
X43748Y-31532D01*
X43767Y-31542D01*
X43776Y-31551D01*
X43785Y-31570D01*
X43785Y-31645D01*
X43682Y-31354D02*
X43682Y-31448D01*
X43776Y-31457D01*
X43767Y-31448D01*
X43757Y-31429D01*
X43757Y-31382D01*
X43767Y-31363D01*
X43776Y-31354D01*
X43795Y-31345D01*
X43842Y-31345D01*
X43860Y-31354D01*
X43870Y-31363D01*
X43879Y-31382D01*
X43879Y-31429D01*
X43870Y-31448D01*
X43860Y-31457D01*
X43748Y-32236D02*
X43879Y-32236D01*
X43673Y-32282D02*
X43814Y-32329D01*
X43814Y-32207D01*
X43879Y-32132D02*
X43682Y-32132D01*
X43804Y-32114D02*
X43879Y-32057D01*
X43748Y-32057D02*
X43823Y-32132D01*
X43682Y-31992D02*
X43682Y-31860D01*
X43879Y-31945D01*
X39879Y-34526D02*
X39785Y-34592D01*
X39879Y-34639D02*
X39682Y-34639D01*
X39682Y-34564D01*
X39692Y-34545D01*
X39701Y-34536D01*
X39720Y-34526D01*
X39748Y-34526D01*
X39767Y-34536D01*
X39776Y-34545D01*
X39785Y-34564D01*
X39785Y-34639D01*
X39879Y-34339D02*
X39879Y-34451D01*
X39879Y-34395D02*
X39682Y-34395D01*
X39710Y-34414D01*
X39729Y-34432D01*
X39739Y-34451D01*
X39767Y-34226D02*
X39757Y-34245D01*
X39748Y-34254D01*
X39729Y-34263D01*
X39720Y-34263D01*
X39701Y-34254D01*
X39692Y-34245D01*
X39682Y-34226D01*
X39682Y-34188D01*
X39692Y-34170D01*
X39701Y-34160D01*
X39720Y-34151D01*
X39729Y-34151D01*
X39748Y-34160D01*
X39757Y-34170D01*
X39767Y-34188D01*
X39767Y-34226D01*
X39776Y-34245D01*
X39785Y-34254D01*
X39804Y-34263D01*
X39842Y-34263D01*
X39860Y-34254D01*
X39870Y-34245D01*
X39879Y-34226D01*
X39879Y-34188D01*
X39870Y-34170D01*
X39860Y-34160D01*
X39842Y-34151D01*
X39804Y-34151D01*
X39785Y-34160D01*
X39776Y-34170D01*
X39767Y-34188D01*
X39879Y-33831D02*
X39879Y-33943D01*
X39879Y-33887D02*
X39682Y-33887D01*
X39710Y-33906D01*
X39729Y-33925D01*
X39739Y-33943D01*
X39682Y-33653D02*
X39682Y-33746D01*
X39776Y-33756D01*
X39767Y-33746D01*
X39757Y-33728D01*
X39757Y-33681D01*
X39767Y-33662D01*
X39776Y-33653D01*
X39795Y-33643D01*
X39842Y-33643D01*
X39860Y-33653D01*
X39870Y-33662D01*
X39879Y-33681D01*
X39879Y-33728D01*
X39870Y-33746D01*
X39860Y-33756D01*
X39682Y-33521D02*
X39682Y-33503D01*
X39692Y-33484D01*
X39701Y-33474D01*
X39720Y-33465D01*
X39757Y-33456D01*
X39804Y-33456D01*
X39842Y-33465D01*
X39860Y-33474D01*
X39870Y-33484D01*
X39879Y-33503D01*
X39879Y-33521D01*
X39870Y-33540D01*
X39860Y-33549D01*
X39842Y-33559D01*
X39804Y-33568D01*
X39757Y-33568D01*
X39720Y-33559D01*
X39701Y-33549D01*
X39692Y-33540D01*
X39682Y-33521D01*
X35829Y-34376D02*
X35735Y-34442D01*
X35829Y-34489D02*
X35632Y-34489D01*
X35632Y-34414D01*
X35642Y-34395D01*
X35651Y-34386D01*
X35670Y-34376D01*
X35698Y-34376D01*
X35717Y-34386D01*
X35726Y-34395D01*
X35735Y-34414D01*
X35735Y-34489D01*
X35829Y-34189D02*
X35829Y-34301D01*
X35829Y-34245D02*
X35632Y-34245D01*
X35660Y-34264D01*
X35679Y-34282D01*
X35689Y-34301D01*
X35698Y-34020D02*
X35829Y-34020D01*
X35623Y-34067D02*
X35764Y-34113D01*
X35764Y-33992D01*
X35829Y-33731D02*
X35829Y-33843D01*
X35829Y-33787D02*
X35632Y-33787D01*
X35660Y-33806D01*
X35679Y-33825D01*
X35689Y-33843D01*
X35632Y-33553D02*
X35632Y-33646D01*
X35726Y-33656D01*
X35717Y-33646D01*
X35707Y-33628D01*
X35707Y-33581D01*
X35717Y-33562D01*
X35726Y-33553D01*
X35745Y-33543D01*
X35792Y-33543D01*
X35810Y-33553D01*
X35820Y-33562D01*
X35829Y-33581D01*
X35829Y-33628D01*
X35820Y-33646D01*
X35810Y-33656D01*
X35632Y-33421D02*
X35632Y-33403D01*
X35642Y-33384D01*
X35651Y-33374D01*
X35670Y-33365D01*
X35707Y-33356D01*
X35754Y-33356D01*
X35792Y-33365D01*
X35810Y-33374D01*
X35820Y-33384D01*
X35829Y-33403D01*
X35829Y-33421D01*
X35820Y-33440D01*
X35810Y-33449D01*
X35792Y-33459D01*
X35754Y-33468D01*
X35707Y-33468D01*
X35670Y-33459D01*
X35651Y-33449D01*
X35642Y-33440D01*
X35632Y-33421D01*
X33229Y-33126D02*
X33135Y-33192D01*
X33229Y-33239D02*
X33032Y-33239D01*
X33032Y-33164D01*
X33042Y-33145D01*
X33051Y-33136D01*
X33070Y-33126D01*
X33098Y-33126D01*
X33117Y-33136D01*
X33126Y-33145D01*
X33135Y-33164D01*
X33135Y-33239D01*
X33229Y-32939D02*
X33229Y-33051D01*
X33229Y-32995D02*
X33032Y-32995D01*
X33060Y-33014D01*
X33079Y-33032D01*
X33089Y-33051D01*
X33032Y-32817D02*
X33032Y-32798D01*
X33042Y-32779D01*
X33051Y-32770D01*
X33070Y-32760D01*
X33107Y-32751D01*
X33154Y-32751D01*
X33192Y-32760D01*
X33210Y-32770D01*
X33220Y-32779D01*
X33229Y-32798D01*
X33229Y-32817D01*
X33220Y-32835D01*
X33210Y-32845D01*
X33192Y-32854D01*
X33154Y-32863D01*
X33107Y-32863D01*
X33070Y-32854D01*
X33051Y-32845D01*
X33042Y-32835D01*
X33032Y-32817D01*
X33529Y-33181D02*
X33529Y-33293D01*
X33529Y-33237D02*
X33332Y-33237D01*
X33360Y-33256D01*
X33379Y-33275D01*
X33389Y-33293D01*
X33332Y-33003D02*
X33332Y-33096D01*
X33426Y-33106D01*
X33417Y-33096D01*
X33407Y-33078D01*
X33407Y-33031D01*
X33417Y-33012D01*
X33426Y-33003D01*
X33445Y-32993D01*
X33492Y-32993D01*
X33510Y-33003D01*
X33520Y-33012D01*
X33529Y-33031D01*
X33529Y-33078D01*
X33520Y-33096D01*
X33510Y-33106D01*
X33332Y-32871D02*
X33332Y-32853D01*
X33342Y-32834D01*
X33351Y-32824D01*
X33370Y-32815D01*
X33407Y-32806D01*
X33454Y-32806D01*
X33492Y-32815D01*
X33510Y-32824D01*
X33520Y-32834D01*
X33529Y-32853D01*
X33529Y-32871D01*
X33520Y-32890D01*
X33510Y-32899D01*
X33492Y-32909D01*
X33454Y-32918D01*
X33407Y-32918D01*
X33370Y-32909D01*
X33351Y-32899D01*
X33342Y-32890D01*
X33332Y-32871D01*
X36729Y-37326D02*
X36635Y-37392D01*
X36729Y-37439D02*
X36532Y-37439D01*
X36532Y-37364D01*
X36542Y-37345D01*
X36551Y-37336D01*
X36570Y-37326D01*
X36598Y-37326D01*
X36617Y-37336D01*
X36626Y-37345D01*
X36635Y-37364D01*
X36635Y-37439D01*
X36729Y-37139D02*
X36729Y-37251D01*
X36729Y-37195D02*
X36532Y-37195D01*
X36560Y-37214D01*
X36579Y-37232D01*
X36589Y-37251D01*
X36532Y-36960D02*
X36532Y-37054D01*
X36626Y-37063D01*
X36617Y-37054D01*
X36607Y-37035D01*
X36607Y-36988D01*
X36617Y-36970D01*
X36626Y-36960D01*
X36645Y-36951D01*
X36692Y-36951D01*
X36710Y-36960D01*
X36720Y-36970D01*
X36729Y-36988D01*
X36729Y-37035D01*
X36720Y-37054D01*
X36710Y-37063D01*
X36313Y-37648D02*
X36313Y-37779D01*
X36267Y-37573D02*
X36220Y-37714D01*
X36342Y-37714D01*
X36398Y-37582D02*
X36529Y-37582D01*
X36445Y-37779D01*
X36604Y-37779D02*
X36604Y-37582D01*
X36623Y-37704D02*
X36679Y-37779D01*
X36679Y-37648D02*
X36604Y-37723D01*
X33429Y-37276D02*
X33335Y-37342D01*
X33429Y-37389D02*
X33232Y-37389D01*
X33232Y-37314D01*
X33242Y-37295D01*
X33251Y-37286D01*
X33270Y-37276D01*
X33298Y-37276D01*
X33317Y-37286D01*
X33326Y-37295D01*
X33335Y-37314D01*
X33335Y-37389D01*
X33429Y-37089D02*
X33429Y-37201D01*
X33429Y-37145D02*
X33232Y-37145D01*
X33260Y-37164D01*
X33279Y-37182D01*
X33289Y-37201D01*
X33429Y-36901D02*
X33429Y-37013D01*
X33429Y-36957D02*
X33232Y-36957D01*
X33260Y-36976D01*
X33279Y-36995D01*
X33289Y-37013D01*
X33648Y-37786D02*
X33779Y-37786D01*
X33573Y-37832D02*
X33714Y-37879D01*
X33714Y-37757D01*
X33582Y-37701D02*
X33582Y-37570D01*
X33779Y-37654D01*
X33779Y-37495D02*
X33582Y-37495D01*
X33704Y-37476D02*
X33779Y-37420D01*
X33648Y-37420D02*
X33723Y-37495D01*
X29829Y-36182D02*
X29735Y-36248D01*
X29829Y-36295D02*
X29632Y-36295D01*
X29632Y-36220D01*
X29642Y-36201D01*
X29651Y-36192D01*
X29670Y-36182D01*
X29698Y-36182D01*
X29717Y-36192D01*
X29726Y-36201D01*
X29735Y-36220D01*
X29735Y-36295D01*
X29632Y-36117D02*
X29632Y-35985D01*
X29829Y-36070D01*
X29698Y-36886D02*
X29829Y-36886D01*
X29623Y-36932D02*
X29764Y-36979D01*
X29764Y-36857D01*
X29632Y-36801D02*
X29632Y-36670D01*
X29829Y-36754D01*
X29829Y-36595D02*
X29632Y-36595D01*
X29754Y-36576D02*
X29829Y-36520D01*
X29698Y-36520D02*
X29773Y-36595D01*
X37167Y-32060D02*
X37157Y-32070D01*
X37129Y-32079D01*
X37110Y-32079D01*
X37082Y-32070D01*
X37063Y-32051D01*
X37054Y-32032D01*
X37045Y-31995D01*
X37045Y-31967D01*
X37054Y-31929D01*
X37063Y-31910D01*
X37082Y-31892D01*
X37110Y-31882D01*
X37129Y-31882D01*
X37157Y-31892D01*
X37167Y-31901D01*
X37354Y-32079D02*
X37242Y-32079D01*
X37298Y-32079D02*
X37298Y-31882D01*
X37279Y-31910D01*
X37260Y-31929D01*
X37242Y-31939D01*
X37729Y-32029D02*
X37616Y-32029D01*
X37673Y-32029D02*
X37673Y-31832D01*
X37654Y-31860D01*
X37635Y-31879D01*
X37616Y-31889D01*
X37851Y-31832D02*
X37870Y-31832D01*
X37889Y-31842D01*
X37898Y-31851D01*
X37907Y-31870D01*
X37917Y-31907D01*
X37917Y-31954D01*
X37907Y-31992D01*
X37898Y-32010D01*
X37889Y-32020D01*
X37870Y-32029D01*
X37851Y-32029D01*
X37832Y-32020D01*
X37823Y-32010D01*
X37813Y-31992D01*
X37804Y-31954D01*
X37804Y-31907D01*
X37813Y-31870D01*
X37823Y-31851D01*
X37832Y-31842D01*
X37851Y-31832D01*
X38039Y-31832D02*
X38057Y-31832D01*
X38076Y-31842D01*
X38086Y-31851D01*
X38095Y-31870D01*
X38104Y-31907D01*
X38104Y-31954D01*
X38095Y-31992D01*
X38086Y-32010D01*
X38076Y-32020D01*
X38057Y-32029D01*
X38039Y-32029D01*
X38020Y-32020D01*
X38010Y-32010D01*
X38001Y-31992D01*
X37992Y-31954D01*
X37992Y-31907D01*
X38001Y-31870D01*
X38010Y-31851D01*
X38020Y-31842D01*
X38039Y-31832D01*
X38189Y-31898D02*
X38189Y-32029D01*
X38189Y-31917D02*
X38198Y-31907D01*
X38217Y-31898D01*
X38245Y-31898D01*
X38264Y-31907D01*
X38273Y-31926D01*
X38273Y-32029D01*
X30079Y-33182D02*
X29985Y-33248D01*
X30079Y-33295D02*
X29882Y-33295D01*
X29882Y-33220D01*
X29892Y-33201D01*
X29901Y-33192D01*
X29920Y-33182D01*
X29948Y-33182D01*
X29967Y-33192D01*
X29976Y-33201D01*
X29985Y-33220D01*
X29985Y-33295D01*
X29882Y-33013D02*
X29882Y-33051D01*
X29892Y-33070D01*
X29901Y-33079D01*
X29929Y-33098D01*
X29967Y-33107D01*
X30042Y-33107D01*
X30060Y-33098D01*
X30070Y-33089D01*
X30079Y-33070D01*
X30079Y-33032D01*
X30070Y-33013D01*
X30060Y-33004D01*
X30042Y-32995D01*
X29995Y-32995D01*
X29976Y-33004D01*
X29967Y-33013D01*
X29957Y-33032D01*
X29957Y-33070D01*
X29967Y-33089D01*
X29976Y-33098D01*
X29995Y-33107D01*
X30201Y-33348D02*
X30192Y-33339D01*
X30182Y-33320D01*
X30182Y-33273D01*
X30192Y-33254D01*
X30201Y-33245D01*
X30220Y-33236D01*
X30239Y-33236D01*
X30267Y-33245D01*
X30379Y-33357D01*
X30379Y-33236D01*
X30379Y-33039D02*
X30285Y-33104D01*
X30379Y-33151D02*
X30182Y-33151D01*
X30182Y-33076D01*
X30192Y-33057D01*
X30201Y-33048D01*
X30220Y-33039D01*
X30248Y-33039D01*
X30267Y-33048D01*
X30276Y-33057D01*
X30285Y-33076D01*
X30285Y-33151D01*
X30201Y-32963D02*
X30192Y-32954D01*
X30182Y-32935D01*
X30182Y-32888D01*
X30192Y-32870D01*
X30201Y-32860D01*
X30220Y-32851D01*
X30239Y-32851D01*
X30267Y-32860D01*
X30379Y-32973D01*
X30379Y-32851D01*
X42629Y-29182D02*
X42535Y-29248D01*
X42629Y-29295D02*
X42432Y-29295D01*
X42432Y-29220D01*
X42442Y-29201D01*
X42451Y-29192D01*
X42470Y-29182D01*
X42498Y-29182D01*
X42517Y-29192D01*
X42526Y-29201D01*
X42535Y-29220D01*
X42535Y-29295D01*
X42432Y-29117D02*
X42432Y-28995D01*
X42507Y-29060D01*
X42507Y-29032D01*
X42517Y-29013D01*
X42526Y-29004D01*
X42545Y-28995D01*
X42592Y-28995D01*
X42610Y-29004D01*
X42620Y-29013D01*
X42629Y-29032D01*
X42629Y-29089D01*
X42620Y-29107D01*
X42610Y-29117D01*
X42448Y-30136D02*
X42579Y-30136D01*
X42373Y-30182D02*
X42514Y-30229D01*
X42514Y-30107D01*
X42579Y-30032D02*
X42382Y-30032D01*
X42504Y-30014D02*
X42579Y-29957D01*
X42448Y-29957D02*
X42523Y-30032D01*
X42382Y-29892D02*
X42382Y-29760D01*
X42579Y-29845D01*
X43629Y-29532D02*
X43535Y-29598D01*
X43629Y-29645D02*
X43432Y-29645D01*
X43432Y-29570D01*
X43442Y-29551D01*
X43451Y-29542D01*
X43470Y-29532D01*
X43498Y-29532D01*
X43517Y-29542D01*
X43526Y-29551D01*
X43535Y-29570D01*
X43535Y-29645D01*
X43451Y-29457D02*
X43442Y-29448D01*
X43432Y-29429D01*
X43432Y-29382D01*
X43442Y-29363D01*
X43451Y-29354D01*
X43470Y-29345D01*
X43489Y-29345D01*
X43517Y-29354D01*
X43629Y-29467D01*
X43629Y-29345D01*
X43548Y-30136D02*
X43679Y-30136D01*
X43473Y-30182D02*
X43614Y-30229D01*
X43614Y-30107D01*
X43482Y-30051D02*
X43482Y-29920D01*
X43679Y-30004D01*
X43679Y-29845D02*
X43482Y-29845D01*
X43604Y-29826D02*
X43679Y-29770D01*
X43548Y-29770D02*
X43623Y-29845D01*
X27179Y-36982D02*
X27085Y-37048D01*
X27179Y-37095D02*
X26982Y-37095D01*
X26982Y-37020D01*
X26992Y-37001D01*
X27001Y-36992D01*
X27020Y-36982D01*
X27048Y-36982D01*
X27067Y-36992D01*
X27076Y-37001D01*
X27085Y-37020D01*
X27085Y-37095D01*
X27048Y-36813D02*
X27179Y-36813D01*
X26973Y-36860D02*
X27114Y-36907D01*
X27114Y-36785D01*
X27398Y-37236D02*
X27529Y-37236D01*
X27323Y-37282D02*
X27464Y-37329D01*
X27464Y-37207D01*
X27332Y-37151D02*
X27332Y-37020D01*
X27529Y-37104D01*
X27529Y-36945D02*
X27332Y-36945D01*
X27454Y-36926D02*
X27529Y-36870D01*
X27398Y-36870D02*
X27473Y-36945D01*
X35473Y-37179D02*
X35407Y-37085D01*
X35360Y-37179D02*
X35360Y-36982D01*
X35435Y-36982D01*
X35454Y-36992D01*
X35463Y-37001D01*
X35473Y-37020D01*
X35473Y-37048D01*
X35463Y-37067D01*
X35454Y-37076D01*
X35435Y-37085D01*
X35360Y-37085D01*
X35660Y-37179D02*
X35548Y-37179D01*
X35604Y-37179D02*
X35604Y-36982D01*
X35585Y-37010D01*
X35567Y-37029D01*
X35548Y-37039D01*
X35736Y-37001D02*
X35745Y-36992D01*
X35764Y-36982D01*
X35811Y-36982D01*
X35829Y-36992D01*
X35839Y-37001D01*
X35848Y-37020D01*
X35848Y-37039D01*
X35839Y-37067D01*
X35726Y-37179D01*
X35848Y-37179D01*
X34763Y-37048D02*
X34763Y-37179D01*
X34717Y-36973D02*
X34670Y-37114D01*
X34792Y-37114D01*
X34848Y-36982D02*
X34979Y-36982D01*
X34895Y-37179D01*
X35054Y-37179D02*
X35054Y-36982D01*
X35073Y-37104D02*
X35129Y-37179D01*
X35129Y-37048D02*
X35054Y-37123D01*
X37873Y-37179D02*
X37807Y-37085D01*
X37760Y-37179D02*
X37760Y-36982D01*
X37835Y-36982D01*
X37854Y-36992D01*
X37863Y-37001D01*
X37873Y-37020D01*
X37873Y-37048D01*
X37863Y-37067D01*
X37854Y-37076D01*
X37835Y-37085D01*
X37760Y-37085D01*
X38060Y-37179D02*
X37948Y-37179D01*
X38004Y-37179D02*
X38004Y-36982D01*
X37985Y-37010D01*
X37967Y-37029D01*
X37948Y-37039D01*
X38229Y-36982D02*
X38192Y-36982D01*
X38173Y-36992D01*
X38164Y-37001D01*
X38145Y-37029D01*
X38136Y-37067D01*
X38136Y-37142D01*
X38145Y-37160D01*
X38154Y-37170D01*
X38173Y-37179D01*
X38211Y-37179D01*
X38229Y-37170D01*
X38239Y-37160D01*
X38248Y-37142D01*
X38248Y-37095D01*
X38239Y-37076D01*
X38229Y-37067D01*
X38211Y-37057D01*
X38173Y-37057D01*
X38154Y-37067D01*
X38145Y-37076D01*
X38136Y-37095D01*
X38513Y-37098D02*
X38513Y-37229D01*
X38467Y-37023D02*
X38420Y-37164D01*
X38542Y-37164D01*
X38598Y-37032D02*
X38729Y-37032D01*
X38645Y-37229D01*
X38804Y-37229D02*
X38804Y-37032D01*
X38823Y-37154D02*
X38879Y-37229D01*
X38879Y-37098D02*
X38804Y-37173D01*
X40079Y-37076D02*
X39985Y-37142D01*
X40079Y-37189D02*
X39882Y-37189D01*
X39882Y-37114D01*
X39892Y-37095D01*
X39901Y-37086D01*
X39920Y-37076D01*
X39948Y-37076D01*
X39967Y-37086D01*
X39976Y-37095D01*
X39985Y-37114D01*
X39985Y-37189D01*
X40079Y-36889D02*
X40079Y-37001D01*
X40079Y-36945D02*
X39882Y-36945D01*
X39910Y-36964D01*
X39929Y-36982D01*
X39939Y-37001D01*
X39882Y-36823D02*
X39882Y-36692D01*
X40079Y-36776D01*
X39779Y-36923D02*
X39779Y-37036D01*
X39779Y-36979D02*
X39582Y-36979D01*
X39610Y-36998D01*
X39629Y-37017D01*
X39639Y-37036D01*
X39779Y-36839D02*
X39582Y-36839D01*
X39704Y-36820D02*
X39779Y-36763D01*
X39648Y-36763D02*
X39723Y-36839D01*
G54D15*
X45554Y-23711D02*
X45554Y-23311D01*
X45707Y-23311D01*
X45745Y-23330D01*
X45764Y-23350D01*
X45783Y-23388D01*
X45783Y-23445D01*
X45764Y-23483D01*
X45745Y-23502D01*
X45707Y-23521D01*
X45554Y-23521D01*
X46164Y-23711D02*
X45935Y-23711D01*
X46050Y-23711D02*
X46050Y-23311D01*
X46011Y-23369D01*
X45973Y-23407D01*
X45935Y-23426D01*
G54D16*
X41911Y-36795D02*
X41511Y-36795D01*
X41911Y-36566D02*
X41683Y-36738D01*
X41511Y-36566D02*
X41740Y-36795D01*
X41911Y-36185D02*
X41911Y-36414D01*
X41911Y-36299D02*
X41511Y-36299D01*
X41569Y-36338D01*
X41607Y-36376D01*
X41626Y-36414D01*
G54D24*
X31402Y-37969D02*
X30902Y-37969D01*
X30902Y-37850D01*
X30926Y-37778D01*
X30973Y-37730D01*
X31021Y-37707D01*
X31116Y-37683D01*
X31188Y-37683D01*
X31283Y-37707D01*
X31330Y-37730D01*
X31378Y-37778D01*
X31402Y-37850D01*
X31402Y-37969D01*
X31069Y-37254D02*
X31402Y-37254D01*
X30878Y-37373D02*
X31235Y-37492D01*
X31235Y-37183D01*
X30759Y-32909D02*
X30759Y-32515D01*
X30853Y-32515D01*
X30909Y-32534D01*
X30946Y-32571D01*
X30965Y-32609D01*
X30984Y-32684D01*
X30984Y-32740D01*
X30965Y-32815D01*
X30946Y-32853D01*
X30909Y-32890D01*
X30853Y-32909D01*
X30759Y-32909D01*
X31115Y-32515D02*
X31359Y-32515D01*
X31228Y-32665D01*
X31284Y-32665D01*
X31321Y-32684D01*
X31340Y-32703D01*
X31359Y-32740D01*
X31359Y-32834D01*
X31340Y-32871D01*
X31321Y-32890D01*
X31284Y-32909D01*
X31171Y-32909D01*
X31134Y-32890D01*
X31115Y-32871D01*
X34502Y-38019D02*
X34002Y-38019D01*
X34002Y-37900D01*
X34026Y-37828D01*
X34073Y-37780D01*
X34121Y-37757D01*
X34216Y-37733D01*
X34288Y-37733D01*
X34383Y-37757D01*
X34430Y-37780D01*
X34478Y-37828D01*
X34502Y-37900D01*
X34502Y-38019D01*
X34002Y-37304D02*
X34002Y-37400D01*
X34026Y-37447D01*
X34050Y-37471D01*
X34121Y-37519D01*
X34216Y-37542D01*
X34407Y-37542D01*
X34454Y-37519D01*
X34478Y-37495D01*
X34502Y-37447D01*
X34502Y-37352D01*
X34478Y-37304D01*
X34454Y-37280D01*
X34407Y-37257D01*
X34288Y-37257D01*
X34240Y-37280D01*
X34216Y-37304D01*
X34192Y-37352D01*
X34192Y-37447D01*
X34216Y-37495D01*
X34240Y-37519D01*
X34288Y-37542D01*
X34352Y-32869D02*
X33852Y-32869D01*
X33852Y-32750D01*
X33876Y-32678D01*
X33923Y-32630D01*
X33971Y-32607D01*
X34066Y-32583D01*
X34138Y-32583D01*
X34233Y-32607D01*
X34280Y-32630D01*
X34328Y-32678D01*
X34352Y-32750D01*
X34352Y-32869D01*
X33852Y-32130D02*
X33852Y-32369D01*
X34090Y-32392D01*
X34066Y-32369D01*
X34042Y-32321D01*
X34042Y-32202D01*
X34066Y-32154D01*
X34090Y-32130D01*
X34138Y-32107D01*
X34257Y-32107D01*
X34304Y-32130D01*
X34328Y-32154D01*
X34352Y-32202D01*
X34352Y-32321D01*
X34328Y-32369D01*
X34304Y-32392D01*
X37402Y-37869D02*
X36902Y-37869D01*
X36902Y-37750D01*
X36926Y-37678D01*
X36973Y-37630D01*
X37021Y-37607D01*
X37116Y-37583D01*
X37188Y-37583D01*
X37283Y-37607D01*
X37330Y-37630D01*
X37378Y-37678D01*
X37402Y-37750D01*
X37402Y-37869D01*
X37116Y-37297D02*
X37092Y-37345D01*
X37069Y-37369D01*
X37021Y-37392D01*
X36997Y-37392D01*
X36950Y-37369D01*
X36926Y-37345D01*
X36902Y-37297D01*
X36902Y-37202D01*
X36926Y-37154D01*
X36950Y-37130D01*
X36997Y-37107D01*
X37021Y-37107D01*
X37069Y-37130D01*
X37092Y-37154D01*
X37116Y-37202D01*
X37116Y-37297D01*
X37140Y-37345D01*
X37164Y-37369D01*
X37211Y-37392D01*
X37307Y-37392D01*
X37354Y-37369D01*
X37378Y-37345D01*
X37402Y-37297D01*
X37402Y-37202D01*
X37378Y-37154D01*
X37354Y-37130D01*
X37307Y-37107D01*
X37211Y-37107D01*
X37164Y-37130D01*
X37140Y-37154D01*
X37116Y-37202D01*
X36752Y-32669D02*
X36252Y-32669D01*
X36252Y-32550D01*
X36276Y-32478D01*
X36323Y-32430D01*
X36371Y-32407D01*
X36466Y-32383D01*
X36538Y-32383D01*
X36633Y-32407D01*
X36680Y-32430D01*
X36728Y-32478D01*
X36752Y-32550D01*
X36752Y-32669D01*
X36252Y-32216D02*
X36252Y-31883D01*
X36752Y-32097D01*
X28452Y-37919D02*
X27952Y-37919D01*
X27952Y-37800D01*
X27976Y-37728D01*
X28023Y-37680D01*
X28071Y-37657D01*
X28166Y-37633D01*
X28238Y-37633D01*
X28333Y-37657D01*
X28380Y-37680D01*
X28428Y-37728D01*
X28452Y-37800D01*
X28452Y-37919D01*
X28000Y-37442D02*
X27976Y-37419D01*
X27952Y-37371D01*
X27952Y-37252D01*
X27976Y-37204D01*
X28000Y-37180D01*
X28047Y-37157D01*
X28095Y-37157D01*
X28166Y-37180D01*
X28452Y-37466D01*
X28452Y-37157D01*
G54D25*
X29027Y-37324D02*
X29027Y-37504D01*
X29027Y-37414D02*
X28712Y-37414D01*
X28757Y-37444D01*
X28787Y-37474D01*
X28802Y-37504D01*
X29027Y-37189D02*
X28712Y-37189D01*
X29027Y-37009D01*
X28712Y-37009D01*
X28817Y-36724D02*
X29027Y-36724D01*
X28697Y-36799D02*
X28922Y-36874D01*
X28922Y-36679D01*
X29027Y-36395D02*
X29027Y-36575D01*
X29027Y-36485D02*
X28712Y-36485D01*
X28757Y-36515D01*
X28787Y-36545D01*
X28802Y-36575D01*
X28817Y-36125D02*
X29027Y-36125D01*
X28697Y-36200D02*
X28922Y-36275D01*
X28922Y-36080D01*
X28847Y-35915D02*
X28832Y-35945D01*
X28817Y-35960D01*
X28787Y-35975D01*
X28772Y-35975D01*
X28742Y-35960D01*
X28727Y-35945D01*
X28712Y-35915D01*
X28712Y-35855D01*
X28727Y-35825D01*
X28742Y-35810D01*
X28772Y-35795D01*
X28787Y-35795D01*
X28817Y-35810D01*
X28832Y-35825D01*
X28847Y-35855D01*
X28847Y-35915D01*
X28862Y-35945D01*
X28877Y-35960D01*
X28907Y-35975D01*
X28967Y-35975D01*
X28997Y-35960D01*
X29012Y-35945D01*
X29027Y-35915D01*
X29027Y-35855D01*
X29012Y-35825D01*
X28997Y-35810D01*
X28967Y-35795D01*
X28907Y-35795D01*
X28877Y-35810D01*
X28862Y-35825D01*
X28847Y-35855D01*
G54D24*
X28402Y-32769D02*
X27902Y-32769D01*
X27902Y-32650D01*
X27926Y-32578D01*
X27973Y-32530D01*
X28021Y-32507D01*
X28116Y-32483D01*
X28188Y-32483D01*
X28283Y-32507D01*
X28330Y-32530D01*
X28378Y-32578D01*
X28402Y-32650D01*
X28402Y-32769D01*
X28402Y-32007D02*
X28402Y-32292D01*
X28402Y-32150D02*
X27902Y-32150D01*
X27973Y-32197D01*
X28021Y-32245D01*
X28045Y-32292D01*
G54D15*
X23961Y-27004D02*
X24285Y-27004D01*
X24323Y-26985D01*
X24342Y-26966D01*
X24361Y-26928D01*
X24361Y-26852D01*
X24342Y-26814D01*
X24323Y-26795D01*
X24285Y-26776D01*
X23961Y-26776D01*
X24000Y-26604D02*
X23980Y-26585D01*
X23961Y-26547D01*
X23961Y-26452D01*
X23980Y-26414D01*
X24000Y-26395D01*
X24038Y-26376D01*
X24076Y-26376D01*
X24133Y-26395D01*
X24361Y-26623D01*
X24361Y-26376D01*
X27461Y-27516D02*
X27461Y-27250D01*
X27861Y-27421D01*
X27633Y-27040D02*
X27614Y-27078D01*
X27595Y-27097D01*
X27557Y-27116D01*
X27538Y-27116D01*
X27500Y-27097D01*
X27480Y-27078D01*
X27461Y-27040D01*
X27461Y-26964D01*
X27480Y-26926D01*
X27500Y-26907D01*
X27538Y-26888D01*
X27557Y-26888D01*
X27595Y-26907D01*
X27614Y-26926D01*
X27633Y-26964D01*
X27633Y-27040D01*
X27652Y-27078D01*
X27671Y-27097D01*
X27709Y-27116D01*
X27785Y-27116D01*
X27823Y-27097D01*
X27842Y-27078D01*
X27861Y-27040D01*
X27861Y-26964D01*
X27842Y-26926D01*
X27823Y-26907D01*
X27785Y-26888D01*
X27709Y-26888D01*
X27671Y-26907D01*
X27652Y-26926D01*
X27633Y-26964D01*
X27861Y-26526D02*
X27861Y-26716D01*
X27461Y-26716D01*
X27461Y-26316D02*
X27461Y-26278D01*
X27480Y-26240D01*
X27500Y-26221D01*
X27538Y-26202D01*
X27614Y-26183D01*
X27709Y-26183D01*
X27785Y-26202D01*
X27823Y-26221D01*
X27842Y-26240D01*
X27861Y-26278D01*
X27861Y-26316D01*
X27842Y-26354D01*
X27823Y-26373D01*
X27785Y-26392D01*
X27709Y-26411D01*
X27614Y-26411D01*
X27538Y-26392D01*
X27500Y-26373D01*
X27480Y-26354D01*
X27461Y-26316D01*
X27461Y-25821D02*
X27461Y-26011D01*
X27652Y-26030D01*
X27633Y-26011D01*
X27614Y-25973D01*
X27614Y-25878D01*
X27633Y-25840D01*
X27652Y-25821D01*
X27690Y-25802D01*
X27785Y-25802D01*
X27823Y-25821D01*
X27842Y-25840D01*
X27861Y-25878D01*
X27861Y-25973D01*
X27842Y-26011D01*
X27823Y-26030D01*
G54D20*
X22757Y-26680D02*
X22757Y-26480D01*
X22804Y-26480D01*
X22833Y-26490D01*
X22852Y-26509D01*
X22861Y-26528D01*
X22871Y-26566D01*
X22871Y-26595D01*
X22861Y-26633D01*
X22852Y-26652D01*
X22833Y-26671D01*
X22804Y-26680D01*
X22757Y-26680D01*
X22947Y-26500D02*
X22957Y-26490D01*
X22976Y-26480D01*
X23023Y-26480D01*
X23042Y-26490D01*
X23052Y-26500D01*
X23061Y-26519D01*
X23061Y-26538D01*
X23052Y-26566D01*
X22938Y-26680D01*
X23061Y-26680D01*
X23138Y-26500D02*
X23147Y-26490D01*
X23166Y-26480D01*
X23214Y-26480D01*
X23233Y-26490D01*
X23242Y-26500D01*
X23252Y-26519D01*
X23252Y-26538D01*
X23242Y-26566D01*
X23128Y-26680D01*
X23252Y-26680D01*
X49507Y-32680D02*
X49507Y-32480D01*
X49554Y-32480D01*
X49583Y-32490D01*
X49602Y-32509D01*
X49611Y-32528D01*
X49621Y-32566D01*
X49621Y-32595D01*
X49611Y-32633D01*
X49602Y-32652D01*
X49583Y-32671D01*
X49554Y-32680D01*
X49507Y-32680D01*
X49697Y-32500D02*
X49707Y-32490D01*
X49726Y-32480D01*
X49773Y-32480D01*
X49792Y-32490D01*
X49802Y-32500D01*
X49811Y-32519D01*
X49811Y-32538D01*
X49802Y-32566D01*
X49688Y-32680D01*
X49811Y-32680D01*
X49983Y-32547D02*
X49983Y-32680D01*
X49935Y-32471D02*
X49888Y-32614D01*
X50011Y-32614D01*
X51557Y-32630D02*
X51557Y-32430D01*
X51604Y-32430D01*
X51633Y-32440D01*
X51652Y-32459D01*
X51661Y-32478D01*
X51671Y-32516D01*
X51671Y-32545D01*
X51661Y-32583D01*
X51652Y-32602D01*
X51633Y-32621D01*
X51604Y-32630D01*
X51557Y-32630D01*
X51747Y-32450D02*
X51757Y-32440D01*
X51776Y-32430D01*
X51823Y-32430D01*
X51842Y-32440D01*
X51852Y-32450D01*
X51861Y-32469D01*
X51861Y-32488D01*
X51852Y-32516D01*
X51738Y-32630D01*
X51861Y-32630D01*
X52042Y-32430D02*
X51947Y-32430D01*
X51938Y-32526D01*
X51947Y-32516D01*
X51966Y-32507D01*
X52014Y-32507D01*
X52033Y-32516D01*
X52042Y-32526D01*
X52052Y-32545D01*
X52052Y-32592D01*
X52042Y-32611D01*
X52033Y-32621D01*
X52014Y-32630D01*
X51966Y-32630D01*
X51947Y-32621D01*
X51938Y-32611D01*
X52457Y-32680D02*
X52457Y-32480D01*
X52504Y-32480D01*
X52533Y-32490D01*
X52552Y-32509D01*
X52561Y-32528D01*
X52571Y-32566D01*
X52571Y-32595D01*
X52561Y-32633D01*
X52552Y-32652D01*
X52533Y-32671D01*
X52504Y-32680D01*
X52457Y-32680D01*
X52647Y-32500D02*
X52657Y-32490D01*
X52676Y-32480D01*
X52723Y-32480D01*
X52742Y-32490D01*
X52752Y-32500D01*
X52761Y-32519D01*
X52761Y-32538D01*
X52752Y-32566D01*
X52638Y-32680D01*
X52761Y-32680D01*
X52933Y-32480D02*
X52895Y-32480D01*
X52876Y-32490D01*
X52866Y-32500D01*
X52847Y-32528D01*
X52838Y-32566D01*
X52838Y-32642D01*
X52847Y-32661D01*
X52857Y-32671D01*
X52876Y-32680D01*
X52914Y-32680D01*
X52933Y-32671D01*
X52942Y-32661D01*
X52952Y-32642D01*
X52952Y-32595D01*
X52942Y-32576D01*
X52933Y-32566D01*
X52914Y-32557D01*
X52876Y-32557D01*
X52857Y-32566D01*
X52847Y-32576D01*
X52838Y-32595D01*
X52680Y-26892D02*
X52480Y-26892D01*
X52480Y-26845D01*
X52490Y-26816D01*
X52509Y-26797D01*
X52528Y-26788D01*
X52566Y-26778D01*
X52595Y-26778D01*
X52633Y-26788D01*
X52652Y-26797D01*
X52671Y-26816D01*
X52680Y-26845D01*
X52680Y-26892D01*
X52500Y-26702D02*
X52490Y-26692D01*
X52480Y-26673D01*
X52480Y-26626D01*
X52490Y-26607D01*
X52500Y-26597D01*
X52519Y-26588D01*
X52538Y-26588D01*
X52566Y-26597D01*
X52680Y-26711D01*
X52680Y-26588D01*
X52680Y-26397D02*
X52680Y-26511D01*
X52680Y-26454D02*
X52480Y-26454D01*
X52509Y-26473D01*
X52528Y-26492D01*
X52538Y-26511D01*
X51680Y-26892D02*
X51480Y-26892D01*
X51480Y-26845D01*
X51490Y-26816D01*
X51509Y-26797D01*
X51528Y-26788D01*
X51566Y-26778D01*
X51595Y-26778D01*
X51633Y-26788D01*
X51652Y-26797D01*
X51671Y-26816D01*
X51680Y-26845D01*
X51680Y-26892D01*
X51680Y-26588D02*
X51680Y-26702D01*
X51680Y-26645D02*
X51480Y-26645D01*
X51509Y-26664D01*
X51528Y-26683D01*
X51538Y-26702D01*
X51480Y-26521D02*
X51480Y-26388D01*
X51680Y-26473D01*
X50680Y-26892D02*
X50480Y-26892D01*
X50480Y-26845D01*
X50490Y-26816D01*
X50509Y-26797D01*
X50528Y-26788D01*
X50566Y-26778D01*
X50595Y-26778D01*
X50633Y-26788D01*
X50652Y-26797D01*
X50671Y-26816D01*
X50680Y-26845D01*
X50680Y-26892D01*
X50680Y-26588D02*
X50680Y-26702D01*
X50680Y-26645D02*
X50480Y-26645D01*
X50509Y-26664D01*
X50528Y-26683D01*
X50538Y-26702D01*
X50480Y-26521D02*
X50480Y-26397D01*
X50557Y-26464D01*
X50557Y-26435D01*
X50566Y-26416D01*
X50576Y-26407D01*
X50595Y-26397D01*
X50642Y-26397D01*
X50661Y-26407D01*
X50671Y-26416D01*
X50680Y-26435D01*
X50680Y-26492D01*
X50671Y-26511D01*
X50661Y-26521D01*
X49680Y-26892D02*
X49480Y-26892D01*
X49480Y-26845D01*
X49490Y-26816D01*
X49509Y-26797D01*
X49528Y-26788D01*
X49566Y-26778D01*
X49595Y-26778D01*
X49633Y-26788D01*
X49652Y-26797D01*
X49671Y-26816D01*
X49680Y-26845D01*
X49680Y-26892D01*
X49500Y-26702D02*
X49490Y-26692D01*
X49480Y-26673D01*
X49480Y-26626D01*
X49490Y-26607D01*
X49500Y-26597D01*
X49519Y-26588D01*
X49538Y-26588D01*
X49566Y-26597D01*
X49680Y-26711D01*
X49680Y-26588D01*
X49480Y-26464D02*
X49480Y-26445D01*
X49490Y-26426D01*
X49500Y-26416D01*
X49519Y-26407D01*
X49557Y-26397D01*
X49604Y-26397D01*
X49642Y-26407D01*
X49661Y-26416D01*
X49671Y-26426D01*
X49680Y-26445D01*
X49680Y-26464D01*
X49671Y-26483D01*
X49661Y-26492D01*
X49642Y-26502D01*
X49604Y-26511D01*
X49557Y-26511D01*
X49519Y-26502D01*
X49500Y-26492D01*
X49490Y-26483D01*
X49480Y-26464D01*
X48680Y-26892D02*
X48480Y-26892D01*
X48480Y-26845D01*
X48490Y-26816D01*
X48509Y-26797D01*
X48528Y-26788D01*
X48566Y-26778D01*
X48595Y-26778D01*
X48633Y-26788D01*
X48652Y-26797D01*
X48671Y-26816D01*
X48680Y-26845D01*
X48680Y-26892D01*
X48680Y-26588D02*
X48680Y-26702D01*
X48680Y-26645D02*
X48480Y-26645D01*
X48509Y-26664D01*
X48528Y-26683D01*
X48538Y-26702D01*
X48480Y-26416D02*
X48480Y-26454D01*
X48490Y-26473D01*
X48500Y-26483D01*
X48528Y-26502D01*
X48566Y-26511D01*
X48642Y-26511D01*
X48661Y-26502D01*
X48671Y-26492D01*
X48680Y-26473D01*
X48680Y-26435D01*
X48671Y-26416D01*
X48661Y-26407D01*
X48642Y-26397D01*
X48595Y-26397D01*
X48576Y-26407D01*
X48566Y-26416D01*
X48557Y-26435D01*
X48557Y-26473D01*
X48566Y-26492D01*
X48576Y-26502D01*
X48595Y-26511D01*
X47680Y-26892D02*
X47480Y-26892D01*
X47480Y-26845D01*
X47490Y-26816D01*
X47509Y-26797D01*
X47528Y-26788D01*
X47566Y-26778D01*
X47595Y-26778D01*
X47633Y-26788D01*
X47652Y-26797D01*
X47671Y-26816D01*
X47680Y-26845D01*
X47680Y-26892D01*
X47680Y-26588D02*
X47680Y-26702D01*
X47680Y-26645D02*
X47480Y-26645D01*
X47509Y-26664D01*
X47528Y-26683D01*
X47538Y-26702D01*
X47500Y-26511D02*
X47490Y-26502D01*
X47480Y-26483D01*
X47480Y-26435D01*
X47490Y-26416D01*
X47500Y-26407D01*
X47519Y-26397D01*
X47538Y-26397D01*
X47566Y-26407D01*
X47680Y-26521D01*
X47680Y-26397D01*
X51480Y-29892D02*
X51280Y-29892D01*
X51280Y-29845D01*
X51290Y-29816D01*
X51309Y-29797D01*
X51328Y-29788D01*
X51366Y-29778D01*
X51395Y-29778D01*
X51433Y-29788D01*
X51452Y-29797D01*
X51471Y-29816D01*
X51480Y-29845D01*
X51480Y-29892D01*
X51480Y-29588D02*
X51480Y-29702D01*
X51480Y-29645D02*
X51280Y-29645D01*
X51309Y-29664D01*
X51328Y-29683D01*
X51338Y-29702D01*
X51480Y-29492D02*
X51480Y-29454D01*
X51471Y-29435D01*
X51461Y-29426D01*
X51433Y-29407D01*
X51395Y-29397D01*
X51319Y-29397D01*
X51300Y-29407D01*
X51290Y-29416D01*
X51280Y-29435D01*
X51280Y-29473D01*
X51290Y-29492D01*
X51300Y-29502D01*
X51319Y-29511D01*
X51366Y-29511D01*
X51385Y-29502D01*
X51395Y-29492D01*
X51404Y-29473D01*
X51404Y-29435D01*
X51395Y-29416D01*
X51385Y-29407D01*
X51366Y-29397D01*
X52480Y-29892D02*
X52280Y-29892D01*
X52280Y-29845D01*
X52290Y-29816D01*
X52309Y-29797D01*
X52328Y-29788D01*
X52366Y-29778D01*
X52395Y-29778D01*
X52433Y-29788D01*
X52452Y-29797D01*
X52471Y-29816D01*
X52480Y-29845D01*
X52480Y-29892D01*
X52480Y-29588D02*
X52480Y-29702D01*
X52480Y-29645D02*
X52280Y-29645D01*
X52309Y-29664D01*
X52328Y-29683D01*
X52338Y-29702D01*
X52280Y-29407D02*
X52280Y-29502D01*
X52376Y-29511D01*
X52366Y-29502D01*
X52357Y-29483D01*
X52357Y-29435D01*
X52366Y-29416D01*
X52376Y-29407D01*
X52395Y-29397D01*
X52442Y-29397D01*
X52461Y-29407D01*
X52471Y-29416D01*
X52480Y-29435D01*
X52480Y-29483D01*
X52471Y-29502D01*
X52461Y-29511D01*
X53480Y-29892D02*
X53280Y-29892D01*
X53280Y-29845D01*
X53290Y-29816D01*
X53309Y-29797D01*
X53328Y-29788D01*
X53366Y-29778D01*
X53395Y-29778D01*
X53433Y-29788D01*
X53452Y-29797D01*
X53471Y-29816D01*
X53480Y-29845D01*
X53480Y-29892D01*
X53480Y-29588D02*
X53480Y-29702D01*
X53480Y-29645D02*
X53280Y-29645D01*
X53309Y-29664D01*
X53328Y-29683D01*
X53338Y-29702D01*
X53480Y-29397D02*
X53480Y-29511D01*
X53480Y-29454D02*
X53280Y-29454D01*
X53309Y-29473D01*
X53328Y-29492D01*
X53338Y-29511D01*
X50480Y-29892D02*
X50280Y-29892D01*
X50280Y-29845D01*
X50290Y-29816D01*
X50309Y-29797D01*
X50328Y-29788D01*
X50366Y-29778D01*
X50395Y-29778D01*
X50433Y-29788D01*
X50452Y-29797D01*
X50471Y-29816D01*
X50480Y-29845D01*
X50480Y-29892D01*
X50480Y-29588D02*
X50480Y-29702D01*
X50480Y-29645D02*
X50280Y-29645D01*
X50309Y-29664D01*
X50328Y-29683D01*
X50338Y-29702D01*
X50366Y-29473D02*
X50357Y-29492D01*
X50347Y-29502D01*
X50328Y-29511D01*
X50319Y-29511D01*
X50300Y-29502D01*
X50290Y-29492D01*
X50280Y-29473D01*
X50280Y-29435D01*
X50290Y-29416D01*
X50300Y-29407D01*
X50319Y-29397D01*
X50328Y-29397D01*
X50347Y-29407D01*
X50357Y-29416D01*
X50366Y-29435D01*
X50366Y-29473D01*
X50376Y-29492D01*
X50385Y-29502D01*
X50404Y-29511D01*
X50442Y-29511D01*
X50461Y-29502D01*
X50471Y-29492D01*
X50480Y-29473D01*
X50480Y-29435D01*
X50471Y-29416D01*
X50461Y-29407D01*
X50442Y-29397D01*
X50404Y-29397D01*
X50385Y-29407D01*
X50376Y-29416D01*
X50366Y-29435D01*
X49480Y-29892D02*
X49280Y-29892D01*
X49280Y-29845D01*
X49290Y-29816D01*
X49309Y-29797D01*
X49328Y-29788D01*
X49366Y-29778D01*
X49395Y-29778D01*
X49433Y-29788D01*
X49452Y-29797D01*
X49471Y-29816D01*
X49480Y-29845D01*
X49480Y-29892D01*
X49480Y-29588D02*
X49480Y-29702D01*
X49480Y-29645D02*
X49280Y-29645D01*
X49309Y-29664D01*
X49328Y-29683D01*
X49338Y-29702D01*
X49347Y-29416D02*
X49480Y-29416D01*
X49271Y-29464D02*
X49414Y-29511D01*
X49414Y-29388D01*
X48480Y-29892D02*
X48280Y-29892D01*
X48280Y-29845D01*
X48290Y-29816D01*
X48309Y-29797D01*
X48328Y-29788D01*
X48366Y-29778D01*
X48395Y-29778D01*
X48433Y-29788D01*
X48452Y-29797D01*
X48471Y-29816D01*
X48480Y-29845D01*
X48480Y-29892D01*
X48480Y-29588D02*
X48480Y-29702D01*
X48480Y-29645D02*
X48280Y-29645D01*
X48309Y-29664D01*
X48328Y-29683D01*
X48338Y-29702D01*
X48280Y-29464D02*
X48280Y-29445D01*
X48290Y-29426D01*
X48300Y-29416D01*
X48319Y-29407D01*
X48357Y-29397D01*
X48404Y-29397D01*
X48442Y-29407D01*
X48461Y-29416D01*
X48471Y-29426D01*
X48480Y-29445D01*
X48480Y-29464D01*
X48471Y-29483D01*
X48461Y-29492D01*
X48442Y-29502D01*
X48404Y-29511D01*
X48357Y-29511D01*
X48319Y-29502D01*
X48300Y-29492D01*
X48290Y-29483D01*
X48280Y-29464D01*
X47957Y-32680D02*
X47957Y-32480D01*
X48004Y-32480D01*
X48033Y-32490D01*
X48052Y-32509D01*
X48061Y-32528D01*
X48071Y-32566D01*
X48071Y-32595D01*
X48061Y-32633D01*
X48052Y-32652D01*
X48033Y-32671D01*
X48004Y-32680D01*
X47957Y-32680D01*
X48147Y-32500D02*
X48157Y-32490D01*
X48176Y-32480D01*
X48223Y-32480D01*
X48242Y-32490D01*
X48252Y-32500D01*
X48261Y-32519D01*
X48261Y-32538D01*
X48252Y-32566D01*
X48138Y-32680D01*
X48261Y-32680D01*
X48328Y-32480D02*
X48452Y-32480D01*
X48385Y-32557D01*
X48414Y-32557D01*
X48433Y-32566D01*
X48442Y-32576D01*
X48452Y-32595D01*
X48452Y-32642D01*
X48442Y-32661D01*
X48433Y-32671D01*
X48414Y-32680D01*
X48357Y-32680D01*
X48338Y-32671D01*
X48328Y-32661D01*
G54D26*
X19014Y-31873D02*
X18995Y-31892D01*
X18938Y-31911D01*
X18900Y-31911D01*
X18842Y-31892D01*
X18804Y-31854D01*
X18785Y-31816D01*
X18766Y-31740D01*
X18766Y-31683D01*
X18785Y-31607D01*
X18804Y-31569D01*
X18842Y-31530D01*
X18900Y-31511D01*
X18938Y-31511D01*
X18995Y-31530D01*
X19014Y-31550D01*
X19261Y-31511D02*
X19338Y-31511D01*
X19376Y-31530D01*
X19414Y-31569D01*
X19433Y-31645D01*
X19433Y-31778D01*
X19414Y-31854D01*
X19376Y-31892D01*
X19338Y-31911D01*
X19261Y-31911D01*
X19223Y-31892D01*
X19185Y-31854D01*
X19166Y-31778D01*
X19166Y-31645D01*
X19185Y-31569D01*
X19223Y-31530D01*
X19261Y-31511D01*
X19604Y-31911D02*
X19604Y-31511D01*
X19833Y-31911D01*
X19833Y-31511D01*
X20233Y-31911D02*
X20004Y-31911D01*
X20119Y-31911D02*
X20119Y-31511D01*
X20080Y-31569D01*
X20042Y-31607D01*
X20004Y-31626D01*
G54D22*
X25209Y-28635D02*
X25209Y-28241D01*
X25303Y-28241D01*
X25359Y-28260D01*
X25396Y-28297D01*
X25415Y-28335D01*
X25434Y-28410D01*
X25434Y-28466D01*
X25415Y-28541D01*
X25396Y-28579D01*
X25359Y-28616D01*
X25303Y-28635D01*
X25209Y-28635D01*
X25621Y-28635D02*
X25697Y-28635D01*
X25734Y-28616D01*
X25753Y-28597D01*
X25790Y-28541D01*
X25809Y-28466D01*
X25809Y-28316D01*
X25790Y-28279D01*
X25772Y-28260D01*
X25734Y-28241D01*
X25659Y-28241D01*
X25621Y-28260D01*
X25603Y-28279D01*
X25584Y-28316D01*
X25584Y-28410D01*
X25603Y-28447D01*
X25621Y-28466D01*
X25659Y-28485D01*
X25734Y-28485D01*
X25772Y-28466D01*
X25790Y-28447D01*
X25809Y-28410D01*
X24655Y-30761D02*
X24430Y-30761D01*
X24543Y-30761D02*
X24543Y-30367D01*
X24505Y-30423D01*
X24468Y-30461D01*
X24430Y-30480D01*
X24824Y-30761D02*
X24824Y-30367D01*
X25049Y-30761D01*
X25049Y-30367D01*
X25406Y-30498D02*
X25406Y-30761D01*
X25312Y-30348D02*
X25218Y-30630D01*
X25462Y-30630D01*
X25687Y-30367D02*
X25725Y-30367D01*
X25762Y-30386D01*
X25781Y-30405D01*
X25800Y-30442D01*
X25818Y-30517D01*
X25818Y-30611D01*
X25800Y-30686D01*
X25781Y-30723D01*
X25762Y-30742D01*
X25725Y-30761D01*
X25687Y-30761D01*
X25650Y-30742D01*
X25631Y-30723D01*
X25612Y-30686D01*
X25593Y-30611D01*
X25593Y-30517D01*
X25612Y-30442D01*
X25631Y-30405D01*
X25650Y-30386D01*
X25687Y-30367D01*
X26062Y-30367D02*
X26100Y-30367D01*
X26137Y-30386D01*
X26156Y-30405D01*
X26175Y-30442D01*
X26194Y-30517D01*
X26194Y-30611D01*
X26175Y-30686D01*
X26156Y-30723D01*
X26137Y-30742D01*
X26100Y-30761D01*
X26062Y-30761D01*
X26025Y-30742D01*
X26006Y-30723D01*
X25987Y-30686D01*
X25969Y-30611D01*
X25969Y-30517D01*
X25987Y-30442D01*
X26006Y-30405D01*
X26025Y-30386D01*
X26062Y-30367D01*
X26569Y-30761D02*
X26344Y-30761D01*
X26456Y-30761D02*
X26456Y-30367D01*
X26419Y-30423D01*
X26381Y-30461D01*
X26344Y-30480D01*
G54D15*
X25923Y-31716D02*
X25942Y-31735D01*
X25961Y-31792D01*
X25961Y-31830D01*
X25942Y-31888D01*
X25904Y-31926D01*
X25866Y-31945D01*
X25790Y-31964D01*
X25733Y-31964D01*
X25657Y-31945D01*
X25619Y-31926D01*
X25580Y-31888D01*
X25561Y-31830D01*
X25561Y-31792D01*
X25580Y-31735D01*
X25600Y-31716D01*
X25695Y-31373D02*
X25961Y-31373D01*
X25542Y-31469D02*
X25828Y-31564D01*
X25828Y-31316D01*
X26711Y-32597D02*
X26711Y-32826D01*
X26711Y-32711D02*
X26311Y-32711D01*
X26369Y-32749D01*
X26407Y-32788D01*
X26426Y-32826D01*
X26311Y-32349D02*
X26311Y-32311D01*
X26330Y-32273D01*
X26350Y-32254D01*
X26388Y-32235D01*
X26464Y-32216D01*
X26559Y-32216D01*
X26635Y-32235D01*
X26673Y-32254D01*
X26692Y-32273D01*
X26711Y-32311D01*
X26711Y-32349D01*
X26692Y-32388D01*
X26673Y-32407D01*
X26635Y-32426D01*
X26559Y-32445D01*
X26464Y-32445D01*
X26388Y-32426D01*
X26350Y-32407D01*
X26330Y-32388D01*
X26311Y-32349D01*
X26311Y-31969D02*
X26311Y-31930D01*
X26330Y-31892D01*
X26350Y-31873D01*
X26388Y-31854D01*
X26464Y-31835D01*
X26559Y-31835D01*
X26635Y-31854D01*
X26673Y-31873D01*
X26692Y-31892D01*
X26711Y-31930D01*
X26711Y-31969D01*
X26692Y-32007D01*
X26673Y-32026D01*
X26635Y-32045D01*
X26559Y-32064D01*
X26464Y-32064D01*
X26388Y-32045D01*
X26350Y-32026D01*
X26330Y-32007D01*
X26311Y-31969D01*
X26445Y-31492D02*
X26711Y-31492D01*
X26445Y-31664D02*
X26654Y-31664D01*
X26692Y-31645D01*
X26711Y-31607D01*
X26711Y-31550D01*
X26692Y-31511D01*
X26673Y-31492D01*
X41241Y-32939D02*
X41225Y-32960D01*
X41175Y-32982D01*
X41141Y-32982D01*
X41091Y-32960D01*
X41058Y-32917D01*
X41041Y-32875D01*
X41025Y-32789D01*
X41025Y-32725D01*
X41041Y-32639D01*
X41058Y-32596D01*
X41091Y-32553D01*
X41141Y-32532D01*
X41175Y-32532D01*
X41225Y-32553D01*
X41241Y-32575D01*
X41441Y-32725D02*
X41408Y-32703D01*
X41391Y-32682D01*
X41375Y-32639D01*
X41375Y-32617D01*
X41391Y-32575D01*
X41408Y-32553D01*
X41441Y-32532D01*
X41508Y-32532D01*
X41541Y-32553D01*
X41558Y-32575D01*
X41575Y-32617D01*
X41575Y-32639D01*
X41558Y-32682D01*
X41541Y-32703D01*
X41508Y-32725D01*
X41441Y-32725D01*
X41408Y-32746D01*
X41391Y-32767D01*
X41375Y-32810D01*
X41375Y-32896D01*
X41391Y-32939D01*
X41408Y-32960D01*
X41441Y-32982D01*
X41508Y-32982D01*
X41541Y-32960D01*
X41558Y-32939D01*
X41575Y-32896D01*
X41575Y-32810D01*
X41558Y-32767D01*
X41541Y-32746D01*
X41508Y-32725D01*
X40625Y-33532D02*
X40425Y-33532D01*
X40525Y-33532D02*
X40525Y-33082D01*
X40491Y-33146D01*
X40458Y-33189D01*
X40425Y-33210D01*
X40841Y-33082D02*
X40875Y-33082D01*
X40908Y-33103D01*
X40925Y-33125D01*
X40941Y-33167D01*
X40958Y-33253D01*
X40958Y-33360D01*
X40941Y-33446D01*
X40925Y-33489D01*
X40908Y-33510D01*
X40875Y-33532D01*
X40841Y-33532D01*
X40808Y-33510D01*
X40791Y-33489D01*
X40775Y-33446D01*
X40758Y-33360D01*
X40758Y-33253D01*
X40775Y-33167D01*
X40791Y-33125D01*
X40808Y-33103D01*
X40841Y-33082D01*
X41258Y-33232D02*
X41258Y-33532D01*
X41108Y-33232D02*
X41108Y-33467D01*
X41125Y-33510D01*
X41158Y-33532D01*
X41208Y-33532D01*
X41241Y-33510D01*
X41258Y-33489D01*
G54D21*
X40578Y-32010D02*
X40921Y-32010D01*
X40750Y-32182D02*
X40750Y-31839D01*
G54D18*
G54D15*
X24739Y-23708D02*
X24760Y-23725D01*
X24782Y-23775D01*
X24782Y-23808D01*
X24760Y-23858D01*
X24717Y-23891D01*
X24675Y-23908D01*
X24589Y-23925D01*
X24525Y-23925D01*
X24439Y-23908D01*
X24396Y-23891D01*
X24353Y-23858D01*
X24332Y-23808D01*
X24332Y-23775D01*
X24353Y-23725D01*
X24375Y-23708D01*
X24332Y-23591D02*
X24332Y-23358D01*
X24782Y-23508D01*
X22132Y-25325D02*
X22132Y-25525D01*
X22132Y-25425D02*
X21682Y-25425D01*
X21746Y-25458D01*
X21789Y-25491D01*
X21810Y-25525D01*
X21682Y-25108D02*
X21682Y-25074D01*
X21703Y-25041D01*
X21725Y-25024D01*
X21767Y-25008D01*
X21853Y-24991D01*
X21960Y-24991D01*
X22046Y-25008D01*
X22089Y-25024D01*
X22110Y-25041D01*
X22132Y-25074D01*
X22132Y-25108D01*
X22110Y-25141D01*
X22089Y-25158D01*
X22046Y-25174D01*
X21960Y-25191D01*
X21853Y-25191D01*
X21767Y-25174D01*
X21725Y-25158D01*
X21703Y-25141D01*
X21682Y-25108D01*
X21832Y-24691D02*
X22132Y-24691D01*
X21832Y-24841D02*
X22067Y-24841D01*
X22110Y-24824D01*
X22132Y-24791D01*
X22132Y-24741D01*
X22110Y-24708D01*
X22089Y-24691D01*
G54D21*
X23510Y-26171D02*
X23510Y-25828D01*
X23682Y-26000D02*
X23339Y-26000D01*
G54D18*
G54D15*
X41889Y-21558D02*
X41910Y-21575D01*
X41932Y-21625D01*
X41932Y-21658D01*
X41910Y-21708D01*
X41867Y-21741D01*
X41825Y-21758D01*
X41739Y-21775D01*
X41675Y-21775D01*
X41589Y-21758D01*
X41546Y-21741D01*
X41503Y-21708D01*
X41482Y-21658D01*
X41482Y-21625D01*
X41503Y-21575D01*
X41525Y-21558D01*
X41932Y-21391D02*
X41932Y-21325D01*
X41910Y-21291D01*
X41889Y-21275D01*
X41825Y-21241D01*
X41739Y-21225D01*
X41567Y-21225D01*
X41525Y-21241D01*
X41503Y-21258D01*
X41482Y-21291D01*
X41482Y-21358D01*
X41503Y-21391D01*
X41525Y-21408D01*
X41567Y-21425D01*
X41675Y-21425D01*
X41717Y-21408D01*
X41739Y-21391D01*
X41760Y-21358D01*
X41760Y-21291D01*
X41739Y-21258D01*
X41717Y-21241D01*
X41675Y-21225D01*
X38632Y-21025D02*
X38632Y-21225D01*
X38632Y-21125D02*
X38182Y-21125D01*
X38246Y-21158D01*
X38289Y-21191D01*
X38310Y-21225D01*
X38182Y-20808D02*
X38182Y-20774D01*
X38203Y-20741D01*
X38225Y-20724D01*
X38267Y-20708D01*
X38353Y-20691D01*
X38460Y-20691D01*
X38546Y-20708D01*
X38589Y-20724D01*
X38610Y-20741D01*
X38632Y-20774D01*
X38632Y-20808D01*
X38610Y-20841D01*
X38589Y-20858D01*
X38546Y-20874D01*
X38460Y-20891D01*
X38353Y-20891D01*
X38267Y-20874D01*
X38225Y-20858D01*
X38203Y-20841D01*
X38182Y-20808D01*
X38332Y-20391D02*
X38632Y-20391D01*
X38332Y-20541D02*
X38567Y-20541D01*
X38610Y-20524D01*
X38632Y-20491D01*
X38632Y-20441D01*
X38610Y-20408D01*
X38589Y-20391D01*
G54D21*
X40010Y-22171D02*
X40010Y-21828D01*
X40182Y-22000D02*
X39839Y-22000D01*
G54D18*
G54D15*
X36839Y-21025D02*
X36860Y-21041D01*
X36882Y-21091D01*
X36882Y-21125D01*
X36860Y-21175D01*
X36817Y-21208D01*
X36775Y-21225D01*
X36689Y-21241D01*
X36625Y-21241D01*
X36539Y-21225D01*
X36496Y-21208D01*
X36453Y-21175D01*
X36432Y-21125D01*
X36432Y-21091D01*
X36453Y-21041D01*
X36475Y-21025D01*
X36882Y-20691D02*
X36882Y-20891D01*
X36882Y-20791D02*
X36432Y-20791D01*
X36496Y-20825D01*
X36539Y-20858D01*
X36560Y-20891D01*
X36432Y-20475D02*
X36432Y-20441D01*
X36453Y-20408D01*
X36475Y-20391D01*
X36517Y-20375D01*
X36603Y-20358D01*
X36710Y-20358D01*
X36796Y-20375D01*
X36839Y-20391D01*
X36860Y-20408D01*
X36882Y-20441D01*
X36882Y-20475D01*
X36860Y-20508D01*
X36839Y-20525D01*
X36796Y-20541D01*
X36710Y-20558D01*
X36603Y-20558D01*
X36517Y-20541D01*
X36475Y-20525D01*
X36453Y-20508D01*
X36432Y-20475D01*
X33482Y-21075D02*
X33482Y-21275D01*
X33482Y-21175D02*
X33032Y-21175D01*
X33096Y-21208D01*
X33139Y-21241D01*
X33160Y-21275D01*
X33032Y-20858D02*
X33032Y-20824D01*
X33053Y-20791D01*
X33075Y-20774D01*
X33117Y-20758D01*
X33203Y-20741D01*
X33310Y-20741D01*
X33396Y-20758D01*
X33439Y-20774D01*
X33460Y-20791D01*
X33482Y-20824D01*
X33482Y-20858D01*
X33460Y-20891D01*
X33439Y-20908D01*
X33396Y-20924D01*
X33310Y-20941D01*
X33203Y-20941D01*
X33117Y-20924D01*
X33075Y-20908D01*
X33053Y-20891D01*
X33032Y-20858D01*
X33182Y-20441D02*
X33482Y-20441D01*
X33182Y-20591D02*
X33417Y-20591D01*
X33460Y-20574D01*
X33482Y-20541D01*
X33482Y-20491D01*
X33460Y-20458D01*
X33439Y-20441D01*
G54D21*
X35010Y-22171D02*
X35010Y-21828D01*
X35182Y-22000D02*
X34839Y-22000D01*
G54D18*
G54D21*
X30610Y-27092D02*
X30610Y-26492D01*
X31082Y-27035D02*
X31060Y-27064D01*
X30996Y-27092D01*
X30953Y-27092D01*
X30889Y-27064D01*
X30846Y-27007D01*
X30825Y-26950D01*
X30803Y-26835D01*
X30803Y-26750D01*
X30825Y-26635D01*
X30846Y-26578D01*
X30889Y-26521D01*
X30953Y-26492D01*
X30996Y-26492D01*
X31060Y-26521D01*
X31082Y-26550D01*
X31510Y-27092D02*
X31253Y-27092D01*
X31382Y-27092D02*
X31382Y-26492D01*
X31339Y-26578D01*
X31296Y-26635D01*
X31253Y-26664D01*
G54D18*
G54D21*
X28792Y-22071D02*
X29007Y-22071D01*
X28750Y-22242D02*
X28900Y-21642D01*
X29050Y-22242D01*
X29135Y-21642D02*
X29392Y-21642D01*
X29264Y-22242D02*
X29264Y-21642D01*
X29542Y-22242D02*
X29542Y-21642D01*
X29692Y-22071D01*
X29842Y-21642D01*
X29842Y-22242D01*
X30057Y-21928D02*
X30207Y-21928D01*
X30271Y-22242D02*
X30057Y-22242D01*
X30057Y-21642D01*
X30271Y-21642D01*
X30700Y-21671D02*
X30657Y-21642D01*
X30592Y-21642D01*
X30528Y-21671D01*
X30485Y-21728D01*
X30464Y-21785D01*
X30442Y-21900D01*
X30442Y-21985D01*
X30464Y-22100D01*
X30485Y-22157D01*
X30528Y-22214D01*
X30592Y-22242D01*
X30635Y-22242D01*
X30700Y-22214D01*
X30721Y-22185D01*
X30721Y-21985D01*
X30635Y-21985D01*
X30892Y-22071D02*
X31107Y-22071D01*
X30850Y-22242D02*
X31000Y-21642D01*
X31150Y-22242D01*
X31492Y-21842D02*
X31492Y-22242D01*
X31385Y-21614D02*
X31278Y-22042D01*
X31557Y-22042D01*
X31792Y-21900D02*
X31750Y-21871D01*
X31728Y-21842D01*
X31707Y-21785D01*
X31707Y-21757D01*
X31728Y-21700D01*
X31750Y-21671D01*
X31792Y-21642D01*
X31878Y-21642D01*
X31921Y-21671D01*
X31942Y-21700D01*
X31964Y-21757D01*
X31964Y-21785D01*
X31942Y-21842D01*
X31921Y-21871D01*
X31878Y-21900D01*
X31792Y-21900D01*
X31750Y-21928D01*
X31728Y-21957D01*
X31707Y-22014D01*
X31707Y-22128D01*
X31728Y-22185D01*
X31750Y-22214D01*
X31792Y-22242D01*
X31878Y-22242D01*
X31921Y-22214D01*
X31942Y-22185D01*
X31964Y-22128D01*
X31964Y-22014D01*
X31942Y-21957D01*
X31921Y-21928D01*
X31878Y-21900D01*
X32157Y-22242D02*
X32157Y-21642D01*
X32328Y-21642D01*
X32371Y-21671D01*
X32392Y-21700D01*
X32414Y-21757D01*
X32414Y-21842D01*
X32392Y-21900D01*
X32371Y-21928D01*
X32328Y-21957D01*
X32157Y-21957D01*
X32585Y-22071D02*
X32800Y-22071D01*
X32542Y-22242D02*
X32692Y-21642D01*
X32842Y-22242D01*
X32992Y-22014D02*
X33335Y-22014D01*
X33550Y-22242D02*
X33550Y-21642D01*
X33721Y-21642D01*
X33764Y-21671D01*
X33785Y-21700D01*
X33807Y-21757D01*
X33807Y-21842D01*
X33785Y-21900D01*
X33764Y-21928D01*
X33721Y-21957D01*
X33550Y-21957D01*
G54D18*
G54D23*
X37323Y-25310D02*
X37313Y-25320D01*
X37285Y-25329D01*
X37267Y-25329D01*
X37238Y-25320D01*
X37220Y-25301D01*
X37210Y-25282D01*
X37201Y-25245D01*
X37201Y-25217D01*
X37210Y-25179D01*
X37220Y-25160D01*
X37238Y-25142D01*
X37267Y-25132D01*
X37285Y-25132D01*
X37313Y-25142D01*
X37323Y-25151D01*
X37510Y-25329D02*
X37398Y-25329D01*
X37454Y-25329D02*
X37454Y-25132D01*
X37435Y-25160D01*
X37417Y-25179D01*
X37398Y-25189D01*
X37698Y-25329D02*
X37586Y-25329D01*
X37642Y-25329D02*
X37642Y-25132D01*
X37623Y-25160D01*
X37604Y-25179D01*
X37586Y-25189D01*
X36579Y-24579D02*
X36466Y-24579D01*
X36523Y-24579D02*
X36523Y-24382D01*
X36504Y-24410D01*
X36485Y-24429D01*
X36466Y-24439D01*
X36701Y-24382D02*
X36720Y-24382D01*
X36739Y-24392D01*
X36748Y-24401D01*
X36757Y-24420D01*
X36767Y-24457D01*
X36767Y-24504D01*
X36757Y-24542D01*
X36748Y-24560D01*
X36739Y-24570D01*
X36720Y-24579D01*
X36701Y-24579D01*
X36682Y-24570D01*
X36673Y-24560D01*
X36663Y-24542D01*
X36654Y-24504D01*
X36654Y-24457D01*
X36663Y-24420D01*
X36673Y-24401D01*
X36682Y-24392D01*
X36701Y-24382D01*
X36889Y-24382D02*
X36907Y-24382D01*
X36926Y-24392D01*
X36936Y-24401D01*
X36945Y-24420D01*
X36954Y-24457D01*
X36954Y-24504D01*
X36945Y-24542D01*
X36936Y-24560D01*
X36926Y-24570D01*
X36907Y-24579D01*
X36889Y-24579D01*
X36870Y-24570D01*
X36860Y-24560D01*
X36851Y-24542D01*
X36842Y-24504D01*
X36842Y-24457D01*
X36851Y-24420D01*
X36860Y-24401D01*
X36870Y-24392D01*
X36889Y-24382D01*
X37039Y-24448D02*
X37039Y-24579D01*
X37039Y-24467D02*
X37048Y-24457D01*
X37067Y-24448D01*
X37095Y-24448D01*
X37114Y-24457D01*
X37123Y-24476D01*
X37123Y-24579D01*
X28973Y-26529D02*
X28907Y-26435D01*
X28860Y-26529D02*
X28860Y-26332D01*
X28935Y-26332D01*
X28954Y-26342D01*
X28963Y-26351D01*
X28973Y-26370D01*
X28973Y-26398D01*
X28963Y-26417D01*
X28954Y-26426D01*
X28935Y-26435D01*
X28860Y-26435D01*
X29039Y-26332D02*
X29160Y-26332D01*
X29095Y-26407D01*
X29123Y-26407D01*
X29142Y-26417D01*
X29151Y-26426D01*
X29160Y-26445D01*
X29160Y-26492D01*
X29151Y-26510D01*
X29142Y-26520D01*
X29123Y-26529D01*
X29067Y-26529D01*
X29048Y-26520D01*
X29039Y-26510D01*
X29339Y-26332D02*
X29245Y-26332D01*
X29236Y-26426D01*
X29245Y-26417D01*
X29264Y-26407D01*
X29311Y-26407D01*
X29329Y-26417D01*
X29339Y-26426D01*
X29348Y-26445D01*
X29348Y-26492D01*
X29339Y-26510D01*
X29329Y-26520D01*
X29311Y-26529D01*
X29264Y-26529D01*
X29245Y-26520D01*
X29236Y-26510D01*
X29413Y-27498D02*
X29413Y-27629D01*
X29367Y-27423D02*
X29320Y-27564D01*
X29442Y-27564D01*
X29517Y-27629D02*
X29517Y-27432D01*
X29535Y-27554D02*
X29592Y-27629D01*
X29592Y-27498D02*
X29517Y-27573D01*
X29657Y-27432D02*
X29789Y-27432D01*
X29704Y-27629D01*
G54D16*
X25311Y-24845D02*
X24911Y-24845D01*
X25311Y-24616D02*
X25083Y-24788D01*
X24911Y-24616D02*
X25140Y-24845D01*
X24950Y-24464D02*
X24930Y-24445D01*
X24911Y-24407D01*
X24911Y-24311D01*
X24930Y-24273D01*
X24950Y-24254D01*
X24988Y-24235D01*
X25026Y-24235D01*
X25083Y-24254D01*
X25311Y-24483D01*
X25311Y-24235D01*
G54D26*
X18535Y-34252D02*
X18535Y-33752D01*
X18654Y-33752D01*
X18726Y-33776D01*
X18773Y-33823D01*
X18797Y-33871D01*
X18821Y-33966D01*
X18821Y-34038D01*
X18797Y-34133D01*
X18773Y-34180D01*
X18726Y-34228D01*
X18654Y-34252D01*
X18535Y-34252D01*
X18916Y-34300D02*
X19297Y-34300D01*
X19392Y-33800D02*
X19416Y-33776D01*
X19464Y-33752D01*
X19583Y-33752D01*
X19630Y-33776D01*
X19654Y-33800D01*
X19678Y-33847D01*
X19678Y-33895D01*
X19654Y-33966D01*
X19369Y-34252D01*
X19678Y-34252D01*
X19892Y-34252D02*
X19892Y-33919D01*
X19892Y-33966D02*
X19916Y-33942D01*
X19964Y-33919D01*
X20035Y-33919D01*
X20083Y-33942D01*
X20107Y-33990D01*
X20107Y-34252D01*
X20107Y-33990D02*
X20130Y-33942D01*
X20178Y-33919D01*
X20250Y-33919D01*
X20297Y-33942D01*
X20321Y-33990D01*
X20321Y-34252D01*
X20559Y-34252D02*
X20559Y-33919D01*
X20559Y-33966D02*
X20583Y-33942D01*
X20630Y-33919D01*
X20702Y-33919D01*
X20750Y-33942D01*
X20773Y-33990D01*
X20773Y-34252D01*
X20773Y-33990D02*
X20797Y-33942D01*
X20845Y-33919D01*
X20916Y-33919D01*
X20964Y-33942D01*
X20988Y-33990D01*
X20988Y-34252D01*
X21297Y-33966D02*
X21250Y-33942D01*
X21226Y-33919D01*
X21202Y-33871D01*
X21202Y-33847D01*
X21226Y-33800D01*
X21250Y-33776D01*
X21297Y-33752D01*
X21392Y-33752D01*
X21440Y-33776D01*
X21464Y-33800D01*
X21488Y-33847D01*
X21488Y-33871D01*
X21464Y-33919D01*
X21440Y-33942D01*
X21392Y-33966D01*
X21297Y-33966D01*
X21250Y-33990D01*
X21226Y-34014D01*
X21202Y-34061D01*
X21202Y-34157D01*
X21226Y-34204D01*
X21250Y-34228D01*
X21297Y-34252D01*
X21392Y-34252D01*
X21440Y-34228D01*
X21464Y-34204D01*
X21488Y-34157D01*
X21488Y-34061D01*
X21464Y-34014D01*
X21440Y-33990D01*
X21392Y-33966D01*
X18535Y-19252D02*
X18535Y-18752D01*
X18654Y-18752D01*
X18726Y-18776D01*
X18773Y-18823D01*
X18797Y-18871D01*
X18821Y-18966D01*
X18821Y-19038D01*
X18797Y-19133D01*
X18773Y-19180D01*
X18726Y-19228D01*
X18654Y-19252D01*
X18535Y-19252D01*
X18916Y-19300D02*
X19297Y-19300D01*
X19392Y-18800D02*
X19416Y-18776D01*
X19464Y-18752D01*
X19583Y-18752D01*
X19630Y-18776D01*
X19654Y-18800D01*
X19678Y-18847D01*
X19678Y-18895D01*
X19654Y-18966D01*
X19369Y-19252D01*
X19678Y-19252D01*
X19892Y-19252D02*
X19892Y-18919D01*
X19892Y-18966D02*
X19916Y-18942D01*
X19964Y-18919D01*
X20035Y-18919D01*
X20083Y-18942D01*
X20107Y-18990D01*
X20107Y-19252D01*
X20107Y-18990D02*
X20130Y-18942D01*
X20178Y-18919D01*
X20250Y-18919D01*
X20297Y-18942D01*
X20321Y-18990D01*
X20321Y-19252D01*
X20559Y-19252D02*
X20559Y-18919D01*
X20559Y-18966D02*
X20583Y-18942D01*
X20630Y-18919D01*
X20702Y-18919D01*
X20750Y-18942D01*
X20773Y-18990D01*
X20773Y-19252D01*
X20773Y-18990D02*
X20797Y-18942D01*
X20845Y-18919D01*
X20916Y-18919D01*
X20964Y-18942D01*
X20988Y-18990D01*
X20988Y-19252D01*
X21297Y-18966D02*
X21250Y-18942D01*
X21226Y-18919D01*
X21202Y-18871D01*
X21202Y-18847D01*
X21226Y-18800D01*
X21250Y-18776D01*
X21297Y-18752D01*
X21392Y-18752D01*
X21440Y-18776D01*
X21464Y-18800D01*
X21488Y-18847D01*
X21488Y-18871D01*
X21464Y-18919D01*
X21440Y-18942D01*
X21392Y-18966D01*
X21297Y-18966D01*
X21250Y-18990D01*
X21226Y-19014D01*
X21202Y-19061D01*
X21202Y-19157D01*
X21226Y-19204D01*
X21250Y-19228D01*
X21297Y-19252D01*
X21392Y-19252D01*
X21440Y-19228D01*
X21464Y-19204D01*
X21488Y-19157D01*
X21488Y-19061D01*
X21464Y-19014D01*
X21440Y-18990D01*
X21392Y-18966D01*
X53535Y-34252D02*
X53535Y-33752D01*
X53654Y-33752D01*
X53726Y-33776D01*
X53773Y-33823D01*
X53797Y-33871D01*
X53821Y-33966D01*
X53821Y-34038D01*
X53797Y-34133D01*
X53773Y-34180D01*
X53726Y-34228D01*
X53654Y-34252D01*
X53535Y-34252D01*
X53916Y-34300D02*
X54297Y-34300D01*
X54392Y-33800D02*
X54416Y-33776D01*
X54464Y-33752D01*
X54583Y-33752D01*
X54630Y-33776D01*
X54654Y-33800D01*
X54678Y-33847D01*
X54678Y-33895D01*
X54654Y-33966D01*
X54369Y-34252D01*
X54678Y-34252D01*
X54892Y-34252D02*
X54892Y-33919D01*
X54892Y-33966D02*
X54916Y-33942D01*
X54964Y-33919D01*
X55035Y-33919D01*
X55083Y-33942D01*
X55107Y-33990D01*
X55107Y-34252D01*
X55107Y-33990D02*
X55130Y-33942D01*
X55178Y-33919D01*
X55250Y-33919D01*
X55297Y-33942D01*
X55321Y-33990D01*
X55321Y-34252D01*
X55559Y-34252D02*
X55559Y-33919D01*
X55559Y-33966D02*
X55583Y-33942D01*
X55630Y-33919D01*
X55702Y-33919D01*
X55750Y-33942D01*
X55773Y-33990D01*
X55773Y-34252D01*
X55773Y-33990D02*
X55797Y-33942D01*
X55845Y-33919D01*
X55916Y-33919D01*
X55964Y-33942D01*
X55988Y-33990D01*
X55988Y-34252D01*
X56297Y-33966D02*
X56250Y-33942D01*
X56226Y-33919D01*
X56202Y-33871D01*
X56202Y-33847D01*
X56226Y-33800D01*
X56250Y-33776D01*
X56297Y-33752D01*
X56392Y-33752D01*
X56440Y-33776D01*
X56464Y-33800D01*
X56488Y-33847D01*
X56488Y-33871D01*
X56464Y-33919D01*
X56440Y-33942D01*
X56392Y-33966D01*
X56297Y-33966D01*
X56250Y-33990D01*
X56226Y-34014D01*
X56202Y-34061D01*
X56202Y-34157D01*
X56226Y-34204D01*
X56250Y-34228D01*
X56297Y-34252D01*
X56392Y-34252D01*
X56440Y-34228D01*
X56464Y-34204D01*
X56488Y-34157D01*
X56488Y-34061D01*
X56464Y-34014D01*
X56440Y-33990D01*
X56392Y-33966D01*
X53535Y-19252D02*
X53535Y-18752D01*
X53654Y-18752D01*
X53726Y-18776D01*
X53773Y-18823D01*
X53797Y-18871D01*
X53821Y-18966D01*
X53821Y-19038D01*
X53797Y-19133D01*
X53773Y-19180D01*
X53726Y-19228D01*
X53654Y-19252D01*
X53535Y-19252D01*
X53916Y-19300D02*
X54297Y-19300D01*
X54392Y-18800D02*
X54416Y-18776D01*
X54464Y-18752D01*
X54583Y-18752D01*
X54630Y-18776D01*
X54654Y-18800D01*
X54678Y-18847D01*
X54678Y-18895D01*
X54654Y-18966D01*
X54369Y-19252D01*
X54678Y-19252D01*
X54892Y-19252D02*
X54892Y-18919D01*
X54892Y-18966D02*
X54916Y-18942D01*
X54964Y-18919D01*
X55035Y-18919D01*
X55083Y-18942D01*
X55107Y-18990D01*
X55107Y-19252D01*
X55107Y-18990D02*
X55130Y-18942D01*
X55178Y-18919D01*
X55250Y-18919D01*
X55297Y-18942D01*
X55321Y-18990D01*
X55321Y-19252D01*
X55559Y-19252D02*
X55559Y-18919D01*
X55559Y-18966D02*
X55583Y-18942D01*
X55630Y-18919D01*
X55702Y-18919D01*
X55750Y-18942D01*
X55773Y-18990D01*
X55773Y-19252D01*
X55773Y-18990D02*
X55797Y-18942D01*
X55845Y-18919D01*
X55916Y-18919D01*
X55964Y-18942D01*
X55988Y-18990D01*
X55988Y-19252D01*
X56297Y-18966D02*
X56250Y-18942D01*
X56226Y-18919D01*
X56202Y-18871D01*
X56202Y-18847D01*
X56226Y-18800D01*
X56250Y-18776D01*
X56297Y-18752D01*
X56392Y-18752D01*
X56440Y-18776D01*
X56464Y-18800D01*
X56488Y-18847D01*
X56488Y-18871D01*
X56464Y-18919D01*
X56440Y-18942D01*
X56392Y-18966D01*
X56297Y-18966D01*
X56250Y-18990D01*
X56226Y-19014D01*
X56202Y-19061D01*
X56202Y-19157D01*
X56226Y-19204D01*
X56250Y-19228D01*
X56297Y-19252D01*
X56392Y-19252D01*
X56440Y-19228D01*
X56464Y-19204D01*
X56488Y-19157D01*
X56488Y-19061D01*
X56464Y-19014D01*
X56440Y-18990D01*
X56392Y-18966D01*
M02*
