G04 (created by PCBNEW (2013-07-07 BZR 4022)-stable) date 17.09.2014 22:00:27*
%MOIN*%
G04 Gerber Fmt 3.4, Leading zero omitted, Abs format*
%FSLAX34Y34*%
G01*
G70*
G90*
G04 APERTURE LIST*
%ADD10C,0.00590551*%
%ADD11R,0.055X0.055*%
%ADD12C,0.055*%
%ADD13R,0.0394X0.0315*%
%ADD14R,0.0315X0.0394*%
%ADD15R,0.2854X0.1181*%
%ADD16R,0.055X0.035*%
%ADD17R,0.035X0.055*%
%ADD18R,0.06X0.06*%
%ADD19C,0.06*%
%ADD20R,0.0708X0.0551*%
%ADD21R,0.0314X0.0314*%
%ADD22C,0.189*%
%ADD23R,0.189X0.189*%
%ADD24R,0.063X0.0866*%
%ADD25R,0.07X0.07*%
%ADD26C,0.07*%
%ADD27C,0.2205*%
G04 APERTURE END LIST*
G54D10*
G54D11*
X30000Y-31500D03*
G54D12*
X31000Y-31500D03*
X32000Y-31500D03*
X33000Y-31500D03*
X34000Y-31500D03*
X35000Y-31500D03*
X36000Y-31500D03*
X37000Y-31500D03*
X37000Y-28500D03*
X36000Y-28500D03*
X35000Y-28500D03*
X34000Y-28500D03*
X33000Y-28500D03*
X32000Y-28500D03*
X31000Y-28500D03*
X30000Y-28500D03*
G54D13*
X42683Y-27750D03*
X41817Y-28125D03*
X41817Y-27375D03*
X41567Y-31500D03*
X42433Y-31125D03*
X42433Y-31875D03*
G54D14*
X27250Y-34933D03*
X26875Y-34067D03*
X27625Y-34067D03*
X29250Y-35933D03*
X28875Y-35067D03*
X29625Y-35067D03*
X32250Y-35933D03*
X31875Y-35067D03*
X32625Y-35067D03*
X35250Y-35933D03*
X34875Y-35067D03*
X35625Y-35067D03*
X38250Y-35933D03*
X37875Y-35067D03*
X38625Y-35067D03*
G54D15*
X40000Y-28000D03*
X40000Y-30000D03*
G54D16*
X29250Y-34375D03*
X29250Y-33625D03*
G54D17*
X41625Y-26750D03*
X42375Y-26750D03*
X31125Y-24000D03*
X31875Y-24000D03*
X28875Y-28000D03*
X28125Y-28000D03*
G54D16*
X27000Y-26625D03*
X27000Y-27375D03*
G54D17*
X25875Y-25500D03*
X25125Y-25500D03*
X35875Y-24000D03*
X35125Y-24000D03*
X36375Y-30250D03*
X37125Y-30250D03*
X42625Y-28500D03*
X43375Y-28500D03*
G54D16*
X32750Y-37875D03*
X32750Y-37125D03*
G54D17*
X32625Y-36500D03*
X31875Y-36500D03*
G54D16*
X40750Y-35625D03*
X40750Y-36375D03*
X32250Y-34375D03*
X32250Y-33625D03*
X35250Y-34375D03*
X35250Y-33625D03*
X38250Y-34375D03*
X38250Y-33625D03*
G54D17*
X24875Y-27500D03*
X24125Y-27500D03*
X26625Y-33400D03*
X27375Y-33400D03*
G54D16*
X46500Y-28275D03*
X46500Y-29025D03*
X38000Y-21625D03*
X38000Y-22375D03*
X38000Y-24875D03*
X38000Y-24125D03*
X37000Y-21625D03*
X37000Y-22375D03*
G54D17*
X45125Y-28500D03*
X45875Y-28500D03*
X52875Y-33650D03*
X52125Y-33650D03*
X50375Y-33650D03*
X49625Y-33650D03*
X48375Y-33650D03*
X47625Y-33650D03*
G54D16*
X43250Y-31125D03*
X43250Y-31875D03*
X39250Y-34375D03*
X39250Y-33625D03*
X36250Y-34375D03*
X36250Y-33625D03*
X33250Y-34375D03*
X33250Y-33625D03*
X36250Y-35875D03*
X36250Y-36625D03*
X33250Y-35875D03*
X33250Y-36625D03*
X30250Y-35875D03*
X30250Y-36625D03*
G54D17*
X37125Y-32500D03*
X37875Y-32500D03*
G54D16*
X30250Y-34375D03*
X30250Y-33625D03*
X42000Y-28625D03*
X42000Y-29375D03*
X43000Y-29125D03*
X43000Y-29875D03*
X27250Y-36375D03*
X27250Y-35625D03*
G54D17*
X35625Y-36500D03*
X34875Y-36500D03*
X38625Y-36500D03*
X37875Y-36500D03*
G54D16*
X40000Y-35625D03*
X40000Y-36375D03*
G54D18*
X48750Y-23000D03*
G54D19*
X48750Y-24000D03*
X47750Y-23000D03*
X47750Y-24000D03*
X46750Y-23000D03*
X46750Y-24000D03*
G54D18*
X42500Y-36500D03*
G54D19*
X43500Y-36500D03*
X44500Y-36500D03*
G54D20*
X31150Y-35331D03*
X31150Y-36669D03*
X31150Y-33331D03*
X31150Y-34669D03*
X34150Y-35331D03*
X34150Y-36669D03*
X34150Y-33331D03*
X34150Y-34669D03*
X37150Y-35331D03*
X37150Y-36669D03*
X37150Y-33331D03*
X37150Y-34669D03*
X28250Y-35331D03*
X28250Y-36669D03*
X28250Y-33331D03*
X28250Y-34669D03*
G54D12*
X26000Y-27500D03*
G54D11*
X26000Y-26500D03*
G54D12*
X25000Y-26500D03*
G54D21*
X22705Y-27000D03*
X23295Y-27000D03*
X49705Y-32150D03*
X50295Y-32150D03*
X51795Y-32150D03*
X51205Y-32150D03*
X52705Y-32150D03*
X53295Y-32150D03*
X53000Y-26945D03*
X53000Y-26355D03*
X52000Y-26945D03*
X52000Y-26355D03*
X51000Y-26945D03*
X51000Y-26355D03*
X50000Y-26945D03*
X50000Y-26355D03*
X49000Y-26945D03*
X49000Y-26355D03*
X48000Y-26945D03*
X48000Y-26355D03*
X51000Y-29355D03*
X51000Y-29945D03*
X52000Y-29355D03*
X52000Y-29945D03*
X53000Y-29355D03*
X53000Y-29945D03*
X50000Y-29355D03*
X50000Y-29945D03*
X49000Y-29355D03*
X49000Y-29945D03*
X48000Y-29355D03*
X48000Y-29945D03*
X48205Y-32150D03*
X48795Y-32150D03*
G54D22*
X21000Y-29500D03*
G54D23*
X23400Y-29500D03*
G54D22*
X21900Y-31500D03*
G54D24*
X24752Y-29500D03*
X26248Y-29500D03*
G54D25*
X24500Y-32500D03*
G54D26*
X24500Y-34500D03*
G54D18*
X40250Y-32000D03*
G54D19*
X39250Y-32000D03*
G54D18*
X23500Y-25500D03*
G54D19*
X23500Y-24500D03*
G54D18*
X40000Y-21500D03*
G54D19*
X40000Y-20500D03*
G54D18*
X35000Y-21500D03*
G54D19*
X35000Y-20500D03*
G54D12*
X31000Y-26000D03*
X32000Y-26000D03*
X33000Y-26000D03*
X34000Y-26000D03*
X35000Y-26000D03*
X36000Y-26000D03*
X37000Y-26000D03*
X38000Y-26000D03*
X39000Y-26000D03*
X40000Y-26000D03*
X41000Y-26000D03*
X42000Y-26000D03*
X43000Y-26000D03*
G54D11*
X30000Y-26000D03*
G54D12*
X43000Y-23000D03*
X42000Y-23000D03*
X41000Y-23000D03*
X40000Y-23000D03*
X39000Y-23000D03*
X38000Y-23000D03*
X37000Y-23000D03*
X36000Y-23000D03*
X35000Y-23000D03*
X34000Y-23000D03*
X33000Y-23000D03*
X32000Y-23000D03*
X31000Y-23000D03*
X30000Y-23000D03*
G54D17*
X36875Y-25000D03*
X36125Y-25000D03*
X28625Y-27000D03*
X29375Y-27000D03*
G54D18*
X26000Y-24500D03*
G54D19*
X27000Y-24500D03*
X28000Y-24500D03*
G54D27*
X20000Y-36500D03*
X20000Y-21500D03*
X55000Y-36500D03*
X55000Y-21500D03*
M02*
