G04 (created by PCBNEW (2013-07-07 BZR 4022)-stable) date 17.09.2014 22:00:27*
%MOIN*%
G04 Gerber Fmt 3.4, Leading zero omitted, Abs format*
%FSLAX34Y34*%
G01*
G70*
G90*
G04 APERTURE LIST*
%ADD10C,0.00590551*%
%ADD11R,0.055X0.055*%
%ADD12C,0.055*%
%ADD13R,0.06X0.06*%
%ADD14C,0.06*%
%ADD15C,0.189*%
%ADD16R,0.189X0.189*%
%ADD17R,0.07X0.07*%
%ADD18C,0.07*%
%ADD19C,0.2205*%
%ADD20C,0.035*%
%ADD21C,0.0393701*%
%ADD22C,0.0149606*%
%ADD23C,0.001*%
G04 APERTURE END LIST*
G54D10*
G54D11*
X30000Y-31500D03*
G54D12*
X31000Y-31500D03*
X32000Y-31500D03*
X33000Y-31500D03*
X34000Y-31500D03*
X35000Y-31500D03*
X36000Y-31500D03*
X37000Y-31500D03*
X37000Y-28500D03*
X36000Y-28500D03*
X35000Y-28500D03*
X34000Y-28500D03*
X33000Y-28500D03*
X32000Y-28500D03*
X31000Y-28500D03*
X30000Y-28500D03*
G54D13*
X48750Y-23000D03*
G54D14*
X48750Y-24000D03*
X47750Y-23000D03*
X47750Y-24000D03*
X46750Y-23000D03*
X46750Y-24000D03*
G54D13*
X42500Y-36500D03*
G54D14*
X43500Y-36500D03*
X44500Y-36500D03*
G54D12*
X26000Y-27500D03*
G54D11*
X26000Y-26500D03*
G54D12*
X25000Y-26500D03*
G54D15*
X21000Y-29500D03*
G54D16*
X23400Y-29500D03*
G54D15*
X21900Y-31500D03*
G54D17*
X24500Y-32500D03*
G54D18*
X24500Y-34500D03*
G54D13*
X40250Y-32000D03*
G54D14*
X39250Y-32000D03*
G54D13*
X23500Y-25500D03*
G54D14*
X23500Y-24500D03*
G54D13*
X40000Y-21500D03*
G54D14*
X40000Y-20500D03*
G54D13*
X35000Y-21500D03*
G54D14*
X35000Y-20500D03*
G54D12*
X31000Y-26000D03*
X32000Y-26000D03*
X33000Y-26000D03*
X34000Y-26000D03*
X35000Y-26000D03*
X36000Y-26000D03*
X37000Y-26000D03*
X38000Y-26000D03*
X39000Y-26000D03*
X40000Y-26000D03*
X41000Y-26000D03*
X42000Y-26000D03*
X43000Y-26000D03*
G54D11*
X30000Y-26000D03*
G54D12*
X43000Y-23000D03*
X42000Y-23000D03*
X41000Y-23000D03*
X40000Y-23000D03*
X39000Y-23000D03*
X38000Y-23000D03*
X37000Y-23000D03*
X36000Y-23000D03*
X35000Y-23000D03*
X34000Y-23000D03*
X33000Y-23000D03*
X32000Y-23000D03*
X31000Y-23000D03*
X30000Y-23000D03*
G54D13*
X26000Y-24500D03*
G54D14*
X27000Y-24500D03*
X28000Y-24500D03*
G54D19*
X20000Y-36500D03*
X20000Y-21500D03*
X55000Y-36500D03*
X55000Y-21500D03*
G54D20*
X41000Y-29000D03*
X38750Y-24500D03*
X28500Y-26000D03*
X42000Y-30000D03*
X35750Y-30000D03*
X39250Y-36500D03*
X36250Y-37250D03*
X32000Y-37250D03*
X50700Y-31500D03*
X46250Y-26750D03*
X47000Y-29750D03*
X44500Y-29250D03*
X47250Y-21000D03*
X32250Y-21000D03*
X29750Y-24500D03*
X51000Y-27650D03*
X49000Y-27650D03*
X51500Y-27150D03*
X48000Y-27650D03*
X36250Y-33000D03*
X51750Y-30450D03*
X49500Y-29000D03*
X51500Y-29350D03*
X30250Y-35250D03*
X33250Y-35250D03*
X36250Y-35250D03*
X40250Y-33750D03*
X52500Y-29250D03*
X47000Y-28650D03*
X53000Y-30650D03*
X48500Y-28650D03*
X35000Y-32250D03*
X38750Y-35750D03*
X33750Y-37250D03*
X33000Y-32250D03*
X30500Y-37250D03*
X31000Y-32250D03*
X36000Y-29500D03*
X36500Y-27000D03*
X30000Y-27000D03*
G54D21*
X27750Y-25750D02*
X26000Y-27500D01*
X28750Y-24750D02*
X27750Y-25750D01*
X28750Y-22750D02*
X28750Y-24750D01*
X29250Y-22250D02*
X28750Y-22750D01*
X43750Y-22250D02*
X29250Y-22250D01*
X44000Y-22500D02*
X43750Y-22250D01*
X44000Y-28000D02*
X44000Y-22500D01*
X43000Y-29000D02*
X44000Y-28000D01*
X41000Y-29000D02*
X43000Y-29000D01*
G54D22*
X35500Y-23500D02*
X35000Y-23000D01*
X35500Y-29750D02*
X35500Y-23500D01*
X35750Y-30000D02*
X35500Y-29750D01*
X39250Y-35250D02*
X38000Y-34000D01*
X38000Y-34000D02*
X36500Y-34000D01*
X36500Y-34000D02*
X35500Y-33000D01*
X35500Y-33000D02*
X35500Y-30500D01*
X35500Y-30500D02*
X34500Y-29500D01*
X34500Y-29500D02*
X34500Y-23500D01*
X34500Y-23500D02*
X34000Y-23000D01*
X39250Y-36500D02*
X39250Y-35250D01*
X33500Y-23500D02*
X33000Y-23000D01*
X33500Y-34500D02*
X33500Y-23500D01*
X36250Y-37250D02*
X33500Y-34500D01*
X31500Y-36750D02*
X31500Y-35500D01*
X32000Y-37250D02*
X31500Y-36750D01*
X32000Y-24000D02*
X32000Y-23000D01*
X31500Y-35500D02*
X31500Y-24500D01*
X31500Y-24500D02*
X32000Y-24000D01*
X46250Y-29000D02*
X46250Y-26750D01*
X46500Y-29250D02*
X46250Y-29000D01*
X47500Y-29250D02*
X46500Y-29250D01*
X48000Y-29750D02*
X47500Y-29250D01*
X48000Y-31250D02*
X48000Y-29750D01*
X48250Y-31500D02*
X48000Y-31250D01*
X50700Y-31500D02*
X48250Y-31500D01*
X45000Y-29750D02*
X47000Y-29750D01*
X44500Y-29250D02*
X45000Y-29750D01*
X47750Y-24000D02*
X47250Y-23500D01*
X47250Y-23500D02*
X47250Y-21000D01*
X30000Y-26000D02*
X30000Y-24750D01*
X46750Y-22000D02*
X46750Y-23000D01*
X45750Y-21000D02*
X46750Y-22000D01*
X42000Y-21000D02*
X45750Y-21000D01*
X32250Y-21000D02*
X42000Y-21000D01*
X30000Y-24750D02*
X29750Y-24500D01*
X37000Y-31500D02*
X37000Y-31000D01*
X37500Y-26500D02*
X37000Y-26000D01*
X37500Y-30500D02*
X37500Y-26500D01*
X37000Y-31000D02*
X37500Y-30500D01*
X49000Y-27650D02*
X51000Y-27650D01*
X51500Y-27800D02*
X51150Y-28150D01*
X51500Y-27150D02*
X51500Y-27800D01*
X48000Y-27650D02*
X48500Y-28150D01*
X48500Y-28150D02*
X51150Y-28150D01*
X39000Y-33000D02*
X39750Y-32250D01*
X36250Y-33000D02*
X39000Y-33000D01*
X39750Y-32250D02*
X39750Y-28250D01*
X42000Y-26000D02*
X39750Y-28250D01*
X51550Y-30200D02*
X51550Y-30250D01*
X51550Y-30250D02*
X51750Y-30450D01*
X51500Y-29100D02*
X51500Y-29350D01*
X51400Y-29000D02*
X51500Y-29100D01*
X49500Y-29000D02*
X51400Y-29000D01*
X51550Y-29400D02*
X51550Y-30200D01*
X51500Y-29350D02*
X51550Y-29400D01*
X30000Y-29500D02*
X30000Y-28500D01*
X30500Y-30000D02*
X30000Y-29500D01*
X30500Y-35000D02*
X30500Y-30000D01*
X30250Y-35250D02*
X30500Y-35000D01*
X32000Y-29250D02*
X32000Y-28500D01*
X32500Y-29750D02*
X32000Y-29250D01*
X32500Y-34500D02*
X32500Y-29750D01*
X33250Y-35250D02*
X32500Y-34500D01*
X34000Y-29500D02*
X34000Y-28500D01*
X34500Y-30000D02*
X34000Y-29500D01*
X34500Y-33500D02*
X34500Y-30000D01*
X36250Y-35250D02*
X34500Y-33500D01*
G54D21*
X40250Y-33750D02*
X40250Y-32000D01*
G54D22*
X52500Y-29250D02*
X52550Y-29200D01*
X52550Y-29200D02*
X52500Y-29250D01*
X52500Y-29250D02*
X52500Y-29150D01*
X47000Y-28650D02*
X48500Y-28650D01*
X52500Y-29150D02*
X52000Y-28650D01*
X53000Y-29650D02*
X52500Y-29150D01*
X52500Y-29150D02*
X52500Y-29150D01*
X53000Y-30650D02*
X53000Y-29650D01*
X52000Y-28650D02*
X48500Y-28650D01*
X35000Y-32750D02*
X35000Y-32250D01*
X37000Y-35000D02*
X38000Y-35000D01*
X38000Y-35000D02*
X38750Y-35750D01*
X36750Y-34750D02*
X37000Y-35000D01*
X36250Y-34750D02*
X36750Y-34750D01*
X35000Y-33500D02*
X36250Y-34750D01*
X35000Y-32750D02*
X35000Y-33500D01*
X33750Y-35250D02*
X33750Y-37250D01*
X33250Y-34750D02*
X33750Y-35250D01*
X33250Y-34500D02*
X33250Y-34750D01*
X33000Y-34250D02*
X33250Y-34500D01*
X33000Y-32250D02*
X33000Y-34250D01*
X31000Y-33000D02*
X31000Y-32250D01*
X31000Y-33000D02*
X31000Y-36750D01*
X30500Y-37250D02*
X31000Y-36750D01*
X36000Y-29500D02*
X36500Y-29000D01*
X36500Y-29000D02*
X36500Y-27500D01*
X36500Y-27500D02*
X36500Y-27000D01*
X30500Y-23500D02*
X31000Y-23000D01*
X30500Y-26500D02*
X30500Y-23500D01*
X30000Y-27000D02*
X30500Y-26500D01*
G54D10*
G36*
X56971Y-38471D02*
X56207Y-38471D01*
X56207Y-36260D01*
X56207Y-21260D01*
X56024Y-20816D01*
X55684Y-20476D01*
X55241Y-20292D01*
X54760Y-20292D01*
X54316Y-20475D01*
X53976Y-20815D01*
X53792Y-21258D01*
X53792Y-21739D01*
X53975Y-22183D01*
X54315Y-22523D01*
X54758Y-22707D01*
X55239Y-22707D01*
X55683Y-22524D01*
X56023Y-22184D01*
X56207Y-21741D01*
X56207Y-21260D01*
X56207Y-36260D01*
X56024Y-35816D01*
X55684Y-35476D01*
X55241Y-35292D01*
X54760Y-35292D01*
X54316Y-35475D01*
X53976Y-35815D01*
X53792Y-36258D01*
X53792Y-36739D01*
X53975Y-37183D01*
X54315Y-37523D01*
X54758Y-37707D01*
X55239Y-37707D01*
X55683Y-37524D01*
X56023Y-37184D01*
X56207Y-36741D01*
X56207Y-36260D01*
X56207Y-38471D01*
X53280Y-38471D01*
X53280Y-30594D01*
X53237Y-30491D01*
X53179Y-30433D01*
X53179Y-29650D01*
X53166Y-29581D01*
X53166Y-29581D01*
X53127Y-29522D01*
X52766Y-29162D01*
X52737Y-29091D01*
X52658Y-29012D01*
X52587Y-28983D01*
X52127Y-28522D01*
X52068Y-28483D01*
X52000Y-28470D01*
X51780Y-28470D01*
X51780Y-27094D01*
X51737Y-26991D01*
X51658Y-26912D01*
X51555Y-26870D01*
X51444Y-26869D01*
X51341Y-26912D01*
X51262Y-26991D01*
X51220Y-27094D01*
X51219Y-27205D01*
X51262Y-27308D01*
X51320Y-27366D01*
X51320Y-27725D01*
X51237Y-27808D01*
X51279Y-27705D01*
X51280Y-27594D01*
X51237Y-27491D01*
X51158Y-27412D01*
X51055Y-27370D01*
X50944Y-27369D01*
X50841Y-27412D01*
X50783Y-27470D01*
X49216Y-27470D01*
X49158Y-27412D01*
X49155Y-27411D01*
X49155Y-23279D01*
X49155Y-22679D01*
X49139Y-22640D01*
X49109Y-22611D01*
X49070Y-22595D01*
X49029Y-22594D01*
X48429Y-22594D01*
X48390Y-22610D01*
X48361Y-22640D01*
X48345Y-22679D01*
X48344Y-22720D01*
X48344Y-23320D01*
X48360Y-23359D01*
X48390Y-23388D01*
X48429Y-23404D01*
X48470Y-23405D01*
X49070Y-23405D01*
X49109Y-23389D01*
X49138Y-23359D01*
X49154Y-23320D01*
X49155Y-23279D01*
X49155Y-27411D01*
X49055Y-27370D01*
X48944Y-27369D01*
X48841Y-27412D01*
X48762Y-27491D01*
X48720Y-27594D01*
X48719Y-27705D01*
X48762Y-27808D01*
X48841Y-27887D01*
X48944Y-27929D01*
X49055Y-27930D01*
X49158Y-27887D01*
X49216Y-27829D01*
X50783Y-27829D01*
X50841Y-27887D01*
X50944Y-27929D01*
X51055Y-27930D01*
X51158Y-27887D01*
X51075Y-27970D01*
X48574Y-27970D01*
X48279Y-27675D01*
X48280Y-27594D01*
X48237Y-27491D01*
X48158Y-27412D01*
X48155Y-27411D01*
X48155Y-23919D01*
X48093Y-23770D01*
X47979Y-23656D01*
X47830Y-23595D01*
X47669Y-23594D01*
X47619Y-23615D01*
X47429Y-23425D01*
X47429Y-23252D01*
X47520Y-23343D01*
X47669Y-23404D01*
X47830Y-23405D01*
X47979Y-23343D01*
X48093Y-23229D01*
X48154Y-23080D01*
X48155Y-22919D01*
X48093Y-22770D01*
X47979Y-22656D01*
X47830Y-22595D01*
X47669Y-22594D01*
X47520Y-22656D01*
X47429Y-22747D01*
X47429Y-21216D01*
X47487Y-21158D01*
X47529Y-21055D01*
X47530Y-20944D01*
X47487Y-20841D01*
X47408Y-20762D01*
X47305Y-20720D01*
X47194Y-20719D01*
X47091Y-20762D01*
X47012Y-20841D01*
X46970Y-20944D01*
X46969Y-21055D01*
X47012Y-21158D01*
X47070Y-21216D01*
X47070Y-22747D01*
X46979Y-22656D01*
X46929Y-22636D01*
X46929Y-22000D01*
X46916Y-21931D01*
X46877Y-21872D01*
X46877Y-21872D01*
X45877Y-20872D01*
X45818Y-20833D01*
X45750Y-20820D01*
X42000Y-20820D01*
X40252Y-20820D01*
X40343Y-20729D01*
X40404Y-20580D01*
X40405Y-20419D01*
X40343Y-20270D01*
X40229Y-20156D01*
X40080Y-20095D01*
X39919Y-20094D01*
X39770Y-20156D01*
X39656Y-20270D01*
X39595Y-20419D01*
X39594Y-20580D01*
X39656Y-20729D01*
X39747Y-20820D01*
X35252Y-20820D01*
X35343Y-20729D01*
X35404Y-20580D01*
X35405Y-20419D01*
X35343Y-20270D01*
X35229Y-20156D01*
X35080Y-20095D01*
X34919Y-20094D01*
X34770Y-20156D01*
X34656Y-20270D01*
X34595Y-20419D01*
X34594Y-20580D01*
X34656Y-20729D01*
X34747Y-20820D01*
X32466Y-20820D01*
X32408Y-20762D01*
X32305Y-20720D01*
X32194Y-20719D01*
X32091Y-20762D01*
X32012Y-20841D01*
X31970Y-20944D01*
X31969Y-21055D01*
X32012Y-21158D01*
X32091Y-21237D01*
X32194Y-21279D01*
X32305Y-21280D01*
X32408Y-21237D01*
X32466Y-21179D01*
X34595Y-21179D01*
X34594Y-21220D01*
X34594Y-21820D01*
X34610Y-21859D01*
X34640Y-21888D01*
X34679Y-21904D01*
X34720Y-21905D01*
X35320Y-21905D01*
X35359Y-21889D01*
X35388Y-21859D01*
X35404Y-21820D01*
X35405Y-21779D01*
X35405Y-21179D01*
X39595Y-21179D01*
X39594Y-21220D01*
X39594Y-21820D01*
X39610Y-21859D01*
X39640Y-21888D01*
X39679Y-21904D01*
X39720Y-21905D01*
X40320Y-21905D01*
X40359Y-21889D01*
X40388Y-21859D01*
X40404Y-21820D01*
X40405Y-21779D01*
X40405Y-21179D01*
X42000Y-21179D01*
X45675Y-21179D01*
X46570Y-22074D01*
X46570Y-22636D01*
X46520Y-22656D01*
X46406Y-22770D01*
X46345Y-22919D01*
X46344Y-23080D01*
X46406Y-23229D01*
X46520Y-23343D01*
X46669Y-23404D01*
X46830Y-23405D01*
X46979Y-23343D01*
X47070Y-23252D01*
X47070Y-23500D01*
X47083Y-23568D01*
X47122Y-23627D01*
X47365Y-23869D01*
X47345Y-23919D01*
X47344Y-24080D01*
X47406Y-24229D01*
X47520Y-24343D01*
X47669Y-24404D01*
X47830Y-24405D01*
X47979Y-24343D01*
X48093Y-24229D01*
X48154Y-24080D01*
X48155Y-23919D01*
X48155Y-27411D01*
X48055Y-27370D01*
X47944Y-27369D01*
X47841Y-27412D01*
X47762Y-27491D01*
X47720Y-27594D01*
X47719Y-27705D01*
X47762Y-27808D01*
X47841Y-27887D01*
X47944Y-27929D01*
X48025Y-27930D01*
X48372Y-28277D01*
X48431Y-28316D01*
X48431Y-28316D01*
X48500Y-28329D01*
X51150Y-28329D01*
X51218Y-28316D01*
X51218Y-28316D01*
X51277Y-28277D01*
X51627Y-27927D01*
X51627Y-27927D01*
X51627Y-27927D01*
X51666Y-27868D01*
X51679Y-27800D01*
X51679Y-27800D01*
X51679Y-27800D01*
X51679Y-27366D01*
X51737Y-27308D01*
X51779Y-27205D01*
X51780Y-27094D01*
X51780Y-28470D01*
X48716Y-28470D01*
X48658Y-28412D01*
X48555Y-28370D01*
X48444Y-28369D01*
X48341Y-28412D01*
X48283Y-28470D01*
X47216Y-28470D01*
X47158Y-28412D01*
X47155Y-28411D01*
X47155Y-23919D01*
X47093Y-23770D01*
X46979Y-23656D01*
X46830Y-23595D01*
X46669Y-23594D01*
X46520Y-23656D01*
X46406Y-23770D01*
X46345Y-23919D01*
X46344Y-24080D01*
X46406Y-24229D01*
X46520Y-24343D01*
X46669Y-24404D01*
X46830Y-24405D01*
X46979Y-24343D01*
X47093Y-24229D01*
X47154Y-24080D01*
X47155Y-23919D01*
X47155Y-28411D01*
X47055Y-28370D01*
X46944Y-28369D01*
X46841Y-28412D01*
X46762Y-28491D01*
X46720Y-28594D01*
X46719Y-28705D01*
X46762Y-28808D01*
X46841Y-28887D01*
X46944Y-28929D01*
X47055Y-28930D01*
X47158Y-28887D01*
X47216Y-28829D01*
X48283Y-28829D01*
X48341Y-28887D01*
X48444Y-28929D01*
X48555Y-28930D01*
X48658Y-28887D01*
X48716Y-28829D01*
X49274Y-28829D01*
X49262Y-28841D01*
X49220Y-28944D01*
X49219Y-29055D01*
X49262Y-29158D01*
X49341Y-29237D01*
X49444Y-29279D01*
X49555Y-29280D01*
X49658Y-29237D01*
X49716Y-29179D01*
X51274Y-29179D01*
X51262Y-29191D01*
X51220Y-29294D01*
X51219Y-29405D01*
X51262Y-29508D01*
X51341Y-29587D01*
X51370Y-29599D01*
X51370Y-30200D01*
X51370Y-30250D01*
X51383Y-30318D01*
X51422Y-30377D01*
X51470Y-30424D01*
X51469Y-30505D01*
X51512Y-30608D01*
X51591Y-30687D01*
X51694Y-30729D01*
X51805Y-30730D01*
X51908Y-30687D01*
X51987Y-30608D01*
X52029Y-30505D01*
X52030Y-30394D01*
X51987Y-30291D01*
X51908Y-30212D01*
X51805Y-30170D01*
X51729Y-30169D01*
X51729Y-29516D01*
X51737Y-29508D01*
X51779Y-29405D01*
X51780Y-29294D01*
X51737Y-29191D01*
X51679Y-29133D01*
X51679Y-29100D01*
X51666Y-29031D01*
X51627Y-28972D01*
X51627Y-28972D01*
X51527Y-28872D01*
X51468Y-28833D01*
X51448Y-28829D01*
X51925Y-28829D01*
X52240Y-29144D01*
X52220Y-29194D01*
X52219Y-29305D01*
X52262Y-29408D01*
X52341Y-29487D01*
X52444Y-29529D01*
X52555Y-29530D01*
X52605Y-29509D01*
X52820Y-29724D01*
X52820Y-30433D01*
X52762Y-30491D01*
X52720Y-30594D01*
X52719Y-30705D01*
X52762Y-30808D01*
X52841Y-30887D01*
X52944Y-30929D01*
X53055Y-30930D01*
X53158Y-30887D01*
X53237Y-30808D01*
X53279Y-30705D01*
X53280Y-30594D01*
X53280Y-38471D01*
X50980Y-38471D01*
X50980Y-31444D01*
X50937Y-31341D01*
X50858Y-31262D01*
X50755Y-31220D01*
X50644Y-31219D01*
X50541Y-31262D01*
X50483Y-31320D01*
X48324Y-31320D01*
X48179Y-31175D01*
X48179Y-29750D01*
X48166Y-29681D01*
X48166Y-29681D01*
X48127Y-29622D01*
X47627Y-29122D01*
X47568Y-29083D01*
X47500Y-29070D01*
X46574Y-29070D01*
X46429Y-28925D01*
X46429Y-26966D01*
X46487Y-26908D01*
X46529Y-26805D01*
X46530Y-26694D01*
X46487Y-26591D01*
X46408Y-26512D01*
X46305Y-26470D01*
X46194Y-26469D01*
X46091Y-26512D01*
X46012Y-26591D01*
X45970Y-26694D01*
X45969Y-26805D01*
X46012Y-26908D01*
X46070Y-26966D01*
X46070Y-29000D01*
X46083Y-29068D01*
X46122Y-29127D01*
X46372Y-29377D01*
X46372Y-29377D01*
X46431Y-29416D01*
X46500Y-29429D01*
X47425Y-29429D01*
X47820Y-29824D01*
X47820Y-31250D01*
X47833Y-31318D01*
X47872Y-31377D01*
X48122Y-31627D01*
X48122Y-31627D01*
X48181Y-31666D01*
X48250Y-31679D01*
X50483Y-31679D01*
X50541Y-31737D01*
X50644Y-31779D01*
X50755Y-31780D01*
X50858Y-31737D01*
X50937Y-31658D01*
X50979Y-31555D01*
X50980Y-31444D01*
X50980Y-38471D01*
X47280Y-38471D01*
X47280Y-29694D01*
X47237Y-29591D01*
X47158Y-29512D01*
X47055Y-29470D01*
X46944Y-29469D01*
X46841Y-29512D01*
X46783Y-29570D01*
X45074Y-29570D01*
X44779Y-29275D01*
X44780Y-29194D01*
X44737Y-29091D01*
X44658Y-29012D01*
X44555Y-28970D01*
X44444Y-28969D01*
X44341Y-29012D01*
X44301Y-29052D01*
X44301Y-28000D01*
X44301Y-22500D01*
X44278Y-22384D01*
X44278Y-22384D01*
X44213Y-22286D01*
X44213Y-22286D01*
X43963Y-22036D01*
X43865Y-21971D01*
X43750Y-21948D01*
X29250Y-21948D01*
X29134Y-21971D01*
X29036Y-22036D01*
X28536Y-22536D01*
X28471Y-22634D01*
X28448Y-22750D01*
X28448Y-24624D01*
X27536Y-25536D01*
X27405Y-25668D01*
X27405Y-24419D01*
X27343Y-24270D01*
X27229Y-24156D01*
X27080Y-24095D01*
X26919Y-24094D01*
X26770Y-24156D01*
X26656Y-24270D01*
X26595Y-24419D01*
X26594Y-24580D01*
X26656Y-24729D01*
X26770Y-24843D01*
X26919Y-24904D01*
X27080Y-24905D01*
X27229Y-24843D01*
X27343Y-24729D01*
X27404Y-24580D01*
X27405Y-24419D01*
X27405Y-25668D01*
X26405Y-26668D01*
X26405Y-24779D01*
X26405Y-24179D01*
X26389Y-24140D01*
X26359Y-24111D01*
X26320Y-24095D01*
X26279Y-24094D01*
X25679Y-24094D01*
X25640Y-24110D01*
X25611Y-24140D01*
X25595Y-24179D01*
X25594Y-24220D01*
X25594Y-24820D01*
X25610Y-24859D01*
X25640Y-24888D01*
X25679Y-24904D01*
X25720Y-24905D01*
X26320Y-24905D01*
X26359Y-24889D01*
X26388Y-24859D01*
X26404Y-24820D01*
X26405Y-24779D01*
X26405Y-26668D01*
X26380Y-26693D01*
X26380Y-26204D01*
X26364Y-26165D01*
X26334Y-26136D01*
X26295Y-26120D01*
X26254Y-26119D01*
X25704Y-26119D01*
X25665Y-26135D01*
X25636Y-26165D01*
X25620Y-26204D01*
X25619Y-26245D01*
X25619Y-26795D01*
X25635Y-26834D01*
X25665Y-26863D01*
X25704Y-26879D01*
X25745Y-26880D01*
X26193Y-26880D01*
X25953Y-27119D01*
X25924Y-27119D01*
X25785Y-27177D01*
X25678Y-27284D01*
X25620Y-27424D01*
X25619Y-27575D01*
X25677Y-27714D01*
X25784Y-27821D01*
X25924Y-27879D01*
X26075Y-27880D01*
X26214Y-27822D01*
X26321Y-27715D01*
X26379Y-27575D01*
X26379Y-27546D01*
X27963Y-25963D01*
X28963Y-24963D01*
X28963Y-24963D01*
X28963Y-24963D01*
X29002Y-24904D01*
X29028Y-24865D01*
X29028Y-24865D01*
X29051Y-24750D01*
X29051Y-22875D01*
X29375Y-22551D01*
X43624Y-22551D01*
X43698Y-22625D01*
X43698Y-27874D01*
X43380Y-28193D01*
X43380Y-25924D01*
X43380Y-22924D01*
X43322Y-22785D01*
X43215Y-22678D01*
X43075Y-22620D01*
X42924Y-22619D01*
X42785Y-22677D01*
X42678Y-22784D01*
X42620Y-22924D01*
X42619Y-23075D01*
X42677Y-23214D01*
X42784Y-23321D01*
X42924Y-23379D01*
X43075Y-23380D01*
X43214Y-23322D01*
X43321Y-23215D01*
X43379Y-23075D01*
X43380Y-22924D01*
X43380Y-25924D01*
X43322Y-25785D01*
X43215Y-25678D01*
X43075Y-25620D01*
X42924Y-25619D01*
X42785Y-25677D01*
X42678Y-25784D01*
X42620Y-25924D01*
X42619Y-26075D01*
X42677Y-26214D01*
X42784Y-26321D01*
X42924Y-26379D01*
X43075Y-26380D01*
X43214Y-26322D01*
X43321Y-26215D01*
X43379Y-26075D01*
X43380Y-25924D01*
X43380Y-28193D01*
X42874Y-28698D01*
X42380Y-28698D01*
X42380Y-25924D01*
X42380Y-22924D01*
X42322Y-22785D01*
X42215Y-22678D01*
X42075Y-22620D01*
X41924Y-22619D01*
X41785Y-22677D01*
X41678Y-22784D01*
X41620Y-22924D01*
X41619Y-23075D01*
X41677Y-23214D01*
X41784Y-23321D01*
X41924Y-23379D01*
X42075Y-23380D01*
X42214Y-23322D01*
X42321Y-23215D01*
X42379Y-23075D01*
X42380Y-22924D01*
X42380Y-25924D01*
X42322Y-25785D01*
X42215Y-25678D01*
X42075Y-25620D01*
X41924Y-25619D01*
X41785Y-25677D01*
X41678Y-25784D01*
X41620Y-25924D01*
X41619Y-26075D01*
X41634Y-26111D01*
X41380Y-26365D01*
X41380Y-25924D01*
X41380Y-22924D01*
X41322Y-22785D01*
X41215Y-22678D01*
X41075Y-22620D01*
X40924Y-22619D01*
X40785Y-22677D01*
X40678Y-22784D01*
X40620Y-22924D01*
X40619Y-23075D01*
X40677Y-23214D01*
X40784Y-23321D01*
X40924Y-23379D01*
X41075Y-23380D01*
X41214Y-23322D01*
X41321Y-23215D01*
X41379Y-23075D01*
X41380Y-22924D01*
X41380Y-25924D01*
X41322Y-25785D01*
X41215Y-25678D01*
X41075Y-25620D01*
X40924Y-25619D01*
X40785Y-25677D01*
X40678Y-25784D01*
X40620Y-25924D01*
X40619Y-26075D01*
X40677Y-26214D01*
X40784Y-26321D01*
X40924Y-26379D01*
X41075Y-26380D01*
X41214Y-26322D01*
X41321Y-26215D01*
X41379Y-26075D01*
X41380Y-25924D01*
X41380Y-26365D01*
X40380Y-27365D01*
X40380Y-25924D01*
X40380Y-22924D01*
X40322Y-22785D01*
X40215Y-22678D01*
X40075Y-22620D01*
X39924Y-22619D01*
X39785Y-22677D01*
X39678Y-22784D01*
X39620Y-22924D01*
X39619Y-23075D01*
X39677Y-23214D01*
X39784Y-23321D01*
X39924Y-23379D01*
X40075Y-23380D01*
X40214Y-23322D01*
X40321Y-23215D01*
X40379Y-23075D01*
X40380Y-22924D01*
X40380Y-25924D01*
X40322Y-25785D01*
X40215Y-25678D01*
X40075Y-25620D01*
X39924Y-25619D01*
X39785Y-25677D01*
X39678Y-25784D01*
X39620Y-25924D01*
X39619Y-26075D01*
X39677Y-26214D01*
X39784Y-26321D01*
X39924Y-26379D01*
X40075Y-26380D01*
X40214Y-26322D01*
X40321Y-26215D01*
X40379Y-26075D01*
X40380Y-25924D01*
X40380Y-27365D01*
X39622Y-28122D01*
X39583Y-28181D01*
X39570Y-28250D01*
X39570Y-31747D01*
X39479Y-31656D01*
X39380Y-31615D01*
X39380Y-25924D01*
X39380Y-22924D01*
X39322Y-22785D01*
X39215Y-22678D01*
X39075Y-22620D01*
X38924Y-22619D01*
X38785Y-22677D01*
X38678Y-22784D01*
X38620Y-22924D01*
X38619Y-23075D01*
X38677Y-23214D01*
X38784Y-23321D01*
X38924Y-23379D01*
X39075Y-23380D01*
X39214Y-23322D01*
X39321Y-23215D01*
X39379Y-23075D01*
X39380Y-22924D01*
X39380Y-25924D01*
X39322Y-25785D01*
X39215Y-25678D01*
X39075Y-25620D01*
X38924Y-25619D01*
X38785Y-25677D01*
X38678Y-25784D01*
X38620Y-25924D01*
X38619Y-26075D01*
X38677Y-26214D01*
X38784Y-26321D01*
X38924Y-26379D01*
X39075Y-26380D01*
X39214Y-26322D01*
X39321Y-26215D01*
X39379Y-26075D01*
X39380Y-25924D01*
X39380Y-31615D01*
X39330Y-31595D01*
X39169Y-31594D01*
X39020Y-31656D01*
X38906Y-31770D01*
X38845Y-31919D01*
X38844Y-32080D01*
X38906Y-32229D01*
X39020Y-32343D01*
X39169Y-32404D01*
X39330Y-32405D01*
X39348Y-32397D01*
X38925Y-32820D01*
X38380Y-32820D01*
X38380Y-25924D01*
X38380Y-22924D01*
X38322Y-22785D01*
X38215Y-22678D01*
X38075Y-22620D01*
X37924Y-22619D01*
X37785Y-22677D01*
X37678Y-22784D01*
X37620Y-22924D01*
X37619Y-23075D01*
X37677Y-23214D01*
X37784Y-23321D01*
X37924Y-23379D01*
X38075Y-23380D01*
X38214Y-23322D01*
X38321Y-23215D01*
X38379Y-23075D01*
X38380Y-22924D01*
X38380Y-25924D01*
X38322Y-25785D01*
X38215Y-25678D01*
X38075Y-25620D01*
X37924Y-25619D01*
X37785Y-25677D01*
X37678Y-25784D01*
X37620Y-25924D01*
X37619Y-26075D01*
X37677Y-26214D01*
X37784Y-26321D01*
X37924Y-26379D01*
X38075Y-26380D01*
X38214Y-26322D01*
X38321Y-26215D01*
X38379Y-26075D01*
X38380Y-25924D01*
X38380Y-32820D01*
X36466Y-32820D01*
X36408Y-32762D01*
X36305Y-32720D01*
X36194Y-32719D01*
X36091Y-32762D01*
X36012Y-32841D01*
X35970Y-32944D01*
X35969Y-33055D01*
X36012Y-33158D01*
X36091Y-33237D01*
X36194Y-33279D01*
X36305Y-33280D01*
X36408Y-33237D01*
X36466Y-33179D01*
X39000Y-33179D01*
X39068Y-33166D01*
X39068Y-33166D01*
X39127Y-33127D01*
X39877Y-32377D01*
X39877Y-32377D01*
X39877Y-32377D01*
X39877Y-32376D01*
X39877Y-32376D01*
X39890Y-32388D01*
X39929Y-32404D01*
X39948Y-32404D01*
X39948Y-33750D01*
X39971Y-33865D01*
X40036Y-33963D01*
X40134Y-34028D01*
X40250Y-34051D01*
X40365Y-34028D01*
X40463Y-33963D01*
X40528Y-33865D01*
X40551Y-33750D01*
X40551Y-32405D01*
X40570Y-32405D01*
X40609Y-32389D01*
X40638Y-32359D01*
X40654Y-32320D01*
X40655Y-32279D01*
X40655Y-31679D01*
X40639Y-31640D01*
X40609Y-31611D01*
X40570Y-31595D01*
X40529Y-31594D01*
X39929Y-31594D01*
X39929Y-28324D01*
X41888Y-26365D01*
X41924Y-26379D01*
X42075Y-26380D01*
X42214Y-26322D01*
X42321Y-26215D01*
X42379Y-26075D01*
X42380Y-25924D01*
X42380Y-28698D01*
X41000Y-28698D01*
X40884Y-28721D01*
X40786Y-28786D01*
X40721Y-28884D01*
X40698Y-29000D01*
X40721Y-29115D01*
X40786Y-29213D01*
X40884Y-29278D01*
X41000Y-29301D01*
X43000Y-29301D01*
X43115Y-29278D01*
X43213Y-29213D01*
X44213Y-28213D01*
X44213Y-28213D01*
X44213Y-28213D01*
X44252Y-28154D01*
X44278Y-28115D01*
X44278Y-28115D01*
X44301Y-28000D01*
X44301Y-29052D01*
X44262Y-29091D01*
X44220Y-29194D01*
X44219Y-29305D01*
X44262Y-29408D01*
X44341Y-29487D01*
X44444Y-29529D01*
X44525Y-29530D01*
X44872Y-29877D01*
X44931Y-29916D01*
X44931Y-29916D01*
X45000Y-29929D01*
X46783Y-29929D01*
X46841Y-29987D01*
X46944Y-30029D01*
X47055Y-30030D01*
X47158Y-29987D01*
X47237Y-29908D01*
X47279Y-29805D01*
X47280Y-29694D01*
X47280Y-38471D01*
X44905Y-38471D01*
X44905Y-36419D01*
X44843Y-36270D01*
X44729Y-36156D01*
X44580Y-36095D01*
X44419Y-36094D01*
X44270Y-36156D01*
X44156Y-36270D01*
X44095Y-36419D01*
X44094Y-36580D01*
X44156Y-36729D01*
X44270Y-36843D01*
X44419Y-36904D01*
X44580Y-36905D01*
X44729Y-36843D01*
X44843Y-36729D01*
X44904Y-36580D01*
X44905Y-36419D01*
X44905Y-38471D01*
X43905Y-38471D01*
X43905Y-36419D01*
X43843Y-36270D01*
X43729Y-36156D01*
X43580Y-36095D01*
X43419Y-36094D01*
X43270Y-36156D01*
X43156Y-36270D01*
X43095Y-36419D01*
X43094Y-36580D01*
X43156Y-36729D01*
X43270Y-36843D01*
X43419Y-36904D01*
X43580Y-36905D01*
X43729Y-36843D01*
X43843Y-36729D01*
X43904Y-36580D01*
X43905Y-36419D01*
X43905Y-38471D01*
X42905Y-38471D01*
X42905Y-36779D01*
X42905Y-36179D01*
X42889Y-36140D01*
X42859Y-36111D01*
X42820Y-36095D01*
X42779Y-36094D01*
X42179Y-36094D01*
X42140Y-36110D01*
X42111Y-36140D01*
X42095Y-36179D01*
X42094Y-36220D01*
X42094Y-36820D01*
X42110Y-36859D01*
X42140Y-36888D01*
X42179Y-36904D01*
X42220Y-36905D01*
X42820Y-36905D01*
X42859Y-36889D01*
X42888Y-36859D01*
X42904Y-36820D01*
X42905Y-36779D01*
X42905Y-38471D01*
X39530Y-38471D01*
X39530Y-36444D01*
X39487Y-36341D01*
X39429Y-36283D01*
X39429Y-35250D01*
X39416Y-35181D01*
X39416Y-35181D01*
X39377Y-35122D01*
X38127Y-33872D01*
X38068Y-33833D01*
X38000Y-33820D01*
X36574Y-33820D01*
X35679Y-32925D01*
X35679Y-31717D01*
X35784Y-31821D01*
X35924Y-31879D01*
X36075Y-31880D01*
X36214Y-31822D01*
X36321Y-31715D01*
X36379Y-31575D01*
X36380Y-31424D01*
X36322Y-31285D01*
X36215Y-31178D01*
X36075Y-31120D01*
X35924Y-31119D01*
X35785Y-31177D01*
X35679Y-31282D01*
X35679Y-30500D01*
X35666Y-30431D01*
X35627Y-30372D01*
X35627Y-30372D01*
X34679Y-29425D01*
X34679Y-28717D01*
X34784Y-28821D01*
X34924Y-28879D01*
X35075Y-28880D01*
X35214Y-28822D01*
X35320Y-28717D01*
X35320Y-29750D01*
X35333Y-29818D01*
X35372Y-29877D01*
X35470Y-29974D01*
X35469Y-30055D01*
X35512Y-30158D01*
X35591Y-30237D01*
X35694Y-30279D01*
X35805Y-30280D01*
X35908Y-30237D01*
X35987Y-30158D01*
X36029Y-30055D01*
X36030Y-29944D01*
X35987Y-29841D01*
X35913Y-29767D01*
X35944Y-29779D01*
X36055Y-29780D01*
X36158Y-29737D01*
X36237Y-29658D01*
X36279Y-29555D01*
X36280Y-29474D01*
X36627Y-29127D01*
X36666Y-29068D01*
X36666Y-29068D01*
X36679Y-29000D01*
X36679Y-28717D01*
X36784Y-28821D01*
X36924Y-28879D01*
X37075Y-28880D01*
X37214Y-28822D01*
X37320Y-28717D01*
X37320Y-30425D01*
X36872Y-30872D01*
X36833Y-30931D01*
X36820Y-31000D01*
X36820Y-31163D01*
X36785Y-31177D01*
X36678Y-31284D01*
X36620Y-31424D01*
X36619Y-31575D01*
X36677Y-31714D01*
X36784Y-31821D01*
X36924Y-31879D01*
X37075Y-31880D01*
X37214Y-31822D01*
X37321Y-31715D01*
X37379Y-31575D01*
X37380Y-31424D01*
X37322Y-31285D01*
X37215Y-31178D01*
X37179Y-31163D01*
X37179Y-31074D01*
X37627Y-30627D01*
X37666Y-30568D01*
X37666Y-30568D01*
X37679Y-30500D01*
X37679Y-26500D01*
X37666Y-26431D01*
X37666Y-26431D01*
X37627Y-26372D01*
X37365Y-26111D01*
X37379Y-26075D01*
X37380Y-25924D01*
X37380Y-22924D01*
X37322Y-22785D01*
X37215Y-22678D01*
X37075Y-22620D01*
X36924Y-22619D01*
X36785Y-22677D01*
X36678Y-22784D01*
X36620Y-22924D01*
X36619Y-23075D01*
X36677Y-23214D01*
X36784Y-23321D01*
X36924Y-23379D01*
X37075Y-23380D01*
X37214Y-23322D01*
X37321Y-23215D01*
X37379Y-23075D01*
X37380Y-22924D01*
X37380Y-25924D01*
X37322Y-25785D01*
X37215Y-25678D01*
X37075Y-25620D01*
X36924Y-25619D01*
X36785Y-25677D01*
X36678Y-25784D01*
X36620Y-25924D01*
X36619Y-26075D01*
X36677Y-26214D01*
X36784Y-26321D01*
X36924Y-26379D01*
X37075Y-26380D01*
X37111Y-26365D01*
X37320Y-26574D01*
X37320Y-28282D01*
X37215Y-28178D01*
X37075Y-28120D01*
X36924Y-28119D01*
X36785Y-28177D01*
X36679Y-28282D01*
X36679Y-27500D01*
X36679Y-27216D01*
X36737Y-27158D01*
X36779Y-27055D01*
X36780Y-26944D01*
X36737Y-26841D01*
X36658Y-26762D01*
X36555Y-26720D01*
X36444Y-26719D01*
X36380Y-26746D01*
X36380Y-22924D01*
X36322Y-22785D01*
X36215Y-22678D01*
X36075Y-22620D01*
X35924Y-22619D01*
X35785Y-22677D01*
X35678Y-22784D01*
X35620Y-22924D01*
X35619Y-23075D01*
X35677Y-23214D01*
X35784Y-23321D01*
X35924Y-23379D01*
X36075Y-23380D01*
X36214Y-23322D01*
X36321Y-23215D01*
X36379Y-23075D01*
X36380Y-22924D01*
X36380Y-26746D01*
X36341Y-26762D01*
X36262Y-26841D01*
X36220Y-26944D01*
X36219Y-27055D01*
X36262Y-27158D01*
X36320Y-27216D01*
X36320Y-27500D01*
X36320Y-28282D01*
X36215Y-28178D01*
X36075Y-28120D01*
X35924Y-28119D01*
X35785Y-28177D01*
X35679Y-28282D01*
X35679Y-23500D01*
X35666Y-23431D01*
X35666Y-23431D01*
X35627Y-23372D01*
X35365Y-23111D01*
X35379Y-23075D01*
X35380Y-22924D01*
X35322Y-22785D01*
X35215Y-22678D01*
X35075Y-22620D01*
X34924Y-22619D01*
X34785Y-22677D01*
X34678Y-22784D01*
X34620Y-22924D01*
X34619Y-23075D01*
X34677Y-23214D01*
X34784Y-23321D01*
X34924Y-23379D01*
X35075Y-23380D01*
X35111Y-23365D01*
X35320Y-23574D01*
X35320Y-25782D01*
X35215Y-25678D01*
X35075Y-25620D01*
X34924Y-25619D01*
X34785Y-25677D01*
X34679Y-25782D01*
X34679Y-23500D01*
X34666Y-23431D01*
X34666Y-23431D01*
X34627Y-23372D01*
X34365Y-23111D01*
X34379Y-23075D01*
X34380Y-22924D01*
X34322Y-22785D01*
X34215Y-22678D01*
X34075Y-22620D01*
X33924Y-22619D01*
X33785Y-22677D01*
X33678Y-22784D01*
X33620Y-22924D01*
X33619Y-23075D01*
X33677Y-23214D01*
X33784Y-23321D01*
X33924Y-23379D01*
X34075Y-23380D01*
X34111Y-23365D01*
X34320Y-23574D01*
X34320Y-25782D01*
X34215Y-25678D01*
X34075Y-25620D01*
X33924Y-25619D01*
X33785Y-25677D01*
X33679Y-25782D01*
X33679Y-23500D01*
X33666Y-23431D01*
X33666Y-23431D01*
X33627Y-23372D01*
X33365Y-23111D01*
X33379Y-23075D01*
X33380Y-22924D01*
X33322Y-22785D01*
X33215Y-22678D01*
X33075Y-22620D01*
X32924Y-22619D01*
X32785Y-22677D01*
X32678Y-22784D01*
X32620Y-22924D01*
X32619Y-23075D01*
X32677Y-23214D01*
X32784Y-23321D01*
X32924Y-23379D01*
X33075Y-23380D01*
X33111Y-23365D01*
X33320Y-23574D01*
X33320Y-25782D01*
X33215Y-25678D01*
X33075Y-25620D01*
X32924Y-25619D01*
X32785Y-25677D01*
X32678Y-25784D01*
X32620Y-25924D01*
X32619Y-26075D01*
X32677Y-26214D01*
X32784Y-26321D01*
X32924Y-26379D01*
X33075Y-26380D01*
X33214Y-26322D01*
X33320Y-26217D01*
X33320Y-28282D01*
X33215Y-28178D01*
X33075Y-28120D01*
X32924Y-28119D01*
X32785Y-28177D01*
X32678Y-28284D01*
X32620Y-28424D01*
X32619Y-28575D01*
X32677Y-28714D01*
X32784Y-28821D01*
X32924Y-28879D01*
X33075Y-28880D01*
X33214Y-28822D01*
X33320Y-28717D01*
X33320Y-31282D01*
X33215Y-31178D01*
X33075Y-31120D01*
X32924Y-31119D01*
X32785Y-31177D01*
X32679Y-31282D01*
X32679Y-29750D01*
X32666Y-29681D01*
X32666Y-29681D01*
X32627Y-29622D01*
X32179Y-29175D01*
X32179Y-28836D01*
X32214Y-28822D01*
X32321Y-28715D01*
X32379Y-28575D01*
X32380Y-28424D01*
X32322Y-28285D01*
X32215Y-28178D01*
X32075Y-28120D01*
X31924Y-28119D01*
X31785Y-28177D01*
X31679Y-28282D01*
X31679Y-26217D01*
X31784Y-26321D01*
X31924Y-26379D01*
X32075Y-26380D01*
X32214Y-26322D01*
X32321Y-26215D01*
X32379Y-26075D01*
X32380Y-25924D01*
X32322Y-25785D01*
X32215Y-25678D01*
X32075Y-25620D01*
X31924Y-25619D01*
X31785Y-25677D01*
X31679Y-25782D01*
X31679Y-24574D01*
X32127Y-24127D01*
X32166Y-24068D01*
X32166Y-24068D01*
X32179Y-24000D01*
X32179Y-23336D01*
X32214Y-23322D01*
X32321Y-23215D01*
X32379Y-23075D01*
X32380Y-22924D01*
X32322Y-22785D01*
X32215Y-22678D01*
X32075Y-22620D01*
X31924Y-22619D01*
X31785Y-22677D01*
X31678Y-22784D01*
X31620Y-22924D01*
X31619Y-23075D01*
X31677Y-23214D01*
X31784Y-23321D01*
X31820Y-23336D01*
X31820Y-23925D01*
X31372Y-24372D01*
X31333Y-24431D01*
X31320Y-24500D01*
X31320Y-25782D01*
X31215Y-25678D01*
X31075Y-25620D01*
X30924Y-25619D01*
X30785Y-25677D01*
X30679Y-25782D01*
X30679Y-23574D01*
X30888Y-23365D01*
X30924Y-23379D01*
X31075Y-23380D01*
X31214Y-23322D01*
X31321Y-23215D01*
X31379Y-23075D01*
X31380Y-22924D01*
X31322Y-22785D01*
X31215Y-22678D01*
X31075Y-22620D01*
X30924Y-22619D01*
X30785Y-22677D01*
X30678Y-22784D01*
X30620Y-22924D01*
X30619Y-23075D01*
X30634Y-23111D01*
X30380Y-23365D01*
X30380Y-22924D01*
X30322Y-22785D01*
X30215Y-22678D01*
X30075Y-22620D01*
X29924Y-22619D01*
X29785Y-22677D01*
X29678Y-22784D01*
X29620Y-22924D01*
X29619Y-23075D01*
X29677Y-23214D01*
X29784Y-23321D01*
X29924Y-23379D01*
X30075Y-23380D01*
X30214Y-23322D01*
X30321Y-23215D01*
X30379Y-23075D01*
X30380Y-22924D01*
X30380Y-23365D01*
X30372Y-23372D01*
X30333Y-23431D01*
X30320Y-23500D01*
X30320Y-25630D01*
X30295Y-25620D01*
X30254Y-25619D01*
X30179Y-25619D01*
X30179Y-24750D01*
X30166Y-24681D01*
X30127Y-24622D01*
X30127Y-24622D01*
X30029Y-24525D01*
X30030Y-24444D01*
X29987Y-24341D01*
X29908Y-24262D01*
X29805Y-24220D01*
X29694Y-24219D01*
X29591Y-24262D01*
X29512Y-24341D01*
X29470Y-24444D01*
X29469Y-24555D01*
X29512Y-24658D01*
X29591Y-24737D01*
X29694Y-24779D01*
X29775Y-24780D01*
X29820Y-24824D01*
X29820Y-25619D01*
X29704Y-25619D01*
X29665Y-25635D01*
X29636Y-25665D01*
X29620Y-25704D01*
X29619Y-25745D01*
X29619Y-26295D01*
X29635Y-26334D01*
X29665Y-26363D01*
X29704Y-26379D01*
X29745Y-26380D01*
X30295Y-26380D01*
X30320Y-26369D01*
X30320Y-26425D01*
X30025Y-26720D01*
X29944Y-26719D01*
X29841Y-26762D01*
X29762Y-26841D01*
X29720Y-26944D01*
X29719Y-27055D01*
X29762Y-27158D01*
X29841Y-27237D01*
X29944Y-27279D01*
X30055Y-27280D01*
X30158Y-27237D01*
X30237Y-27158D01*
X30279Y-27055D01*
X30280Y-26974D01*
X30627Y-26627D01*
X30666Y-26568D01*
X30666Y-26568D01*
X30679Y-26500D01*
X30679Y-26217D01*
X30784Y-26321D01*
X30924Y-26379D01*
X31075Y-26380D01*
X31214Y-26322D01*
X31320Y-26217D01*
X31320Y-28282D01*
X31215Y-28178D01*
X31075Y-28120D01*
X30924Y-28119D01*
X30785Y-28177D01*
X30678Y-28284D01*
X30620Y-28424D01*
X30619Y-28575D01*
X30677Y-28714D01*
X30784Y-28821D01*
X30924Y-28879D01*
X31075Y-28880D01*
X31214Y-28822D01*
X31320Y-28717D01*
X31320Y-31282D01*
X31215Y-31178D01*
X31075Y-31120D01*
X30924Y-31119D01*
X30785Y-31177D01*
X30679Y-31282D01*
X30679Y-30000D01*
X30666Y-29931D01*
X30666Y-29931D01*
X30627Y-29872D01*
X30179Y-29425D01*
X30179Y-28836D01*
X30214Y-28822D01*
X30321Y-28715D01*
X30379Y-28575D01*
X30380Y-28424D01*
X30322Y-28285D01*
X30215Y-28178D01*
X30075Y-28120D01*
X29924Y-28119D01*
X29785Y-28177D01*
X29678Y-28284D01*
X29620Y-28424D01*
X29619Y-28575D01*
X29677Y-28714D01*
X29784Y-28821D01*
X29820Y-28836D01*
X29820Y-29500D01*
X29833Y-29568D01*
X29872Y-29627D01*
X30320Y-30074D01*
X30320Y-31130D01*
X30295Y-31120D01*
X30254Y-31119D01*
X29704Y-31119D01*
X29665Y-31135D01*
X29636Y-31165D01*
X29620Y-31204D01*
X29619Y-31245D01*
X29619Y-31795D01*
X29635Y-31834D01*
X29665Y-31863D01*
X29704Y-31879D01*
X29745Y-31880D01*
X30295Y-31880D01*
X30320Y-31869D01*
X30320Y-34925D01*
X30275Y-34970D01*
X30194Y-34969D01*
X30091Y-35012D01*
X30012Y-35091D01*
X29970Y-35194D01*
X29969Y-35305D01*
X30012Y-35408D01*
X30091Y-35487D01*
X30194Y-35529D01*
X30305Y-35530D01*
X30408Y-35487D01*
X30487Y-35408D01*
X30529Y-35305D01*
X30530Y-35224D01*
X30627Y-35127D01*
X30627Y-35127D01*
X30627Y-35127D01*
X30666Y-35068D01*
X30679Y-35000D01*
X30679Y-31717D01*
X30784Y-31821D01*
X30924Y-31879D01*
X31075Y-31880D01*
X31214Y-31822D01*
X31320Y-31717D01*
X31320Y-35500D01*
X31320Y-36750D01*
X31333Y-36818D01*
X31372Y-36877D01*
X31720Y-37224D01*
X31719Y-37305D01*
X31762Y-37408D01*
X31841Y-37487D01*
X31944Y-37529D01*
X32055Y-37530D01*
X32158Y-37487D01*
X32237Y-37408D01*
X32279Y-37305D01*
X32280Y-37194D01*
X32237Y-37091D01*
X32158Y-37012D01*
X32055Y-36970D01*
X31974Y-36969D01*
X31679Y-36675D01*
X31679Y-35500D01*
X31679Y-31717D01*
X31784Y-31821D01*
X31924Y-31879D01*
X32075Y-31880D01*
X32214Y-31822D01*
X32320Y-31717D01*
X32320Y-34500D01*
X32333Y-34568D01*
X32372Y-34627D01*
X32970Y-35224D01*
X32969Y-35305D01*
X33012Y-35408D01*
X33091Y-35487D01*
X33194Y-35529D01*
X33305Y-35530D01*
X33408Y-35487D01*
X33487Y-35408D01*
X33529Y-35305D01*
X33529Y-35284D01*
X33570Y-35324D01*
X33570Y-37033D01*
X33512Y-37091D01*
X33470Y-37194D01*
X33469Y-37305D01*
X33512Y-37408D01*
X33591Y-37487D01*
X33694Y-37529D01*
X33805Y-37530D01*
X33908Y-37487D01*
X33987Y-37408D01*
X34029Y-37305D01*
X34030Y-37194D01*
X33987Y-37091D01*
X33929Y-37033D01*
X33929Y-35250D01*
X33916Y-35181D01*
X33916Y-35181D01*
X33894Y-35148D01*
X35970Y-37224D01*
X35969Y-37305D01*
X36012Y-37408D01*
X36091Y-37487D01*
X36194Y-37529D01*
X36305Y-37530D01*
X36408Y-37487D01*
X36487Y-37408D01*
X36529Y-37305D01*
X36530Y-37194D01*
X36487Y-37091D01*
X36408Y-37012D01*
X36305Y-36970D01*
X36224Y-36969D01*
X33679Y-34425D01*
X33679Y-31717D01*
X33784Y-31821D01*
X33924Y-31879D01*
X34075Y-31880D01*
X34214Y-31822D01*
X34320Y-31717D01*
X34320Y-33500D01*
X34333Y-33568D01*
X34372Y-33627D01*
X35970Y-35224D01*
X35969Y-35305D01*
X36012Y-35408D01*
X36091Y-35487D01*
X36194Y-35529D01*
X36305Y-35530D01*
X36408Y-35487D01*
X36487Y-35408D01*
X36529Y-35305D01*
X36530Y-35194D01*
X36487Y-35091D01*
X36408Y-35012D01*
X36305Y-34970D01*
X36224Y-34969D01*
X36148Y-34894D01*
X36181Y-34916D01*
X36181Y-34916D01*
X36250Y-34929D01*
X36675Y-34929D01*
X36872Y-35127D01*
X36872Y-35127D01*
X36931Y-35166D01*
X37000Y-35179D01*
X37925Y-35179D01*
X38470Y-35724D01*
X38469Y-35805D01*
X38512Y-35908D01*
X38591Y-35987D01*
X38694Y-36029D01*
X38805Y-36030D01*
X38908Y-35987D01*
X38987Y-35908D01*
X39029Y-35805D01*
X39030Y-35694D01*
X38987Y-35591D01*
X38908Y-35512D01*
X38805Y-35470D01*
X38724Y-35469D01*
X38127Y-34872D01*
X38068Y-34833D01*
X38000Y-34820D01*
X37074Y-34820D01*
X36877Y-34622D01*
X36818Y-34583D01*
X36750Y-34570D01*
X36324Y-34570D01*
X35179Y-33425D01*
X35179Y-32750D01*
X35179Y-32466D01*
X35237Y-32408D01*
X35279Y-32305D01*
X35280Y-32194D01*
X35237Y-32091D01*
X35158Y-32012D01*
X35055Y-31970D01*
X34944Y-31969D01*
X34841Y-32012D01*
X34762Y-32091D01*
X34720Y-32194D01*
X34719Y-32305D01*
X34762Y-32408D01*
X34820Y-32466D01*
X34820Y-32750D01*
X34820Y-33500D01*
X34833Y-33568D01*
X34855Y-33601D01*
X34679Y-33425D01*
X34679Y-31717D01*
X34784Y-31821D01*
X34924Y-31879D01*
X35075Y-31880D01*
X35214Y-31822D01*
X35320Y-31717D01*
X35320Y-33000D01*
X35333Y-33068D01*
X35372Y-33127D01*
X36372Y-34127D01*
X36372Y-34127D01*
X36431Y-34166D01*
X36500Y-34179D01*
X37925Y-34179D01*
X39070Y-35324D01*
X39070Y-36283D01*
X39012Y-36341D01*
X38970Y-36444D01*
X38969Y-36555D01*
X39012Y-36658D01*
X39091Y-36737D01*
X39194Y-36779D01*
X39305Y-36780D01*
X39408Y-36737D01*
X39487Y-36658D01*
X39529Y-36555D01*
X39530Y-36444D01*
X39530Y-38471D01*
X31280Y-38471D01*
X31280Y-32194D01*
X31237Y-32091D01*
X31158Y-32012D01*
X31055Y-31970D01*
X30944Y-31969D01*
X30841Y-32012D01*
X30762Y-32091D01*
X30720Y-32194D01*
X30719Y-32305D01*
X30762Y-32408D01*
X30820Y-32466D01*
X30820Y-33000D01*
X30820Y-36675D01*
X30525Y-36970D01*
X30444Y-36969D01*
X30341Y-37012D01*
X30262Y-37091D01*
X30220Y-37194D01*
X30219Y-37305D01*
X30262Y-37408D01*
X30341Y-37487D01*
X30444Y-37529D01*
X30555Y-37530D01*
X30658Y-37487D01*
X30737Y-37408D01*
X30779Y-37305D01*
X30780Y-37224D01*
X31127Y-36877D01*
X31166Y-36818D01*
X31166Y-36818D01*
X31179Y-36750D01*
X31179Y-33000D01*
X31179Y-32466D01*
X31237Y-32408D01*
X31279Y-32305D01*
X31280Y-32194D01*
X31280Y-38471D01*
X24955Y-38471D01*
X24955Y-34409D01*
X24955Y-34409D01*
X24955Y-32829D01*
X24955Y-32129D01*
X24939Y-32090D01*
X24909Y-32061D01*
X24870Y-32045D01*
X24829Y-32044D01*
X24450Y-32044D01*
X24450Y-30424D01*
X24450Y-28534D01*
X24434Y-28495D01*
X24404Y-28466D01*
X24365Y-28450D01*
X24324Y-28449D01*
X23905Y-28449D01*
X23905Y-24419D01*
X23843Y-24270D01*
X23729Y-24156D01*
X23580Y-24095D01*
X23419Y-24094D01*
X23270Y-24156D01*
X23156Y-24270D01*
X23095Y-24419D01*
X23094Y-24580D01*
X23156Y-24729D01*
X23270Y-24843D01*
X23419Y-24904D01*
X23580Y-24905D01*
X23729Y-24843D01*
X23843Y-24729D01*
X23904Y-24580D01*
X23905Y-24419D01*
X23905Y-28449D01*
X22434Y-28449D01*
X22395Y-28465D01*
X22366Y-28495D01*
X22350Y-28534D01*
X22349Y-28575D01*
X22349Y-30465D01*
X22365Y-30504D01*
X22395Y-30533D01*
X22434Y-30549D01*
X22475Y-30550D01*
X24365Y-30550D01*
X24404Y-30534D01*
X24433Y-30504D01*
X24449Y-30465D01*
X24450Y-30424D01*
X24450Y-32044D01*
X24129Y-32044D01*
X24090Y-32060D01*
X24061Y-32090D01*
X24045Y-32129D01*
X24044Y-32170D01*
X24044Y-32870D01*
X24060Y-32909D01*
X24090Y-32938D01*
X24129Y-32954D01*
X24170Y-32955D01*
X24870Y-32955D01*
X24909Y-32939D01*
X24938Y-32909D01*
X24954Y-32870D01*
X24955Y-32829D01*
X24955Y-34409D01*
X24885Y-34242D01*
X24758Y-34114D01*
X24590Y-34045D01*
X24409Y-34044D01*
X24242Y-34114D01*
X24114Y-34241D01*
X24045Y-34409D01*
X24044Y-34590D01*
X24114Y-34757D01*
X24241Y-34885D01*
X24409Y-34954D01*
X24590Y-34955D01*
X24757Y-34885D01*
X24885Y-34758D01*
X24954Y-34590D01*
X24955Y-34409D01*
X24955Y-38471D01*
X22950Y-38471D01*
X22950Y-31292D01*
X22790Y-30906D01*
X22495Y-30610D01*
X22109Y-30450D01*
X22050Y-30450D01*
X22050Y-29292D01*
X21890Y-28906D01*
X21595Y-28610D01*
X21209Y-28450D01*
X21207Y-28450D01*
X21207Y-21260D01*
X21024Y-20816D01*
X20684Y-20476D01*
X20241Y-20292D01*
X19760Y-20292D01*
X19316Y-20475D01*
X18976Y-20815D01*
X18792Y-21258D01*
X18792Y-21739D01*
X18975Y-22183D01*
X19315Y-22523D01*
X19758Y-22707D01*
X20239Y-22707D01*
X20683Y-22524D01*
X21023Y-22184D01*
X21207Y-21741D01*
X21207Y-21260D01*
X21207Y-28450D01*
X20792Y-28449D01*
X20406Y-28609D01*
X20110Y-28904D01*
X19950Y-29290D01*
X19949Y-29707D01*
X20109Y-30094D01*
X20404Y-30389D01*
X20790Y-30549D01*
X21207Y-30550D01*
X21594Y-30390D01*
X21889Y-30095D01*
X22049Y-29709D01*
X22050Y-29292D01*
X22050Y-30450D01*
X21692Y-30449D01*
X21306Y-30609D01*
X21010Y-30904D01*
X20850Y-31290D01*
X20849Y-31707D01*
X21009Y-32094D01*
X21304Y-32389D01*
X21690Y-32549D01*
X22107Y-32550D01*
X22494Y-32390D01*
X22789Y-32095D01*
X22949Y-31709D01*
X22950Y-31292D01*
X22950Y-38471D01*
X21207Y-38471D01*
X21207Y-36260D01*
X21024Y-35816D01*
X20684Y-35476D01*
X20241Y-35292D01*
X19760Y-35292D01*
X19316Y-35475D01*
X18976Y-35815D01*
X18792Y-36258D01*
X18792Y-36739D01*
X18975Y-37183D01*
X19315Y-37523D01*
X19758Y-37707D01*
X20239Y-37707D01*
X20683Y-37524D01*
X21023Y-37184D01*
X21207Y-36741D01*
X21207Y-36260D01*
X21207Y-38471D01*
X18028Y-38471D01*
X18028Y-19528D01*
X56971Y-19528D01*
X56971Y-38471D01*
X56971Y-38471D01*
G37*
G54D23*
X56971Y-38471D02*
X56207Y-38471D01*
X56207Y-36260D01*
X56207Y-21260D01*
X56024Y-20816D01*
X55684Y-20476D01*
X55241Y-20292D01*
X54760Y-20292D01*
X54316Y-20475D01*
X53976Y-20815D01*
X53792Y-21258D01*
X53792Y-21739D01*
X53975Y-22183D01*
X54315Y-22523D01*
X54758Y-22707D01*
X55239Y-22707D01*
X55683Y-22524D01*
X56023Y-22184D01*
X56207Y-21741D01*
X56207Y-21260D01*
X56207Y-36260D01*
X56024Y-35816D01*
X55684Y-35476D01*
X55241Y-35292D01*
X54760Y-35292D01*
X54316Y-35475D01*
X53976Y-35815D01*
X53792Y-36258D01*
X53792Y-36739D01*
X53975Y-37183D01*
X54315Y-37523D01*
X54758Y-37707D01*
X55239Y-37707D01*
X55683Y-37524D01*
X56023Y-37184D01*
X56207Y-36741D01*
X56207Y-36260D01*
X56207Y-38471D01*
X53280Y-38471D01*
X53280Y-30594D01*
X53237Y-30491D01*
X53179Y-30433D01*
X53179Y-29650D01*
X53166Y-29581D01*
X53166Y-29581D01*
X53127Y-29522D01*
X52766Y-29162D01*
X52737Y-29091D01*
X52658Y-29012D01*
X52587Y-28983D01*
X52127Y-28522D01*
X52068Y-28483D01*
X52000Y-28470D01*
X51780Y-28470D01*
X51780Y-27094D01*
X51737Y-26991D01*
X51658Y-26912D01*
X51555Y-26870D01*
X51444Y-26869D01*
X51341Y-26912D01*
X51262Y-26991D01*
X51220Y-27094D01*
X51219Y-27205D01*
X51262Y-27308D01*
X51320Y-27366D01*
X51320Y-27725D01*
X51237Y-27808D01*
X51279Y-27705D01*
X51280Y-27594D01*
X51237Y-27491D01*
X51158Y-27412D01*
X51055Y-27370D01*
X50944Y-27369D01*
X50841Y-27412D01*
X50783Y-27470D01*
X49216Y-27470D01*
X49158Y-27412D01*
X49155Y-27411D01*
X49155Y-23279D01*
X49155Y-22679D01*
X49139Y-22640D01*
X49109Y-22611D01*
X49070Y-22595D01*
X49029Y-22594D01*
X48429Y-22594D01*
X48390Y-22610D01*
X48361Y-22640D01*
X48345Y-22679D01*
X48344Y-22720D01*
X48344Y-23320D01*
X48360Y-23359D01*
X48390Y-23388D01*
X48429Y-23404D01*
X48470Y-23405D01*
X49070Y-23405D01*
X49109Y-23389D01*
X49138Y-23359D01*
X49154Y-23320D01*
X49155Y-23279D01*
X49155Y-27411D01*
X49055Y-27370D01*
X48944Y-27369D01*
X48841Y-27412D01*
X48762Y-27491D01*
X48720Y-27594D01*
X48719Y-27705D01*
X48762Y-27808D01*
X48841Y-27887D01*
X48944Y-27929D01*
X49055Y-27930D01*
X49158Y-27887D01*
X49216Y-27829D01*
X50783Y-27829D01*
X50841Y-27887D01*
X50944Y-27929D01*
X51055Y-27930D01*
X51158Y-27887D01*
X51075Y-27970D01*
X48574Y-27970D01*
X48279Y-27675D01*
X48280Y-27594D01*
X48237Y-27491D01*
X48158Y-27412D01*
X48155Y-27411D01*
X48155Y-23919D01*
X48093Y-23770D01*
X47979Y-23656D01*
X47830Y-23595D01*
X47669Y-23594D01*
X47619Y-23615D01*
X47429Y-23425D01*
X47429Y-23252D01*
X47520Y-23343D01*
X47669Y-23404D01*
X47830Y-23405D01*
X47979Y-23343D01*
X48093Y-23229D01*
X48154Y-23080D01*
X48155Y-22919D01*
X48093Y-22770D01*
X47979Y-22656D01*
X47830Y-22595D01*
X47669Y-22594D01*
X47520Y-22656D01*
X47429Y-22747D01*
X47429Y-21216D01*
X47487Y-21158D01*
X47529Y-21055D01*
X47530Y-20944D01*
X47487Y-20841D01*
X47408Y-20762D01*
X47305Y-20720D01*
X47194Y-20719D01*
X47091Y-20762D01*
X47012Y-20841D01*
X46970Y-20944D01*
X46969Y-21055D01*
X47012Y-21158D01*
X47070Y-21216D01*
X47070Y-22747D01*
X46979Y-22656D01*
X46929Y-22636D01*
X46929Y-22000D01*
X46916Y-21931D01*
X46877Y-21872D01*
X46877Y-21872D01*
X45877Y-20872D01*
X45818Y-20833D01*
X45750Y-20820D01*
X42000Y-20820D01*
X40252Y-20820D01*
X40343Y-20729D01*
X40404Y-20580D01*
X40405Y-20419D01*
X40343Y-20270D01*
X40229Y-20156D01*
X40080Y-20095D01*
X39919Y-20094D01*
X39770Y-20156D01*
X39656Y-20270D01*
X39595Y-20419D01*
X39594Y-20580D01*
X39656Y-20729D01*
X39747Y-20820D01*
X35252Y-20820D01*
X35343Y-20729D01*
X35404Y-20580D01*
X35405Y-20419D01*
X35343Y-20270D01*
X35229Y-20156D01*
X35080Y-20095D01*
X34919Y-20094D01*
X34770Y-20156D01*
X34656Y-20270D01*
X34595Y-20419D01*
X34594Y-20580D01*
X34656Y-20729D01*
X34747Y-20820D01*
X32466Y-20820D01*
X32408Y-20762D01*
X32305Y-20720D01*
X32194Y-20719D01*
X32091Y-20762D01*
X32012Y-20841D01*
X31970Y-20944D01*
X31969Y-21055D01*
X32012Y-21158D01*
X32091Y-21237D01*
X32194Y-21279D01*
X32305Y-21280D01*
X32408Y-21237D01*
X32466Y-21179D01*
X34595Y-21179D01*
X34594Y-21220D01*
X34594Y-21820D01*
X34610Y-21859D01*
X34640Y-21888D01*
X34679Y-21904D01*
X34720Y-21905D01*
X35320Y-21905D01*
X35359Y-21889D01*
X35388Y-21859D01*
X35404Y-21820D01*
X35405Y-21779D01*
X35405Y-21179D01*
X39595Y-21179D01*
X39594Y-21220D01*
X39594Y-21820D01*
X39610Y-21859D01*
X39640Y-21888D01*
X39679Y-21904D01*
X39720Y-21905D01*
X40320Y-21905D01*
X40359Y-21889D01*
X40388Y-21859D01*
X40404Y-21820D01*
X40405Y-21779D01*
X40405Y-21179D01*
X42000Y-21179D01*
X45675Y-21179D01*
X46570Y-22074D01*
X46570Y-22636D01*
X46520Y-22656D01*
X46406Y-22770D01*
X46345Y-22919D01*
X46344Y-23080D01*
X46406Y-23229D01*
X46520Y-23343D01*
X46669Y-23404D01*
X46830Y-23405D01*
X46979Y-23343D01*
X47070Y-23252D01*
X47070Y-23500D01*
X47083Y-23568D01*
X47122Y-23627D01*
X47365Y-23869D01*
X47345Y-23919D01*
X47344Y-24080D01*
X47406Y-24229D01*
X47520Y-24343D01*
X47669Y-24404D01*
X47830Y-24405D01*
X47979Y-24343D01*
X48093Y-24229D01*
X48154Y-24080D01*
X48155Y-23919D01*
X48155Y-27411D01*
X48055Y-27370D01*
X47944Y-27369D01*
X47841Y-27412D01*
X47762Y-27491D01*
X47720Y-27594D01*
X47719Y-27705D01*
X47762Y-27808D01*
X47841Y-27887D01*
X47944Y-27929D01*
X48025Y-27930D01*
X48372Y-28277D01*
X48431Y-28316D01*
X48431Y-28316D01*
X48500Y-28329D01*
X51150Y-28329D01*
X51218Y-28316D01*
X51218Y-28316D01*
X51277Y-28277D01*
X51627Y-27927D01*
X51627Y-27927D01*
X51627Y-27927D01*
X51666Y-27868D01*
X51679Y-27800D01*
X51679Y-27800D01*
X51679Y-27800D01*
X51679Y-27366D01*
X51737Y-27308D01*
X51779Y-27205D01*
X51780Y-27094D01*
X51780Y-28470D01*
X48716Y-28470D01*
X48658Y-28412D01*
X48555Y-28370D01*
X48444Y-28369D01*
X48341Y-28412D01*
X48283Y-28470D01*
X47216Y-28470D01*
X47158Y-28412D01*
X47155Y-28411D01*
X47155Y-23919D01*
X47093Y-23770D01*
X46979Y-23656D01*
X46830Y-23595D01*
X46669Y-23594D01*
X46520Y-23656D01*
X46406Y-23770D01*
X46345Y-23919D01*
X46344Y-24080D01*
X46406Y-24229D01*
X46520Y-24343D01*
X46669Y-24404D01*
X46830Y-24405D01*
X46979Y-24343D01*
X47093Y-24229D01*
X47154Y-24080D01*
X47155Y-23919D01*
X47155Y-28411D01*
X47055Y-28370D01*
X46944Y-28369D01*
X46841Y-28412D01*
X46762Y-28491D01*
X46720Y-28594D01*
X46719Y-28705D01*
X46762Y-28808D01*
X46841Y-28887D01*
X46944Y-28929D01*
X47055Y-28930D01*
X47158Y-28887D01*
X47216Y-28829D01*
X48283Y-28829D01*
X48341Y-28887D01*
X48444Y-28929D01*
X48555Y-28930D01*
X48658Y-28887D01*
X48716Y-28829D01*
X49274Y-28829D01*
X49262Y-28841D01*
X49220Y-28944D01*
X49219Y-29055D01*
X49262Y-29158D01*
X49341Y-29237D01*
X49444Y-29279D01*
X49555Y-29280D01*
X49658Y-29237D01*
X49716Y-29179D01*
X51274Y-29179D01*
X51262Y-29191D01*
X51220Y-29294D01*
X51219Y-29405D01*
X51262Y-29508D01*
X51341Y-29587D01*
X51370Y-29599D01*
X51370Y-30200D01*
X51370Y-30250D01*
X51383Y-30318D01*
X51422Y-30377D01*
X51470Y-30424D01*
X51469Y-30505D01*
X51512Y-30608D01*
X51591Y-30687D01*
X51694Y-30729D01*
X51805Y-30730D01*
X51908Y-30687D01*
X51987Y-30608D01*
X52029Y-30505D01*
X52030Y-30394D01*
X51987Y-30291D01*
X51908Y-30212D01*
X51805Y-30170D01*
X51729Y-30169D01*
X51729Y-29516D01*
X51737Y-29508D01*
X51779Y-29405D01*
X51780Y-29294D01*
X51737Y-29191D01*
X51679Y-29133D01*
X51679Y-29100D01*
X51666Y-29031D01*
X51627Y-28972D01*
X51627Y-28972D01*
X51527Y-28872D01*
X51468Y-28833D01*
X51448Y-28829D01*
X51925Y-28829D01*
X52240Y-29144D01*
X52220Y-29194D01*
X52219Y-29305D01*
X52262Y-29408D01*
X52341Y-29487D01*
X52444Y-29529D01*
X52555Y-29530D01*
X52605Y-29509D01*
X52820Y-29724D01*
X52820Y-30433D01*
X52762Y-30491D01*
X52720Y-30594D01*
X52719Y-30705D01*
X52762Y-30808D01*
X52841Y-30887D01*
X52944Y-30929D01*
X53055Y-30930D01*
X53158Y-30887D01*
X53237Y-30808D01*
X53279Y-30705D01*
X53280Y-30594D01*
X53280Y-38471D01*
X50980Y-38471D01*
X50980Y-31444D01*
X50937Y-31341D01*
X50858Y-31262D01*
X50755Y-31220D01*
X50644Y-31219D01*
X50541Y-31262D01*
X50483Y-31320D01*
X48324Y-31320D01*
X48179Y-31175D01*
X48179Y-29750D01*
X48166Y-29681D01*
X48166Y-29681D01*
X48127Y-29622D01*
X47627Y-29122D01*
X47568Y-29083D01*
X47500Y-29070D01*
X46574Y-29070D01*
X46429Y-28925D01*
X46429Y-26966D01*
X46487Y-26908D01*
X46529Y-26805D01*
X46530Y-26694D01*
X46487Y-26591D01*
X46408Y-26512D01*
X46305Y-26470D01*
X46194Y-26469D01*
X46091Y-26512D01*
X46012Y-26591D01*
X45970Y-26694D01*
X45969Y-26805D01*
X46012Y-26908D01*
X46070Y-26966D01*
X46070Y-29000D01*
X46083Y-29068D01*
X46122Y-29127D01*
X46372Y-29377D01*
X46372Y-29377D01*
X46431Y-29416D01*
X46500Y-29429D01*
X47425Y-29429D01*
X47820Y-29824D01*
X47820Y-31250D01*
X47833Y-31318D01*
X47872Y-31377D01*
X48122Y-31627D01*
X48122Y-31627D01*
X48181Y-31666D01*
X48250Y-31679D01*
X50483Y-31679D01*
X50541Y-31737D01*
X50644Y-31779D01*
X50755Y-31780D01*
X50858Y-31737D01*
X50937Y-31658D01*
X50979Y-31555D01*
X50980Y-31444D01*
X50980Y-38471D01*
X47280Y-38471D01*
X47280Y-29694D01*
X47237Y-29591D01*
X47158Y-29512D01*
X47055Y-29470D01*
X46944Y-29469D01*
X46841Y-29512D01*
X46783Y-29570D01*
X45074Y-29570D01*
X44779Y-29275D01*
X44780Y-29194D01*
X44737Y-29091D01*
X44658Y-29012D01*
X44555Y-28970D01*
X44444Y-28969D01*
X44341Y-29012D01*
X44301Y-29052D01*
X44301Y-28000D01*
X44301Y-22500D01*
X44278Y-22384D01*
X44278Y-22384D01*
X44213Y-22286D01*
X44213Y-22286D01*
X43963Y-22036D01*
X43865Y-21971D01*
X43750Y-21948D01*
X29250Y-21948D01*
X29134Y-21971D01*
X29036Y-22036D01*
X28536Y-22536D01*
X28471Y-22634D01*
X28448Y-22750D01*
X28448Y-24624D01*
X27536Y-25536D01*
X27405Y-25668D01*
X27405Y-24419D01*
X27343Y-24270D01*
X27229Y-24156D01*
X27080Y-24095D01*
X26919Y-24094D01*
X26770Y-24156D01*
X26656Y-24270D01*
X26595Y-24419D01*
X26594Y-24580D01*
X26656Y-24729D01*
X26770Y-24843D01*
X26919Y-24904D01*
X27080Y-24905D01*
X27229Y-24843D01*
X27343Y-24729D01*
X27404Y-24580D01*
X27405Y-24419D01*
X27405Y-25668D01*
X26405Y-26668D01*
X26405Y-24779D01*
X26405Y-24179D01*
X26389Y-24140D01*
X26359Y-24111D01*
X26320Y-24095D01*
X26279Y-24094D01*
X25679Y-24094D01*
X25640Y-24110D01*
X25611Y-24140D01*
X25595Y-24179D01*
X25594Y-24220D01*
X25594Y-24820D01*
X25610Y-24859D01*
X25640Y-24888D01*
X25679Y-24904D01*
X25720Y-24905D01*
X26320Y-24905D01*
X26359Y-24889D01*
X26388Y-24859D01*
X26404Y-24820D01*
X26405Y-24779D01*
X26405Y-26668D01*
X26380Y-26693D01*
X26380Y-26204D01*
X26364Y-26165D01*
X26334Y-26136D01*
X26295Y-26120D01*
X26254Y-26119D01*
X25704Y-26119D01*
X25665Y-26135D01*
X25636Y-26165D01*
X25620Y-26204D01*
X25619Y-26245D01*
X25619Y-26795D01*
X25635Y-26834D01*
X25665Y-26863D01*
X25704Y-26879D01*
X25745Y-26880D01*
X26193Y-26880D01*
X25953Y-27119D01*
X25924Y-27119D01*
X25785Y-27177D01*
X25678Y-27284D01*
X25620Y-27424D01*
X25619Y-27575D01*
X25677Y-27714D01*
X25784Y-27821D01*
X25924Y-27879D01*
X26075Y-27880D01*
X26214Y-27822D01*
X26321Y-27715D01*
X26379Y-27575D01*
X26379Y-27546D01*
X27963Y-25963D01*
X28963Y-24963D01*
X28963Y-24963D01*
X28963Y-24963D01*
X29002Y-24904D01*
X29028Y-24865D01*
X29028Y-24865D01*
X29051Y-24750D01*
X29051Y-22875D01*
X29375Y-22551D01*
X43624Y-22551D01*
X43698Y-22625D01*
X43698Y-27874D01*
X43380Y-28193D01*
X43380Y-25924D01*
X43380Y-22924D01*
X43322Y-22785D01*
X43215Y-22678D01*
X43075Y-22620D01*
X42924Y-22619D01*
X42785Y-22677D01*
X42678Y-22784D01*
X42620Y-22924D01*
X42619Y-23075D01*
X42677Y-23214D01*
X42784Y-23321D01*
X42924Y-23379D01*
X43075Y-23380D01*
X43214Y-23322D01*
X43321Y-23215D01*
X43379Y-23075D01*
X43380Y-22924D01*
X43380Y-25924D01*
X43322Y-25785D01*
X43215Y-25678D01*
X43075Y-25620D01*
X42924Y-25619D01*
X42785Y-25677D01*
X42678Y-25784D01*
X42620Y-25924D01*
X42619Y-26075D01*
X42677Y-26214D01*
X42784Y-26321D01*
X42924Y-26379D01*
X43075Y-26380D01*
X43214Y-26322D01*
X43321Y-26215D01*
X43379Y-26075D01*
X43380Y-25924D01*
X43380Y-28193D01*
X42874Y-28698D01*
X42380Y-28698D01*
X42380Y-25924D01*
X42380Y-22924D01*
X42322Y-22785D01*
X42215Y-22678D01*
X42075Y-22620D01*
X41924Y-22619D01*
X41785Y-22677D01*
X41678Y-22784D01*
X41620Y-22924D01*
X41619Y-23075D01*
X41677Y-23214D01*
X41784Y-23321D01*
X41924Y-23379D01*
X42075Y-23380D01*
X42214Y-23322D01*
X42321Y-23215D01*
X42379Y-23075D01*
X42380Y-22924D01*
X42380Y-25924D01*
X42322Y-25785D01*
X42215Y-25678D01*
X42075Y-25620D01*
X41924Y-25619D01*
X41785Y-25677D01*
X41678Y-25784D01*
X41620Y-25924D01*
X41619Y-26075D01*
X41634Y-26111D01*
X41380Y-26365D01*
X41380Y-25924D01*
X41380Y-22924D01*
X41322Y-22785D01*
X41215Y-22678D01*
X41075Y-22620D01*
X40924Y-22619D01*
X40785Y-22677D01*
X40678Y-22784D01*
X40620Y-22924D01*
X40619Y-23075D01*
X40677Y-23214D01*
X40784Y-23321D01*
X40924Y-23379D01*
X41075Y-23380D01*
X41214Y-23322D01*
X41321Y-23215D01*
X41379Y-23075D01*
X41380Y-22924D01*
X41380Y-25924D01*
X41322Y-25785D01*
X41215Y-25678D01*
X41075Y-25620D01*
X40924Y-25619D01*
X40785Y-25677D01*
X40678Y-25784D01*
X40620Y-25924D01*
X40619Y-26075D01*
X40677Y-26214D01*
X40784Y-26321D01*
X40924Y-26379D01*
X41075Y-26380D01*
X41214Y-26322D01*
X41321Y-26215D01*
X41379Y-26075D01*
X41380Y-25924D01*
X41380Y-26365D01*
X40380Y-27365D01*
X40380Y-25924D01*
X40380Y-22924D01*
X40322Y-22785D01*
X40215Y-22678D01*
X40075Y-22620D01*
X39924Y-22619D01*
X39785Y-22677D01*
X39678Y-22784D01*
X39620Y-22924D01*
X39619Y-23075D01*
X39677Y-23214D01*
X39784Y-23321D01*
X39924Y-23379D01*
X40075Y-23380D01*
X40214Y-23322D01*
X40321Y-23215D01*
X40379Y-23075D01*
X40380Y-22924D01*
X40380Y-25924D01*
X40322Y-25785D01*
X40215Y-25678D01*
X40075Y-25620D01*
X39924Y-25619D01*
X39785Y-25677D01*
X39678Y-25784D01*
X39620Y-25924D01*
X39619Y-26075D01*
X39677Y-26214D01*
X39784Y-26321D01*
X39924Y-26379D01*
X40075Y-26380D01*
X40214Y-26322D01*
X40321Y-26215D01*
X40379Y-26075D01*
X40380Y-25924D01*
X40380Y-27365D01*
X39622Y-28122D01*
X39583Y-28181D01*
X39570Y-28250D01*
X39570Y-31747D01*
X39479Y-31656D01*
X39380Y-31615D01*
X39380Y-25924D01*
X39380Y-22924D01*
X39322Y-22785D01*
X39215Y-22678D01*
X39075Y-22620D01*
X38924Y-22619D01*
X38785Y-22677D01*
X38678Y-22784D01*
X38620Y-22924D01*
X38619Y-23075D01*
X38677Y-23214D01*
X38784Y-23321D01*
X38924Y-23379D01*
X39075Y-23380D01*
X39214Y-23322D01*
X39321Y-23215D01*
X39379Y-23075D01*
X39380Y-22924D01*
X39380Y-25924D01*
X39322Y-25785D01*
X39215Y-25678D01*
X39075Y-25620D01*
X38924Y-25619D01*
X38785Y-25677D01*
X38678Y-25784D01*
X38620Y-25924D01*
X38619Y-26075D01*
X38677Y-26214D01*
X38784Y-26321D01*
X38924Y-26379D01*
X39075Y-26380D01*
X39214Y-26322D01*
X39321Y-26215D01*
X39379Y-26075D01*
X39380Y-25924D01*
X39380Y-31615D01*
X39330Y-31595D01*
X39169Y-31594D01*
X39020Y-31656D01*
X38906Y-31770D01*
X38845Y-31919D01*
X38844Y-32080D01*
X38906Y-32229D01*
X39020Y-32343D01*
X39169Y-32404D01*
X39330Y-32405D01*
X39348Y-32397D01*
X38925Y-32820D01*
X38380Y-32820D01*
X38380Y-25924D01*
X38380Y-22924D01*
X38322Y-22785D01*
X38215Y-22678D01*
X38075Y-22620D01*
X37924Y-22619D01*
X37785Y-22677D01*
X37678Y-22784D01*
X37620Y-22924D01*
X37619Y-23075D01*
X37677Y-23214D01*
X37784Y-23321D01*
X37924Y-23379D01*
X38075Y-23380D01*
X38214Y-23322D01*
X38321Y-23215D01*
X38379Y-23075D01*
X38380Y-22924D01*
X38380Y-25924D01*
X38322Y-25785D01*
X38215Y-25678D01*
X38075Y-25620D01*
X37924Y-25619D01*
X37785Y-25677D01*
X37678Y-25784D01*
X37620Y-25924D01*
X37619Y-26075D01*
X37677Y-26214D01*
X37784Y-26321D01*
X37924Y-26379D01*
X38075Y-26380D01*
X38214Y-26322D01*
X38321Y-26215D01*
X38379Y-26075D01*
X38380Y-25924D01*
X38380Y-32820D01*
X36466Y-32820D01*
X36408Y-32762D01*
X36305Y-32720D01*
X36194Y-32719D01*
X36091Y-32762D01*
X36012Y-32841D01*
X35970Y-32944D01*
X35969Y-33055D01*
X36012Y-33158D01*
X36091Y-33237D01*
X36194Y-33279D01*
X36305Y-33280D01*
X36408Y-33237D01*
X36466Y-33179D01*
X39000Y-33179D01*
X39068Y-33166D01*
X39068Y-33166D01*
X39127Y-33127D01*
X39877Y-32377D01*
X39877Y-32377D01*
X39877Y-32377D01*
X39877Y-32376D01*
X39877Y-32376D01*
X39890Y-32388D01*
X39929Y-32404D01*
X39948Y-32404D01*
X39948Y-33750D01*
X39971Y-33865D01*
X40036Y-33963D01*
X40134Y-34028D01*
X40250Y-34051D01*
X40365Y-34028D01*
X40463Y-33963D01*
X40528Y-33865D01*
X40551Y-33750D01*
X40551Y-32405D01*
X40570Y-32405D01*
X40609Y-32389D01*
X40638Y-32359D01*
X40654Y-32320D01*
X40655Y-32279D01*
X40655Y-31679D01*
X40639Y-31640D01*
X40609Y-31611D01*
X40570Y-31595D01*
X40529Y-31594D01*
X39929Y-31594D01*
X39929Y-28324D01*
X41888Y-26365D01*
X41924Y-26379D01*
X42075Y-26380D01*
X42214Y-26322D01*
X42321Y-26215D01*
X42379Y-26075D01*
X42380Y-25924D01*
X42380Y-28698D01*
X41000Y-28698D01*
X40884Y-28721D01*
X40786Y-28786D01*
X40721Y-28884D01*
X40698Y-29000D01*
X40721Y-29115D01*
X40786Y-29213D01*
X40884Y-29278D01*
X41000Y-29301D01*
X43000Y-29301D01*
X43115Y-29278D01*
X43213Y-29213D01*
X44213Y-28213D01*
X44213Y-28213D01*
X44213Y-28213D01*
X44252Y-28154D01*
X44278Y-28115D01*
X44278Y-28115D01*
X44301Y-28000D01*
X44301Y-29052D01*
X44262Y-29091D01*
X44220Y-29194D01*
X44219Y-29305D01*
X44262Y-29408D01*
X44341Y-29487D01*
X44444Y-29529D01*
X44525Y-29530D01*
X44872Y-29877D01*
X44931Y-29916D01*
X44931Y-29916D01*
X45000Y-29929D01*
X46783Y-29929D01*
X46841Y-29987D01*
X46944Y-30029D01*
X47055Y-30030D01*
X47158Y-29987D01*
X47237Y-29908D01*
X47279Y-29805D01*
X47280Y-29694D01*
X47280Y-38471D01*
X44905Y-38471D01*
X44905Y-36419D01*
X44843Y-36270D01*
X44729Y-36156D01*
X44580Y-36095D01*
X44419Y-36094D01*
X44270Y-36156D01*
X44156Y-36270D01*
X44095Y-36419D01*
X44094Y-36580D01*
X44156Y-36729D01*
X44270Y-36843D01*
X44419Y-36904D01*
X44580Y-36905D01*
X44729Y-36843D01*
X44843Y-36729D01*
X44904Y-36580D01*
X44905Y-36419D01*
X44905Y-38471D01*
X43905Y-38471D01*
X43905Y-36419D01*
X43843Y-36270D01*
X43729Y-36156D01*
X43580Y-36095D01*
X43419Y-36094D01*
X43270Y-36156D01*
X43156Y-36270D01*
X43095Y-36419D01*
X43094Y-36580D01*
X43156Y-36729D01*
X43270Y-36843D01*
X43419Y-36904D01*
X43580Y-36905D01*
X43729Y-36843D01*
X43843Y-36729D01*
X43904Y-36580D01*
X43905Y-36419D01*
X43905Y-38471D01*
X42905Y-38471D01*
X42905Y-36779D01*
X42905Y-36179D01*
X42889Y-36140D01*
X42859Y-36111D01*
X42820Y-36095D01*
X42779Y-36094D01*
X42179Y-36094D01*
X42140Y-36110D01*
X42111Y-36140D01*
X42095Y-36179D01*
X42094Y-36220D01*
X42094Y-36820D01*
X42110Y-36859D01*
X42140Y-36888D01*
X42179Y-36904D01*
X42220Y-36905D01*
X42820Y-36905D01*
X42859Y-36889D01*
X42888Y-36859D01*
X42904Y-36820D01*
X42905Y-36779D01*
X42905Y-38471D01*
X39530Y-38471D01*
X39530Y-36444D01*
X39487Y-36341D01*
X39429Y-36283D01*
X39429Y-35250D01*
X39416Y-35181D01*
X39416Y-35181D01*
X39377Y-35122D01*
X38127Y-33872D01*
X38068Y-33833D01*
X38000Y-33820D01*
X36574Y-33820D01*
X35679Y-32925D01*
X35679Y-31717D01*
X35784Y-31821D01*
X35924Y-31879D01*
X36075Y-31880D01*
X36214Y-31822D01*
X36321Y-31715D01*
X36379Y-31575D01*
X36380Y-31424D01*
X36322Y-31285D01*
X36215Y-31178D01*
X36075Y-31120D01*
X35924Y-31119D01*
X35785Y-31177D01*
X35679Y-31282D01*
X35679Y-30500D01*
X35666Y-30431D01*
X35627Y-30372D01*
X35627Y-30372D01*
X34679Y-29425D01*
X34679Y-28717D01*
X34784Y-28821D01*
X34924Y-28879D01*
X35075Y-28880D01*
X35214Y-28822D01*
X35320Y-28717D01*
X35320Y-29750D01*
X35333Y-29818D01*
X35372Y-29877D01*
X35470Y-29974D01*
X35469Y-30055D01*
X35512Y-30158D01*
X35591Y-30237D01*
X35694Y-30279D01*
X35805Y-30280D01*
X35908Y-30237D01*
X35987Y-30158D01*
X36029Y-30055D01*
X36030Y-29944D01*
X35987Y-29841D01*
X35913Y-29767D01*
X35944Y-29779D01*
X36055Y-29780D01*
X36158Y-29737D01*
X36237Y-29658D01*
X36279Y-29555D01*
X36280Y-29474D01*
X36627Y-29127D01*
X36666Y-29068D01*
X36666Y-29068D01*
X36679Y-29000D01*
X36679Y-28717D01*
X36784Y-28821D01*
X36924Y-28879D01*
X37075Y-28880D01*
X37214Y-28822D01*
X37320Y-28717D01*
X37320Y-30425D01*
X36872Y-30872D01*
X36833Y-30931D01*
X36820Y-31000D01*
X36820Y-31163D01*
X36785Y-31177D01*
X36678Y-31284D01*
X36620Y-31424D01*
X36619Y-31575D01*
X36677Y-31714D01*
X36784Y-31821D01*
X36924Y-31879D01*
X37075Y-31880D01*
X37214Y-31822D01*
X37321Y-31715D01*
X37379Y-31575D01*
X37380Y-31424D01*
X37322Y-31285D01*
X37215Y-31178D01*
X37179Y-31163D01*
X37179Y-31074D01*
X37627Y-30627D01*
X37666Y-30568D01*
X37666Y-30568D01*
X37679Y-30500D01*
X37679Y-26500D01*
X37666Y-26431D01*
X37666Y-26431D01*
X37627Y-26372D01*
X37365Y-26111D01*
X37379Y-26075D01*
X37380Y-25924D01*
X37380Y-22924D01*
X37322Y-22785D01*
X37215Y-22678D01*
X37075Y-22620D01*
X36924Y-22619D01*
X36785Y-22677D01*
X36678Y-22784D01*
X36620Y-22924D01*
X36619Y-23075D01*
X36677Y-23214D01*
X36784Y-23321D01*
X36924Y-23379D01*
X37075Y-23380D01*
X37214Y-23322D01*
X37321Y-23215D01*
X37379Y-23075D01*
X37380Y-22924D01*
X37380Y-25924D01*
X37322Y-25785D01*
X37215Y-25678D01*
X37075Y-25620D01*
X36924Y-25619D01*
X36785Y-25677D01*
X36678Y-25784D01*
X36620Y-25924D01*
X36619Y-26075D01*
X36677Y-26214D01*
X36784Y-26321D01*
X36924Y-26379D01*
X37075Y-26380D01*
X37111Y-26365D01*
X37320Y-26574D01*
X37320Y-28282D01*
X37215Y-28178D01*
X37075Y-28120D01*
X36924Y-28119D01*
X36785Y-28177D01*
X36679Y-28282D01*
X36679Y-27500D01*
X36679Y-27216D01*
X36737Y-27158D01*
X36779Y-27055D01*
X36780Y-26944D01*
X36737Y-26841D01*
X36658Y-26762D01*
X36555Y-26720D01*
X36444Y-26719D01*
X36380Y-26746D01*
X36380Y-22924D01*
X36322Y-22785D01*
X36215Y-22678D01*
X36075Y-22620D01*
X35924Y-22619D01*
X35785Y-22677D01*
X35678Y-22784D01*
X35620Y-22924D01*
X35619Y-23075D01*
X35677Y-23214D01*
X35784Y-23321D01*
X35924Y-23379D01*
X36075Y-23380D01*
X36214Y-23322D01*
X36321Y-23215D01*
X36379Y-23075D01*
X36380Y-22924D01*
X36380Y-26746D01*
X36341Y-26762D01*
X36262Y-26841D01*
X36220Y-26944D01*
X36219Y-27055D01*
X36262Y-27158D01*
X36320Y-27216D01*
X36320Y-27500D01*
X36320Y-28282D01*
X36215Y-28178D01*
X36075Y-28120D01*
X35924Y-28119D01*
X35785Y-28177D01*
X35679Y-28282D01*
X35679Y-23500D01*
X35666Y-23431D01*
X35666Y-23431D01*
X35627Y-23372D01*
X35365Y-23111D01*
X35379Y-23075D01*
X35380Y-22924D01*
X35322Y-22785D01*
X35215Y-22678D01*
X35075Y-22620D01*
X34924Y-22619D01*
X34785Y-22677D01*
X34678Y-22784D01*
X34620Y-22924D01*
X34619Y-23075D01*
X34677Y-23214D01*
X34784Y-23321D01*
X34924Y-23379D01*
X35075Y-23380D01*
X35111Y-23365D01*
X35320Y-23574D01*
X35320Y-25782D01*
X35215Y-25678D01*
X35075Y-25620D01*
X34924Y-25619D01*
X34785Y-25677D01*
X34679Y-25782D01*
X34679Y-23500D01*
X34666Y-23431D01*
X34666Y-23431D01*
X34627Y-23372D01*
X34365Y-23111D01*
X34379Y-23075D01*
X34380Y-22924D01*
X34322Y-22785D01*
X34215Y-22678D01*
X34075Y-22620D01*
X33924Y-22619D01*
X33785Y-22677D01*
X33678Y-22784D01*
X33620Y-22924D01*
X33619Y-23075D01*
X33677Y-23214D01*
X33784Y-23321D01*
X33924Y-23379D01*
X34075Y-23380D01*
X34111Y-23365D01*
X34320Y-23574D01*
X34320Y-25782D01*
X34215Y-25678D01*
X34075Y-25620D01*
X33924Y-25619D01*
X33785Y-25677D01*
X33679Y-25782D01*
X33679Y-23500D01*
X33666Y-23431D01*
X33666Y-23431D01*
X33627Y-23372D01*
X33365Y-23111D01*
X33379Y-23075D01*
X33380Y-22924D01*
X33322Y-22785D01*
X33215Y-22678D01*
X33075Y-22620D01*
X32924Y-22619D01*
X32785Y-22677D01*
X32678Y-22784D01*
X32620Y-22924D01*
X32619Y-23075D01*
X32677Y-23214D01*
X32784Y-23321D01*
X32924Y-23379D01*
X33075Y-23380D01*
X33111Y-23365D01*
X33320Y-23574D01*
X33320Y-25782D01*
X33215Y-25678D01*
X33075Y-25620D01*
X32924Y-25619D01*
X32785Y-25677D01*
X32678Y-25784D01*
X32620Y-25924D01*
X32619Y-26075D01*
X32677Y-26214D01*
X32784Y-26321D01*
X32924Y-26379D01*
X33075Y-26380D01*
X33214Y-26322D01*
X33320Y-26217D01*
X33320Y-28282D01*
X33215Y-28178D01*
X33075Y-28120D01*
X32924Y-28119D01*
X32785Y-28177D01*
X32678Y-28284D01*
X32620Y-28424D01*
X32619Y-28575D01*
X32677Y-28714D01*
X32784Y-28821D01*
X32924Y-28879D01*
X33075Y-28880D01*
X33214Y-28822D01*
X33320Y-28717D01*
X33320Y-31282D01*
X33215Y-31178D01*
X33075Y-31120D01*
X32924Y-31119D01*
X32785Y-31177D01*
X32679Y-31282D01*
X32679Y-29750D01*
X32666Y-29681D01*
X32666Y-29681D01*
X32627Y-29622D01*
X32179Y-29175D01*
X32179Y-28836D01*
X32214Y-28822D01*
X32321Y-28715D01*
X32379Y-28575D01*
X32380Y-28424D01*
X32322Y-28285D01*
X32215Y-28178D01*
X32075Y-28120D01*
X31924Y-28119D01*
X31785Y-28177D01*
X31679Y-28282D01*
X31679Y-26217D01*
X31784Y-26321D01*
X31924Y-26379D01*
X32075Y-26380D01*
X32214Y-26322D01*
X32321Y-26215D01*
X32379Y-26075D01*
X32380Y-25924D01*
X32322Y-25785D01*
X32215Y-25678D01*
X32075Y-25620D01*
X31924Y-25619D01*
X31785Y-25677D01*
X31679Y-25782D01*
X31679Y-24574D01*
X32127Y-24127D01*
X32166Y-24068D01*
X32166Y-24068D01*
X32179Y-24000D01*
X32179Y-23336D01*
X32214Y-23322D01*
X32321Y-23215D01*
X32379Y-23075D01*
X32380Y-22924D01*
X32322Y-22785D01*
X32215Y-22678D01*
X32075Y-22620D01*
X31924Y-22619D01*
X31785Y-22677D01*
X31678Y-22784D01*
X31620Y-22924D01*
X31619Y-23075D01*
X31677Y-23214D01*
X31784Y-23321D01*
X31820Y-23336D01*
X31820Y-23925D01*
X31372Y-24372D01*
X31333Y-24431D01*
X31320Y-24500D01*
X31320Y-25782D01*
X31215Y-25678D01*
X31075Y-25620D01*
X30924Y-25619D01*
X30785Y-25677D01*
X30679Y-25782D01*
X30679Y-23574D01*
X30888Y-23365D01*
X30924Y-23379D01*
X31075Y-23380D01*
X31214Y-23322D01*
X31321Y-23215D01*
X31379Y-23075D01*
X31380Y-22924D01*
X31322Y-22785D01*
X31215Y-22678D01*
X31075Y-22620D01*
X30924Y-22619D01*
X30785Y-22677D01*
X30678Y-22784D01*
X30620Y-22924D01*
X30619Y-23075D01*
X30634Y-23111D01*
X30380Y-23365D01*
X30380Y-22924D01*
X30322Y-22785D01*
X30215Y-22678D01*
X30075Y-22620D01*
X29924Y-22619D01*
X29785Y-22677D01*
X29678Y-22784D01*
X29620Y-22924D01*
X29619Y-23075D01*
X29677Y-23214D01*
X29784Y-23321D01*
X29924Y-23379D01*
X30075Y-23380D01*
X30214Y-23322D01*
X30321Y-23215D01*
X30379Y-23075D01*
X30380Y-22924D01*
X30380Y-23365D01*
X30372Y-23372D01*
X30333Y-23431D01*
X30320Y-23500D01*
X30320Y-25630D01*
X30295Y-25620D01*
X30254Y-25619D01*
X30179Y-25619D01*
X30179Y-24750D01*
X30166Y-24681D01*
X30127Y-24622D01*
X30127Y-24622D01*
X30029Y-24525D01*
X30030Y-24444D01*
X29987Y-24341D01*
X29908Y-24262D01*
X29805Y-24220D01*
X29694Y-24219D01*
X29591Y-24262D01*
X29512Y-24341D01*
X29470Y-24444D01*
X29469Y-24555D01*
X29512Y-24658D01*
X29591Y-24737D01*
X29694Y-24779D01*
X29775Y-24780D01*
X29820Y-24824D01*
X29820Y-25619D01*
X29704Y-25619D01*
X29665Y-25635D01*
X29636Y-25665D01*
X29620Y-25704D01*
X29619Y-25745D01*
X29619Y-26295D01*
X29635Y-26334D01*
X29665Y-26363D01*
X29704Y-26379D01*
X29745Y-26380D01*
X30295Y-26380D01*
X30320Y-26369D01*
X30320Y-26425D01*
X30025Y-26720D01*
X29944Y-26719D01*
X29841Y-26762D01*
X29762Y-26841D01*
X29720Y-26944D01*
X29719Y-27055D01*
X29762Y-27158D01*
X29841Y-27237D01*
X29944Y-27279D01*
X30055Y-27280D01*
X30158Y-27237D01*
X30237Y-27158D01*
X30279Y-27055D01*
X30280Y-26974D01*
X30627Y-26627D01*
X30666Y-26568D01*
X30666Y-26568D01*
X30679Y-26500D01*
X30679Y-26217D01*
X30784Y-26321D01*
X30924Y-26379D01*
X31075Y-26380D01*
X31214Y-26322D01*
X31320Y-26217D01*
X31320Y-28282D01*
X31215Y-28178D01*
X31075Y-28120D01*
X30924Y-28119D01*
X30785Y-28177D01*
X30678Y-28284D01*
X30620Y-28424D01*
X30619Y-28575D01*
X30677Y-28714D01*
X30784Y-28821D01*
X30924Y-28879D01*
X31075Y-28880D01*
X31214Y-28822D01*
X31320Y-28717D01*
X31320Y-31282D01*
X31215Y-31178D01*
X31075Y-31120D01*
X30924Y-31119D01*
X30785Y-31177D01*
X30679Y-31282D01*
X30679Y-30000D01*
X30666Y-29931D01*
X30666Y-29931D01*
X30627Y-29872D01*
X30179Y-29425D01*
X30179Y-28836D01*
X30214Y-28822D01*
X30321Y-28715D01*
X30379Y-28575D01*
X30380Y-28424D01*
X30322Y-28285D01*
X30215Y-28178D01*
X30075Y-28120D01*
X29924Y-28119D01*
X29785Y-28177D01*
X29678Y-28284D01*
X29620Y-28424D01*
X29619Y-28575D01*
X29677Y-28714D01*
X29784Y-28821D01*
X29820Y-28836D01*
X29820Y-29500D01*
X29833Y-29568D01*
X29872Y-29627D01*
X30320Y-30074D01*
X30320Y-31130D01*
X30295Y-31120D01*
X30254Y-31119D01*
X29704Y-31119D01*
X29665Y-31135D01*
X29636Y-31165D01*
X29620Y-31204D01*
X29619Y-31245D01*
X29619Y-31795D01*
X29635Y-31834D01*
X29665Y-31863D01*
X29704Y-31879D01*
X29745Y-31880D01*
X30295Y-31880D01*
X30320Y-31869D01*
X30320Y-34925D01*
X30275Y-34970D01*
X30194Y-34969D01*
X30091Y-35012D01*
X30012Y-35091D01*
X29970Y-35194D01*
X29969Y-35305D01*
X30012Y-35408D01*
X30091Y-35487D01*
X30194Y-35529D01*
X30305Y-35530D01*
X30408Y-35487D01*
X30487Y-35408D01*
X30529Y-35305D01*
X30530Y-35224D01*
X30627Y-35127D01*
X30627Y-35127D01*
X30627Y-35127D01*
X30666Y-35068D01*
X30679Y-35000D01*
X30679Y-31717D01*
X30784Y-31821D01*
X30924Y-31879D01*
X31075Y-31880D01*
X31214Y-31822D01*
X31320Y-31717D01*
X31320Y-35500D01*
X31320Y-36750D01*
X31333Y-36818D01*
X31372Y-36877D01*
X31720Y-37224D01*
X31719Y-37305D01*
X31762Y-37408D01*
X31841Y-37487D01*
X31944Y-37529D01*
X32055Y-37530D01*
X32158Y-37487D01*
X32237Y-37408D01*
X32279Y-37305D01*
X32280Y-37194D01*
X32237Y-37091D01*
X32158Y-37012D01*
X32055Y-36970D01*
X31974Y-36969D01*
X31679Y-36675D01*
X31679Y-35500D01*
X31679Y-31717D01*
X31784Y-31821D01*
X31924Y-31879D01*
X32075Y-31880D01*
X32214Y-31822D01*
X32320Y-31717D01*
X32320Y-34500D01*
X32333Y-34568D01*
X32372Y-34627D01*
X32970Y-35224D01*
X32969Y-35305D01*
X33012Y-35408D01*
X33091Y-35487D01*
X33194Y-35529D01*
X33305Y-35530D01*
X33408Y-35487D01*
X33487Y-35408D01*
X33529Y-35305D01*
X33529Y-35284D01*
X33570Y-35324D01*
X33570Y-37033D01*
X33512Y-37091D01*
X33470Y-37194D01*
X33469Y-37305D01*
X33512Y-37408D01*
X33591Y-37487D01*
X33694Y-37529D01*
X33805Y-37530D01*
X33908Y-37487D01*
X33987Y-37408D01*
X34029Y-37305D01*
X34030Y-37194D01*
X33987Y-37091D01*
X33929Y-37033D01*
X33929Y-35250D01*
X33916Y-35181D01*
X33916Y-35181D01*
X33894Y-35148D01*
X35970Y-37224D01*
X35969Y-37305D01*
X36012Y-37408D01*
X36091Y-37487D01*
X36194Y-37529D01*
X36305Y-37530D01*
X36408Y-37487D01*
X36487Y-37408D01*
X36529Y-37305D01*
X36530Y-37194D01*
X36487Y-37091D01*
X36408Y-37012D01*
X36305Y-36970D01*
X36224Y-36969D01*
X33679Y-34425D01*
X33679Y-31717D01*
X33784Y-31821D01*
X33924Y-31879D01*
X34075Y-31880D01*
X34214Y-31822D01*
X34320Y-31717D01*
X34320Y-33500D01*
X34333Y-33568D01*
X34372Y-33627D01*
X35970Y-35224D01*
X35969Y-35305D01*
X36012Y-35408D01*
X36091Y-35487D01*
X36194Y-35529D01*
X36305Y-35530D01*
X36408Y-35487D01*
X36487Y-35408D01*
X36529Y-35305D01*
X36530Y-35194D01*
X36487Y-35091D01*
X36408Y-35012D01*
X36305Y-34970D01*
X36224Y-34969D01*
X36148Y-34894D01*
X36181Y-34916D01*
X36181Y-34916D01*
X36250Y-34929D01*
X36675Y-34929D01*
X36872Y-35127D01*
X36872Y-35127D01*
X36931Y-35166D01*
X37000Y-35179D01*
X37925Y-35179D01*
X38470Y-35724D01*
X38469Y-35805D01*
X38512Y-35908D01*
X38591Y-35987D01*
X38694Y-36029D01*
X38805Y-36030D01*
X38908Y-35987D01*
X38987Y-35908D01*
X39029Y-35805D01*
X39030Y-35694D01*
X38987Y-35591D01*
X38908Y-35512D01*
X38805Y-35470D01*
X38724Y-35469D01*
X38127Y-34872D01*
X38068Y-34833D01*
X38000Y-34820D01*
X37074Y-34820D01*
X36877Y-34622D01*
X36818Y-34583D01*
X36750Y-34570D01*
X36324Y-34570D01*
X35179Y-33425D01*
X35179Y-32750D01*
X35179Y-32466D01*
X35237Y-32408D01*
X35279Y-32305D01*
X35280Y-32194D01*
X35237Y-32091D01*
X35158Y-32012D01*
X35055Y-31970D01*
X34944Y-31969D01*
X34841Y-32012D01*
X34762Y-32091D01*
X34720Y-32194D01*
X34719Y-32305D01*
X34762Y-32408D01*
X34820Y-32466D01*
X34820Y-32750D01*
X34820Y-33500D01*
X34833Y-33568D01*
X34855Y-33601D01*
X34679Y-33425D01*
X34679Y-31717D01*
X34784Y-31821D01*
X34924Y-31879D01*
X35075Y-31880D01*
X35214Y-31822D01*
X35320Y-31717D01*
X35320Y-33000D01*
X35333Y-33068D01*
X35372Y-33127D01*
X36372Y-34127D01*
X36372Y-34127D01*
X36431Y-34166D01*
X36500Y-34179D01*
X37925Y-34179D01*
X39070Y-35324D01*
X39070Y-36283D01*
X39012Y-36341D01*
X38970Y-36444D01*
X38969Y-36555D01*
X39012Y-36658D01*
X39091Y-36737D01*
X39194Y-36779D01*
X39305Y-36780D01*
X39408Y-36737D01*
X39487Y-36658D01*
X39529Y-36555D01*
X39530Y-36444D01*
X39530Y-38471D01*
X31280Y-38471D01*
X31280Y-32194D01*
X31237Y-32091D01*
X31158Y-32012D01*
X31055Y-31970D01*
X30944Y-31969D01*
X30841Y-32012D01*
X30762Y-32091D01*
X30720Y-32194D01*
X30719Y-32305D01*
X30762Y-32408D01*
X30820Y-32466D01*
X30820Y-33000D01*
X30820Y-36675D01*
X30525Y-36970D01*
X30444Y-36969D01*
X30341Y-37012D01*
X30262Y-37091D01*
X30220Y-37194D01*
X30219Y-37305D01*
X30262Y-37408D01*
X30341Y-37487D01*
X30444Y-37529D01*
X30555Y-37530D01*
X30658Y-37487D01*
X30737Y-37408D01*
X30779Y-37305D01*
X30780Y-37224D01*
X31127Y-36877D01*
X31166Y-36818D01*
X31166Y-36818D01*
X31179Y-36750D01*
X31179Y-33000D01*
X31179Y-32466D01*
X31237Y-32408D01*
X31279Y-32305D01*
X31280Y-32194D01*
X31280Y-38471D01*
X24955Y-38471D01*
X24955Y-34409D01*
X24955Y-34409D01*
X24955Y-32829D01*
X24955Y-32129D01*
X24939Y-32090D01*
X24909Y-32061D01*
X24870Y-32045D01*
X24829Y-32044D01*
X24450Y-32044D01*
X24450Y-30424D01*
X24450Y-28534D01*
X24434Y-28495D01*
X24404Y-28466D01*
X24365Y-28450D01*
X24324Y-28449D01*
X23905Y-28449D01*
X23905Y-24419D01*
X23843Y-24270D01*
X23729Y-24156D01*
X23580Y-24095D01*
X23419Y-24094D01*
X23270Y-24156D01*
X23156Y-24270D01*
X23095Y-24419D01*
X23094Y-24580D01*
X23156Y-24729D01*
X23270Y-24843D01*
X23419Y-24904D01*
X23580Y-24905D01*
X23729Y-24843D01*
X23843Y-24729D01*
X23904Y-24580D01*
X23905Y-24419D01*
X23905Y-28449D01*
X22434Y-28449D01*
X22395Y-28465D01*
X22366Y-28495D01*
X22350Y-28534D01*
X22349Y-28575D01*
X22349Y-30465D01*
X22365Y-30504D01*
X22395Y-30533D01*
X22434Y-30549D01*
X22475Y-30550D01*
X24365Y-30550D01*
X24404Y-30534D01*
X24433Y-30504D01*
X24449Y-30465D01*
X24450Y-30424D01*
X24450Y-32044D01*
X24129Y-32044D01*
X24090Y-32060D01*
X24061Y-32090D01*
X24045Y-32129D01*
X24044Y-32170D01*
X24044Y-32870D01*
X24060Y-32909D01*
X24090Y-32938D01*
X24129Y-32954D01*
X24170Y-32955D01*
X24870Y-32955D01*
X24909Y-32939D01*
X24938Y-32909D01*
X24954Y-32870D01*
X24955Y-32829D01*
X24955Y-34409D01*
X24885Y-34242D01*
X24758Y-34114D01*
X24590Y-34045D01*
X24409Y-34044D01*
X24242Y-34114D01*
X24114Y-34241D01*
X24045Y-34409D01*
X24044Y-34590D01*
X24114Y-34757D01*
X24241Y-34885D01*
X24409Y-34954D01*
X24590Y-34955D01*
X24757Y-34885D01*
X24885Y-34758D01*
X24954Y-34590D01*
X24955Y-34409D01*
X24955Y-38471D01*
X22950Y-38471D01*
X22950Y-31292D01*
X22790Y-30906D01*
X22495Y-30610D01*
X22109Y-30450D01*
X22050Y-30450D01*
X22050Y-29292D01*
X21890Y-28906D01*
X21595Y-28610D01*
X21209Y-28450D01*
X21207Y-28450D01*
X21207Y-21260D01*
X21024Y-20816D01*
X20684Y-20476D01*
X20241Y-20292D01*
X19760Y-20292D01*
X19316Y-20475D01*
X18976Y-20815D01*
X18792Y-21258D01*
X18792Y-21739D01*
X18975Y-22183D01*
X19315Y-22523D01*
X19758Y-22707D01*
X20239Y-22707D01*
X20683Y-22524D01*
X21023Y-22184D01*
X21207Y-21741D01*
X21207Y-21260D01*
X21207Y-28450D01*
X20792Y-28449D01*
X20406Y-28609D01*
X20110Y-28904D01*
X19950Y-29290D01*
X19949Y-29707D01*
X20109Y-30094D01*
X20404Y-30389D01*
X20790Y-30549D01*
X21207Y-30550D01*
X21594Y-30390D01*
X21889Y-30095D01*
X22049Y-29709D01*
X22050Y-29292D01*
X22050Y-30450D01*
X21692Y-30449D01*
X21306Y-30609D01*
X21010Y-30904D01*
X20850Y-31290D01*
X20849Y-31707D01*
X21009Y-32094D01*
X21304Y-32389D01*
X21690Y-32549D01*
X22107Y-32550D01*
X22494Y-32390D01*
X22789Y-32095D01*
X22949Y-31709D01*
X22950Y-31292D01*
X22950Y-38471D01*
X21207Y-38471D01*
X21207Y-36260D01*
X21024Y-35816D01*
X20684Y-35476D01*
X20241Y-35292D01*
X19760Y-35292D01*
X19316Y-35475D01*
X18976Y-35815D01*
X18792Y-36258D01*
X18792Y-36739D01*
X18975Y-37183D01*
X19315Y-37523D01*
X19758Y-37707D01*
X20239Y-37707D01*
X20683Y-37524D01*
X21023Y-37184D01*
X21207Y-36741D01*
X21207Y-36260D01*
X21207Y-38471D01*
X18028Y-38471D01*
X18028Y-19528D01*
X56971Y-19528D01*
X56971Y-38471D01*
M02*
