G04 (created by PCBNEW (2013-07-07 BZR 4022)-stable) date 11.07.2015 20:55:56*
%MOIN*%
G04 Gerber Fmt 3.4, Leading zero omitted, Abs format*
%FSLAX34Y34*%
G01*
G70*
G90*
G04 APERTURE LIST*
%ADD10C,0.00590551*%
%ADD11C,0.005*%
%ADD12C,0.0039*%
%ADD13C,0.0047*%
%ADD14C,0.006*%
%ADD15C,0.00606299*%
%ADD16C,0.0031*%
%ADD17C,0.0043*%
%ADD18C,0.0045*%
%ADD19C,0.00875*%
%ADD20C,0.012*%
G04 APERTURE END LIST*
G54D10*
G54D11*
X21120Y-22900D02*
G75*
G03X21120Y-22900I-70J0D01*
G74*
G01*
X21700Y-21750D02*
X21100Y-21750D01*
X21100Y-21750D02*
X21100Y-22850D01*
X21100Y-22850D02*
X21700Y-22850D01*
X22300Y-22850D02*
X22900Y-22850D01*
X22900Y-22850D02*
X22900Y-21750D01*
X22900Y-21750D02*
X22300Y-21750D01*
G54D12*
X23200Y-21250D02*
G75*
G03X23200Y-21250I-50J0D01*
G74*
G01*
X23150Y-21700D02*
X23150Y-21300D01*
X23150Y-21300D02*
X23750Y-21300D01*
X23750Y-21300D02*
X23750Y-21700D01*
X23750Y-22100D02*
X23750Y-22500D01*
X23750Y-22500D02*
X23150Y-22500D01*
X23150Y-22500D02*
X23150Y-22100D01*
G54D13*
X22547Y-21656D02*
X22822Y-21656D01*
X22153Y-21656D02*
X21878Y-21656D01*
X22547Y-21144D02*
X22822Y-21144D01*
X21878Y-21144D02*
X22153Y-21144D01*
X22822Y-21150D02*
X22822Y-21650D01*
X21878Y-21650D02*
X21878Y-21150D01*
X21294Y-20647D02*
X21294Y-20922D01*
X21294Y-20253D02*
X21294Y-19978D01*
X21806Y-20647D02*
X21806Y-20922D01*
X21806Y-19978D02*
X21806Y-20253D01*
X21800Y-20922D02*
X21300Y-20922D01*
X21300Y-19978D02*
X21800Y-19978D01*
G54D14*
X21000Y-25500D02*
X21000Y-24500D01*
X21000Y-24500D02*
X24000Y-24500D01*
X24000Y-24500D02*
X24000Y-25500D01*
X24000Y-25500D02*
X21000Y-25500D01*
X22000Y-24500D02*
X22000Y-25500D01*
G54D15*
X23920Y-21050D02*
G75*
G03X23920Y-21050I-70J0D01*
G74*
G01*
X23750Y-21000D02*
X23750Y-19732D01*
X23750Y-19732D02*
X22187Y-19732D01*
X22187Y-19732D02*
X22187Y-21000D01*
X22187Y-21000D02*
X23750Y-21000D01*
G54D16*
X23675Y-23562D02*
G75*
G03X23675Y-23562I-62J0D01*
G74*
G01*
X22650Y-23900D02*
X22650Y-23500D01*
X23675Y-23900D02*
X23675Y-23500D01*
X22650Y-23500D02*
X23675Y-23500D01*
X23675Y-23900D02*
X22650Y-23900D01*
X22325Y-23562D02*
G75*
G03X22325Y-23562I-62J0D01*
G74*
G01*
X21300Y-23900D02*
X21300Y-23500D01*
X22325Y-23900D02*
X22325Y-23500D01*
X21300Y-23500D02*
X22325Y-23500D01*
X22325Y-23900D02*
X21300Y-23900D01*
G54D11*
X22142Y-22350D02*
X22157Y-22364D01*
X22171Y-22407D01*
X22171Y-22435D01*
X22157Y-22478D01*
X22128Y-22507D01*
X22100Y-22521D01*
X22042Y-22535D01*
X22000Y-22535D01*
X21942Y-22521D01*
X21914Y-22507D01*
X21885Y-22478D01*
X21871Y-22435D01*
X21871Y-22407D01*
X21885Y-22364D01*
X21900Y-22350D01*
X21971Y-22092D02*
X22171Y-22092D01*
X21857Y-22164D02*
X22071Y-22235D01*
X22071Y-22050D01*
X20921Y-22621D02*
X20921Y-22792D01*
X20921Y-22707D02*
X20621Y-22707D01*
X20664Y-22735D01*
X20692Y-22764D01*
X20707Y-22792D01*
X20621Y-22435D02*
X20621Y-22407D01*
X20635Y-22378D01*
X20650Y-22364D01*
X20678Y-22350D01*
X20735Y-22335D01*
X20807Y-22335D01*
X20864Y-22350D01*
X20892Y-22364D01*
X20907Y-22378D01*
X20921Y-22407D01*
X20921Y-22435D01*
X20907Y-22464D01*
X20892Y-22478D01*
X20864Y-22492D01*
X20807Y-22507D01*
X20735Y-22507D01*
X20678Y-22492D01*
X20650Y-22478D01*
X20635Y-22464D01*
X20621Y-22435D01*
X20721Y-22078D02*
X20921Y-22078D01*
X20721Y-22207D02*
X20878Y-22207D01*
X20907Y-22192D01*
X20921Y-22164D01*
X20921Y-22121D01*
X20907Y-22092D01*
X20892Y-22078D01*
X20764Y-21835D02*
X20764Y-21935D01*
X20921Y-21935D02*
X20621Y-21935D01*
X20621Y-21792D01*
G54D17*
X23417Y-22010D02*
X23407Y-22020D01*
X23379Y-22029D01*
X23360Y-22029D01*
X23332Y-22020D01*
X23313Y-22001D01*
X23304Y-21982D01*
X23295Y-21945D01*
X23295Y-21917D01*
X23304Y-21879D01*
X23313Y-21860D01*
X23332Y-21842D01*
X23360Y-21832D01*
X23379Y-21832D01*
X23407Y-21842D01*
X23417Y-21851D01*
X23604Y-22029D02*
X23492Y-22029D01*
X23548Y-22029D02*
X23548Y-21832D01*
X23529Y-21860D01*
X23510Y-21879D01*
X23492Y-21889D01*
X24279Y-22017D02*
X24279Y-22129D01*
X24279Y-22073D02*
X24082Y-22073D01*
X24110Y-22092D01*
X24129Y-22111D01*
X24139Y-22129D01*
X24148Y-21848D02*
X24279Y-21848D01*
X24148Y-21932D02*
X24251Y-21932D01*
X24270Y-21923D01*
X24279Y-21904D01*
X24279Y-21876D01*
X24270Y-21857D01*
X24260Y-21848D01*
X24176Y-21688D02*
X24176Y-21754D01*
X24279Y-21754D02*
X24082Y-21754D01*
X24082Y-21660D01*
G54D18*
X22411Y-21430D02*
X22421Y-21438D01*
X22430Y-21464D01*
X22430Y-21481D01*
X22421Y-21507D01*
X22402Y-21524D01*
X22383Y-21532D01*
X22345Y-21541D01*
X22316Y-21541D01*
X22278Y-21532D01*
X22259Y-21524D01*
X22240Y-21507D01*
X22230Y-21481D01*
X22230Y-21464D01*
X22240Y-21438D01*
X22250Y-21430D01*
X22250Y-21361D02*
X22240Y-21352D01*
X22230Y-21335D01*
X22230Y-21292D01*
X22240Y-21275D01*
X22250Y-21267D01*
X22269Y-21258D01*
X22288Y-21258D01*
X22316Y-21267D01*
X22430Y-21370D01*
X22430Y-21258D01*
X20930Y-21592D02*
X20930Y-21695D01*
X20930Y-21644D02*
X20730Y-21644D01*
X20759Y-21661D01*
X20778Y-21678D01*
X20788Y-21695D01*
X20730Y-21481D02*
X20730Y-21464D01*
X20740Y-21447D01*
X20750Y-21438D01*
X20769Y-21430D01*
X20807Y-21421D01*
X20854Y-21421D01*
X20892Y-21430D01*
X20911Y-21438D01*
X20921Y-21447D01*
X20930Y-21464D01*
X20930Y-21481D01*
X20921Y-21498D01*
X20911Y-21507D01*
X20892Y-21515D01*
X20854Y-21524D01*
X20807Y-21524D01*
X20769Y-21515D01*
X20750Y-21507D01*
X20740Y-21498D01*
X20730Y-21481D01*
X20797Y-21344D02*
X20930Y-21344D01*
X20816Y-21344D02*
X20807Y-21335D01*
X20797Y-21318D01*
X20797Y-21292D01*
X20807Y-21275D01*
X20826Y-21267D01*
X20930Y-21267D01*
X20826Y-21121D02*
X20826Y-21181D01*
X20930Y-21181D02*
X20730Y-21181D01*
X20730Y-21095D01*
X21520Y-20511D02*
X21511Y-20521D01*
X21485Y-20530D01*
X21468Y-20530D01*
X21442Y-20521D01*
X21425Y-20502D01*
X21417Y-20483D01*
X21408Y-20445D01*
X21408Y-20416D01*
X21417Y-20378D01*
X21425Y-20359D01*
X21442Y-20340D01*
X21468Y-20330D01*
X21485Y-20330D01*
X21511Y-20340D01*
X21520Y-20350D01*
X21580Y-20330D02*
X21691Y-20330D01*
X21631Y-20407D01*
X21657Y-20407D01*
X21674Y-20416D01*
X21682Y-20426D01*
X21691Y-20445D01*
X21691Y-20492D01*
X21682Y-20511D01*
X21674Y-20521D01*
X21657Y-20530D01*
X21605Y-20530D01*
X21588Y-20521D01*
X21580Y-20511D01*
X20930Y-20542D02*
X20930Y-20645D01*
X20930Y-20594D02*
X20730Y-20594D01*
X20759Y-20611D01*
X20778Y-20628D01*
X20788Y-20645D01*
X20730Y-20431D02*
X20730Y-20414D01*
X20740Y-20397D01*
X20750Y-20388D01*
X20769Y-20380D01*
X20807Y-20371D01*
X20854Y-20371D01*
X20892Y-20380D01*
X20911Y-20388D01*
X20921Y-20397D01*
X20930Y-20414D01*
X20930Y-20431D01*
X20921Y-20448D01*
X20911Y-20457D01*
X20892Y-20465D01*
X20854Y-20474D01*
X20807Y-20474D01*
X20769Y-20465D01*
X20750Y-20457D01*
X20740Y-20448D01*
X20730Y-20431D01*
X20797Y-20294D02*
X20930Y-20294D01*
X20816Y-20294D02*
X20807Y-20285D01*
X20797Y-20268D01*
X20797Y-20242D01*
X20807Y-20225D01*
X20826Y-20217D01*
X20930Y-20217D01*
X20826Y-20071D02*
X20826Y-20131D01*
X20930Y-20131D02*
X20730Y-20131D01*
X20730Y-20045D01*
G54D14*
X22204Y-26111D02*
X22204Y-25711D01*
X22433Y-26111D02*
X22261Y-25883D01*
X22433Y-25711D02*
X22204Y-25940D01*
X22814Y-26111D02*
X22585Y-26111D01*
X22700Y-26111D02*
X22700Y-25711D01*
X22661Y-25769D01*
X22623Y-25807D01*
X22585Y-25826D01*
G54D15*
X23111Y-20619D02*
X22835Y-20619D01*
X23085Y-20330D02*
X23098Y-20343D01*
X23111Y-20382D01*
X23111Y-20409D01*
X23098Y-20448D01*
X23072Y-20474D01*
X23045Y-20487D01*
X22993Y-20500D01*
X22954Y-20500D01*
X22901Y-20487D01*
X22875Y-20474D01*
X22849Y-20448D01*
X22835Y-20409D01*
X22835Y-20382D01*
X22849Y-20343D01*
X22862Y-20330D01*
X23111Y-20067D02*
X23111Y-20225D01*
X23111Y-20146D02*
X22835Y-20146D01*
X22875Y-20172D01*
X22901Y-20199D01*
X22914Y-20225D01*
G54D19*
X21525Y-18941D02*
X21358Y-18941D01*
X21358Y-18591D01*
X21591Y-18591D02*
X21791Y-18591D01*
X21691Y-18941D02*
X21691Y-18591D01*
X21875Y-18591D02*
X22091Y-18591D01*
X21975Y-18725D01*
X22025Y-18725D01*
X22058Y-18741D01*
X22075Y-18758D01*
X22091Y-18791D01*
X22091Y-18875D01*
X22075Y-18908D01*
X22058Y-18925D01*
X22025Y-18941D01*
X21925Y-18941D01*
X21891Y-18925D01*
X21875Y-18908D01*
X22308Y-18591D02*
X22341Y-18591D01*
X22375Y-18608D01*
X22391Y-18625D01*
X22408Y-18658D01*
X22425Y-18725D01*
X22425Y-18808D01*
X22408Y-18875D01*
X22391Y-18908D01*
X22375Y-18925D01*
X22341Y-18941D01*
X22308Y-18941D01*
X22275Y-18925D01*
X22258Y-18908D01*
X22241Y-18875D01*
X22225Y-18808D01*
X22225Y-18725D01*
X22241Y-18658D01*
X22258Y-18625D01*
X22275Y-18608D01*
X22308Y-18591D01*
X22725Y-18591D02*
X22658Y-18591D01*
X22625Y-18608D01*
X22608Y-18625D01*
X22575Y-18675D01*
X22558Y-18741D01*
X22558Y-18875D01*
X22575Y-18908D01*
X22591Y-18925D01*
X22625Y-18941D01*
X22691Y-18941D01*
X22725Y-18925D01*
X22741Y-18908D01*
X22758Y-18875D01*
X22758Y-18791D01*
X22741Y-18758D01*
X22725Y-18741D01*
X22691Y-18725D01*
X22625Y-18725D01*
X22591Y-18741D01*
X22575Y-18758D01*
X22558Y-18791D01*
X22975Y-18591D02*
X23008Y-18591D01*
X23041Y-18608D01*
X23058Y-18625D01*
X23075Y-18658D01*
X23091Y-18725D01*
X23091Y-18808D01*
X23075Y-18875D01*
X23058Y-18908D01*
X23041Y-18925D01*
X23008Y-18941D01*
X22975Y-18941D01*
X22941Y-18925D01*
X22925Y-18908D01*
X22908Y-18875D01*
X22891Y-18808D01*
X22891Y-18725D01*
X22908Y-18658D01*
X22925Y-18625D01*
X22941Y-18608D01*
X22975Y-18591D01*
X23241Y-18808D02*
X23508Y-18808D01*
X23625Y-18591D02*
X23825Y-18591D01*
X23725Y-18941D02*
X23725Y-18591D01*
X23925Y-18925D02*
X23975Y-18941D01*
X24058Y-18941D01*
X24091Y-18925D01*
X24108Y-18908D01*
X24125Y-18875D01*
X24125Y-18841D01*
X24108Y-18808D01*
X24091Y-18791D01*
X24058Y-18775D01*
X23991Y-18758D01*
X23958Y-18741D01*
X23941Y-18725D01*
X23925Y-18691D01*
X23925Y-18658D01*
X23941Y-18625D01*
X23958Y-18608D01*
X23991Y-18591D01*
X24075Y-18591D01*
X24125Y-18608D01*
X24341Y-18591D02*
X24408Y-18591D01*
X24441Y-18608D01*
X24475Y-18641D01*
X24491Y-18708D01*
X24491Y-18825D01*
X24475Y-18891D01*
X24441Y-18925D01*
X24408Y-18941D01*
X24341Y-18941D01*
X24308Y-18925D01*
X24275Y-18891D01*
X24258Y-18825D01*
X24258Y-18708D01*
X24275Y-18641D01*
X24308Y-18608D01*
X24341Y-18591D01*
X24591Y-18591D02*
X24791Y-18591D01*
X24691Y-18941D02*
X24691Y-18591D01*
G54D20*
G54D13*
X22928Y-23821D02*
X22928Y-23521D01*
X23000Y-23521D01*
X23042Y-23535D01*
X23071Y-23564D01*
X23085Y-23592D01*
X23100Y-23650D01*
X23100Y-23692D01*
X23085Y-23750D01*
X23071Y-23778D01*
X23042Y-23807D01*
X23000Y-23821D01*
X22928Y-23821D01*
X23214Y-23550D02*
X23228Y-23535D01*
X23257Y-23521D01*
X23328Y-23521D01*
X23357Y-23535D01*
X23371Y-23550D01*
X23385Y-23578D01*
X23385Y-23607D01*
X23371Y-23650D01*
X23200Y-23821D01*
X23385Y-23821D01*
G54D12*
X24416Y-23582D02*
X24529Y-23582D01*
X24473Y-23779D02*
X24473Y-23582D01*
X24566Y-23582D02*
X24632Y-23779D01*
X24698Y-23582D01*
X24754Y-23770D02*
X24782Y-23779D01*
X24829Y-23779D01*
X24848Y-23770D01*
X24857Y-23760D01*
X24867Y-23742D01*
X24867Y-23723D01*
X24857Y-23704D01*
X24848Y-23695D01*
X24829Y-23685D01*
X24792Y-23676D01*
X24773Y-23667D01*
X24763Y-23657D01*
X24754Y-23639D01*
X24754Y-23620D01*
X24763Y-23601D01*
X24773Y-23592D01*
X24792Y-23582D01*
X24838Y-23582D01*
X24867Y-23592D01*
X25064Y-23760D02*
X25054Y-23770D01*
X25026Y-23779D01*
X25007Y-23779D01*
X24979Y-23770D01*
X24960Y-23751D01*
X24951Y-23732D01*
X24942Y-23695D01*
X24942Y-23667D01*
X24951Y-23629D01*
X24960Y-23610D01*
X24979Y-23592D01*
X25007Y-23582D01*
X25026Y-23582D01*
X25054Y-23592D01*
X25064Y-23601D01*
X25186Y-23582D02*
X25223Y-23582D01*
X25242Y-23592D01*
X25261Y-23610D01*
X25270Y-23648D01*
X25270Y-23714D01*
X25261Y-23751D01*
X25242Y-23770D01*
X25223Y-23779D01*
X25186Y-23779D01*
X25167Y-23770D01*
X25148Y-23751D01*
X25139Y-23714D01*
X25139Y-23648D01*
X25148Y-23610D01*
X25167Y-23592D01*
X25186Y-23582D01*
X25354Y-23779D02*
X25354Y-23582D01*
X25420Y-23723D01*
X25486Y-23582D01*
X25486Y-23779D01*
X25570Y-23723D02*
X25664Y-23723D01*
X25551Y-23779D02*
X25617Y-23582D01*
X25683Y-23779D01*
G54D13*
X21628Y-23821D02*
X21628Y-23521D01*
X21700Y-23521D01*
X21742Y-23535D01*
X21771Y-23564D01*
X21785Y-23592D01*
X21800Y-23650D01*
X21800Y-23692D01*
X21785Y-23750D01*
X21771Y-23778D01*
X21742Y-23807D01*
X21700Y-23821D01*
X21628Y-23821D01*
X22085Y-23821D02*
X21914Y-23821D01*
X22000Y-23821D02*
X22000Y-23521D01*
X21971Y-23564D01*
X21942Y-23592D01*
X21914Y-23607D01*
G54D12*
X18916Y-23432D02*
X19029Y-23432D01*
X18973Y-23629D02*
X18973Y-23432D01*
X19066Y-23432D02*
X19132Y-23629D01*
X19198Y-23432D01*
X19254Y-23620D02*
X19282Y-23629D01*
X19329Y-23629D01*
X19348Y-23620D01*
X19357Y-23610D01*
X19367Y-23592D01*
X19367Y-23573D01*
X19357Y-23554D01*
X19348Y-23545D01*
X19329Y-23535D01*
X19292Y-23526D01*
X19273Y-23517D01*
X19263Y-23507D01*
X19254Y-23489D01*
X19254Y-23470D01*
X19263Y-23451D01*
X19273Y-23442D01*
X19292Y-23432D01*
X19338Y-23432D01*
X19367Y-23442D01*
X19564Y-23610D02*
X19554Y-23620D01*
X19526Y-23629D01*
X19507Y-23629D01*
X19479Y-23620D01*
X19460Y-23601D01*
X19451Y-23582D01*
X19442Y-23545D01*
X19442Y-23517D01*
X19451Y-23479D01*
X19460Y-23460D01*
X19479Y-23442D01*
X19507Y-23432D01*
X19526Y-23432D01*
X19554Y-23442D01*
X19564Y-23451D01*
X19686Y-23432D02*
X19723Y-23432D01*
X19742Y-23442D01*
X19761Y-23460D01*
X19770Y-23498D01*
X19770Y-23564D01*
X19761Y-23601D01*
X19742Y-23620D01*
X19723Y-23629D01*
X19686Y-23629D01*
X19667Y-23620D01*
X19648Y-23601D01*
X19639Y-23564D01*
X19639Y-23498D01*
X19648Y-23460D01*
X19667Y-23442D01*
X19686Y-23432D01*
X19854Y-23629D02*
X19854Y-23432D01*
X19920Y-23573D01*
X19986Y-23432D01*
X19986Y-23629D01*
X20070Y-23573D02*
X20164Y-23573D01*
X20051Y-23629D02*
X20117Y-23432D01*
X20183Y-23629D01*
M02*
